<svg xmlns="http://www.w3.org/2000/svg" viewBox="0 0 437.95 575.17"><defs><style>.cls-1{fill:#d2ac57;}.cls-2{opacity:0.6;}.cls-3{font-size:24.52px;fill:#fff9e2;letter-spacing:0.02em;}.cls-15,.cls-28,.cls-3,.cls-31,.cls-34{font-family:CircularStd-Black, Circular Std;font-weight:800;}.cls-4{letter-spacing:0.03em;}.cls-5{letter-spacing:0.02em;}.cls-6{letter-spacing:0.03em;}.cls-7{letter-spacing:0.03em;}.cls-8{letter-spacing:0.03em;}.cls-9{letter-spacing:0.03em;}.cls-10{letter-spacing:0.03em;}.cls-11,.cls-15{fill:#0b3470;}.cls-12{fill:#5471e8;}.cls-13{fill:#f4f4f4;}.cls-14,.cls-31{fill:#677fbb;}.cls-15{font-size:20.95px;}.cls-16{letter-spacing:0em;}.cls-17{letter-spacing:0em;}.cls-18{letter-spacing:0em;}.cls-19{letter-spacing:0.01em;}.cls-20{letter-spacing:0em;}.cls-21{letter-spacing:0em;}.cls-22{letter-spacing:0.01em;}.cls-23{letter-spacing:0em;}.cls-24{letter-spacing:0em;}.cls-25{letter-spacing:0em;}.cls-26{letter-spacing:0em;}.cls-27{letter-spacing:0em;}.cls-28,.cls-31,.cls-34{font-size:21.95px;}.cls-28{fill:#fceeed;}.cls-29{letter-spacing:0em;}.cls-30{letter-spacing:0em;}.cls-32{letter-spacing:0.01em;}.cls-33{letter-spacing:0em;}.cls-34{fill:#fff;}</style></defs><g id="Capa_2" data-name="Capa 2"><g id="Capa_3" data-name="Capa 3"><rect class="cls-1" width="437.95" height="575.17" transform="translate(437.95 575.17) rotate(180)"/><text class="cls-3" transform="translate(37.86 71.66)">¿<tspan class="cls-4" x="13.27" y="0">QUÉ SE DEBE </tspan><tspan class="cls-5" x="182.36" y="0">C</tspan><tspan class="cls-6" x="201.89" y="0">ONSIDE</tspan><tspan class="cls-7" x="299.71" y="0">R</tspan><tspan class="cls-8" x="315.83" y="0">AR </tspan><tspan class="cls-4"><tspan x="72.96" y="29.43">EN UN EM</tspan><tspan class="cls-9" x="197.96" y="29.43">P</tspan><tspan class="cls-6" x="213.61" y="29.43">L</tspan><tspan class="cls-10" x="228.23" y="29.43">E</tspan><tspan class="cls-6" x="243.23" y="29.43">O? </tspan></tspan></text><circle class="cls-11" cx="223.32" cy="265.62" r="120.62"/><circle class="cls-12" cx="223.32" cy="287.69" r="98.56"/><circle class="cls-13" cx="223.32" cy="335.93" r="50.32"/><circle class="cls-14" cx="223.32" cy="363.69" r="22.56"/><text class="cls-15" transform="translate(179 434.43)">El <tspan class="cls-16" x="23.36" y="0">s</tspan><tspan class="cls-17" x="33.03" y="0">u</tspan><tspan class="cls-18" x="45.5" y="0">eldo</tspan><tspan class="cls-12"><tspan class="cls-19" x="-12.44" y="25.14">L</tspan><tspan class="cls-18" x="-0.4" y="25.14">a emp</tspan><tspan class="cls-20" x="59.8" y="25.14">r</tspan><tspan x="68.22" y="25.14">e</tspan><tspan class="cls-20" x="79.93" y="25.14">s</tspan><tspan x="89.67" y="25.14">a</tspan></tspan><tspan class="cls-13"><tspan class="cls-21" x="-16.04" y="50.27">L</tspan><tspan class="cls-18" x="-4.09" y="50.27">os ho</tspan><tspan class="cls-22" x="48" y="50.27">r</tspan><tspan x="56.63" y="50.27">a</tspan><tspan class="cls-23" x="68.07" y="50.27">r</tspan><tspan class="cls-24" x="76.61" y="50.27">ios</tspan></tspan><tspan class="cls-14"><tspan class="cls-25" x="-51.08" y="75.41">T</tspan><tspan x="-37.86" y="75.41">iempo de </tspan><tspan class="cls-20" x="59.21" y="75.41">t</tspan><tspan class="cls-22" x="67.19" y="75.41">r</tspan><tspan x="75.82" y="75.41">as</tspan><tspan class="cls-26" x="97.02" y="75.41">l</tspan><tspan class="cls-27" x="102.9" y="75.41">a</tspan><tspan x="114.28" y="75.41">do</tspan></tspan></text><text class="cls-28" transform="translate(201.04 176.59)">42%</text><text class="cls-28" transform="translate(201.09 254.07)">3<tspan class="cls-29" x="12" y="0">4</tspan><tspan class="cls-30" x="25.32" y="0">%</tspan></text><text class="cls-31" transform="translate(202.75 326.39)"><tspan class="cls-32">1</tspan><tspan class="cls-33" x="9.46" y="0">8</tspan><tspan x="22.01" y="0">%</tspan></text><text class="cls-34" transform="translate(207.35 370.58)">6%</text></g></g></svg>