<svg xmlns="http://www.w3.org/2000/svg" viewBox="0 0 41.79 41.8"><defs><style>.cls-1{fill:#005470}</style></defs><g id="Capa_2" data-name="Capa 2"><g id="Capa_1-2" data-name="Capa 1"><path class="cls-1" d="M22.81 41.8H19a3 3 0 0 0-.57-.16 20.89 20.89 0 1 1 22.73-25.79c.26 1 .42 2.09.63 3.14v3.83c0 .19-.13.38-.16.57A20.9 20.9 0 0 1 26.2 41.1c-1.11.29-2.26.47-3.39.7ZM20.9 3.49a17.41 17.41 0 1 0 17.41 17.37A17.48 17.48 0 0 0 20.9 3.49Z"/><path class="cls-1" d="M19.22 17.46h3.42V19a12.63 12.63 0 0 1 2-1.28 3.4 3.4 0 0 1 4.78 2.68 28.77 28.77 0 0 1 .22 4.16v3.27h-3.52v-4.58a5.67 5.67 0 0 0-.21-1.54 1.54 1.54 0 0 0-2.91-.19 4.53 4.53 0 0 0-.34 1.59v4.71h-3.44ZM14 17.46h3.37v10.35H14ZM15.67 15.68A1.74 1.74 0 1 1 17.41 14a1.74 1.74 0 0 1-1.74 1.68Z"/></g></g></svg>