<svg xmlns="http://www.w3.org/2000/svg" viewBox="0 0 41.83 41.8"><defs><style>.cls-1{fill:#005470}</style></defs><g id="Capa_2" data-name="Capa 2"><g id="Capa_1-2" data-name="Capa 1"><g id="_17eJd3.tif" data-name="17eJd3.tif"><path class="cls-1" d="M23.2 41.8h-4.53a2.57 2.57 0 0 0-.47-.15 20.92 20.92 0 1 1 23-26c.26 1 .44 2 .66 3v4.52a4.5 4.5 0 0 0-.16.48 20.85 20.85 0 0 1-15.47 17.49c-1 .26-2.02.44-3.03.66Zm15.12-20.91a17.39 17.39 0 1 0-17.54 17.4 17.41 17.41 0 0 0 17.54-17.4Z"/><path class="cls-1" d="M20.86 31.27a47.41 47.41 0 0 1-4.77 0c-3.46-.36-5.23-2-5.47-5.51a68.92 68.92 0 0 1 0-9.64c.24-3.5 2-5.29 5.54-5.52a72.12 72.12 0 0 1 9.64 0c3.46.24 5.23 2 5.47 5.49a68.92 68.92 0 0 1 0 9.64c-.25 3.63-2.39 5.46-6.05 5.6-1.45.05-2.9 0-4.35 0ZM29.38 21h.06v-4.26c-.12-2.7-1.24-4.08-3.86-4.22-3.2-.16-6.43-.1-9.63.06a3.21 3.21 0 0 0-3.35 3.33c-.14 3.35-.14 6.71 0 10.06a3.19 3.19 0 0 0 3.29 3.3 95.48 95.48 0 0 0 9.72.06c2.49-.12 3.5-1.24 3.75-3.73a44.06 44.06 0 0 0 .02-4.6Z"/><path class="cls-1" d="M21 26.31a5.4 5.4 0 1 1 5.37-5.38A5.42 5.42 0 0 1 21 26.31Zm0-8.85a3.45 3.45 0 1 0 3.4 3.44 3.48 3.48 0 0 0-3.4-3.44ZM26.47 16.58a1.25 1.25 0 1 1 1.29-1.2 1.18 1.18 0 0 1-1.29 1.2Z"/></g></g></g></svg>