<svg xmlns="http://www.w3.org/2000/svg" viewBox="0 0 42.44 42.44"><defs><style>.cls-1{fill:#005470}</style></defs><g id="Capa_2" data-name="Capa 2"><g id="Capa_1-2" data-name="Capa 1"><path class="cls-1" d="M19.27 0h3.89a4.31 4.31 0 0 0 .59.16 21.23 21.23 0 0 1 18 15.67c.29 1.13.47 2.3.71 3.44v3.89a3.23 3.23 0 0 0-.16.59 21.23 21.23 0 0 1-15.68 18c-1.13.29-2.29.47-3.44.71h-3.91a2.94 2.94 0 0 0-.58-.16 21.23 21.23 0 0 1-18-15.67c-.3-1.14-.48-2.3-.71-3.45v-3.91a3.83 3.83 0 0 0 .16-.58A21.22 21.22 0 0 1 15.83.71C17 .41 18.13.23 19.27 0ZM38.9 21.29A17.68 17.68 0 1 0 21.1 38.9a17.74 17.74 0 0 0 17.8-17.61Z"/><path class="cls-1" d="M30.69 22.15a11.9 11.9 0 0 0-.52-3.91 5.57 5.57 0 0 0-1.39-2.35 2 2 0 0 0-2.91 0 4.41 4.41 0 0 0-1 1.33 9.22 9.22 0 0 0-.87 3.52 10.88 10.88 0 0 0 .58 4.63 4.72 4.72 0 0 0 1.53 2.27 1.92 1.92 0 0 0 2.46 0 4 4 0 0 0 1.19-1.51 9.33 9.33 0 0 0 .93-3.98Zm3-.45a20.33 20.33 0 0 0-.43-4.4 3.64 3.64 0 0 0-.33-1c-.1-.19-.2-.41-.44-.4s-.34.22-.44.41a2.28 2.28 0 0 0-.15.36 10.61 10.61 0 0 0-.47 2.5 23.58 23.58 0 0 0 .2 6.39 4.92 4.92 0 0 0 .42 1.4c.1.19.2.41.44.41s.34-.21.44-.4a3.59 3.59 0 0 0 .33-1 20.42 20.42 0 0 0 .47-4.27Z"/><path class="cls-1" d="M9.78 20.92a4 4 0 0 0 .17-.78 6.81 6.81 0 1 1-.08 2.63c0-.12 0-.25-.09-.35Z"/><path class="cls-1" d="M30.69 22.15a9.33 9.33 0 0 1-1 4 4 4 0 0 1-1.19 1.51 1.92 1.92 0 0 1-2.46 0 4.72 4.72 0 0 1-1.53-2.27 10.88 10.88 0 0 1-.51-4.65 9.22 9.22 0 0 1 .91-3.53 4.41 4.41 0 0 1 1-1.33 2 2 0 0 1 2.91 0 5.57 5.57 0 0 1 1.39 2.35 11.9 11.9 0 0 1 .48 3.92ZM33.73 21.7a20.42 20.42 0 0 1-.43 4.3 3.59 3.59 0 0 1-.3 1c-.1.19-.2.41-.44.4s-.34-.22-.44-.41a4.92 4.92 0 0 1-.42-1.4 23.58 23.58 0 0 1-.2-6.39 10.61 10.61 0 0 1 .47-2.5 2.28 2.28 0 0 1 .15-.36c.1-.19.2-.41.44-.41s.34.21.44.4a3.64 3.64 0 0 1 .33 1 20.33 20.33 0 0 1 .4 4.37Z"/></g></g></svg>