<svg xmlns="http://www.w3.org/2000/svg" viewBox="0 0 42.44 42.44"><defs><style>.cls-1{fill:#005470}</style></defs><g id="Capa_2" data-name="Capa 2"><g id="Capa_1-2" data-name="Capa 1"><g id="My4rmA.tif"><path class="cls-1" d="M19.27 0h3.89a4.31 4.31 0 0 0 .59.16 21.22 21.22 0 0 1 17.81 15.08c.37 1.32.59 2.69.88 4v3.89a3.23 3.23 0 0 0-.16.59 21.23 21.23 0 0 1-15.68 18c-1.13.29-2.29.47-3.44.71h-3.89a2.94 2.94 0 0 0-.58-.16 21.23 21.23 0 0 1-18-15.67c-.3-1.14-.48-2.3-.71-3.45v-3.88a3.83 3.83 0 0 0 .16-.58A21.22 21.22 0 0 1 15.83.71C17 .41 18.13.23 19.27 0ZM38.9 21.28A17.68 17.68 0 1 0 21.11 38.9 17.74 17.74 0 0 0 38.9 21.28Z"/><path class="cls-1" d="m32.07 14.14-1.49 2 2-.47a4.85 4.85 0 0 1-.77.91c-1.19.76-1.31 1.91-1.43 3.17a12.12 12.12 0 0 1-9.14 10.59 11.81 11.81 0 0 1-9.4-1.44 9.33 9.33 0 0 0 5.81-1.78 12.5 12.5 0 0 1-2.27-1.07 12.8 12.8 0 0 1-1.7-2l1.75-.05a4.85 4.85 0 0 1-3.08-4.29l1.56.4c-1.5-1.74-2-3.56-.94-5.76a12.43 12.43 0 0 0 8.92 4.49 4.57 4.57 0 0 1 1.22-4 4.11 4.11 0 0 1 5.47-.51 1.89 1.89 0 0 0 2.08.22c.41-.16.81-.34 1.21-.52Z"/></g></g></g></svg>