<svg xmlns="http://www.w3.org/2000/svg" xmlns:xlink="http://www.w3.org/1999/xlink" viewBox="0 0 146.15 119.43"><defs><style>.cls-1{fill:#0b3470;}.cls-2{fill:#5471e8;}.cls-3{fill:url(#Degradado_sin_nombre_8);}.cls-4{fill:url(#Degradado_sin_nombre_8-2);}.cls-5{fill:url(#Degradado_sin_nombre_8-3);}</style><linearGradient id="Degradado_sin_nombre_8" x1="41.88" y1="24.34" x2="53.37" y2="24.34" gradientUnits="userSpaceOnUse"><stop offset="0" stop-color="#31dcc7"/><stop offset="1" stop-color="#31dc9e"/></linearGradient><linearGradient id="Degradado_sin_nombre_8-2" x1="59.33" y1="33.64" x2="73.6" y2="33.64" xlink:href="#Degradado_sin_nombre_8"/><linearGradient id="Degradado_sin_nombre_8-3" x1="47.58" y1="48.33" x2="85.8" y2="48.33" xlink:href="#Degradado_sin_nombre_8"/></defs><title>baiwa_landing</title><g id="Capa_2" data-name="Capa 2"><g id="Capa_1-2" data-name="Capa 1"><path class="cls-1" d="M13.8,119.38C6,119.38,0,113.09,0,104.93V79.09H4.37V95.23a12.16,12.16,0,0,1,9.49-4.63c7.62,0,13.69,6.13,13.69,14.33S21.37,119.38,13.8,119.38Zm0-24.63c-5.06,0-9.27,4.53-9.27,10.18s4.26,10.29,9.27,10.29S23,110.74,23,104.93,18.87,94.75,13.8,94.75Z"/><path class="cls-1" d="M58.31,118.74H53.94v-4.27a11.68,11.68,0,0,1-9.49,5c-7.56,0-13.69-6.18-13.69-14.39S36.94,90.6,44.56,90.6c7.78,0,13.75,6.34,13.75,14.44Zm-13.75-24c-5.12,0-9.27,4.53-9.27,10.29s4.15,10.18,9.27,10.18,9.27-4.53,9.27-10.18S49.57,94.75,44.56,94.75Z"/><path class="cls-1" d="M64.71,87.13V83.72a2.27,2.27,0,0,1,4.53,0v3.41Zm4.53,31.61H64.71V91.29h4.53Z"/><path class="cls-1" d="M113.69,108.88a10.13,10.13,0,0,1-10.5,10.5,9.16,9.16,0,0,1-8.26-4.53,9,9,0,0,1-8.21,4.53,10.17,10.17,0,0,1-10.5-10.5V91.29h4.53v17.59a6,6,0,1,0,11.94,0V91.29h4.53v17.59a6,6,0,1,0,11.94,0V91.29h4.53Z"/><path class="cls-1" d="M146.15,118.74h-4.37v-4.27a11.68,11.68,0,0,1-9.49,5c-7.56,0-13.69-6.18-13.69-14.39s6.18-14.44,13.8-14.44c7.78,0,13.75,6.34,13.75,14.44Zm-13.75-24c-5.12,0-9.27,4.53-9.27,10.29s4.15,10.18,9.27,10.18,9.27-4.53,9.27-10.18S137.41,94.75,132.4,94.75Z"/><path class="cls-2" d="M90.06,33.15A24.11,24.11,0,0,0,66,9.06a4.94,4.94,0,0,0,0,9.87A14.21,14.21,0,0,1,78.73,39.42l7.07,7.39A23.92,23.92,0,0,0,90.06,33.15Z"/><path class="cls-3" d="M51.75,33.15V4.94a4.94,4.94,0,1,0-9.87,0V33.15a24,24,0,0,0,5.7,15.53l5.79-9A14.17,14.17,0,0,1,51.75,33.15Z"/><path class="cls-2" d="M93.56,61.86a4.94,4.94,0,1,0-7-7,28.53,28.53,0,0,1-40.3-.14,4.94,4.94,0,1,0-7,7A38.41,38.41,0,0,0,93.56,61.86Z"/><circle class="cls-4" cx="66.46" cy="33.64" r="7.14"/><path class="cls-5" d="M66,57.24A24.09,24.09,0,0,0,85.8,46.81l-7.07-7.39a14.21,14.21,0,0,1-25.36.31l-5.79,9A24,24,0,0,0,66,57.24Z"/></g></g></svg>