<svg xmlns="http://www.w3.org/2000/svg" viewBox="0 0 40.19 40.19"><defs><style>.cls-1{fill:#113339;}</style></defs><g id="Capa_2" data-name="Capa 2"><g id="Capa_1-2" data-name="Capa 1"><path class="cls-1" d="M18.25,0h3.69a3.44,3.44,0,0,0,.55.15A20.11,20.11,0,0,1,39.52,15c.28,1.07.45,2.18.67,3.26v3.69a3.44,3.44,0,0,0-.15.55,20.11,20.11,0,0,1-14.85,17c-1.07.28-2.17.45-3.25.67H18.25A3.44,3.44,0,0,0,17.7,40,20.11,20.11,0,0,1,.67,25.2C.39,24.12.22,23,0,21.94V18.25a3.44,3.44,0,0,0,.15-.55A20.11,20.11,0,0,1,15,.67C16.07.39,17.17.22,18.25,0ZM36.84,20.17A16.75,16.75,0,1,0,20,36.84,16.81,16.81,0,0,0,36.84,20.17Z"/><path class="cls-1" d="M25.09,10.08v4.15c-.78,0-1.52,0-2.27,0s-1.07.33-1.05,1.06c0,.44,0,.89,0,1.43h3.34l-.3,3.37h-3v10h-5v-10H13.44V16.77h3.31c0-1,0-1.91,0-2.82,0-2.42,1.17-3.7,3.58-3.85C21.88,10,23.44,10.08,25.09,10.08Z"/></g></g></svg>