<svg xmlns="http://www.w3.org/2000/svg" viewBox="0 0 32.33 32.33"><defs><style>.cls-1{fill:#e6e6e6;}.cls-2{fill:#b3b3b3;}</style></defs><title>icon-ig</title><g id="Capa_2" data-name="Capa 2"><g id="Capa_1-2" data-name="Capa 1"><rect class="cls-1" width="32.33" height="32.33" rx="16.17"/><path class="cls-2" d="M25.79,12.29A6.76,6.76,0,0,0,25.35,10a4.69,4.69,0,0,0-1.09-1.68,4.63,4.63,0,0,0-1.67-1.08,6.81,6.81,0,0,0-2.28-.44c-1,0-1.33-.06-3.89-.06s-2.88,0-3.88.06a6.85,6.85,0,0,0-2.29.43A4.65,4.65,0,0,0,8.58,8.33,4.83,4.83,0,0,0,7.49,10a7.14,7.14,0,0,0-.44,2.29c0,1,0,1.33,0,3.89s0,2.87,0,3.88a6.88,6.88,0,0,0,.44,2.29A4.65,4.65,0,0,0,8.58,24a4.5,4.5,0,0,0,1.67,1.08,6.57,6.57,0,0,0,2.28.44c1,.05,1.33.06,3.89.06s2.88,0,3.88-.06a6.63,6.63,0,0,0,2.29-.44,4.83,4.83,0,0,0,2.75-2.75,6.63,6.63,0,0,0,.44-2.29c0-1,.06-1.33.06-3.88S25.83,13.3,25.79,12.29ZM24.09,20a5.08,5.08,0,0,1-.32,1.74A3.1,3.1,0,0,1,22,23.52a5.09,5.09,0,0,1-1.75.33c-1,0-1.29,0-3.81,0s-2.81,0-3.8,0a5.09,5.09,0,0,1-1.75-.33,2.88,2.88,0,0,1-1.08-.7,2.79,2.79,0,0,1-.71-1.08A5.15,5.15,0,0,1,8.76,20c0-1-.06-1.29-.06-3.81s0-2.81.06-3.8a5.15,5.15,0,0,1,.32-1.75,2.79,2.79,0,0,1,.71-1.08,2.79,2.79,0,0,1,1.08-.71,5.15,5.15,0,0,1,1.75-.32c1,0,1.29-.06,3.81-.06s2.81,0,3.8.06A5.15,5.15,0,0,1,22,8.84a3.12,3.12,0,0,1,1.79,1.79,5.15,5.15,0,0,1,.32,1.75c.05,1,.06,1.29.06,3.8S24.14,19,24.09,20Z"/><path class="cls-2" d="M16.42,11.33a4.85,4.85,0,1,0,4.84,4.85A4.85,4.85,0,0,0,16.42,11.33Zm0,8a3.14,3.14,0,1,1,3.14-3.14A3.15,3.15,0,0,1,16.42,19.32Z"/><path class="cls-2" d="M22.58,11.14a1.13,1.13,0,0,1-2.26,0,1.13,1.13,0,1,1,2.26,0Z"/></g></g></svg>