<svg xmlns="http://www.w3.org/2000/svg" viewBox="0 0 39.61 39.59"><defs><style>.cls-1{fill:#113339;}</style></defs><g id="Capa_2" data-name="Capa 2"><g id="Capa_1-2" data-name="Capa 1"><path class="cls-1" d="M22,39.59H17.69a2.74,2.74,0,0,0-.46-.15A19.81,19.81,0,1,1,39,14.79c.24.94.42,1.91.62,2.87V22a2.35,2.35,0,0,0-.14.45A19.76,19.76,0,0,1,24.84,39C23.9,39.21,22.93,39.38,22,39.59ZM36.29,19.78A16.47,16.47,0,1,0,19.68,36.26,16.49,16.49,0,0,0,36.29,19.78Z"/><path class="cls-1" d="M29.84,15.21c-.23-3.41-2-5.18-5.4-5.42a68.28,68.28,0,0,0-9.16,0c-3.45.23-5.23,2-5.47,5.45a66.67,66.67,0,0,0,0,9.16c.23,3.35,1.94,5.08,5.39,5.44a23.54,23.54,0,0,0,3.14.05l1.17,0v.05h2.81c.52,0,1,0,1.55,0,3.66-.14,5.72-2,6-5.53A66.67,66.67,0,0,0,29.84,15.21Zm-2.23,6a24.7,24.7,0,0,1-.05,3c-.23,2.27-1.16,3.2-3.33,3.31a91.51,91.51,0,0,1-9.18-.05,2.81,2.81,0,0,1-2.89-2.9c-.13-3.19-.13-6.39,0-9.51a2.82,2.82,0,0,1,2.94-2.93C17,12,18.76,12,20.41,12c1.33,0,2.59,0,3.79.09,2.3.12,3.32,1.24,3.43,3.77,0,.92,0,1.86,0,2.76,0,.34,0,.68,0,1h-.05v.24C27.59,20.32,27.6,20.78,27.61,21.23Z"/><path class="cls-1" d="M19.83,14.45h0a5.35,5.35,0,0,0,0,10.7h0A5.34,5.34,0,0,0,23.6,16,5.3,5.3,0,0,0,19.83,14.45Zm0,8.38a2.94,2.94,0,0,1-2.13-.92,3,3,0,0,1-.86-2.18,3,3,0,0,1,3-3h0a3.08,3.08,0,0,1,3,3,3,3,0,0,1-.9,2.14A3,3,0,0,1,19.79,22.83Z"/><path class="cls-1" d="M25.15,13.11a1.34,1.34,0,0,0-1.46,1.37,1.41,1.41,0,0,0,.37,1,1.39,1.39,0,0,0,1,.41h.05a1.4,1.4,0,0,0,1-.36,1.38,1.38,0,0,0,.42-1A1.34,1.34,0,0,0,25.15,13.11Z"/></g></g></svg>