<svg xmlns="http://www.w3.org/2000/svg" xmlns:xlink="http://www.w3.org/1999/xlink" viewBox="0 0 1178.93 486.96"><defs><style>.cls-1{isolation:isolate;}.cls-2,.cls-3,.cls-4,.cls-5,.cls-6{fill:none;stroke-miterlimit:10;}.cls-2,.cls-3,.cls-4,.cls-5{stroke-linecap:round;mix-blend-mode:multiply;}.cls-2,.cls-3,.cls-4{stroke-width:50px;}.cls-2{stroke:url(#Degradado_sin_nombre_8);}.cls-3{stroke:url(#Degradado_sin_nombre_8-2);}.cls-4{stroke:url(#Degradado_sin_nombre_8-3);}.cls-5{stroke:#5471e8;stroke-width:50.42px;}.cls-6{stroke:#f2f2f2;stroke-width:8px;}</style><linearGradient id="Degradado_sin_nombre_8" x1="2.94" y1="25" x2="340.3" y2="25" gradientUnits="userSpaceOnUse"><stop offset="0" stop-color="#31dcc7"/><stop offset="1" stop-color="#31dc9e"/></linearGradient><linearGradient id="Degradado_sin_nombre_8-2" x1="288.19" y1="182.25" x2="382.1" y2="182.25" xlink:href="#Degradado_sin_nombre_8"/><linearGradient id="Degradado_sin_nombre_8-3" x1="185.36" y1="395.26" x2="381.21" y2="395.26" xlink:href="#Degradado_sin_nombre_8"/></defs><title>lineacruzada</title><g class="cls-1"><g id="Capa_2" data-name="Capa 2"><g id="Capa_1-2" data-name="Capa 1"><line class="cls-2" x1="27.94" y1="25" x2="315.3" y2="25"/><path class="cls-3" d="M313.19,26.17c24.25,0,43.91,15.72,43.91,35.11V338.34"/><path class="cls-4" d="M277.06,328.56h79.15a0,0,0,0,1,0,0v66.7a66.7,66.7,0,0,1-66.7,66.7H277.06a66.7,66.7,0,0,1-66.7-66.7v0A66.7,66.7,0,0,1,277.06,328.56Z"/><line class="cls-5" x1="352.94" y1="332.67" x2="1153.72" y2="332.67"/><circle class="cls-6" cx="315.32" cy="25.32" r="20.71"/><circle class="cls-6" cx="353.51" cy="332.42" r="20.71"/><circle class="cls-6" cx="24.71" cy="25.32" r="20.71"/></g></g></g></svg>