<svg xmlns="http://www.w3.org/2000/svg" viewBox="0 0 138 32.49"><defs><style>.cls-1{font-size:6.31px;}.cls-1,.cls-6{fill:#0b3470;}.cls-1,.cls-5{font-family:CircularStd-Black, CircularStd Black;font-weight:800;}.cls-2{fill:none;stroke:#f9f8f9;stroke-miterlimit:10;stroke-width:0.74px;}.cls-3{fill:#f9f8f9;}.cls-4{fill:#fff;}.cls-5{font-size:6.91px;fill:#31dc9e;}</style></defs><title>nucleusdolar</title><g id="Capa_2" data-name="Capa 2"><g id="Capa_1-2" data-name="Capa 1"><text class="cls-1" transform="translate(32.15 18.93)">$13.01</text><text class="cls-1" transform="translate(82.64 18.93)">$1 dólar</text><line class="cls-2" x1="31.6" y1="2.42" x2="94.4" y2="2.42"/><polygon class="cls-3" points="92.44 4.85 92.03 4.41 94.17 2.42 92.03 0.43 92.44 0 95.05 2.42 92.44 4.85"/><line class="cls-2" x1="95.04" y1="30.07" x2="32.24" y2="30.07"/><polygon class="cls-3" points="34.2 27.65 34.61 28.08 32.47 30.07 34.61 32.06 34.2 32.49 31.6 30.07 34.2 27.65"/><circle class="cls-4" cx="64.79" cy="17.08" r="5.81"/><text class="cls-5" transform="translate(62.73 19.11)">=</text><path class="cls-6" d="M16.53,20.58a.93.93,0,1,1,1.06-.92.49.49,0,0,0,1,0A1.93,1.93,0,0,0,17,17.82v-.25a.48.48,0,0,0-1,0v.25a1.93,1.93,0,0,0-1.55,1.84,2,2,0,0,0,2,1.88.93.93,0,1,1-1.06.92.49.49,0,0,0-1,0,1.93,1.93,0,0,0,1.55,1.84v.2a.48.48,0,1,0,1,0v-.2a1.93,1.93,0,0,0,1.55-1.84A2,2,0,0,0,16.53,20.58Z"/><path class="cls-6" d="M21.82,17.7a6.36,6.36,0,0,0-2.57-2.28.49.49,0,0,0-.42.88,5.31,5.31,0,0,1,2.4,7.28.48.48,0,0,0,.2.66.44.44,0,0,0,.22.05.47.47,0,0,0,.43-.25,6.25,6.25,0,0,0-.26-6.34Z"/><path class="cls-6" d="M17.29,14.81h0a.48.48,0,1,0,0,1h0a.48.48,0,1,0,0-1Z"/><path class="cls-6" d="M14.23,25.89a5.32,5.32,0,0,1-2.4-7.29.48.48,0,0,0-.2-.66.49.49,0,0,0-.65.2,6.31,6.31,0,0,0,.26,6.34,6.36,6.36,0,0,0,2.57,2.28.52.52,0,0,0,.21,0,.5.5,0,0,0,.44-.27A.48.48,0,0,0,14.23,25.89Z"/><path class="cls-6" d="M15.81,26.41h0a.48.48,0,1,0,0,1h0a.48.48,0,1,0,0-1Z"/><path class="cls-6" d="M18.73,13.17a1.87,1.87,0,0,0-.22-.39h1.26a2.23,2.23,0,0,0,0-4.45H15.9a2.19,2.19,0,0,0,.39-1.26,2.23,2.23,0,0,0-2.22-2.22H2.22a2.23,2.23,0,0,0,0,4.45H6.09a2.23,2.23,0,0,0-.39,1.25,2.26,2.26,0,0,0,.39,1.26H4.83A2.23,2.23,0,0,0,2.61,14a2.21,2.21,0,0,0,.84,1.74,2.24,2.24,0,0,0-.84,1.74,2.21,2.21,0,0,0,.84,1.74A2.24,2.24,0,0,0,2.61,21a2.21,2.21,0,0,0,.84,1.74,2.23,2.23,0,0,0,1.38,4h5.7a8.22,8.22,0,1,0,8.2-13.53Zm1-3.87a1.26,1.26,0,1,1,0,2.51H7.93a1.26,1.26,0,1,1,0-2.51Zm-17.55-1a1.26,1.26,0,0,1,0-2.51H14.07a1.26,1.26,0,0,1,0,2.51Zm2.61,4.45H16.68a1.22,1.22,0,0,1,.54.12c-.22,0-.46,0-.69,0a8.18,8.18,0,0,0-5.81,2.42H4.83a1.26,1.26,0,0,1,0-2.51Zm0,3.48H9.89a8.18,8.18,0,0,0-1.24,2.51H4.83a1.26,1.26,0,0,1,0-2.51Zm0,3.48h3.6a7.59,7.59,0,0,0,0,2.51H4.83a1.26,1.26,0,0,1,0-2.51Zm0,6a1.26,1.26,0,0,1,0-2.51H8.59a8.33,8.33,0,0,0,1.16,2.51Zm11.7,2.61a7.25,7.25,0,1,1,7.25-7.25A7.26,7.26,0,0,1,16.53,28.34Z"/><path class="cls-6" d="M135.4,13.28h0a.9.9,0,0,1-.88-.9.47.47,0,0,0-.47-.47h-19.6a.46.46,0,0,0-.46.48.89.89,0,0,1-.89.89.47.47,0,0,0-.47.47V20.4a.48.48,0,0,0,.47.48h0a.88.88,0,0,1,.89.88.49.49,0,0,0,.48.48H134a.49.49,0,0,0,.48-.48.87.87,0,0,1,.88-.88.49.49,0,0,0,.48-.48V13.75A.48.48,0,0,0,135.4,13.28Zm-20.53,8a1.84,1.84,0,0,0-1.3-1.3V14.16a1.82,1.82,0,0,0,1.3-1.3h6.43A5.24,5.24,0,0,0,120,14.13a5.14,5.14,0,0,0,1.26,7.16ZM121.28,20a4.18,4.18,0,0,1,5.92-5.91h0a4.17,4.17,0,0,1,1.22,3,4.18,4.18,0,0,1-7.14,3Zm13.63,0a1.87,1.87,0,0,0-1.3,1.3h-6.42a5.13,5.13,0,0,0,0-8.42h6.42a1.89,1.89,0,0,0,1.3,1.3V20Z"/><path class="cls-6" d="M125.86,17.08a3,3,0,0,0-1.14-.42V15.13a2.15,2.15,0,0,1,.5.12,2.73,2.73,0,0,0,.56.15c.27,0,.41-.15.41-.44s-.11-.27-.32-.38a3.59,3.59,0,0,0-1.15-.28v-.55a.48.48,0,0,0-1,0v.59a2.35,2.35,0,0,0-1,.43,1.45,1.45,0,0,0-.64,1.2,1.18,1.18,0,0,0,.42.93,2.16,2.16,0,0,0,.48.24,3,3,0,0,0,.51.14l.18,0V19a3.77,3.77,0,0,1-.58-.14,4.72,4.72,0,0,0-.67-.19c-.27,0-.41.17-.41.51,0,.18.22.34.68.49a4.74,4.74,0,0,0,1,.2v.55a.48.48,0,1,0,1,0v-.57a2.27,2.27,0,0,0,1.06-.41,1.49,1.49,0,0,0,.6-1.25A1.22,1.22,0,0,0,125.86,17.08Zm-2.09-.57-.31-.08a.61.61,0,0,1-.28-.19.44.44,0,0,1-.08-.29.72.72,0,0,1,.34-.61,1.26,1.26,0,0,1,.33-.16v1.33Zm1.69,1.71a.67.67,0,0,1-.35.59,1.36,1.36,0,0,1-.39.17V17.5a1.72,1.72,0,0,1,.43.16A.58.58,0,0,1,125.46,18.22Z"/><path class="cls-6" d="M135.56,9.86H112.93a2.44,2.44,0,0,0-2.44,2.44v9.56a2.45,2.45,0,0,0,2.44,2.44h22.63A2.45,2.45,0,0,0,138,21.86V12.3A2.44,2.44,0,0,0,135.56,9.86Zm1.48,12a1.49,1.49,0,0,1-1.48,1.48H112.93a1.49,1.49,0,0,1-1.48-1.48V12.3a1.48,1.48,0,0,1,1.48-1.48h22.63A1.48,1.48,0,0,1,137,12.3v9.56Z"/></g></g></svg>