<svg xmlns="http://www.w3.org/2000/svg" viewBox="0 0 35.59 35.65"><defs><style>.cls-1{fill:#0b3470;}</style></defs><title>recoleccion3</title><g id="Capa_2" data-name="Capa 2"><g id="Capa_1-2" data-name="Capa 1"><path class="cls-1" d="M3.59,10.15l4.74,0a.6.6,0,0,0,.6-.59V7.76H7.73V9H4.18V5.4H6V4.21H3.57A.59.59,0,0,0,3,4.81L3,9.56A.59.59,0,0,0,3.59,10.15Z"/><path class="cls-1" d="M6,6.93l-.77-.77L4.35,7,5.54,8.19a.59.59,0,0,0,.84,0L9.92,4.61l-.84-.83Z"/><path class="cls-1" d="M7.76,16.65l-3.55,0,0-3.56H6V11.92H3.6a.58.58,0,0,0-.59.59v4.74a.59.59,0,0,0,.6.59H8.36a.59.59,0,0,0,.59-.6V15.46H7.76Z"/><path class="cls-1" d="M6,14.64l-.77-.77-.84.84L5.56,15.9a.63.63,0,0,0,.42.17.56.56,0,0,0,.42-.18L10,12.32l-.84-.83Z"/><path class="cls-1" d="M8.37,19.62H3.63a.6.6,0,0,0-.6.6l0,4.74a.59.59,0,0,0,.6.59H8.39A.6.6,0,0,0,9,25l0-4.74A.58.58,0,0,0,8.37,19.62Zm-.58,4.74H4.23V20.82l3.56,0Z"/><path class="cls-1" d="M8.4,27.32l-4.75,0a.6.6,0,0,0-.59.6l0,4.74a.59.59,0,0,0,.59.59l4.75,0A.59.59,0,0,0,9,32.66l0-4.74A.6.6,0,0,0,8.4,27.32Zm-.58,4.75H4.26V28.53l3.56,0Z"/><path class="cls-1" d="M33,1.92a.58.58,0,0,0-.83,0L28.48,5.66,23,.17A.59.59,0,0,0,22.53,0L.59.08A.59.59,0,0,0,0,.67L.12,35.06a.59.59,0,0,0,.6.59l27.86-.1a.59.59,0,0,0,.6-.59l-.09-23.47,6.33-6.37a.59.59,0,0,0,0-.84ZM28,34.37l-26.68.09L1.19,1.26l21.1-.07,4.76,4.72-3.91,0V3H22V6.52a.58.58,0,0,0,.59.59h4.5L13.29,21a.59.59,0,0,0-.14.23L12,24.75a.6.6,0,0,0,.15.61.61.61,0,0,0,.42.17.63.63,0,0,0,.19,0l3.55-1.2a.59.59,0,0,0,.23-.14l11.4-11.48ZM14,22.47l1,1L13.47,24Zm2.12.43-1.54-1.53L32.62,3.17,34.16,4.7Z"/><path class="cls-1" d="M25.61,32h1.18v1.19H25.61Z"/><path class="cls-1" d="M23.24,32h1.18V33.2H23.24Z"/><path class="cls-1" d="M20.86,32h1.19v1.19H20.87Z"/></g></g></svg>