<svg xmlns="http://www.w3.org/2000/svg" viewBox="0 0 40.05 40.05"><defs><style>.cls-1{fill:#113339;}</style></defs><g id="Capa_2" data-name="Capa 2"><g id="Capa_1-2" data-name="Capa 1"><path class="cls-1" d="M34.18,5.87a20,20,0,1,0,0,28.31A20,20,0,0,0,34.18,5.87Zm-.83,25.46a20.48,20.48,0,0,0-3-2.22,32.23,32.23,0,0,0,1.2-7.81h5.89a17.35,17.35,0,0,1-4.1,10ZM2.6,21.3H8.49A32.23,32.23,0,0,0,9.7,29.11a19.46,19.46,0,0,0-3,2.22A17.29,17.29,0,0,1,2.6,21.3ZM6.71,8.72a19.46,19.46,0,0,0,3,2.22,32.38,32.38,0,0,0-1.21,7.81H2.6A17.29,17.29,0,0,1,6.71,8.72Zm12,2.48A17.28,17.28,0,0,1,12.8,9.69c1.08-2.78,3.08-6.12,5.95-6.95Zm0,2.56v5H11a30,30,0,0,1,1-6.61A20.05,20.05,0,0,0,18.75,13.76Zm0,7.54v5A19.83,19.83,0,0,0,12,27.92a30.18,30.18,0,0,1-1-6.62Zm0,7.55v8.46c-2.87-.83-4.87-4.17-5.95-7A17.28,17.28,0,0,1,18.75,28.85Zm2.55,0a17.28,17.28,0,0,1,5.95,1.51c-1.08,2.78-3.08,6.12-5.95,7Zm0-2.56v-5H29a30.18,30.18,0,0,1-1,6.62,19.77,19.77,0,0,0-6.74-1.63Zm0-7.54v-5A20,20,0,0,0,28,12.14a30,30,0,0,1,1,6.61Zm0-7.55V2.74c2.87.83,4.87,4.17,5.95,7A17.28,17.28,0,0,1,21.3,11.2ZM27,4A17.61,17.61,0,0,1,31.56,6.9,18.27,18.27,0,0,1,29.5,8.46,19,19,0,0,0,27,4ZM10.55,8.46A18.16,18.16,0,0,1,8.5,6.9,17.55,17.55,0,0,1,13,4a19.33,19.33,0,0,0-2.47,4.45Zm0,23.13A19.33,19.33,0,0,0,13,36,17.55,17.55,0,0,1,8.5,33.15,18.16,18.16,0,0,1,10.55,31.59Zm19,0a18.27,18.27,0,0,1,2.06,1.56A17.61,17.61,0,0,1,27,36a19,19,0,0,0,2.47-4.45Zm2.06-12.84a32.39,32.39,0,0,0-1.2-7.81,20.48,20.48,0,0,0,3-2.22,17.35,17.35,0,0,1,4.1,10Z"/></g></g></svg>