<svg xmlns="http://www.w3.org/2000/svg" viewBox="0 0 41.61 16.55"><defs><style>.cls-1{fill:#0081c7;}.cls-2{fill:#6db23f;}</style></defs><title>sysco</title><g id="Capa_2" data-name="Capa 2"><g id="Capa_1-2" data-name="Capa 1"><path class="cls-1" d="M0,3.72l0-.1A3.5,3.5,0,0,1,1.25,1.05,4.07,4.07,0,0,1,2.81.25,5.47,5.47,0,0,1,4.31,0C4.68,0,5,0,5.41,0a9.5,9.5,0,0,1,2.3.41.13.13,0,0,1,.11.15h0V2c0,.19,0,.37,0,.58l-.08,0a7.56,7.56,0,0,0-1.87-.48,8.26,8.26,0,0,0-1-.08,2.41,2.41,0,0,0-1.38.39A1.53,1.53,0,0,0,2.8,3.48a2.41,2.41,0,0,0,0,.71,1.15,1.15,0,0,0,.49.68,5.64,5.64,0,0,0,1.25.63c.64.27,1.3.52,1.93.81a3.81,3.81,0,0,1,1.29.92,3.23,3.23,0,0,1,.76,1.55A4.24,4.24,0,0,1,8.59,10a3.5,3.5,0,0,1-.71,2,3.66,3.66,0,0,1-1,.88,5.54,5.54,0,0,1-1.73.59c-.35,0-.7.08-1.06.11s-.47,0-.71,0a9.49,9.49,0,0,1-1.91-.23L.33,13s-.11,0-.11-.11V10.75s0,0,0-.06l.39.18a7.07,7.07,0,0,0,1.74.5,7.47,7.47,0,0,0,1.16.11,2.86,2.86,0,0,0,1.72-.54,1.38,1.38,0,0,0,.6-1.33,1.37,1.37,0,0,0-.58-1,5.59,5.59,0,0,0-1.4-.71A18.94,18.94,0,0,1,2,7.12,3.79,3.79,0,0,1,.49,5.79,3,3,0,0,1,.06,4.53a2.66,2.66,0,0,1,0-.28.09.09,0,0,0,0-.06Z"/><path class="cls-1" d="M9.8,16.55l.35-.93.9-2.45.66-1.79.75-2,.65-1.78L14,5.1,14.43,4a.15.15,0,0,1,.16-.11H17c-.05.15-.1.28-.15.41-.5,1.3-1,2.59-1.51,3.89l-1.24,3.21-1.29,3.33c-.22.58-.44,1.17-.67,1.76a.52.52,0,0,0,0,.11Z"/><path class="cls-1" d="M36.63,13.55a5.74,5.74,0,0,1-2.13-.39,4.46,4.46,0,0,1-2.58-2.77,4.75,4.75,0,0,1-.22-1.11,3.48,3.48,0,0,1,0-.55A6.21,6.21,0,0,1,31.91,7a4.49,4.49,0,0,1,1.27-2,4.6,4.6,0,0,1,2.06-1.08,6.51,6.51,0,0,1,1.09-.16,5.8,5.8,0,0,1,2.15.29,4.46,4.46,0,0,1,2.89,3,5.94,5.94,0,0,1,.24,1.45A5.18,5.18,0,0,1,41,11.23a4.37,4.37,0,0,1-1.3,1.44,4.6,4.6,0,0,1-1.69.72,6.35,6.35,0,0,1-.86.12A4.21,4.21,0,0,1,36.63,13.55ZM39.06,8.5,39,8a2.84,2.84,0,0,0-.44-1.35,2.13,2.13,0,0,0-1.13-.92,2.65,2.65,0,0,0-1.22-.1,2,2,0,0,0-1.18.57,2.93,2.93,0,0,0-.83,2c0,.31,0,.62,0,.93a3.44,3.44,0,0,0,.43,1.43,2.05,2.05,0,0,0,.59.69,2.19,2.19,0,0,0,1.05.38,2.46,2.46,0,0,0,1.36-.21,2.13,2.13,0,0,0,1.07-1.25,5,5,0,0,0,.29-1.71Z"/><path class="cls-1" d="M23.1,5.9c-.17-.05-.34-.11-.52-.15-.38-.08-.77-.14-1.16-.2a2.19,2.19,0,0,0-.51,0,2.11,2.11,0,0,0-1.25.29A.86.86,0,0,0,19.42,7a1.16,1.16,0,0,0,.58.39c.5.17,1,.32,1.51.5A3.45,3.45,0,0,1,23,8.7,2.27,2.27,0,0,1,23.56,10a3.3,3.3,0,0,1,0,1.13,2.5,2.5,0,0,1-1,1.52,4.16,4.16,0,0,1-1.85.77,7.2,7.2,0,0,1-1.54.08,11.54,11.54,0,0,1-1.93-.29l-.32-.08a.1.1,0,0,1-.1-.1v0c0-.34.06-.67.08-1s0-.49.05-.73a.78.78,0,0,1,0-.14c.19.08.36.16.54.22a4.71,4.71,0,0,0,1.49.36,3,3,0,0,0,1.16-.09A1.16,1.16,0,0,0,21,11a1,1,0,0,0-.41-1.2,4.7,4.7,0,0,0-1.2-.45A7.46,7.46,0,0,1,18,8.86,2.28,2.28,0,0,1,17,8a2,2,0,0,1-.26-.86,4.15,4.15,0,0,1,0-.61A2.46,2.46,0,0,1,17.29,5a3.25,3.25,0,0,1,1.77-1,4.41,4.41,0,0,1,1.08-.16c.33,0,.66,0,1,0,.55.06,1.09.16,1.64.24l.27.06a.1.1,0,0,1,.1.11l0,1.67A.08.08,0,0,1,23.1,5.9Z"/><path class="cls-1" d="M31,5.92a8.12,8.12,0,0,0-1-.25,2.9,2.9,0,0,0-1.83.22,2.52,2.52,0,0,0-1.08,1.2A3.91,3.91,0,0,0,26.77,9a3.24,3.24,0,0,0,.62,1.78,2.24,2.24,0,0,0,1.45.85,3.94,3.94,0,0,0,1.8-.17l.59-.2a2.48,2.48,0,0,1,0,.27l0,.62.06.94c0,.1,0,.16-.12.18-.43.07-.85.17-1.29.21a10.7,10.7,0,0,1-1.39,0,5.1,5.1,0,0,1-1.28-.2,4.11,4.11,0,0,1-1.5-.8,4,4,0,0,1-.9-1.09,5,5,0,0,1-.6-1.84,7.14,7.14,0,0,1-.07-1.22,5.35,5.35,0,0,1,.65-2.47,4.05,4.05,0,0,1,1.59-1.59,4.34,4.34,0,0,1,1.75-.53,9.1,9.1,0,0,1,.91,0,8.22,8.22,0,0,1,2,.28c.1,0,.12.06.11.15l-.12,1.08c0,.2,0,.41-.07.61Z"/><path class="cls-2" d="M6.67,3.55s3.94,3.76,4.11,8C10.78,11.51,15.23,4.67,6.67,3.55Z"/></g></g></svg>