<svg xmlns="http://www.w3.org/2000/svg" xmlns:xlink="http://www.w3.org/1999/xlink" width="183" height="59" xml:space="preserve"><defs><path id="a" d="M0 0h183v59H0z"/></defs><clipPath id="b"><use xlink:href="#a" overflow="visible"/></clipPath><g clip-path="url(#b)"><defs><path id="c" d="M0 0h183v59H0z"/></defs><clipPath id="d"><use xlink:href="#c" overflow="visible"/></clipPath><path clip-path="url(#d)" fill="#A8E1D0" d="M11.501 55.514a7.15 7.15 0 1 1 0-14.3 7.15 7.15 0 0 1 0 14.3"/><path clip-path="url(#d)" fill="#25698C" d="M30.284 55.613h-.209a7.164 7.164 0 0 1-7.164-7.164V30.12a7.163 7.163 0 0 1 7.164-7.164h.209a7.163 7.163 0 0 1 7.164 7.164v18.329a7.164 7.164 0 0 1-7.164 7.164"/><path clip-path="url(#d)" fill="#22556E" d="M48.543 55.613H48.3a7.18 7.18 0 0 1-7.181-7.181V11.187a7.18 7.18 0 0 1 7.181-7.18h.243a7.18 7.18 0 0 1 7.181 7.18v37.246a7.18 7.18 0 0 1-7.181 7.18"/><g clip-path="url(#d)"><defs><path id="e" d="M4.351 22.692h14.3v14.3h-14.3z"/></defs><clipPath id="f"><use xlink:href="#e" overflow="visible"/></clipPath><path clip-path="url(#f)" fill="#E6E6E6" d="M11.501 36.992a7.15 7.15 0 1 1 0-14.3 7.15 7.15 0 0 1 0 14.3"/></g><g clip-path="url(#d)"><defs><path id="g" d="M4.351 4h14.3v14.301h-14.3z"/></defs><clipPath id="h"><use xlink:href="#g" overflow="visible"/></clipPath><path clip-path="url(#h)" fill="#E6E6E6" d="M11.501 18.301a7.15 7.15 0 0 1-7.15-7.15 7.15 7.15 0 1 1 14.3 0 7.15 7.15 0 0 1-7.15 7.15"/></g><g clip-path="url(#d)"><defs><path id="i" d="M23.029 4H37.33v14.301H23.029z"/></defs><clipPath id="j"><use xlink:href="#i" overflow="visible"/></clipPath><path clip-path="url(#j)" fill="#E6E6E6" d="M30.18 18.301a7.15 7.15 0 0 1-7.15-7.15c0-3.95 3.2-7.151 7.15-7.151s7.15 3.201 7.15 7.151a7.15 7.15 0 0 1-7.15 7.15"/></g><path clip-path="url(#d)" fill="#312E2A" d="m67.583 40.045 5.91-7.957-5.729-7.594c-.454-.591-.091-1.318.682-1.318h3.775c.591 0 1.091.045 1.5.636l2.956 4.274h.045l3.002-4.274c.363-.499.727-.636 1.363-.636h4.093c.772 0 1 .727.546 1.318l-5.73 7.548 5.774 8.003c.41.592.182 1.319-.545 1.319h-4.001c-.591 0-.955-.273-1.274-.728l-3.228-4.548h-.045L73.221 41c-.137.182-.5.364-.728.364h-4.365c-.773 0-.955-.727-.545-1.319M89.229 34.11v-3.047c0-.499.363-.863.863-.863h10.141c.5 0 .863.364.863.863v3.047c0 .455-.363.819-.863.819H90.092c-.5.001-.863-.364-.863-.819M113.921 22.72c1.818 0 3.229.5 4.047.819V10.398c0-.455.41-.864.864-.864h3.865c.454 0 .863.409.863.864V40.5c0 .455-.409.864-.863.864h-1.773c-.409 0-.728-.364-.864-.864l-.454-1.41s-2.138 2.729-5.957 2.729c-4.956 0-8.73-4.319-8.73-9.549-.001-5.32 3.591-9.55 9.002-9.55m.409 14.187c2.41 0 3.501-1.863 3.82-2.955v-5.275s-1.273-1.045-3.547-1.045c-2.547 0-4.411 2.091-4.411 4.637 0 2.547 1.728 4.638 4.138 4.638M134.977 29.859c1.82 0 3.32.5 3.32.5.044-2.318-.684-3.137-2.365-3.137-1.683 0-4.047.364-5.093.682-.637.182-.955-.226-1.046-.818l-.409-2.364c-.137-.682.227-1.001.637-1.138.363-.136 3.273-.863 6.184-.863 5.685 0 7.003 2.956 7.003 7.912V40.5a.894.894 0 0 1-.864.864h-1.637c-.318 0-.546-.137-.773-.637l-.545-1.228c-1.047.954-2.729 2.318-5.548 2.318-3.638 0-6.139-2.364-6.139-6.229-.001-3.228 2.637-5.729 7.275-5.729m.09 8.095c1.455 0 2.865-1.229 3.138-1.774v-2.5s-1.228-.546-2.547-.546c-1.772 0-2.955 1-2.955 2.455 0 1.364.955 2.365 2.364 2.365M149.393 27.949h-1.547c-.454 0-.818-.408-.818-.863V24.04c0-.501.364-.864.818-.864h1.547v-5.048c0-.454.408-.865.863-.865l3.729-.044c.454 0 .818.409.818.864v5.093h4.001c.5 0 .864.363.864.864v3.046a.863.863 0 0 1-.864.863h-4.001v7.275c0 1.274.682 1.455 1.409 1.455.772 0 1.728-.317 2.228-.5.501-.182.864.046 1.001.5l.909 2.865c.183.455-.045.909-.5 1.092-.228.136-3.183 1.182-5.411 1.182-3.501 0-5.047-2.183-5.047-5.866v-8.003zM170.083 29.859c1.818 0 3.318.5 3.318.5.046-2.318-.682-3.137-2.363-3.137-1.683 0-4.048.364-5.094.682-.636.182-.954-.226-1.046-.818l-.408-2.364c-.137-.682.227-1.001.636-1.138.364-.136 3.274-.863 6.185-.863 5.684 0 7.003 2.956 7.003 7.912V40.5c0 .455-.411.864-.864.864h-1.638c-.317 0-.545-.137-.772-.637l-.546-1.228c-1.046.954-2.728 2.318-5.548 2.318-3.637 0-6.138-2.364-6.138-6.229 0-3.228 2.636-5.729 7.275-5.729m.091 8.095c1.455 0 2.864-1.229 3.138-1.774v-2.5s-1.229-.546-2.547-.546c-1.773 0-2.956 1-2.956 2.455 0 1.364.955 2.365 2.365 2.365"/></g></svg>