<svg xmlns="http://www.w3.org/2000/svg" viewBox="0 0 5098.84 1346.94"><defs><style>.cls-1,.cls-27,.cls-4{fill:#f2f2f2;}.cls-2{fill:none;stroke:#ccc;stroke-linecap:round;stroke-linejoin:round;stroke-width:50px;opacity:0.5;}.cls-3,.cls-30{fill:#f7f7f7;}.cls-3{stroke:#999;stroke-width:4px;stroke-dasharray:12;}.cls-22,.cls-23,.cls-24,.cls-25,.cls-26,.cls-3,.cls-4{stroke-miterlimit:10;}.cls-22,.cls-23,.cls-24,.cls-25,.cls-26,.cls-4{stroke:#3f3f3f;}.cls-4{stroke-width:2px;}.cls-5{font-size:70px;}.cls-18,.cls-22,.cls-28,.cls-5{fill:#00394d;}.cls-27,.cls-28,.cls-5{font-family:CircularStd-Black, Circular Std;font-weight:800;}.cls-6{letter-spacing:0em;}.cls-7{letter-spacing:0em;}.cls-8{letter-spacing:-0.01em;}.cls-9{letter-spacing:0em;}.cls-10{letter-spacing:0em;}.cls-11{letter-spacing:0em;}.cls-12{letter-spacing:-0.01em;}.cls-13{letter-spacing:0.01em;}.cls-14{letter-spacing:-0.01em;}.cls-15{letter-spacing:0em;}.cls-16{letter-spacing:0em;}.cls-17{letter-spacing:0em;}.cls-19{letter-spacing:-0.09em;}.cls-20{letter-spacing:0.01em;}.cls-21{letter-spacing:-0.01em;}.cls-22,.cls-23,.cls-24,.cls-25,.cls-26{stroke-width:8px;}.cls-23,.cls-33{fill:#00698f;}.cls-24,.cls-34{fill:#87e1d1;}.cls-25,.cls-31{fill:#d2ac57;}.cls-26,.cls-32{fill:#fff;}.cls-27,.cls-28{font-size:90px;}.cls-29{fill:#c2efe7;}</style></defs><g id="Capa_2" data-name="Capa 2"><g id="Fondo"><rect class="cls-1" x="89.67" width="5003.36" height="1346.94"/></g><g id="Capa_1-2" data-name="Capa 1"><line class="cls-2" x1="25" y1="684.79" x2="5073.84" y2="684.79"/><rect class="cls-3" x="425.25" y="249.26" width="798.94" height="953.71" rx="150.59"/><rect class="cls-3" x="1307.62" y="249.26" width="798.94" height="953.71" rx="150.59"/><rect class="cls-3" x="2189.99" y="249.26" width="798.94" height="953.71" rx="150.59"/><rect class="cls-3" x="3072.37" y="249.26" width="798.94" height="953.71" rx="150.59"/><circle class="cls-4" cx="824.72" cy="233.3" r="126.49"/><rect class="cls-3" x="3954.74" y="249.26" width="798.94" height="953.71" rx="150.59"/><circle class="cls-4" cx="4354.21" cy="233.3" r="126.49"/><circle class="cls-4" cx="3471.84" cy="233.3" r="126.49"/><circle class="cls-4" cx="2589.47" cy="233.3" r="126.49"/><circle class="cls-4" cx="1707.09" cy="233.3" r="126.49"/><text/><text class="cls-5" transform="translate(631.7 885.9)"><tspan class="cls-6">O</tspan><tspan x="56.28" y="0">bje</tspan><tspan class="cls-7" x="158.97" y="0">t</tspan><tspan x="186.06" y="0">i</tspan><tspan class="cls-8" x="206.01" y="0">v</tspan><tspan x="244.58" y="0">o de </tspan><tspan class="cls-9" x="31.15" y="84">b</tspan><tspan x="74.62" y="84">ú</tspan><tspan class="cls-9" x="116.34" y="84">s</tspan><tspan x="148.89" y="84">q</tspan><tspan class="cls-10" x="192.43" y="84">u</tspan><tspan x="234.08" y="84">e</tspan><tspan class="cls-6" x="273.21" y="84">d</tspan><tspan x="316.68" y="84">a </tspan></text><text class="cls-5" transform="translate(1393.85 885.9)"><tspan class="cls-11">E</tspan><tspan x="40.67" y="0">n</tspan><tspan class="cls-12" x="82.32" y="0">f</tspan><tspan x="107.24" y="0">oq</tspan><tspan class="cls-10" x="192.08" y="0">u</tspan><tspan x="233.73" y="0">e y limpie</tspan><tspan class="cls-13" x="553.41" y="0">z</tspan><tspan x="588.27" y="0">a </tspan><tspan x="116.62" y="84">de los </tspan><tspan class="cls-6" x="327.94" y="84">da</tspan><tspan class="cls-9" x="409.28" y="84">t</tspan><tspan x="435.95" y="84">os </tspan><tspan class="cls-9" x="134.33" y="168">r</tspan><tspan x="162.47" y="168">eq</tspan><tspan class="cls-9" x="245.14" y="168">u</tspan><tspan x="286.79" y="168">e</tspan><tspan class="cls-7" x="325.92" y="168">r</tspan><tspan x="354.48" y="168">idos </tspan></text><text class="cls-5" transform="translate(2388.85 885.9)"><tspan class="cls-14">C</tspan><tspan class="cls-9" x="53.62" y="0">r</tspan><tspan x="81.76" y="0">e</tspan><tspan class="cls-15" x="120.89" y="0">a</tspan><tspan x="158.9" y="0">ción de </tspan><tspan x="59.99" y="84">modelos </tspan><tspan x="-13.16" y="168">m</tspan><tspan class="cls-6" x="49.91" y="168">a</tspan><tspan class="cls-9" x="87.78" y="168">t</tspan><tspan class="cls-16" x="114.45" y="168">em</tspan><tspan class="cls-17" x="216.65" y="168">á</tspan><tspan class="cls-7" x="254.52" y="168">t</tspan><tspan x="281.61" y="168">i</tspan><tspan class="cls-6" x="301.55" y="168">c</tspan><tspan x="340.47" y="168">os</tspan></text><path class="cls-18" d="M3323.44,871.2l11.83-34.93H3347L3328.9,885.9h-11.41l-18.2-49.63h12.18Z"/><path class="cls-18" d="M3345.84,876.31a9.3,9.3,0,0,1,2.87-7.1,13.54,13.54,0,0,1,7.42-3.4l8.19-1.26c1.68-.23,2.52-1,2.52-2.38a3.3,3.3,0,0,0-1.36-2.69,6.82,6.82,0,0,0-8,.42,5.3,5.3,0,0,0-1.72,3.6l-9.24-1.89a12,12,0,0,1,4.31-7.94q3.95-3.6,11-3.61,7.9,0,11.66,3.78a13.17,13.17,0,0,1,3.74,9.66v17a28.28,28.28,0,0,0,.42,5.39H3368a17.18,17.18,0,0,1-.35-3.92q-3,4.9-9.8,4.9c-3.69,0-6.61-1-8.78-3.11A10,10,0,0,1,3345.84,876.31Zm14.63,2.87a6.58,6.58,0,0,0,4.55-1.61q1.82-1.61,1.82-5.32v-1.54l-6.58,1c-2.61.42-3.92,1.71-3.92,3.85a3.49,3.49,0,0,0,1,2.52A4.13,4.13,0,0,0,3360.47,879.18Z"/><path class="cls-18" d="M3396.8,885.9h-10.64V835.22h10.64Z"/><path class="cls-18" d="M3407.09,844.88a6.25,6.25,0,0,1,0-8.82,5.93,5.93,0,0,1,4.34-1.82,6.11,6.11,0,0,1,4.44,1.82,6.16,6.16,0,0,1,0,8.82,6.07,6.07,0,0,1-4.44,1.82A5.89,5.89,0,0,1,3407.09,844.88Zm9.73,41h-10.64V851.11h10.64Z"/><path class="cls-18" d="M3460.36,835.22v44.45q0,3.15.28,6.23h-10.22a20,20,0,0,1-.28-3.36,9,9,0,0,1-3.75,3,13,13,0,0,1-5.56,1.15,16.29,16.29,0,0,1-12.32-5.14,20.06,20.06,0,0,1-.14-26.11,15.77,15.77,0,0,1,12.11-5.15q7.14,0,9.38,3.57V835.22Zm-23.77,26.88a8.58,8.58,0,0,0-2.27,6.37,8.69,8.69,0,0,0,2.27,6.41,8,8,0,0,0,11.13,0,8.66,8.66,0,0,0,2.28-6.41,8.54,8.54,0,0,0-2.28-6.37,8,8,0,0,0-11.13,0Z"/><path class="cls-18" d="M3467.5,876.31a9.3,9.3,0,0,1,2.87-7.1,13.51,13.51,0,0,1,7.42-3.4l8.19-1.26c1.68-.23,2.52-1,2.52-2.38a3.31,3.31,0,0,0-1.37-2.69,6.82,6.82,0,0,0-8,.42,5.29,5.29,0,0,0-1.71,3.6l-9.24-1.89a12,12,0,0,1,4.3-7.94q4-3.6,11-3.61,7.9,0,11.65,3.78a13.14,13.14,0,0,1,3.75,9.66v17a28.28,28.28,0,0,0,.42,5.39h-9.59a17.18,17.18,0,0,1-.35-3.92q-3,4.9-9.8,4.9c-3.69,0-6.62-1-8.79-3.11A10,10,0,0,1,3467.5,876.31Zm14.63,2.87a6.58,6.58,0,0,0,4.55-1.61q1.82-1.61,1.82-5.32v-1.54l-6.58,1c-2.61.42-3.92,1.71-3.92,3.85a3.52,3.52,0,0,0,1,2.52A4.17,4.17,0,0,0,3482.13,879.18Z"/><path class="cls-18" d="M3523.64,859.86a7.69,7.69,0,0,0-5.71,2.31,8.72,8.72,0,0,0-2.27,6.37,8.45,8.45,0,0,0,2.34,6.3,7.93,7.93,0,0,0,5.78,2.31A7.16,7.16,0,0,0,3531,872l9.38,2.87a15.9,15.9,0,0,1-5.64,8.54,16.75,16.75,0,0,1-10.95,3.57,18.41,18.41,0,0,1-13.27-5.21,17.56,17.56,0,0,1-5.42-13.2,17.95,17.95,0,0,1,18.34-18.48,17.19,17.19,0,0,1,11.13,3.5,15.74,15.74,0,0,1,5.6,8.61l-9.52,2.87a7.38,7.38,0,0,0-2.38-3.71A7,7,0,0,0,3523.64,859.86Z"/><path class="cls-18" d="M3547.79,844.88a6.23,6.23,0,0,1,4.34-10.64,6.12,6.12,0,0,1,4.44,1.82,6.16,6.16,0,0,1,0,8.82,6.08,6.08,0,0,1-4.44,1.82A5.89,5.89,0,0,1,3547.79,844.88Zm9.73,41h-10.64V851.11h10.64Z"/><path class="cls-18" d="M3582.79,850.06a18.1,18.1,0,0,1,13.19,5.18,19.24,19.24,0,0,1,0,26.5,19.21,19.21,0,0,1-26.35,0,19.06,19.06,0,0,1,0-26.42A18,18,0,0,1,3582.79,850.06Zm0,27.09a7.6,7.6,0,0,0,5.56-2.24,8.62,8.62,0,0,0,2.28-6.44q0-4.2-2.28-6.4a8,8,0,0,0-11.09,0,8.48,8.48,0,0,0-2.31,6.37,8.59,8.59,0,0,0,2.31,6.41A7.58,7.58,0,0,0,3582.79,877.15ZM3596,836.41,3586.15,847h-8.47l6.44-10.57Z"/><path class="cls-18" d="M3618.77,866V885.9h-10.64V851.11h10.29v4a8.85,8.85,0,0,1,4.09-3.6,13.24,13.24,0,0,1,5.64-1.3q6.22,0,9.45,3.89a15.13,15.13,0,0,1,3.22,10V885.9h-10.64v-20a6.4,6.4,0,0,0-1.44-4.37,5.3,5.3,0,0,0-4.23-1.65,5.41,5.41,0,0,0-4.17,1.72A6.2,6.2,0,0,0,3618.77,866Z"/><path class="cls-18" d="M3245.5,983.27h-11.2l7.91-18.06-14.63-30.1h11.9l8.47,18.62,7.7-18.62h11.27Z"/><path class="cls-18" d="M3300.17,983.2h-10.64V935.11h10.29v3.57a9.21,9.21,0,0,1,3.95-3.11,14.64,14.64,0,0,1,6.27-1.3,14.79,14.79,0,0,1,11.79,5.08q4.38,5.07,4.38,13t-4.66,13.13a15.36,15.36,0,0,1-11.93,5.14q-6.59,0-9.45-3.5Zm13.33-24.32a8.66,8.66,0,0,0,2.28-6.41,8.54,8.54,0,0,0-2.28-6.37,8.12,8.12,0,0,0-11.2,0,8.54,8.54,0,0,0-2.27,6.37,8.65,8.65,0,0,0,2.27,6.41,8,8,0,0,0,11.2,0Z"/><path class="cls-18" d="M3355.19,935.11v10.5a14.76,14.76,0,0,0-3.36-.35,7.86,7.86,0,0,0-5.85,2.31c-1.52,1.54-2.27,3.92-2.27,7.14V969.9h-10.64V935.11h10.29v4.69a7.76,7.76,0,0,1,3.85-3.85,12.33,12.33,0,0,1,5.18-1.19A10.15,10.15,0,0,1,3355.19,935.11Z"/><path class="cls-18" d="M3384,957.37l8.89,2.52a14.5,14.5,0,0,1-5.53,8,17.18,17.18,0,0,1-10.5,3.11,18,18,0,0,1-12.85-5q-5.28-5-5.28-13.51,0-8.11,5.14-13.23a16.77,16.77,0,0,1,12.22-5.11q8.11,0,12.77,4.73t4.66,13.12a14.55,14.55,0,0,1-.21,3.29h-24.22a6.41,6.41,0,0,0,2.45,4.8,8.27,8.27,0,0,0,5.46,1.92C3380.55,961.92,3382.88,960.41,3384,957.37Zm-14.7-9h13.93a6.33,6.33,0,0,0-1.86-4.13,6.92,6.92,0,0,0-5.14-1.75,6.62,6.62,0,0,0-4.9,1.82A6.51,6.51,0,0,0,3369.26,948.34Z"/><path class="cls-18" d="M3397.47,960l9-1.61a5,5,0,0,0,1.5,3.33,5.36,5.36,0,0,0,4,1.36,4.61,4.61,0,0,0,3-.87,2.69,2.69,0,0,0,1.05-2.14c0-1.4-1.15-2.35-3.43-2.87l-4-.91q-5.32-1.11-7.84-4a9.83,9.83,0,0,1-2.52-6.76,10.52,10.52,0,0,1,3.81-8.19,13.93,13.93,0,0,1,9.56-3.36q6.78,0,10.18,3.26a11.26,11.26,0,0,1,3.75,7.1l-8.82,1.61a4.53,4.53,0,0,0-5-4.27,4.29,4.29,0,0,0-2.66.84,2.6,2.6,0,0,0-1.12,2.17c0,1.4.91,2.27,2.73,2.59l4.62.91a14.39,14.39,0,0,1,8,4,9.85,9.85,0,0,1,2.73,6.93,11.09,11.09,0,0,1-3.64,8.3q-3.64,3.46-10.22,3.46a19.22,19.22,0,0,1-6.83-1.12,11.14,11.14,0,0,1-4.55-2.9,14.76,14.76,0,0,1-2.38-3.54A9.91,9.91,0,0,1,3397.47,960Z"/><path class="cls-18" d="M3455.64,957.37l8.89,2.52a14.5,14.5,0,0,1-5.53,8,17.18,17.18,0,0,1-10.5,3.11,17.93,17.93,0,0,1-12.85-5q-5.28-5-5.28-13.51,0-8.11,5.14-13.23a16.77,16.77,0,0,1,12.22-5.11q8.11,0,12.77,4.73t4.66,13.12a14.55,14.55,0,0,1-.21,3.29h-24.22a6.41,6.41,0,0,0,2.45,4.8,8.27,8.27,0,0,0,5.46,1.92C3452.23,961.92,3454.56,960.41,3455.64,957.37Zm-14.7-9h13.93a6.33,6.33,0,0,0-1.86-4.13,6.92,6.92,0,0,0-5.14-1.75,6.62,6.62,0,0,0-4.9,1.82A6.51,6.51,0,0,0,3440.94,948.34Z"/><path class="cls-18" d="M3482.66,950V969.9H3472V935.11h10.3v4a8.85,8.85,0,0,1,4.09-3.6,13.2,13.2,0,0,1,5.64-1.3q6.23,0,9.45,3.89a15.13,15.13,0,0,1,3.22,10V969.9h-10.64v-20a6.4,6.4,0,0,0-1.44-4.37,5.31,5.31,0,0,0-4.23-1.65,5.41,5.41,0,0,0-4.17,1.72A6.2,6.2,0,0,0,3482.66,950Z"/><path class="cls-18" d="M3526.4,925v10.15h6.79v9.31h-6.79v13c0,2.43,1.29,3.64,3.85,3.64a12.3,12.3,0,0,0,2.8-.35v8.82a12.5,12.5,0,0,1-5.53,1c-3.59,0-6.43-1-8.5-3a10.83,10.83,0,0,1-3.12-8.19V944.42h-6.16v-9.31h1.75a5,5,0,0,0,4-1.57,6,6,0,0,0,1.36-4.1V925Z"/><path class="cls-18" d="M3538.93,960.31a9.3,9.3,0,0,1,2.87-7.1,13.58,13.58,0,0,1,7.42-3.4l8.19-1.26c1.68-.23,2.52-1,2.52-2.38a3.3,3.3,0,0,0-1.36-2.69,6.82,6.82,0,0,0-8,.42,5.35,5.35,0,0,0-1.72,3.6l-9.24-1.89a12,12,0,0,1,4.31-7.94c2.63-2.4,6.29-3.61,10.95-3.61q7.91,0,11.66,3.78a13.17,13.17,0,0,1,3.74,9.66v17a28.28,28.28,0,0,0,.42,5.39h-9.59a17.18,17.18,0,0,1-.35-3.92q-3,4.9-9.8,4.9c-3.68,0-6.61-1-8.78-3.11A10,10,0,0,1,3538.93,960.31Zm14.63,2.87a6.58,6.58,0,0,0,4.55-1.61c1.22-1.07,1.82-2.84,1.82-5.32v-1.54l-6.58,1c-2.61.42-3.92,1.71-3.92,3.85a3.49,3.49,0,0,0,1,2.52A4.13,4.13,0,0,0,3553.56,963.18Z"/><path class="cls-18" d="M3595.07,943.86a7.67,7.67,0,0,0-5.7,2.31,8.68,8.68,0,0,0-2.28,6.37,8.42,8.42,0,0,0,2.35,6.3,7.89,7.89,0,0,0,5.77,2.31,7.14,7.14,0,0,0,7.21-5.18l9.38,2.87a15.94,15.94,0,0,1-5.63,8.54,16.77,16.77,0,0,1-11,3.57,18.39,18.39,0,0,1-13.26-5.21,17.53,17.53,0,0,1-5.43-13.2,18,18,0,0,1,18.34-18.48,17.18,17.18,0,0,1,11.13,3.5,15.68,15.68,0,0,1,5.6,8.61l-9.52,2.87a7.31,7.31,0,0,0-2.38-3.71A6.94,6.94,0,0,0,3595.07,943.86Z"/><path class="cls-18" d="M3619.22,928.88a6.25,6.25,0,0,1,0-8.82,5.93,5.93,0,0,1,4.34-1.82,6.15,6.15,0,0,1,4.45,1.82,6.18,6.18,0,0,1,0,8.82,6.11,6.11,0,0,1-4.45,1.82A5.89,5.89,0,0,1,3619.22,928.88Zm9.73,41h-10.64V935.11H3629Z"/><path class="cls-18" d="M3654.22,934.06a18.1,18.1,0,0,1,13.19,5.18,19.24,19.24,0,0,1,0,26.5,19.21,19.21,0,0,1-26.35,0,19.06,19.06,0,0,1,0-26.42A18.05,18.05,0,0,1,3654.22,934.06Zm0,27.09a7.63,7.63,0,0,0,5.57-2.24,8.66,8.66,0,0,0,2.27-6.44q0-4.2-2.27-6.4a8,8,0,0,0-11.1,0,8.48,8.48,0,0,0-2.31,6.37,8.59,8.59,0,0,0,2.31,6.41A7.58,7.58,0,0,0,3654.22,961.15Zm13.23-40.74L3657.58,931h-8.47l6.44-10.57Z"/><path class="cls-18" d="M3690.2,950V969.9h-10.64V935.11h10.29v4a8.87,8.87,0,0,1,4.1-3.6,13.19,13.19,0,0,1,5.63-1.3q6.23,0,9.45,3.89a15.08,15.08,0,0,1,3.22,10V969.9h-10.64v-20a6.4,6.4,0,0,0-1.44-4.37,5.28,5.28,0,0,0-4.23-1.65,5.42,5.42,0,0,0-4.17,1.72A6.25,6.25,0,0,0,3690.2,950Z"/><path class="cls-18" d="M3288.44,1003.22v44.45c0,2.1.1,4.18.28,6.23H3278.5a21.16,21.16,0,0,1-.28-3.36,9,9,0,0,1-3.74,3,13.06,13.06,0,0,1-5.57,1.15,16.31,16.31,0,0,1-12.32-5.14,20.06,20.06,0,0,1-.14-26.11,15.79,15.79,0,0,1,12.11-5.15q7.14,0,9.38,3.57v-18.62Zm-23.76,26.88a8.54,8.54,0,0,0-2.28,6.37,8.66,8.66,0,0,0,2.28,6.41,8,8,0,0,0,11.13,0,8.69,8.69,0,0,0,2.27-6.41,8.58,8.58,0,0,0-2.27-6.37,8,8,0,0,0-11.13,0Z"/><path class="cls-18" d="M3320.78,1041.37l8.89,2.52a14.5,14.5,0,0,1-5.53,7.95,17.18,17.18,0,0,1-10.5,3.11,17.91,17.91,0,0,1-12.84-5q-5.3-5-5.29-13.51a17.85,17.85,0,0,1,5.15-13.23,16.77,16.77,0,0,1,12.21-5.11q8.12,0,12.78,4.73t4.65,13.12a14.55,14.55,0,0,1-.21,3.29h-24.22a6.41,6.41,0,0,0,2.45,4.8,8.27,8.27,0,0,0,5.46,1.92C3317.37,1045.92,3319.71,1044.41,3320.78,1041.37Zm-14.7-9H3320a6.27,6.27,0,0,0-1.85-4.13,7,7,0,0,0-5.15-1.75,6.65,6.65,0,0,0-4.9,1.82A6.57,6.57,0,0,0,3306.08,1032.34Z"/><path class="cls-18" d="M3376.5,1019.11v10.5a14.76,14.76,0,0,0-3.36-.35,7.83,7.83,0,0,0-5.84,2.31q-2.28,2.31-2.28,7.14v15.19h-10.64v-34.79h10.29v4.69a7.76,7.76,0,0,1,3.85-3.85,12.37,12.37,0,0,1,5.18-1.19A10.1,10.1,0,0,1,3376.5,1019.11Z"/><path class="cls-18" d="M3405.27,1041.37l8.89,2.52a14.5,14.5,0,0,1-5.53,7.95,17.18,17.18,0,0,1-10.5,3.11,17.91,17.91,0,0,1-12.84-5q-5.29-5-5.29-13.51a17.85,17.85,0,0,1,5.15-13.23,16.77,16.77,0,0,1,12.21-5.11q8.11,0,12.78,4.73t4.65,13.12a14.55,14.55,0,0,1-.21,3.29h-24.22a6.41,6.41,0,0,0,2.45,4.8,8.27,8.27,0,0,0,5.46,1.92C3401.86,1045.92,3404.2,1044.41,3405.27,1041.37Zm-14.7-9h13.93a6.27,6.27,0,0,0-1.85-4.13,7,7,0,0,0-5.15-1.75,6.63,6.63,0,0,0-4.9,1.82A6.57,6.57,0,0,0,3390.57,1032.34Z"/><path class="cls-18" d="M3418.78,1044l9-1.61a5.06,5.06,0,0,0,1.51,3.33,5.34,5.34,0,0,0,3.95,1.36,4.6,4.6,0,0,0,3-.87,2.69,2.69,0,0,0,1-2.14c0-1.4-1.14-2.35-3.43-2.87l-4-.91q-5.32-1.11-7.84-4a9.83,9.83,0,0,1-2.52-6.76,10.5,10.5,0,0,1,3.82-8.19,13.91,13.91,0,0,1,9.55-3.36q6.79,0,10.19,3.26a11.19,11.19,0,0,1,3.74,7.1L3438,1030a4.53,4.53,0,0,0-5-4.27,4.31,4.31,0,0,0-2.66.84,2.6,2.6,0,0,0-1.12,2.17c0,1.4.91,2.27,2.73,2.59l4.62.91a14.39,14.39,0,0,1,8,4,9.85,9.85,0,0,1,2.73,6.93,11.05,11.05,0,0,1-3.64,8.3q-3.64,3.46-10.22,3.46a19.16,19.16,0,0,1-6.82-1.12,11.07,11.07,0,0,1-4.55-2.9,14.47,14.47,0,0,1-2.38-3.54A9.94,9.94,0,0,1,3418.78,1044Z"/><path class="cls-18" d="M3476.46,1053.9a16.71,16.71,0,0,1-.28-3.5,7.83,7.83,0,0,1-3.85,3.19,14.07,14.07,0,0,1-5.46,1.08q-6.16,0-9.7-3.88a13.89,13.89,0,0,1-3.53-9.7v-22h10.64v19.74a6.47,6.47,0,0,0,1.43,4.34,5.19,5.19,0,0,0,4.17,1.68,5.55,5.55,0,0,0,4.23-1.64,6,6,0,0,0,1.58-4.31v-19.81h10.64v28.56a51.06,51.06,0,0,0,.35,6.23Z"/><path class="cls-18" d="M3506.35,1053.9h-10.64v-50.68h10.64Z"/><path class="cls-18" d="M3528.47,1009v10.15h6.79v9.31h-6.79v13q0,3.64,3.85,3.64a12.37,12.37,0,0,0,2.8-.35v8.82a12.53,12.53,0,0,1-5.53,1q-5.39,0-8.51-3a10.86,10.86,0,0,1-3.11-8.19v-14.91h-6.16v-9.31h1.75a5,5,0,0,0,4-1.57,6,6,0,0,0,1.37-4.1V1009Z"/><path class="cls-18" d="M3541,1044.31a9.26,9.26,0,0,1,2.87-7.1,13.51,13.51,0,0,1,7.42-3.4l8.19-1.26c1.68-.23,2.52-1,2.52-2.38a3.31,3.31,0,0,0-1.37-2.69,6.82,6.82,0,0,0-8,.42,5.29,5.29,0,0,0-1.71,3.6l-9.24-1.89a12,12,0,0,1,4.3-7.94q4-3.6,11-3.61,7.9,0,11.65,3.78a13.14,13.14,0,0,1,3.75,9.66v17a28.28,28.28,0,0,0,.42,5.39h-9.59a16.62,16.62,0,0,1-.35-3.92q-3,4.9-9.8,4.9c-3.69,0-6.62-1-8.79-3.11A10,10,0,0,1,3541,1044.31Zm14.63,2.87a6.6,6.6,0,0,0,4.55-1.61q1.82-1.6,1.82-5.32v-1.54l-6.58,1c-2.62.42-3.92,1.71-3.92,3.85a3.48,3.48,0,0,0,1,2.52A4.17,4.17,0,0,0,3555.63,1047.18Z"/><path class="cls-18" d="M3615.34,1003.22v44.45q0,3.15.28,6.23H3605.4a20,20,0,0,1-.28-3.36,9,9,0,0,1-3.75,3,13,13,0,0,1-5.56,1.15,16.28,16.28,0,0,1-12.32-5.14,20.06,20.06,0,0,1-.14-26.11,15.77,15.77,0,0,1,12.11-5.15q7.14,0,9.38,3.57v-18.62Zm-23.77,26.88a8.58,8.58,0,0,0-2.27,6.37,8.69,8.69,0,0,0,2.27,6.41,8,8,0,0,0,11.13,0,8.66,8.66,0,0,0,2.28-6.41,8.54,8.54,0,0,0-2.28-6.37,8,8,0,0,0-11.13,0Z"/><path class="cls-18" d="M3640.89,1018.06a18.1,18.1,0,0,1,13.19,5.18,19.24,19.24,0,0,1,0,26.5,19.21,19.21,0,0,1-26.35,0,19.06,19.06,0,0,1,0-26.42A18,18,0,0,1,3640.89,1018.06Zm0,27.09a7.6,7.6,0,0,0,5.56-2.24,8.62,8.62,0,0,0,2.28-6.44q0-4.2-2.28-6.4a8,8,0,0,0-11.09,0,8.48,8.48,0,0,0-2.31,6.37,8.59,8.59,0,0,0,2.31,6.41A7.58,7.58,0,0,0,3640.89,1045.15Z"/><path class="cls-18" d="M3663.36,1044l9-1.61a5,5,0,0,0,1.5,3.33,5.36,5.36,0,0,0,4,1.36,4.61,4.61,0,0,0,3-.87,2.69,2.69,0,0,0,1-2.14c0-1.4-1.15-2.35-3.43-2.87l-4-.91q-5.32-1.11-7.84-4a9.83,9.83,0,0,1-2.52-6.76,10.52,10.52,0,0,1,3.81-8.19,13.93,13.93,0,0,1,9.56-3.36q6.78,0,10.18,3.26a11.26,11.26,0,0,1,3.75,7.1l-8.82,1.61a4.53,4.53,0,0,0-5-4.27,4.29,4.29,0,0,0-2.66.84,2.6,2.6,0,0,0-1.12,2.17c0,1.4.91,2.27,2.73,2.59l4.62.91a14.39,14.39,0,0,1,8,4,9.85,9.85,0,0,1,2.73,6.93,11.09,11.09,0,0,1-3.64,8.3q-3.65,3.46-10.22,3.46a19.22,19.22,0,0,1-6.83-1.12,11.14,11.14,0,0,1-4.55-2.9,14.76,14.76,0,0,1-2.38-3.54A9.91,9.91,0,0,1,3663.36,1044Z"/><text class="cls-5" transform="translate(4214 885.9)"><tspan class="cls-19">T</tspan><tspan x="37.66" y="0">oma de </tspan><tspan x="-62.23" y="84">decisiones a </tspan><tspan class="cls-9" x="-96.56" y="168">t</tspan><tspan class="cls-20" x="-69.89" y="168">r</tspan><tspan class="cls-21" x="-41.05" y="168">a</tspan><tspan class="cls-8" x="-3.81" y="168">v</tspan><tspan x="34.76" y="168">és de ellos </tspan></text><circle class="cls-22" cx="824.72" cy="233.3" r="93.05"/><circle class="cls-23" cx="1707.09" cy="233.3" r="93.05"/><circle class="cls-24" cx="2589.47" cy="233.3" r="93.05"/><circle class="cls-25" cx="3471.84" cy="233.3" r="93.05"/><circle class="cls-26" cx="4354.21" cy="233.3" r="93.05"/><text class="cls-27" transform="translate(805.95 259.7)">1</text><text class="cls-27" transform="translate(1682.3 259.7)">2</text><text class="cls-28" transform="translate(2564.85 259.7)">3</text><text class="cls-28" transform="translate(3444.48 259.7)">4</text><text class="cls-28" transform="translate(4329.15 259.7)">5</text><rect class="cls-29" x="676.28" y="448.79" width="261.85" height="242.81" rx="31.54"/><circle class="cls-30" cx="862.73" cy="617.92" r="85.3"/><circle class="cls-29" cx="862.73" cy="617.92" r="65.87"/><g id="Page-1"><g id="_026---Searching-Data" data-name="026---Searching-Data"><path id="Shape" class="cls-18" d="M696.5,698.45H802v10.76a20.09,20.09,0,1,0,10,0V698.45h9a89.49,89.49,0,0,0,81.4.5l34.68,42.36a20.09,20.09,0,0,0,31.07-25.45l-34.65-42.35a89.75,89.75,0,0,0,9.08-96.65V472.45a25.15,25.15,0,0,0-25.12-25.12h-221a25.15,25.15,0,0,0-25.11,25.12V673.34a25.15,25.15,0,0,0,25.11,25.11ZM817,728.58a10,10,0,1,1-10-10A10.05,10.05,0,0,1,817,728.58ZM696.5,688.41a15.07,15.07,0,0,1-15.06-15.07V618.09h90.4a89.65,89.65,0,0,0,1.36,15.07H741.7a5,5,0,1,0,0,10h33.76a89.45,89.45,0,0,0,8.61,20.09H701.52a5,5,0,0,0,0,10.05h89.32a91.53,91.53,0,0,0,14.7,15.07ZM681.44,537.74H821a90.7,90.7,0,0,0-21.14,15.06H741.7a5,5,0,0,0,0,10.05h49.14A90.38,90.38,0,0,0,779,582.94H701.52a5,5,0,0,0,0,10h73.94a90,90,0,0,0-3,15.07h-91Zm279,184.49A10,10,0,0,1,959,736.35a10.27,10.27,0,0,1-14.13-1.4l-33.59-41a90.94,90.94,0,0,0,15.57-12.71Zm-98.17-23.78a80.36,80.36,0,1,1,80.36-80.36A80.36,80.36,0,0,1,862.24,698.45Zm41.22-160.71h29.09V561.4A90.8,90.8,0,0,0,903.46,537.74Zm-207-80.36h221a15.07,15.07,0,0,1,15.07,15.07v55.24H681.44V472.45A15.06,15.06,0,0,1,696.5,457.38Z"/><path id="Shape-2" data-name="Shape" class="cls-18" d="M701.52,482.49h20.09a5,5,0,1,0,0-10H701.52a5,5,0,1,0,0,10Z"/><path id="Shape-3" data-name="Shape" class="cls-18" d="M741.7,482.49H912.46a5,5,0,0,0,0-10H741.7a5,5,0,0,0,0,10Z"/><path id="Shape-4" data-name="Shape" class="cls-18" d="M701.52,562.85h20.09a5,5,0,1,0,0-10.05H701.52a5,5,0,0,0,0,10.05Z"/><path id="Shape-5" data-name="Shape" class="cls-18" d="M701.52,643.2h20.09a5,5,0,1,0,0-10H701.52a5,5,0,1,0,0,10Z"/><path id="Shape-6" data-name="Shape" class="cls-18" d="M701.52,512.62H912.46a5,5,0,0,0,0-10H701.52a5,5,0,1,0,0,10Z"/><path id="Shape-7" data-name="Shape" class="cls-18" d="M862.24,547.78a70.33,70.33,0,0,0-62.37,38c-.07.14-.14.28-.2.43a69.61,69.61,0,0,0-4.23,53.73,3,3,0,0,0,.12.32,70.31,70.31,0,1,0,66.68-92.45Zm0,10.05a60.32,60.32,0,0,1,59.36,50.22H802.88A59.41,59.41,0,0,1,807.52,593h89.87a5,5,0,1,0,0-10h-84A60.14,60.14,0,0,1,862.24,557.83Zm0,120.53a60.31,60.31,0,0,1-54.72-35.16h89.87a5,5,0,1,0,0-10H804a59.91,59.91,0,0,1-2-15.07H922.51A60.34,60.34,0,0,1,862.24,678.36Z"/></g></g><circle class="cls-31" cx="806.99" cy="728.58" r="10.04"/><path class="cls-31" d="M960.41,722.23A10,10,0,0,1,959,736.35a10.27,10.27,0,0,1-14.13-1.4l-33.59-41a90.94,90.94,0,0,0,15.57-12.71Z"/><circle class="cls-29" cx="1660.35" cy="550.62" r="116.24"/><circle class="cls-32" cx="1660.35" cy="550.62" r="98.49"/><rect class="cls-33" x="1606.77" y="497.33" width="36.82" height="54.38"/><rect class="cls-31" x="1680.85" y="519.98" width="36.82" height="31.72"/><rect class="cls-34" x="1642.31" y="475.45" width="36.82" height="76.25"/><polygon class="cls-29" points="1804.83 670.49 1841.35 708.3 1817.29 732.79 1778.19 694.12 1804.83 670.49"/><path class="cls-29" d="M1748.65,633.85l15.61,15.61-6.36,6.36-15.61-15.61q3.3-3.06,6.36-6.36Z"/><rect class="cls-29" x="1757.66" y="657.46" width="26.96" height="10.48" transform="translate(50.15 1446.49) rotate(-45)"/><path class="cls-18" d="M1842.85,702.63l-4.38-4.37a4.49,4.49,0,0,0-6.35,6.35l3.74,3.74-19.07,19.07L1784.38,695l19.07-19.07,15.12,15.12a4.49,4.49,0,0,0,6.35-6.35l-18.29-18.29h0l-12.7-12.71h0l-11.21-11.22a8.09,8.09,0,0,0-11.44,0l-.64.64L1754.53,627a120.9,120.9,0,0,0,23.83-50H1810a4.5,4.5,0,0,0,0-9H1780c.39-2.86.69-5.74.88-8.66h50.61a4.5,4.5,0,0,0,0-9H1781.1q0-4.36-.36-8.66H1810a4.5,4.5,0,0,0,0-9h-30.31A119.86,119.86,0,0,0,1755,476.1a4.49,4.49,0,1,0-7,5.58,111.17,111.17,0,0,1,24.2,69.66,112.34,112.34,0,1,1-36.8-83.15,4.49,4.49,0,0,0,6-6.65,121.33,121.33,0,1,0-104.5,209V700.8a4.5,4.5,0,1,0,9,0V671.86q4.29.5,8.66.69v49.38a4.5,4.5,0,1,0,9,0V672.61q4.37-.14,8.67-.57V700.8a4.49,4.49,0,1,0,9,0v-30a120.84,120.84,0,0,0,54.32-24.69l16.08,16.08-.64.64a8.09,8.09,0,0,0,0,11.44l11.22,11.22h0l12.71,12.71h0l36.21,36.22a8.09,8.09,0,0,0,11.44,0l20.34-20.34a8.09,8.09,0,0,0,0-11.44Zm-94.2-68.78,15.61,15.61-6.36,6.36-15.61-15.61q3.3-3.06,6.36-6.36Zm29.38,54.8-6.36-6.35,19.07-19.07,6.35,6.36ZM1777,649.46l7.41,7.42-19.06,19.06-7.42-7.41Z"/><path class="cls-18" d="M1597.21,633.6a105.33,105.33,0,0,0,62.57,21.09,103.35,103.35,0,1,0,0-206.7A102.13,102.13,0,0,0,1587,478.3a104.41,104.41,0,0,0-30.52,73,101,101,0,0,0,26,68.78,4.5,4.5,0,1,0,6.69-6,92,92,0,0,1-23.7-62.68,95.46,95.46,0,0,1,27.89-66.74A93.18,93.18,0,0,1,1659.78,457a94.37,94.37,0,0,1,.06,188.73,96.44,96.44,0,0,1-57.23-19.29,4.49,4.49,0,1,0-5.4,7.18Z"/><path class="cls-18" d="M1676.86,471.06H1645.7a6.9,6.9,0,0,0-6.89,6.89v15.88h-29.06a6.9,6.9,0,0,0-6.89,6.89V549h-6a4.49,4.49,0,0,0,0,9h128.86a4.49,4.49,0,1,0,0-9h-6V523.48a6.9,6.9,0,0,0-6.89-6.89h-29.06V478A6.9,6.9,0,0,0,1676.86,471.06Zm-65,31.75h27V549h-27Zm36-22.76h27V549h-27Zm62.91,45.53V549h-27V525.58Z"/><path class="cls-18" d="M1711.61,596h-21.16l-9.61-24.57a4.5,4.5,0,0,0-8.4.08l-13.13,35.41-9.18-26a4.49,4.49,0,0,0-8.16-.7L1633.16,596h-21.1a4.5,4.5,0,1,0,0,9h23.73a4.5,4.5,0,0,0,3.93-2.31l5.25-9.4,10,28.35a4.49,4.49,0,0,0,4.2,3h0a4.48,4.48,0,0,0,4.21-2.93l13.35-36,6.43,16.44a4.49,4.49,0,0,0,4.18,2.86h24.23a4.5,4.5,0,0,0,0-9Z"/><path class="cls-18" d="M3614.51,414.63H3324.24c-9.42,0-17.41,7.7-17.24,17.11a16.8,16.8,0,0,0,16.8,16.48V677.78a5.59,5.59,0,0,0,5.6,5.6h66.73l-34,42.52a5.59,5.59,0,0,0,.87,7.87h0a5.6,5.6,0,0,0,7.87-.87l39.62-49.52h53.29v12.23a16.8,16.8,0,1,0,11.2,0V683.38h53.3l39.61,49.52a5.61,5.61,0,0,0,7.88.87h0a5.6,5.6,0,0,0,.87-7.87l-34-42.52h66.74a5.6,5.6,0,0,0,5.6-5.6V448.22a16.8,16.8,0,0,0,16.79-16.48C3631.92,422.33,3623.92,414.63,3614.51,414.63ZM3469.37,717a5.6,5.6,0,1,1,5.6-5.6A5.6,5.6,0,0,1,3469.37,717Zm134.38-44.8H3335v-224h268.76ZM3615,437H3323.8a5.6,5.6,0,0,1,0-11.2H3615a5.6,5.6,0,1,1,0,11.2Z"/><rect class="cls-18" x="3357.39" y="593.8" width="89.59" height="11.2"/><rect class="cls-18" x="3357.39" y="616.19" width="89.59" height="11.2"/><rect class="cls-18" x="3357.39" y="638.59" width="67.19" height="11.2"/><rect class="cls-18" x="3402.18" y="571.4" width="44.79" height="11.2"/><rect class="cls-18" x="3491.77" y="493.01" width="89.59" height="11.2"/><rect class="cls-18" x="3491.77" y="515.41" width="89.59" height="11.2"/><rect class="cls-18" x="3491.77" y="537.81" width="67.19" height="11.2"/><rect class="cls-18" x="3536.56" y="470.62" width="44.79" height="11.2"/><path class="cls-18" d="M3402.18,465a44.79,44.79,0,1,0,44.8,44.79A44.79,44.79,0,0,0,3402.18,465Zm5.77,11.73A33.57,33.57,0,0,1,3429.26,490l-21.48,10.73Zm-25.13,5.66a33.53,33.53,0,0,1,14-5.69l-.21,30.85-21.83,21.54A33.51,33.51,0,0,1,3382.82,482.41ZM3412,541.94a33.57,33.57,0,0,1-9.8,1.46,33.22,33.22,0,0,1-19.59-6.36l23-22.67L3434.31,500A33.6,33.6,0,0,1,3412,541.94Z"/><rect class="cls-18" x="3480.57" y="621.79" width="11.2" height="28"/><rect class="cls-18" x="3570.16" y="610.59" width="11.2" height="39.19"/><rect class="cls-18" x="3502.97" y="604.99" width="11.2" height="44.79"/><rect class="cls-18" x="3525.36" y="582.6" width="11.2" height="67.19"/><rect class="cls-18" x="3547.76" y="599.4" width="11.2" height="50.39"/><rect class="cls-18" x="3379.79" y="571.4" width="11.2" height="11.2"/><rect class="cls-18" x="3514.17" y="470.62" width="11.2" height="11.2"/><path class="cls-34" d="M3615,437H3323.8a5.6,5.6,0,0,1,0-11.2H3615a5.6,5.6,0,1,1,0,11.2Z"/><path class="cls-29" d="M3408,476.75A33.57,33.57,0,0,1,3429.26,490l-21.48,10.73Z"/><path class="cls-33" d="M3382.82,482.41a33.53,33.53,0,0,1,14-5.69l-.21,30.85-21.83,21.54A33.51,33.51,0,0,1,3382.82,482.41Z"/><path class="cls-31" d="M3412,541.94a33.57,33.57,0,0,1-9.8,1.46,33.22,33.22,0,0,1-19.59-6.36l23-22.67L3434.31,500A33.6,33.6,0,0,1,3412,541.94Z"/><rect class="cls-34" x="2479.95" y="442.62" width="225.99" height="307.78"/><rect class="cls-29" x="2459.14" y="422.97" width="225.99" height="307.78"/><path class="cls-31" d="M2706.72,700.69H2460.49l-27.79-20.33,4.47-6.45,22.33-16.28h247.22A14.25,14.25,0,0,1,2721,671.88v14.56A14.25,14.25,0,0,1,2706.72,700.69Z"/><path class="cls-18" d="M2518.84,500.52c-4.72-10.63-9-20.42-13.4-30.14-5.57-12.23-2.68-10.34-16.75-10.44-3.33,0-5.5,2.06-5.48,4.89s2.05,4.68,5.17,5a10,10,0,0,0,2.32,0c2.66-.38,4,.64,5.15,3.23,5.88,13.66,12,27.2,18,40.81,1.2,2.71,3.06,4.81,6,3.72a8.65,8.65,0,0,0,4.27-4.44q12.28-28.17,24.17-56.5c1-2.32,2.17-3,4.63-3,17.43.11,34.86.06,52.3.06q21.67,0,43.35,0c2.45,0,4.68-.33,5.87-2.79,1.78-3.7-.92-7.13-5.76-7.14q-50.47,0-100.95,0a6.32,6.32,0,0,0-6.56,4.39c-3.56,8.66-7.33,17.23-11,25.84S2522.87,491.1,2518.84,500.52Zm59.63,1.07c3.39,4.84,6.44,9.27,9.59,13.64,2,2.72,4.8,3.39,7.15,1.86s2.95-4.61,1-7.53c-3.79-5.55-7.69-11-11.58-16.6.67-1,1.26-1.92,1.89-2.81,3.22-4.61,6.49-9.19,9.65-13.83,2-2.93,1.59-5.91-.86-7.55s-5.1-1-7.16,1.75c-.81,1.05-1.54,2.15-2.3,3.23l-7.33,10.47c-3.27-4.65-6.21-8.89-9.21-13.1-2.33-3.29-5.29-4.1-7.8-2.22s-2.6,4.6-.33,7.88c3.7,5.34,7.44,10.66,11.26,16.13-3.7,5.29-7.36,10.51-11,15.75-2.55,3.65-2.45,6.5.26,8.37s5.38.85,7.95-2.79C2572.46,510.19,2575.29,506.12,2578.47,501.59Zm-55.48,103c-1.88-2.64-3.58-5.05-5.3-7.43-2.32-3.21-5-4-7.55-2.21s-2.77,4.65-.6,7.83c2.41,3.53,4.87,7,7.32,10.56-2.51,3.61-4.93,7-7.29,10.49-2.18,3.19-2,6.11.52,7.86s5.35.92,7.58-2.17c1.72-2.38,3.42-4.79,5.31-7.45,1.94,2.75,3.61,5.19,5.34,7.58,2.12,2.92,4.93,3.71,7.35,2.13,2.6-1.7,2.94-4.63.79-7.79-2.41-3.55-4.89-7-7.41-10.65,2.6-3.73,5.16-7.31,7.61-11,1.93-2.87,1.59-5.58-.75-7.31s-5.25-1.23-7.39,1.68C2526.71,599.19,2525,601.72,2523,604.57Zm58.1,8.74c-2.63,3.78-5.13,7.28-7.54,10.84-2,2.93-1.62,5.91.82,7.56s5.26,1,7.18-1.74q9.73-13.77,19.34-27.65c2-2.83,1.56-5.58-.79-7.3s-5.24-1.2-7.39,1.73c-1.8,2.46-3.52,5-5.22,7.41-.36-.09-.52-.08-.57-.14-1.75-2.4-3.47-4.83-5.24-7.21-2.18-2.94-4.91-3.6-7.38-1.84s-2.73,4.61-.7,7.59C2576,606.11,2578.51,609.61,2581.09,613.31Zm-97.91-.95a38.13,38.13,0,0,0,10,26.19c2.61,2.75,5.56,3.14,7.78,1s2-4.82-.34-7.61c-10.05-11.92-10-25.46.07-37.38,2.29-2.71,2.38-5.68.23-7.63s-5.12-1.59-7.55,1A36.32,36.32,0,0,0,2483.18,612.36Zm141.69,3.09c0-11.72-3.88-21.39-10.31-27.78-2.35-2.33-5.25-2.6-7.34-.69s-2.32,5,0,7.33a27.35,27.35,0,0,1,.07,37.94c-2.36,2.43-2.26,5.31-.15,7.32s5.08,1.8,7.53-.79C2621.43,631.65,2624.73,623.13,2624.87,615.45Zm-116.55-50.72c6.38,0,12.77,0,19.15,0,3.56,0,5.81-2,5.81-4.92s-2.28-5-5.82-5q-19.15-.06-38.3,0c-3.75,0-6.06,2.1-5.95,5.15s2.33,4.74,6,4.76C2495.55,564.75,2501.94,564.73,2508.32,564.73Zm.18-32.59c-6.4,0-12.8,0-19.2,0-3.83,0-6.15,2-6.09,5s2.29,4.9,5.89,4.92q19.2.06,38.4,0c3.52,0,5.81-2.14,5.77-5s-2.26-4.81-5.9-4.84C2521.08,532.11,2514.79,532.14,2508.5,532.14Zm121.68,0c-6.4,0-12.8,0-19.2,0-3.74,0-5.87,1.75-6,4.7-.12,3.12,2.11,5.19,5.91,5.2q19,.08,38.06,0c3.8,0,6.06-2,6-5.12s-2.16-4.75-5.9-4.78C2642.76,532.11,2636.47,532.14,2630.18,532.14Zm-.24,32.59c6.41,0,12.81,0,19.21,0,3.62,0,5.79-1.91,5.81-4.9s-2.2-5-5.77-5q-19.2-.06-38.4,0c-3.59,0-5.79,2-5.81,5s2.19,4.92,5.76,4.94C2617.14,564.75,2623.54,564.73,2629.94,564.73Zm-69.65,53.73c3.88-.5,9.17,1.12,9.51-4.71.41-7-5.82-4.79-9.58-5.58-.75-8-1.62-9.89-5-9.72-6.67.34-4.6,5.95-5.4,9.85-3.95.38-9.42-1.25-9.55,4.85-.14,6.55,5.82,4.65,9.58,5.39.71,7.83,1.67,9.63,5.08,9.73S2559.31,626.6,2560.29,618.46Zm83.15,9.14h0c2.2,0,4.4.1,6.6,0a4.92,4.92,0,1,0,0-9.84c-4.5-.13-9-.14-13.51,0a4.87,4.87,0,0,0-4.79,4.91,4.92,4.92,0,0,0,4.81,4.9C2638.82,627.72,2641.13,627.6,2643.44,627.6Zm.11-28.56h0c-2.31,0-4.62-.1-6.92,0a4.89,4.89,0,0,0-.24,9.78c4.61.19,9.24.19,13.84,0a4.79,4.79,0,0,0,4.72-5c0-2.79-2-4.7-5.14-4.84C2647.73,599,2645.64,599,2643.55,599Z"/><path class="cls-18" d="M2686.43,417c2.68,1.55,3.55,3.89,3.39,6.94-.2,3.73-.05,7.47-.05,11.72h14c6,0,7.43,1.38,7.43,7.38q0,36.92,0,73.83a24.5,24.5,0,0,1-.1,3,4.56,4.56,0,0,1-4.59,4.36,4.52,4.52,0,0,1-5-3.89,20,20,0,0,1-.24-4q0-33.27,0-66.54v-4h-11.18V653.67h11.18V545.28c0-5.32,1.63-7.76,5.09-7.7s4.84,2.38,4.84,7.56v108.6c5.75.71,10.27,3,13.62,7.29,5.77,7.46,5.64,28.63-.22,36-3.35,4.19-7.84,6.29-13.4,7v3.64q0,20.7,0,41.39c0,5.62-1.44,7-7,7h-220.5c-5.61,0-7.09-1.46-7.1-7,0-3.73,0-7.47,0-11.66H2462.2c-5.54,0-7-1.51-7-7.09,0-8.72-.07-17.43,0-26.15a4.8,4.8,0,0,0-2.21-4.4c-7-5.16-14-10.42-20.93-15.66-5-3.75-5-6.8.13-10.61,6.88-5.16,13.73-10.37,20.68-15.44a5.09,5.09,0,0,0,2.33-4.68c-.1-12.47-.07-24.94,0-37.41,0-4.08,2.44-6.37,5.89-5.64s4,3.33,4,6.31q0,16.56,0,33.11v4.13h155.37c1.11,0,2.21,0,3.31,0,3.36.15,5.52,2.09,5.51,4.91s-2.17,4.78-5.51,5c-1.1.07-2.21,0-3.31,0q-77.47,0-154.95,0a10.08,10.08,0,0,0-6.95,2.31c-3,2.54-6.28,4.8-10,7.61,4.36.4,9.07-.25,9,5.57,0,3.22-2.26,4.41-8.26,5.08,5.88,3.49,9.63,9.79,18.15,9.75,69.2-.3,138.4-.17,207.59-.17h4.53v-30.1h-10.89c-6.73,0-13.46.05-20.19,0-3.69,0-5.78-2-5.79-5s2.06-4.89,5.77-4.91c9.16-.06,18.32,0,27.48,0h3.71V427.22H2465.1v4.33q0,78.65,0,157.27a17.77,17.77,0,0,1-.32,4.26,4.86,4.86,0,0,1-9.51-.68,21.33,21.33,0,0,1-.08-2.65q0-82.93-.05-165.87c0-3,.7-5.41,3.52-6.84ZM2465.27,727.23h214.29V704.09H2465.27Zm235.83-23.15h-11.33v25.33c0,6.84-1.18,8-8.13,8h-195v8.5H2701.1Zm-11.17-10.21c7.17,0,14,.12,20.81,0,4.48-.11,7.65-3.4,7.89-8.18.22-4.5.2-9,0-13.54-.19-4.23-2.86-7.81-6.56-8-7.32-.34-14.66-.1-22.15-.1Z"/><path class="cls-18" d="M2518.84,500.52c4-9.42,7.69-18,11.36-26.57s7.45-17.18,11-25.84a6.32,6.32,0,0,1,6.56-4.39q50.47.06,100.95,0c4.84,0,7.54,3.44,5.76,7.14-1.19,2.46-3.42,2.8-5.87,2.79q-21.68,0-43.35,0c-17.44,0-34.87.05-52.3-.06-2.46,0-3.66.71-4.63,3q-11.92,28.32-24.17,56.5a8.65,8.65,0,0,1-4.27,4.44c-3,1.09-4.82-1-6-3.72-6-13.61-12.14-27.15-18-40.81-1.11-2.59-2.49-3.61-5.15-3.23a10,10,0,0,1-2.32,0c-3.12-.3-5.16-2.28-5.17-5s2.15-4.91,5.48-4.89c14.07.1,11.18-1.79,16.75,10.44C2509.86,480.1,2514.12,489.89,2518.84,500.52Z"/><path class="cls-18" d="M2578.47,501.59c-3.18,4.53-6,8.6-8.87,12.65-2.57,3.64-5.32,4.6-7.95,2.79s-2.81-4.72-.26-8.37c3.65-5.24,7.31-10.46,11-15.75-3.82-5.47-7.56-10.79-11.26-16.13-2.27-3.28-2.12-6,.33-7.88s5.47-1.07,7.8,2.22c3,4.21,5.94,8.45,9.21,13.1l7.33-10.47c.76-1.08,1.49-2.18,2.3-3.23,2.06-2.71,4.77-3.36,7.16-1.75s2.86,4.62.86,7.55c-3.16,4.64-6.43,9.22-9.65,13.83-.63.89-1.22,1.81-1.89,2.81,3.89,5.57,7.79,11.05,11.58,16.6,2,2.92,1.53,5.89-1,7.53s-5.2.86-7.15-1.86C2584.91,510.86,2581.86,506.43,2578.47,501.59Z"/><path class="cls-18" d="M2523,604.57c2-2.85,3.72-5.38,5.53-7.85,2.14-2.91,4.93-3.51,7.39-1.68s2.68,4.44.75,7.31c-2.45,3.66-5,7.24-7.61,11,2.52,3.61,5,7.1,7.41,10.65,2.15,3.16,1.81,6.09-.79,7.79-2.42,1.58-5.23.79-7.35-2.13-1.73-2.39-3.4-4.83-5.34-7.58-1.89,2.66-3.59,5.07-5.31,7.45-2.23,3.09-5.11,3.9-7.58,2.17s-2.7-4.67-.52-7.86c2.36-3.46,4.78-6.88,7.29-10.49-2.45-3.52-4.91-7-7.32-10.56-2.17-3.18-1.92-6.1.6-7.83s5.23-1,7.55,2.21C2519.41,599.52,2521.11,601.93,2523,604.57Z"/><path class="cls-18" d="M2581.09,613.31c-2.58-3.7-5.07-7.2-7.49-10.75-2-3-1.72-5.88.7-7.59s5.2-1.1,7.38,1.84c1.77,2.38,3.49,4.81,5.24,7.21,0,.06.21.05.57.14,1.7-2.42,3.42-4.95,5.22-7.41,2.15-2.93,4.92-3.54,7.39-1.73s2.75,4.47.79,7.3q-9.6,13.88-19.34,27.65c-1.92,2.71-4.85,3.32-7.18,1.74s-2.81-4.63-.82-7.56C2576,620.59,2578.46,617.09,2581.09,613.31Z"/><path class="cls-18" d="M2483.18,612.36a36.32,36.32,0,0,1,10.16-24.43c2.43-2.56,5.41-2.92,7.55-1s2.06,4.92-.23,7.63c-10.1,11.92-10.12,25.46-.07,37.38,2.36,2.79,2.48,5.59.34,7.61s-5.17,1.72-7.78-1A38.13,38.13,0,0,1,2483.18,612.36Z"/><path class="cls-18" d="M2624.87,615.45c-.14,7.68-3.44,16.2-10.17,23.33-2.45,2.59-5.36,2.85-7.53.79s-2.21-4.89.15-7.32a27.35,27.35,0,0,0-.07-37.94c-2.35-2.37-2.16-5.38,0-7.33s5-1.64,7.34.69C2621,594.06,2624.88,603.73,2624.87,615.45Z"/><path class="cls-18" d="M2508.32,564.73c-6.38,0-12.77,0-19.15,0-3.63,0-5.85-1.84-6-4.76s2.2-5.14,5.95-5.15q19.15-.06,38.3,0c3.54,0,5.81,2.06,5.82,5s-2.25,4.9-5.81,4.92C2521.09,564.75,2514.7,564.73,2508.32,564.73Z"/><path class="cls-18" d="M2508.5,532.14c6.29,0,12.58,0,18.87,0,3.64,0,5.85,1.9,5.9,4.84s-2.25,5-5.77,5q-19.2.09-38.4,0c-3.6,0-5.84-2-5.89-4.92s2.26-5,6.09-5C2495.7,532.11,2502.1,532.14,2508.5,532.14Z"/><path class="cls-18" d="M2630.18,532.14c6.29,0,12.58,0,18.86,0,3.74,0,5.83,1.77,5.9,4.78s-2.18,5.11-6,5.12q-19,.06-38.06,0c-3.8,0-6-2.08-5.91-5.2.12-3,2.25-4.68,6-4.7C2617.38,532.11,2623.78,532.14,2630.18,532.14Z"/><path class="cls-18" d="M2629.94,564.73c-6.4,0-12.8,0-19.2,0-3.57,0-5.78-2-5.76-4.94s2.22-4.94,5.81-5q19.2-.06,38.4,0c3.57,0,5.79,2,5.77,5s-2.19,4.88-5.81,4.9C2642.75,564.75,2636.35,564.73,2629.94,564.73Z"/><path class="cls-18" d="M2560.29,618.46c-1,8.14-2,9.9-5.37,9.81s-4.37-1.9-5.08-9.73c-3.76-.74-9.72,1.16-9.58-5.39.13-6.1,5.6-4.47,9.55-4.85.8-3.9-1.27-9.51,5.4-9.85,3.39-.17,4.26,1.68,5,9.72,3.76.79,10-1.39,9.58,5.58C2569.46,619.58,2564.17,618,2560.29,618.46Z"/><path class="cls-18" d="M2643.44,627.6c-2.31,0-4.62.12-6.92,0a4.92,4.92,0,0,1-4.81-4.9,4.87,4.87,0,0,1,4.79-4.91c4.5-.16,9-.15,13.51,0a4.92,4.92,0,1,1,0,9.84c-2.2.12-4.4,0-6.6,0Z"/><path class="cls-18" d="M2643.55,599c2.09,0,4.18-.08,6.26,0,3.16.14,5.12,2.05,5.14,4.84a4.79,4.79,0,0,1-4.72,5c-4.6.19-9.23.19-13.84,0a4.89,4.89,0,0,1,.24-9.78c2.3-.13,4.61,0,6.92,0Z"/><path class="cls-1" d="M2689.93,693.87c7.17,0,14,.12,20.81,0,4.48-.11,7.65-3.4,7.89-8.18.22-4.5.2-9,0-13.54-.19-4.23-2.86-7.81-6.56-8-7.32-.34-14.66-.1-22.15-.1Z"/><path class="cls-31" d="M4378.3,699.61a42.55,42.55,0,0,0-11.8,29.86,5.81,5.81,0,0,1-5.81,5.81h-23.23a5.81,5.81,0,0,1-5.81-5.81,43.11,43.11,0,0,0-11.94-30,40.61,40.61,0,0,1,24.7-68.47,43.78,43.78,0,0,1,4.72-.27h0a40.63,40.63,0,0,1,29.17,68.89Z"/><path class="cls-34" d="M4511.72,502.94h-4a9.57,9.57,0,0,0-9.23,7.23,51.5,51.5,0,0,1-5.62,13.52,9.57,9.57,0,0,0,1.41,11.64l2.87,2.87-8.22,8.22-2.86-2.87a9.54,9.54,0,0,0-11.64-1.41,52.18,52.18,0,0,1-13.52,5.62,9.56,9.56,0,0,0-7.24,9.23v4H4442v-4a9.56,9.56,0,0,0-7.23-9.23,51.84,51.84,0,0,1-13.52-5.62,9.54,9.54,0,0,0-11.64,1.41l-2.87,2.87-8.22-8.22,2.87-2.87a9.54,9.54,0,0,0,1.41-11.64,51.76,51.76,0,0,1-5.62-13.53,9.56,9.56,0,0,0-9.22-7.22h-4V491.32h4a9.58,9.58,0,0,0,9.22-7.23,52.25,52.25,0,0,1,5.62-13.53,9.54,9.54,0,0,0-1.41-11.64l-2.87-2.86,8.22-8.22,2.86,2.86a9.56,9.56,0,0,0,11.65,1.42,51.87,51.87,0,0,1,13.52-5.63,9.55,9.55,0,0,0,7.23-9.22v-4h11.62v4a9.56,9.56,0,0,0,7.23,9.22,51.79,51.79,0,0,1,13.53,5.63,9.57,9.57,0,0,0,11.64-1.41l2.86-2.87,8.22,8.22-2.87,2.86a9.57,9.57,0,0,0-1.41,11.64,51.71,51.71,0,0,1,5.62,13.53,9.59,9.59,0,0,0,9.23,7.23h4v11.62Z"/><path class="cls-1" d="M4447.82,526.17a29,29,0,1,1,29-29A29,29,0,0,1,4447.82,526.17Z"/><path class="cls-29" d="M4250.33,561a63.9,63.9,0,1,1,63.89-63.89A63.89,63.89,0,0,1,4250.33,561Z"/><path class="cls-18" d="M4372.31,758.52h-46.47a5.81,5.81,0,1,0,0,11.61h46.47a5.81,5.81,0,1,0,0-11.61Z"/><path class="cls-18" d="M4401.32,669.49a52.29,52.29,0,0,0-103.88-6.44h0a52.18,52.18,0,0,0,13.88,44.45,31.58,31.58,0,0,1,8.71,22,17.45,17.45,0,0,0,17.43,17.43h23.23a17.45,17.45,0,0,0,17.43-17.43,31,31,0,0,1,8.52-21.78A52.19,52.19,0,0,0,4401.32,669.49Zm-23,30.12a42.55,42.55,0,0,0-11.8,29.86,5.81,5.81,0,0,1-5.81,5.81h-23.23a5.81,5.81,0,0,1-5.81-5.81,43.11,43.11,0,0,0-11.94-30,40.61,40.61,0,0,1,24.7-68.47,43.78,43.78,0,0,1,4.72-.27h0a40.63,40.63,0,0,1,29.17,68.89Z"/><path class="cls-18" d="M4447.82,456.47a40.66,40.66,0,1,0,40.66,40.66A40.65,40.65,0,0,0,4447.82,456.47Zm0,69.7a29,29,0,1,1,29-29A29,29,0,0,1,4447.82,526.17Z"/><path class="cls-18" d="M4513.78,479.7h-4.48a63.52,63.52,0,0,0-5.7-13.71l3.18-3.18a9.55,9.55,0,0,0,0-13.51l-11.13-11.13a9.77,9.77,0,0,0-13.51,0l-3.18,3.18a63.7,63.7,0,0,0-13.71-5.69v-4.48a9.56,9.56,0,0,0-9.56-9.55H4440a9.54,9.54,0,0,0-9.55,9.55v4.48a63.78,63.78,0,0,0-13.72,5.69l-3.18-3.18a9.78,9.78,0,0,0-13.5,0l-11.14,11.13a9.55,9.55,0,0,0,0,13.51L4392,466a63.73,63.73,0,0,0-5.7,13.71h-4.48a9.56,9.56,0,0,0-9.55,9.55v2.07h-46.76a75.48,75.48,0,1,0-81,81v87.42a17.44,17.44,0,0,0,17.42,17.43h17.43a5.81,5.81,0,1,0,0-11.62h-17.43a5.81,5.81,0,0,1-5.8-5.81V572.35a75.56,75.56,0,0,0,69.41-69.41h46.76V505a9.56,9.56,0,0,0,9.55,9.55h4.48a63.81,63.81,0,0,0,5.7,13.72l-3.18,3.18a9.55,9.55,0,0,0,0,13.51L4400,556.09a9.78,9.78,0,0,0,13.51,0l3.18-3.18a63.81,63.81,0,0,0,13.72,5.7v4.48a9.56,9.56,0,0,0,9.55,9.55H4442v87.13a5.81,5.81,0,0,1-5.81,5.81h-17.42a5.81,5.81,0,1,0,0,11.61h17.42a17.44,17.44,0,0,0,17.43-17.42V572.64h2.06a9.57,9.57,0,0,0,9.56-9.55v-4.48a63.73,63.73,0,0,0,13.71-5.7l3.18,3.18a9.78,9.78,0,0,0,13.51,0L4506.78,545a9.55,9.55,0,0,0,0-13.51l-3.18-3.17a63.81,63.81,0,0,0,5.7-13.72h4.48a9.56,9.56,0,0,0,9.55-9.55V489.25A9.56,9.56,0,0,0,4513.78,479.7ZM4250.33,561a63.9,63.9,0,1,1,63.89-63.89A63.89,63.89,0,0,1,4250.33,561Zm261.39-58.08h-4a9.57,9.57,0,0,0-9.23,7.23,51.5,51.5,0,0,1-5.62,13.52,9.57,9.57,0,0,0,1.41,11.64l2.87,2.87-8.22,8.22-2.86-2.87a9.54,9.54,0,0,0-11.64-1.41,52.18,52.18,0,0,1-13.52,5.62,9.56,9.56,0,0,0-7.24,9.23v4H4442v-4a9.56,9.56,0,0,0-7.23-9.23,51.84,51.84,0,0,1-13.52-5.62,9.54,9.54,0,0,0-11.64,1.41l-2.87,2.87-8.22-8.22,2.87-2.87a9.54,9.54,0,0,0,1.41-11.64,51.76,51.76,0,0,1-5.62-13.53,9.56,9.56,0,0,0-9.22-7.22h-4V491.32h4a9.58,9.58,0,0,0,9.22-7.23,52.25,52.25,0,0,1,5.62-13.53,9.54,9.54,0,0,0-1.41-11.64l-2.87-2.86,8.22-8.22,2.86,2.86a9.56,9.56,0,0,0,11.65,1.42,51.87,51.87,0,0,1,13.52-5.63,9.55,9.55,0,0,0,7.23-9.22v-4h11.62v4a9.56,9.56,0,0,0,7.23,9.22,51.79,51.79,0,0,1,13.53,5.63,9.57,9.57,0,0,0,11.64-1.41l2.86-2.87,8.22,8.22-2.87,2.86a9.57,9.57,0,0,0-1.41,11.64,51.71,51.71,0,0,1,5.62,13.53,9.59,9.59,0,0,0,9.23,7.23h4v11.62Z"/><circle class="cls-18" cx="4447.82" cy="497.13" r="5.81"/><path class="cls-18" d="M4250.33,444.85a52.28,52.28,0,1,0,52.27,52.28A52.28,52.28,0,0,0,4250.33,444.85Zm0,92.94A40.66,40.66,0,1,1,4291,497.13,40.66,40.66,0,0,1,4250.33,537.79Z"/><path class="cls-18" d="M4256.13,494.72V473.89a5.81,5.81,0,0,0-11.61,0v23.24a5.77,5.77,0,0,0,1.7,4.1l11.62,11.62a5.81,5.81,0,0,0,8.21-8.21Z"/><path class="cls-18" d="M4354.88,601.68V584.26a5.81,5.81,0,1,0-11.61,0v17.42a5.81,5.81,0,1,0,11.61,0Z"/><path class="cls-18" d="M4301.29,627.71a5.81,5.81,0,0,0,2.6-9.72l-12.32-12.32a5.81,5.81,0,1,0-8.21,8.21l12.32,12.33A5.81,5.81,0,0,0,4301.29,627.71Z"/><path class="cls-18" d="M4396.86,627.71a5.82,5.82,0,0,0,5.61-1.5l12.32-12.32a5.81,5.81,0,1,0-8.21-8.22L4394.26,618a5.81,5.81,0,0,0,2.6,9.72Z"/><path class="cls-18" d="M4301.29,715.07a5.79,5.79,0,0,0-5.61,1.5l-12.32,12.32a5.81,5.81,0,0,0,8.21,8.21l12.32-12.32a5.81,5.81,0,0,0-2.6-9.71Z"/><path class="cls-18" d="M4402.47,716.57a5.81,5.81,0,1,0-8.21,8.21l12.32,12.32a5.81,5.81,0,0,0,8.21-8.21Z"/><path class="cls-1" d="M4250.33,537.79A40.66,40.66,0,1,1,4291,497.13,40.66,40.66,0,0,1,4250.33,537.79Z"/></g></g></svg>