<?xml version="1.0" standalone="no"?>
<!DOCTYPE svg PUBLIC "-//W3C//DTD SVG 20010904//EN"
 "http://www.w3.org/TR/2001/REC-SVG-20010904/DTD/svg10.dtd">
<svg version="1.0" xmlns="http://www.w3.org/2000/svg"
 width="10308.000000pt" height="2713.000000pt" viewBox="0 0 10308.000000 2713.000000"
 preserveAspectRatio="xMidYMid meet">

<g transform="translate(0.000000,2713.000000) scale(0.100000,-0.100000)"
fill="#000000" stroke="none">
<path d="M14541 25349 c-220 -20 -480 -78 -687 -154 -149 -55 -405 -184 -534
-270 -583 -388 -985 -968 -1134 -1637 -50 -221 -59 -316 -60 -578 0 -263 11
-379 60 -595 62 -275 210 -626 364 -860 426 -647 1085 -1067 1855 -1181 142
-21 455 -29 600 -15 387 37 733 143 1057 322 703 389 1195 1086 1332 1884 24
142 26 159 32 350 16 449 -71 854 -271 1260 -136 276 -283 483 -500 701 -214
215 -433 373 -700 504 -88 43 -204 95 -259 115 -360 132 -775 188 -1155 154z
m615 -58 c737 -110 1382 -521 1799 -1146 440 -659 553 -1499 304 -2259 -264
-806 -935 -1456 -1745 -1691 -226 -66 -411 -94 -659 -102 -721 -22 -1382 235
-1899 737 -636 618 -911 1483 -751 2356 131 710 567 1347 1190 1739 147 93
376 200 555 259 215 71 375 103 645 130 96 10 436 -4 561 -23z"/>
<path d="M14485 24704 c-213 -33 -410 -94 -600 -188 -562 -275 -966 -798
-1090 -1408 -120 -594 34 -1218 414 -1682 80 -97 259 -268 356 -341 220 -164
462 -278 735 -345 168 -41 284 -54 475 -54 327 0 600 63 890 204 221 109 377
223 560 411 278 286 452 615 530 1002 131 652 -63 1319 -524 1801 -312 325
-718 533 -1176 601 -127 19 -446 18 -570 -1z m545 -1944 l0 -610 -150 0 -150
0 0 395 0 395 -145 0 -145 0 0 98 0 99 81 16 c59 11 96 26 136 52 54 36 113
112 113 147 0 16 11 18 130 18 l130 0 0 -610z"/>
<path d="M32924 25349 c-1540 -137 -2643 -1565 -2384 -3087 95 -552 344 -1035
740 -1433 414 -416 937 -673 1545 -761 135 -19 551 -17 692 5 421 63 785 201
1122 428 284 189 555 465 744 754 200 306 323 625 399 1030 19 106 22 153 22
410 0 318 -10 415 -74 665 -160 633 -551 1184 -1100 1552 -496 332 -1113 490
-1706 437z m611 -58 c72 -11 162 -27 200 -35 630 -145 1201 -530 1569 -1060
229 -329 378 -704 443 -1116 14 -92 18 -171 17 -390 -1 -251 -3 -288 -27 -420
-100 -553 -346 -1029 -732 -1415 -409 -409 -927 -664 -1515 -747 -147 -20
-555 -17 -705 6 -153 24 -392 83 -520 130 -258 95 -566 273 -784 454 -820 681
-1142 1810 -806 2827 128 386 341 732 630 1021 309 310 680 534 1085 657 146
45 326 82 455 96 55 6 116 13 135 15 84 10 431 -4 555 -23z"/>
<path d="M32895 24709 c-333 -43 -675 -183 -950 -390 -413 -309 -683 -751
-780 -1276 -22 -117 -31 -431 -16 -559 89 -758 569 -1383 1277 -1665 263 -104
601 -154 884 -130 867 74 1578 663 1799 1492 160 599 39 1232 -332 1732 -72
97 -243 276 -343 358 -280 229 -633 383 -993 433 -122 17 -426 20 -546 5z
m410 -1324 c83 -22 147 -60 206 -122 95 -100 129 -230 95 -363 -36 -139 -102
-209 -323 -340 -87 -52 -171 -108 -188 -124 l-30 -31 283 -3 282 -2 0 -125 0
-125 -465 0 -465 0 0 58 c0 86 25 184 66 262 53 101 138 176 318 280 159 91
209 135 226 199 27 102 -39 181 -152 181 -69 0 -117 -25 -146 -75 -19 -33 -22
-52 -20 -107 l4 -68 -142 0 -143 0 -6 55 c-26 207 111 400 320 451 71 17 210
17 280 -1z"/>
<path d="M51305 25350 c-624 -63 -1170 -314 -1609 -740 -420 -407 -675 -895
-778 -1486 -20 -113 -22 -165 -23 -414 0 -323 10 -408 75 -665 219 -861 858
-1556 1705 -1851 130 -46 339 -97 490 -120 169 -26 580 -27 745 -1 320 50 583
135 856 276 823 427 1366 1259 1424 2186 41 668 -163 1312 -583 1835 -105 131
-332 352 -460 448 -372 280 -781 449 -1252 518 -123 18 -468 26 -590 14z m455
-40 c404 -37 774 -155 1110 -356 456 -272 796 -643 1026 -1119 441 -911 313
-1989 -329 -2785 -83 -102 -284 -301 -387 -384 -331 -262 -724 -447 -1120
-524 -213 -42 -262 -47 -515 -47 -186 1 -280 5 -365 18 -585 88 -1082 337
-1490 746 -387 389 -637 875 -731 1425 -27 154 -37 522 -20 688 102 973 737
1807 1649 2167 367 144 786 205 1172 171z"/>
<path d="M51247 24704 c-423 -63 -828 -266 -1125 -562 -176 -177 -283 -325
-392 -544 -246 -497 -277 -1078 -84 -1597 245 -655 809 -1139 1489 -1276 439
-89 880 -34 1282 160 597 287 999 824 1118 1490 26 143 31 415 11 572 -112
873 -743 1557 -1606 1739 -110 23 -153 26 -360 29 -172 3 -261 0 -333 -11z
m481 -155 c490 -53 923 -284 1237 -660 306 -366 464 -855 425 -1317 -39 -470
-227 -873 -556 -1192 -168 -163 -301 -257 -499 -351 -270 -129 -551 -187 -859
-176 -352 12 -660 109 -946 297 -132 87 -220 161 -335 282 -264 277 -432 622
-491 1009 -21 137 -20 391 1 529 92 607 466 1123 1011 1394 311 155 676 222
1012 185z"/>
<path d="M51080 23245 l0 -125 252 -2 253 -3 -146 -119 -146 -119 62 -96 c35
-54 68 -95 76 -94 8 1 34 7 58 13 51 12 91 6 142 -22 104 -58 97 -223 -12
-278 -45 -23 -125 -26 -172 -6 -46 19 -95 79 -108 131 -10 38 -14 44 -33 40
-11 -2 -73 -14 -136 -26 -63 -11 -118 -23 -121 -25 -4 -2 -2 -28 5 -57 37
-160 172 -284 351 -322 334 -71 624 138 602 432 -12 163 -112 284 -273 332
l-56 16 146 113 146 113 0 115 0 114 -445 0 -445 0 0 -125z"/>
<path d="M69685 25349 c-400 -37 -819 -177 -1159 -387 -307 -190 -612 -485
-813 -787 -225 -338 -365 -712 -425 -1135 -20 -144 -17 -565 5 -705 75 -473
238 -866 509 -1228 122 -163 365 -405 529 -528 360 -268 771 -438 1221 -505
150 -22 449 -29 603 -15 631 60 1195 322 1636 761 210 209 355 405 483 650
158 305 271 679 294 979 12 161 6 466 -12 600 -158 1179 -1069 2106 -2242
2281 -162 24 -475 34 -629 19z m593 -54 c423 -61 820 -219 1156 -458 1049
-747 1402 -2132 836 -3283 -257 -522 -668 -934 -1191 -1193 -247 -123 -507
-205 -784 -247 -148 -23 -559 -26 -700 -6 -440 63 -817 209 -1164 450 -700
486 -1121 1288 -1121 2138 0 718 277 1378 786 1875 143 139 240 217 399 321
359 235 759 375 1199 418 124 12 458 4 584 -15z"/>
<path d="M69665 24710 c-236 -36 -417 -91 -614 -186 -358 -172 -658 -444 -860
-779 -302 -501 -370 -1113 -185 -1674 331 -1008 1382 -1584 2416 -1325 481
120 911 427 1191 849 117 176 222 421 276 640 41 167 46 224 46 480 -1 234 -3
258 -28 380 -88 413 -267 746 -556 1036 -289 288 -624 468 -1031 554 -110 24
-152 27 -360 30 -129 2 -262 0 -295 -5z m566 -179 c397 -69 744 -252 1024
-543 267 -276 427 -593 497 -978 27 -152 29 -438 4 -585 -69 -405 -241 -748
-515 -1024 -629 -633 -1601 -731 -2346 -236 -535 355 -848 967 -822 1605 12
284 69 509 192 757 253 510 733 881 1285 992 222 45 465 49 681 12z"/>
<path d="M69661 23041 l-251 -329 0 -156 0 -156 280 0 280 0 0 -125 0 -125
150 0 150 0 0 125 0 125 100 0 100 0 0 125 0 125 -100 0 -100 0 0 360 0 360
-179 0 -179 0 -251 -329z m306 -388 c-2 -2 -70 -2 -150 -1 l-145 3 146 192
147 193 3 -192 c1 -105 1 -193 -1 -195z"/>
<path d="M88077 25349 c-539 -47 -1054 -259 -1467 -603 -864 -718 -1182 -1903
-795 -2962 87 -237 257 -539 421 -744 84 -105 292 -314 398 -400 405 -328 910
-531 1440 -581 155 -14 455 -7 604 15 1286 191 2243 1257 2279 2541 11 379
-47 721 -177 1053 -91 233 -255 516 -410 708 -86 106 -295 314 -400 398 -205
164 -507 334 -744 421 -360 132 -775 188 -1149 154z m609 -58 c272 -41 520
-118 769 -240 777 -381 1310 -1112 1441 -1976 23 -149 26 -560 6 -700 -119
-825 -565 -1503 -1265 -1921 -297 -178 -629 -292 -1002 -346 -140 -20 -551
-17 -700 6 -555 84 -1051 329 -1449 715 -671 652 -943 1605 -716 2511 117 465
345 866 690 1210 438 439 991 700 1612 760 142 13 462 4 614 -19z"/>
<path d="M88090 24714 c-14 -2 -59 -9 -100 -15 -175 -24 -414 -101 -584 -186
-204 -102 -359 -215 -527 -382 -301 -302 -484 -652 -565 -1083 -25 -131 -30
-476 -10 -618 33 -226 85 -397 182 -599 189 -393 487 -704 874 -913 617 -333
1406 -307 2007 65 1014 629 1268 1990 549 2942 -188 249 -447 460 -737 599
-295 141 -546 197 -880 195 -101 -1 -195 -3 -209 -5z m408 -165 c602 -65 1129
-412 1428 -940 97 -172 170 -377 210 -591 24 -129 29 -409 10 -553 -83 -624
-466 -1154 -1031 -1431 -274 -134 -554 -192 -874 -181 -321 11 -591 87 -861
243 -631 364 -998 1082 -919 1802 41 383 197 735 459 1039 187 217 498 424
781 522 247 85 541 118 797 90z"/>
<path d="M87925 23055 c-37 -174 -66 -317 -64 -319 2 -2 62 -22 133 -45 l129
-40 33 29 c95 83 253 57 310 -52 22 -43 18 -129 -9 -169 -28 -42 -79 -77 -125
-85 -43 -8 -114 9 -154 37 -29 21 -68 86 -68 114 0 26 -21 26 -149 0 -68 -14
-126 -25 -129 -25 -10 0 9 -83 30 -127 12 -25 46 -72 76 -104 117 -126 312
-178 501 -134 217 52 355 236 338 450 -11 136 -54 222 -144 291 -74 57 -144
77 -263 78 -94 1 -111 -2 -161 -25 l-57 -27 19 87 c10 47 21 96 24 109 l5 22
250 0 250 0 0 125 0 125 -353 0 -353 0 -69 -315z"/>
<path d="M66770 18916 c-71 -15 -135 -53 -189 -111 -67 -73 -86 -124 -86 -230
0 -79 4 -97 29 -149 52 -106 148 -178 258 -194 l53 -7 5 -2417 5 -2418 28 -27
27 -28 721 -5 721 -5 -352 -440 c-194 -242 -359 -454 -368 -471 -45 -96 64
-199 156 -148 23 13 172 191 451 539 l416 520 555 0 555 0 3 -121 3 -122 -53
-30 c-281 -158 -229 -568 82 -648 160 -41 325 38 401 194 20 39 24 63 24 142
0 82 -4 103 -27 152 -31 67 -98 136 -157 162 l-41 19 0 129 0 128 553 0 553 0
424 -530 c427 -534 442 -550 502 -550 72 0 129 93 102 164 -3 9 -165 215 -360
459 -195 243 -354 445 -354 450 0 4 317 7 705 7 760 0 745 -1 773 52 10 18 13
550 15 2433 l2 2410 55 8 c118 17 229 104 269 212 31 82 27 207 -9 280 -48 99
-149 174 -262 195 -80 15 -6118 12 -6188 -4z m6174 -230 c49 -20 76 -60 76
-113 0 -38 -5 -50 -34 -79 l-34 -34 -3071 0 c-2726 0 -3075 2 -3101 15 -35 18
-60 62 -60 103 0 41 39 95 80 109 27 9 746 12 3073 12 2560 1 3043 -1 3071
-13z m-274 -2791 l0 -2335 -2797 2 -2798 3 -3 2320 c-1 1276 0 2326 3 2333 3
9 573 12 2800 12 l2795 0 0 -2335z m-2726 -3066 c85 -74 35 -199 -80 -199 -54
0 -104 53 -104 110 0 52 13 76 53 100 47 29 90 26 131 -11z"/>
<path d="M68360 17870 c-331 -42 -619 -258 -745 -558 -56 -134 -70 -210 -69
-372 0 -101 5 -166 17 -213 84 -336 342 -598 677 -688 110 -30 336 -33 444 -6
367 92 632 370 707 742 30 151 7 372 -56 526 -110 272 -375 493 -663 554 -90
19 -231 26 -312 15z m342 -266 c99 -33 207 -103 281 -183 32 -35 57 -65 55
-66 -2 -2 -103 -53 -225 -114 l-223 -111 0 250 c0 288 -11 265 112 224z m457
-516 c16 -66 13 -231 -4 -308 -34 -143 -139 -305 -255 -392 -116 -87 -291
-148 -424 -148 -122 0 -312 58 -381 115 l-30 25 240 236 240 235 295 149 c162
81 298 145 301 142 4 -4 11 -28 18 -54z"/>
<path d="M70810 17645 l0 -115 115 0 115 0 0 115 0 115 -115 0 -115 0 0 -115z"/>
<path d="M71270 17645 l0 -115 470 0 470 0 0 115 0 115 -470 0 -470 0 0 -115z"/>
<path d="M70340 17175 l0 -115 935 0 935 0 0 115 0 115 -935 0 -935 0 0 -115z"/>
<path d="M70340 16710 l0 -120 933 2 932 3 0 115 0 115 -932 3 -933 2 0 -120z"/>
<path d="M70340 16245 l0 -115 700 0 700 0 0 115 0 115 -700 0 -700 0 0 -115z"/>
<path d="M68010 15545 l0 -115 115 0 115 0 0 115 0 115 -115 0 -115 0 0 -115z"/>
<path d="M68470 15545 l0 -115 470 0 470 0 0 115 0 115 -470 0 -470 0 0 -115z"/>
<path d="M71040 14730 l0 -700 115 0 115 0 0 700 0 700 -115 0 -115 0 0 -700z"/>
<path d="M67540 15075 l0 -115 935 0 935 0 0 115 0 115 -935 0 -935 0 0 -115z"/>
<path d="M71510 14555 l0 -525 115 0 115 0 0 525 0 525 -115 0 -115 0 0 -525z"/>
<path d="M70570 14495 l0 -465 120 0 120 0 0 465 0 465 -120 0 -120 0 0 -465z"/>
<path d="M71970 14435 l0 -405 120 0 120 0 0 405 0 405 -120 0 -120 0 0 -405z"/>
<path d="M67540 14610 l0 -120 933 2 932 3 0 115 0 115 -932 3 -933 2 0 -120z"/>
<path d="M70110 14320 l0 -290 115 0 115 0 0 290 0 290 -115 0 -115 0 0 -290z"/>
<path d="M67540 14145 l0 -115 700 0 700 0 0 115 0 115 -700 0 -700 0 0 -115z"/>
<path d="M48781 18850 c-20 -20 -32 -44 -36 -73 -3 -23 -5 -840 -3 -1814 l3
-1773 27 -26 c39 -39 107 -40 145 -1 l28 27 3 1735 2 1735 2235 0 2235 0 0
-2360 0 -2359 -361 -3 -361 -3 -24 -28 c-29 -33 -32 -91 -8 -126 34 -48 59
-51 419 -51 l335 0 0 -310 0 -310 -2257 2 -2258 3 -45 24 c-25 13 -85 55 -134
94 l-89 71 49 11 c68 16 90 30 103 66 14 42 -2 104 -33 124 -13 9 -49 19 -80
23 l-58 7 113 85 c62 47 124 90 138 97 20 9 419 12 1714 13 1820 0 1733 -3
1771 51 18 26 21 81 6 110 -28 52 62 49 -1740 49 l-1670 0 0 415 c0 352 -2
421 -15 445 -19 37 -43 50 -95 50 -48 0 -84 -31 -94 -81 -3 -18 -6 -219 -6
-448 0 -379 -2 -418 -18 -437 -9 -12 -105 -86 -212 -166 -277 -206 -300 -226
-316 -264 -28 -66 -13 -82 274 -297 142 -107 262 -203 266 -212 3 -9 6 -157 7
-328 0 -350 3 -372 59 -399 29 -15 64 -18 213 -18 l177 0 0 -155 c0 -88 5
-164 11 -178 25 -56 -144 -52 2408 -55 1619 -1 2365 1 2392 8 76 21 74 1 77
571 l3 507 36 7 c118 22 222 95 267 188 75 155 85 417 24 605 -38 115 -162
219 -283 238 l-45 6 -2 1172 c-3 1090 -4 1173 -20 1203 -10 17 -26 34 -37 38
-35 11 -90 8 -107 -6 -45 -37 -44 -14 -44 -1239 l0 -1160 -115 0 -115 0 0
2160 0 2160 115 0 115 0 0 -775 c0 -852 -2 -819 60 -845 43 -18 97 -3 124 33
21 28 21 31 21 870 0 463 -3 854 -8 869 -15 55 -42 63 -249 66 l-188 4 0 149
c0 160 -7 192 -52 223 -20 14 -261 16 -2394 16 l-2372 0 -31 -30z m5376 -5140
c57 -34 74 -85 80 -234 6 -148 -7 -258 -35 -296 -10 -14 -34 -35 -52 -47 -32
-22 -40 -23 -276 -23 l-244 0 0 310 0 310 248 0 c228 0 250 -2 279 -20z m-742
-1055 l0 -240 -2230 0 -2230 0 -3 230 c-1 126 0 235 3 242 3 11 435 13 2232
11 l2228 -3 0 -240z m445 -195 l0 -430 -2230 0 -2230 0 0 85 0 85 2069 0
c1517 0 2077 3 2101 11 57 20 60 42 60 379 l0 300 115 0 115 0 0 -430z"/>
<path d="M85975 18773 c-412 -54 -781 -247 -1023 -535 -271 -323 -396 -684
-379 -1098 24 -580 354 -1084 883 -1348 128 -64 350 -128 507 -147 l57 -6 0
-934 c0 -885 1 -936 19 -994 34 -110 110 -190 220 -231 46 -18 77 -20 295 -20
l244 0 30 28 c58 54 50 146 -15 189 -23 16 -58 19 -254 23 -209 5 -229 7 -249
25 -51 45 -50 19 -50 1000 0 556 4 915 9 915 36 0 182 25 264 46 172 43 334
117 498 225 128 85 323 281 411 414 142 213 234 461 263 708 l6 57 485 0 484
0 0 -32 c0 -101 67 -187 160 -207 28 -6 70 -11 94 -11 l42 0 18 -57 c10 -32
36 -96 58 -142 l38 -85 -44 -45 c-74 -75 -94 -157 -61 -238 19 -45 265 -297
315 -323 91 -47 173 -34 254 41 l54 49 73 -34 c41 -19 104 -44 140 -57 l66
-23 6 -77 c5 -85 15 -109 60 -157 32 -33 105 -62 159 -62 l28 0 -1 -907 c0
-677 -3 -917 -12 -942 -7 -19 -25 -44 -40 -55 -26 -19 -45 -21 -257 -26 l-229
-5 -30 -29 c-54 -52 -53 -127 1 -178 l31 -29 256 3 256 3 57 28 c75 37 134 98
172 177 l31 65 3 946 2 946 53 7 c119 16 187 98 187 226 l0 66 58 18 c31 10
95 36 141 57 l84 39 42 -39 c77 -71 136 -90 218 -70 48 11 64 24 195 153 79
78 152 158 163 178 21 41 25 120 8 165 -5 15 -33 51 -60 79 l-51 51 33 64 c17
35 44 98 59 139 l28 75 77 7 c104 10 154 39 190 112 26 53 26 54 23 269 l-3
215 -30 43 c-44 62 -85 83 -178 89 l-79 5 -32 90 c-18 50 -44 113 -59 141
l-26 51 40 39 c23 21 49 56 60 76 23 45 25 124 4 175 -21 49 -279 307 -328
328 -83 35 -180 10 -250 -63 l-39 -40 -81 38 c-45 21 -109 47 -142 58 l-60 20
-5 81 c-5 68 -10 87 -35 123 -18 25 -49 53 -75 66 -43 22 -53 23 -266 20
l-221 -3 -41 -28 c-56 -36 -83 -93 -91 -186 l-6 -74 -68 -23 c-37 -13 -100
-39 -140 -58 l-72 -34 -52 49 c-28 27 -64 54 -78 59 -43 16 -122 12 -163 -9
-53 -28 -308 -288 -327 -333 -32 -79 -14 -156 55 -232 l50 -54 -39 -80 c-21
-44 -46 -107 -56 -140 l-18 -60 -82 -4 c-69 -2 -88 -7 -123 -31 -49 -32 -81
-89 -89 -158 l-6 -49 -482 0 -481 0 -21 128 c-12 70 -36 172 -53 227 -187 584
-702 1011 -1310 1085 -80 9 -291 11 -355 3z m413 -258 c182 -35 380 -121 535
-233 97 -70 256 -233 320 -330 94 -141 165 -307 202 -472 26 -118 31 -356 10
-481 -46 -278 -176 -531 -375 -729 -255 -255 -580 -390 -940 -390 -639 0
-1169 438 -1306 1080 -22 105 -25 359 -5 470 69 387 306 726 650 930 132 79
342 149 502 170 100 12 305 5 407 -15z m3992 -55 c9 -127 47 -167 200 -216 47
-14 129 -48 182 -75 143 -72 211 -68 309 19 l46 41 82 -83 82 -82 -27 -24
c-15 -14 -40 -45 -55 -69 -24 -36 -29 -56 -29 -103 0 -49 7 -72 45 -149 25
-49 59 -131 76 -182 17 -51 41 -108 54 -128 34 -52 95 -79 178 -79 l67 0 0
-119 0 -118 -74 -6 c-128 -9 -174 -51 -220 -197 -16 -50 -50 -134 -77 -186
-41 -79 -49 -104 -49 -149 0 -70 11 -96 64 -153 l45 -48 -84 -84 -84 -83 -51
46 c-93 84 -146 86 -300 12 -63 -31 -152 -67 -197 -81 -134 -41 -183 -99 -183
-219 l0 -65 -119 0 -118 0 -6 69 c-10 125 -53 172 -203 221 -55 17 -137 52
-183 76 -46 24 -101 47 -122 50 -60 10 -123 -13 -180 -64 l-51 -45 -81 81 -81
81 37 40 c53 59 71 99 71 161 1 47 -7 70 -52 159 -29 57 -64 143 -78 190 -42
135 -110 191 -236 191 l-48 0 0 120 0 120 63 0 c76 0 135 25 170 71 14 19 41
83 61 143 20 61 54 142 76 181 67 122 64 196 -15 283 -25 27 -45 54 -45 59 0
5 36 44 80 88 l79 79 50 -47 c60 -56 85 -67 155 -67 43 0 68 8 137 44 47 25
132 61 189 80 58 20 116 44 130 54 42 32 71 94 77 172 l6 71 116 -3 116 -3 5
-75z"/>
<path d="M86012 18289 c-253 -30 -480 -144 -659 -332 -409 -430 -399 -1105 22
-1522 138 -137 307 -233 493 -281 121 -32 311 -42 433 -24 475 69 855 452 919
928 83 609 -348 1162 -960 1232 -97 11 -144 11 -248 -1z m338 -259 c151 -39
262 -101 379 -214 166 -160 246 -339 258 -572 21 -419 -267 -785 -686 -870
-101 -20 -281 -15 -376 11 -150 41 -336 157 -427 268 -92 111 -159 247 -189
382 -21 93 -15 284 10 380 90 338 361 581 706 635 83 12 234 3 325 -20z"/>
<path d="M90175 18054 c-80 -12 -184 -39 -244 -63 -235 -96 -420 -305 -493
-558 -20 -67 -23 -101 -23 -233 1 -147 3 -160 33 -250 45 -136 109 -239 211
-341 177 -176 389 -258 635 -246 234 12 390 82 562 252 90 89 106 111 153 205
70 142 92 235 93 380 1 216 -63 394 -206 564 -97 117 -271 224 -428 265 -76
20 -235 33 -293 25z m220 -259 c200 -51 358 -194 433 -393 22 -58 26 -83 26
-192 0 -106 -3 -135 -23 -190 -103 -290 -395 -463 -684 -406 -125 25 -218 75
-313 170 -171 171 -224 389 -149 613 65 194 227 345 425 397 73 19 211 20 285
1z"/>
<path d="M90199 17315 c-39 -21 -59 -59 -59 -111 0 -39 5 -51 34 -80 28 -28
42 -34 75 -34 56 0 95 22 115 64 20 42 20 57 2 101 -27 63 -108 92 -167 60z"/>
<path d="M32004 18600 c-860 -58 -1623 -545 -2047 -1305 -147 -264 -249 -579
-292 -900 -19 -144 -22 -446 -6 -595 60 -539 291 -1040 669 -1449 325 -353
823 -639 1280 -737 l82 -17 0 -317 c0 -206 4 -328 11 -349 21 -59 97 -79 146
-37 l28 24 5 323 5 323 50 -2 c28 -1 67 -5 88 -8 l37 -6 0 -519 c0 -444 2
-524 15 -549 30 -59 98 -68 146 -21 l29 29 0 530 0 529 61 7 c34 3 75 6 90 6
l29 0 0 -316 0 -316 29 -29 c33 -32 67 -37 110 -15 49 26 51 43 51 385 l0 319
78 17 c357 77 685 226 985 448 l69 50 165 -165 166 -166 -26 -34 c-33 -42 -43
-104 -27 -154 10 -31 136 -163 649 -677 350 -351 649 -648 664 -659 40 -29 88
-37 144 -26 45 10 63 25 289 252 216 216 242 246 252 286 11 45 5 97 -15 135
-6 11 -40 48 -76 83 -60 57 -69 62 -109 62 -59 0 -88 -29 -88 -89 0 -37 6 -49
50 -94 l49 -52 -197 -198 -197 -197 -337 337 -338 338 197 197 198 198 170
-170 c161 -160 174 -170 209 -170 53 0 96 44 96 96 0 37 -15 53 -462 501 -500
500 -503 503 -590 489 -23 -4 -58 -19 -77 -33 l-35 -27 -162 169 -163 169 31
41 c207 274 368 610 443 923 l18 72 338 0 c231 0 346 4 363 11 39 18 60 71 46
115 -21 62 -31 64 -390 64 l-321 0 7 83 c3 45 8 85 11 90 2 4 247 7 544 7
l541 0 29 29 c37 38 39 88 5 128 l-24 28 -546 3 -546 2 0 59 c0 32 -3 73 -6
90 l-6 31 321 0 c212 0 329 4 343 11 26 14 51 74 42 102 -3 12 -16 32 -27 45
-20 22 -21 22 -353 22 -183 0 -335 4 -338 8 -2 4 -16 65 -31 134 -65 316 -185
601 -370 878 -109 163 -143 200 -185 200 -61 0 -99 -34 -100 -90 0 -28 17 -58
83 -150 382 -536 521 -1187 391 -1827 -121 -596 -473 -1122 -984 -1472 -503
-344 -1134 -475 -1741 -361 -904 170 -1633 868 -1844 1765 -45 190 -59 317
-59 530 0 381 72 692 238 1030 350 712 1014 1186 1816 1296 139 20 458 17 605
-5 453 -68 858 -252 1212 -552 54 -46 69 -54 104 -54 56 0 89 34 89 91 0 37
-5 47 -47 86 -72 67 -256 204 -358 266 -360 218 -745 339 -1170 367 -163 10
-160 10 -321 0z m2336 -4565 c0 -6 -27 -37 -60 -70 l-60 -60 -162 163 -163
162 65 65 65 65 157 -157 c87 -87 158 -162 158 -168z m228 -352 l-198 -198
-75 75 -75 75 197 197 198 198 75 -75 75 -75 -197 -197z m400 -6 l62 -62 -198
-198 -197 -197 -65 65 -65 65 195 195 c107 107 197 195 200 195 3 0 34 -28 68
-63z"/>
<path d="M50576 18288 c-28 -27 -74 -128 -249 -538 -119 -278 -225 -527 -237
-554 l-21 -50 -175 395 c-99 223 -186 405 -200 419 -24 24 -28 25 -156 23
-142 -2 -178 -11 -199 -49 -46 -88 26 -167 147 -162 57 2 78 -14 107 -79 14
-32 98 -222 187 -423 215 -485 206 -468 242 -486 65 -34 125 12 183 141 49
106 470 1094 479 1121 4 12 16 30 27 40 20 18 61 19 1079 24 l1058 5 26 24
c30 29 43 83 27 117 -6 13 -25 33 -43 44 -32 20 -52 20 -1141 20 l-1107 0 -34
-32z"/>
<path d="M11948 18221 c-157 -51 -280 -170 -339 -331 l-24 -65 0 -2195 0
-2195 23 -67 c53 -152 175 -273 333 -330 l64 -23 1148 -3 1147 -3 0 -107 0
-107 -70 -33 c-88 -41 -158 -111 -202 -199 -31 -64 -33 -73 -33 -178 0 -103 2
-114 32 -177 41 -88 113 -160 201 -201 63 -30 73 -32 182 -32 105 0 120 2 171
28 108 53 188 144 224 256 28 86 18 217 -23 304 -42 90 -117 164 -206 203
l-66 28 0 108 0 108 93 0 c88 0 98 -2 192 -44 488 -214 1054 -214 1524 0 60
28 77 32 86 22 7 -7 173 -210 369 -450 196 -240 373 -451 394 -468 123 -102
302 -123 451 -53 76 36 154 117 194 200 30 64 32 75 32 178 0 104 -2 114 -33
175 -22 45 -147 205 -397 510 -201 245 -365 448 -365 451 0 4 29 49 64 100
330 487 414 1084 231 1646 -19 56 -51 137 -72 180 l-38 78 -5 1150 -5 1150
-23 60 c-46 124 -145 237 -257 293 -111 56 62 52 -2544 51 -2290 0 -2399 -1
-2453 -18z m4807 -192 c108 -20 189 -81 237 -177 l23 -47 3 -617 3 -618 -2616
0 -2616 0 3 613 3 612 24 52 c41 91 133 162 235 183 66 13 4631 12 4701 -1z
m-2110 -1694 c-122 -73 -210 -134 -295 -205 l-95 -79 -628 -3 -629 -3 -29 -33
c-46 -51 -33 -133 26 -160 19 -9 164 -12 545 -12 286 0 520 -1 520 -3 0 -1
-33 -53 -74 -115 -41 -62 -95 -155 -121 -207 l-46 -95 -823 0 c-803 0 -824 0
-848 -20 -57 -44 -57 -125 -1 -170 25 -20 39 -20 813 -20 l786 0 -18 -72 c-10
-39 -23 -109 -30 -155 l-12 -83 -948 0 -948 0 0 730 0 730 1448 0 1447 -1 -40
-24z m1228 -4 c158 -32 274 -72 432 -151 174 -86 313 -189 455 -337 134 -139
216 -255 295 -418 74 -151 116 -274 147 -429 33 -161 32 -452 0 -614 -45 -225
-133 -440 -250 -615 -385 -575 -1069 -857 -1740 -717 -272 57 -547 195 -757
380 -456 401 -661 1019 -534 1606 151 696 715 1215 1429 1314 113 15 401 5
523 -19z m1147 -210 l0 -239 -132 132 c-134 132 -229 206 -379 297 l-82 49
296 0 297 0 0 -239z m-3350 -1443 c0 -30 21 -246 26 -275 l6 -33 -351 0 -352
0 -24 -24 c-47 -47 -44 -121 8 -160 28 -20 40 -21 397 -24 l368 -3 32 -92 c25
-72 86 -208 138 -309 2 -5 -384 -8 -857 -8 -960 0 -918 3 -947 -66 -19 -45
-11 -84 23 -118 l26 -26 951 0 951 0 44 -55 c24 -30 90 -100 147 -155 57 -56
104 -103 104 -106 0 -2 -523 -3 -1162 -2 -1094 3 -1165 4 -1203 21 -102 46
-160 110 -189 207 -14 47 -16 131 -16 640 0 323 3 590 7 593 3 4 426 7 940 7
740 0 933 -3 933 -12z m3591 -1740 c194 -238 362 -449 371 -468 41 -79 5 -205
-72 -256 -32 -21 -58 -29 -106 -32 -115 -8 -107 -15 -505 470 -195 237 -357
437 -361 444 -5 8 21 33 76 73 46 33 116 92 157 130 41 39 77 70 80 71 3 0
165 -195 360 -432z m-2795 -353 c81 -24 154 -119 154 -199 0 -51 -32 -116 -76
-155 -71 -62 -150 -73 -234 -31 -166 84 -142 331 37 387 51 16 61 15 119 -2z"/>
<path d="M12142 17695 c-38 -32 -48 -72 -28 -118 26 -63 46 -67 306 -67 198 0
236 2 260 17 58 34 68 116 21 164 l-29 29 -250 0 -250 0 -30 -25z"/>
<path d="M12991 17706 c-57 -31 -67 -107 -22 -158 l29 -33 1825 0 1825 0 26
24 c51 48 40 142 -20 170 -39 18 -3631 15 -3663 -3z"/>
<path d="M12137 17064 c-53 -53 -39 -142 27 -169 52 -22 4429 -23 4481 -1 35
15 65 59 65 96 0 29 -27 77 -49 90 -13 7 -742 10 -2259 10 l-2239 0 -26 -26z"/>
<path d="M12154 16031 c-36 -22 -58 -75 -48 -115 3 -14 20 -37 36 -51 l30 -25
250 0 250 0 29 29 c47 48 37 130 -21 164 -24 15 -62 17 -262 17 -212 0 -236
-2 -264 -19z"/>
<path d="M15335 16136 c-559 -94 -1003 -475 -1174 -1009 -49 -153 -65 -261
-65 -442 0 -251 45 -439 160 -663 80 -158 164 -270 291 -392 515 -494 1307
-544 1885 -119 298 220 505 559 570 934 28 165 21 409 -15 565 -68 287 -189
504 -396 711 -209 208 -424 328 -711 396 -131 31 -415 41 -545 19z m421 -211
c399 -69 739 -319 919 -675 42 -83 96 -238 110 -312 l7 -38 -1236 0 -1235 0 6
33 c8 46 63 217 79 250 l15 27 945 0 c823 0 949 2 974 15 37 19 50 43 50 95 0
33 -6 48 -29 71 l-29 29 -897 0 -897 0 34 42 c100 128 260 260 405 336 98 51
261 106 369 126 106 19 301 20 410 1z m1050 -1332 c-33 -496 -377 -936 -859
-1097 -131 -43 -239 -60 -392 -60 -257 0 -485 70 -705 217 -149 100 -326 301
-409 465 l-21 42 939 0 c561 0 950 4 964 9 69 26 90 113 43 168 l-24 28 -999
5 -998 5 -13 50 c-17 68 -36 231 -28 250 5 13 151 15 1257 15 l1252 0 -7 -97z"/>
<path d="M12137 14344 c-34 -34 -42 -73 -23 -118 26 -63 52 -68 323 -64 l235
3 29 33 c41 45 41 102 0 143 l-29 29 -255 0 -254 0 -26 -26z"/>
<path d="M31980 18224 c-14 -2 -65 -9 -115 -15 -424 -53 -858 -267 -1184 -583
-447 -434 -679 -1017 -658 -1646 16 -465 170 -879 464 -1247 80 -102 98 -115
151 -115 48 0 82 38 82 92 0 32 -10 50 -66 116 -180 215 -321 491 -387 759
-46 184 -52 239 -52 480 0 194 4 248 22 345 76 396 248 736 518 1019 301 316
652 505 1090 588 127 24 446 29 589 9 747 -105 1364 -617 1602 -1331 303 -910
-95 -1899 -947 -2354 -320 -171 -709 -252 -1054 -222 -356 32 -666 139 -959
330 -143 95 -176 102 -220 50 -50 -59 -32 -105 67 -175 286 -204 643 -340
1007 -384 137 -16 404 -14 540 5 776 109 1423 625 1715 1365 147 374 179 851
83 1265 -122 527 -460 1006 -924 1309 -353 230 -762 349 -1191 345 -81 -1
-159 -3 -173 -5z"/>
<path d="M50964 17801 c-42 -26 -57 -71 -40 -119 7 -20 67 -115 134 -211 122
-174 122 -175 105 -200 -9 -14 -64 -93 -122 -176 -122 -174 -138 -209 -117
-260 18 -41 71 -71 109 -61 43 10 78 49 177 190 52 75 97 136 101 136 4 0 53
-66 109 -146 57 -82 116 -154 134 -165 43 -28 93 -19 130 22 53 59 45 77 -179
394 l-63 91 120 169 c162 230 172 258 121 315 -36 40 -86 48 -129 21 -18 -11
-77 -83 -134 -165 -56 -80 -105 -146 -108 -146 -4 0 -49 61 -101 135 -52 74
-107 146 -121 160 -36 35 -86 41 -126 16z"/>
<path d="M31811 17733 c-65 -32 -71 -55 -71 -265 l0 -187 -328 -3 c-363 -3
-361 -3 -402 -71 -19 -31 -20 -54 -20 -553 l0 -522 -86 -3 c-79 -4 -87 -6
-110 -32 -34 -40 -32 -90 5 -128 l29 -29 1377 0 1377 0 29 29 c20 20 29 39 29
61 0 71 -44 100 -149 100 l-70 0 -3 293 c-4 407 30 377 -427 377 l-320 0 -3
435 -3 435 -38 37 -37 38 -373 2 c-332 3 -376 1 -406 -14z m669 -888 l0 -715
-275 0 -275 0 0 715 0 715 275 0 275 0 0 -715z m750 -475 l0 -240 -280 0 -280
0 0 240 0 240 280 0 280 0 0 -240z"/>
<path d="M49382 16465 c-71 -31 -76 -135 -8 -176 29 -18 55 -19 468 -19 248 0
447 4 461 9 42 16 67 51 67 93 0 49 -22 83 -62 97 -20 7 -179 11 -462 11 -351
-1 -437 -3 -464 -15z"/>
<path d="M51924 16470 c-65 -26 -83 -109 -35 -162 l29 -33 454 -3 c439 -2 454
-2 486 18 59 36 67 113 16 161 l-26 24 -451 2 c-249 1 -462 -2 -473 -7z"/>
<path d="M49381 15993 c-65 -32 -76 -121 -19 -168 l30 -25 449 0 c480 0 493 1
519 49 15 29 12 84 -6 110 -35 49 -52 51 -511 51 -379 0 -432 -2 -462 -17z"/>
<path d="M51930 15999 c-59 -24 -84 -82 -60 -140 25 -59 26 -59 514 -59 478 0
486 1 512 51 18 36 18 63 -2 100 -29 58 -41 59 -511 58 -257 0 -438 -4 -453
-10z"/>
<path d="M32483 15710 c-12 -5 -28 -19 -36 -32 -8 -13 -74 -186 -148 -385 -73
-200 -136 -359 -140 -355 -3 4 -47 126 -98 272 -52 147 -102 275 -114 288 -26
28 -98 31 -125 4 -10 -10 -60 -93 -111 -185 l-93 -167 -232 0 c-223 0 -235 -1
-260 -21 -38 -30 -49 -64 -35 -106 19 -60 36 -63 333 -63 184 0 273 4 291 12
18 8 46 47 87 120 33 60 62 107 63 106 1 -2 48 -136 105 -298 111 -319 128
-350 190 -350 63 0 78 28 220 415 73 198 136 367 141 375 6 12 10 8 19 -15 96
-255 133 -336 160 -350 24 -12 80 -15 300 -15 303 0 320 3 339 63 14 42 3 76
-35 106 -25 20 -37 21 -260 21 l-232 0 -87 223 c-125 318 -124 316 -156 332
-31 17 -54 18 -86 5z"/>
<path d="M88114 15476 l-34 -34 0 -221 c0 -244 5 -267 60 -296 60 -31 137 -10
165 45 21 42 22 437 1 479 -22 41 -59 61 -112 61 -39 0 -51 -5 -80 -34z"/>
<path d="M49564 15341 c-71 -43 -180 -225 -216 -360 -38 -147 -22 -358 41
-503 53 -123 160 -253 218 -264 71 -13 131 43 120 113 -3 19 -27 62 -53 96
-93 124 -136 239 -136 366 0 118 36 223 109 325 20 28 47 66 60 85 69 101 -38
206 -143 142z"/>
<path d="M51905 15330 c-42 -44 -41 -96 3 -147 114 -133 157 -242 157 -398 0
-142 -46 -265 -138 -372 -53 -62 -65 -99 -43 -142 31 -59 87 -77 146 -46 44
23 126 130 176 230 60 120 78 209 71 350 -10 198 -79 376 -192 493 -57 58 -64
62 -106 62 -37 0 -50 -5 -74 -30z"/>
<path d="M49874 15156 c-55 -55 -46 -86 70 -254 42 -60 76 -113 76 -116 0 -4
-38 -61 -85 -127 -46 -67 -87 -135 -90 -153 -18 -92 80 -154 161 -101 12 8 48
51 80 97 31 46 60 86 64 91 3 4 35 -33 69 -83 66 -96 89 -116 137 -125 37 -7
91 25 105 62 18 47 2 86 -86 212 -47 66 -85 123 -85 126 0 4 39 63 86 131 106
154 114 186 61 239 -27 27 -43 35 -70 35 -46 0 -81 -30 -152 -130 -30 -44 -57
-80 -60 -80 -2 0 -29 36 -59 79 -71 100 -107 131 -153 131 -27 0 -43 -8 -69
-34z"/>
<path d="M51231 15176 c-46 -25 -64 -92 -39 -139 6 -12 47 -73 91 -135 l80
-113 -69 -100 c-96 -138 -114 -169 -114 -206 0 -39 40 -89 79 -98 68 -15 84 3
311 327 117 166 219 318 227 337 38 88 -53 170 -142 129 -15 -7 -56 -54 -92
-105 -35 -51 -66 -93 -68 -93 -2 0 -31 38 -65 85 -33 46 -72 93 -87 105 -29
23 -77 26 -112 6z"/>
<path d="M50767 15084 c-34 -18 -47 -50 -47 -114 0 -77 -3 -80 -80 -80 -80 0
-116 -21 -126 -75 -16 -87 34 -135 140 -135 l55 0 6 -37 c12 -78 27 -129 42
-145 34 -37 114 -31 140 11 7 10 17 47 24 82 6 35 13 70 15 77 2 8 23 12 58
12 103 0 135 26 136 106 0 80 -19 97 -116 103 l-78 6 -12 79 c-15 94 -38 126
-93 126 -20 -1 -49 -8 -64 -16z"/>
<path d="M52484 15076 c-68 -30 -87 -115 -36 -165 25 -25 37 -29 124 -35 119
-9 265 2 295 22 13 8 28 32 35 53 15 53 -8 104 -57 125 -47 19 -316 19 -361 0z"/>
<path d="M86841 14954 c-37 -31 -53 -81 -40 -127 6 -23 55 -78 161 -184 170
-168 192 -181 262 -148 44 21 66 59 66 117 0 41 -3 46 -163 205 l-163 163 -46
0 c-35 0 -54 -6 -77 -26z"/>
<path d="M89420 14964 c-42 -29 -280 -267 -296 -296 -8 -15 -14 -47 -14 -72 0
-78 77 -132 153 -107 22 7 86 65 185 164 l152 153 0 52 c0 73 -36 113 -106
119 -35 3 -56 0 -74 -13z"/>
<path d="M52484 14690 c-66 -27 -85 -120 -35 -171 l29 -29 177 0 c206 0 227 6
246 70 16 54 -6 105 -56 126 -39 16 -323 19 -361 4z"/>
<path d="M88070 14659 c-102 -12 -238 -52 -338 -99 -401 -191 -641 -592 -619
-1034 13 -267 106 -486 297 -701 109 -123 180 -284 180 -410 0 -218 114 -369
305 -404 76 -14 534 -14 611 0 79 14 146 52 204 116 62 67 85 132 94 254 12
182 62 304 177 434 183 208 273 402 301 654 21 189 -14 392 -97 568 -164 348
-488 580 -868 622 -107 12 -139 12 -247 0z m360 -269 c227 -65 424 -231 526
-445 59 -122 75 -189 81 -331 10 -246 -56 -427 -228 -620 -156 -174 -233 -353
-246 -567 -11 -177 -10 -177 -363 -177 -353 0 -351 -1 -364 177 -9 124 -37
229 -91 340 -40 82 -71 125 -213 296 -57 68 -127 212 -153 312 -29 112 -29
279 -1 397 77 319 325 560 647 632 100 22 304 15 405 -14z"/>
<path d="M87094 12641 c-21 -15 -96 -86 -165 -157 -128 -132 -146 -160 -132
-215 18 -71 88 -112 155 -90 23 8 84 62 186 164 l152 153 0 50 c0 56 -17 87
-60 109 -45 23 -92 19 -136 -14z"/>
<path d="M89174 12660 c-40 -16 -64 -59 -64 -114 l0 -50 158 -157 c174 -175
196 -187 266 -154 44 21 66 59 66 117 0 41 -3 46 -163 205 -157 157 -164 163
-202 162 -22 0 -50 -4 -61 -9z"/>
<path d="M87641 11735 c-60 -51 -62 -132 -5 -186 l26 -24 521 -3 c379 -2 529
1 550 9 45 19 67 55 67 111 0 43 -4 54 -34 84 l-34 34 -530 0 -530 0 -31 -25z"/>
<path d="M12969 10173 c-88 -54 -74 -194 23 -231 98 -38 199 53 174 155 -4 14
-22 41 -41 60 -28 28 -40 33 -81 33 -27 0 -61 -8 -75 -17z"/>
<path d="M14769 10174 c-88 -57 -74 -195 23 -232 50 -19 100 -9 137 29 52 52
53 124 2 181 -23 26 -36 32 -82 35 -39 3 -61 -1 -80 -13z"/>
<path d="M34429 10174 c-88 -57 -74 -195 23 -232 50 -19 100 -9 137 29 52 52
53 124 2 181 -23 26 -36 32 -82 35 -39 3 -61 -1 -80 -13z"/>
<path d="M37069 10174 c-88 -57 -74 -195 23 -232 50 -19 100 -9 137 29 52 52
53 124 2 181 -23 26 -36 32 -82 35 -39 3 -61 -1 -80 -13z"/>
<path d="M51629 10174 c-88 -57 -74 -195 23 -232 50 -19 100 -9 137 29 52 52
53 124 2 181 -23 26 -36 32 -82 35 -39 3 -61 -1 -80 -13z"/>
<path d="M68599 10174 c-88 -57 -74 -195 23 -232 50 -19 100 -9 137 29 52 52
53 124 2 181 -23 26 -36 32 -82 35 -39 3 -61 -1 -80 -13z"/>
<path d="M71529 10174 c-88 -57 -74 -195 23 -232 50 -19 100 -9 137 29 52 52
53 124 2 181 -23 26 -36 32 -82 35 -39 3 -61 -1 -80 -13z"/>
<path d="M28652 10161 c-104 -36 -159 -117 -169 -247 l-6 -74 -53 0 -54 0 0
-95 0 -95 55 0 55 0 0 -270 0 -270 110 0 110 0 2 268 3 267 78 3 77 3 0 94 0
95 -80 0 -80 0 0 30 c0 79 53 129 125 117 l35 -6 0 93 0 94 -31 6 c-55 11
-122 6 -177 -13z"/>
<path d="M11265 10163 c-206 -27 -386 -176 -440 -365 -23 -77 -26 -239 -6
-318 44 -179 200 -332 382 -375 199 -46 393 6 529 144 129 130 176 309 135
506 -57 270 -316 446 -600 408z m178 -239 c61 -21 144 -96 170 -154 16 -35 21
-66 21 -140 1 -85 -2 -101 -27 -152 -32 -66 -70 -101 -146 -136 -46 -21 -63
-24 -135 -20 -94 5 -141 25 -203 88 -55 55 -78 121 -77 225 0 103 28 168 95
229 79 71 199 95 302 60z"/>
<path d="M12030 9640 l0 -530 105 0 105 0 0 35 0 35 45 -35 c51 -38 94 -50
176 -49 127 2 232 71 291 191 28 58 33 79 36 163 5 115 -13 189 -62 265 -59
90 -145 134 -261 135 -83 0 -130 -12 -179 -45 l-36 -24 -2 192 -3 192 -107 3
-108 3 0 -531z m460 -12 c55 -38 74 -71 78 -141 5 -85 -24 -142 -90 -175 -39
-20 -55 -23 -95 -17 -120 18 -182 179 -110 287 45 67 152 90 217 46z"/>
<path d="M17667 10163 c-4 -3 -7 -90 -7 -191 0 -177 -1 -184 -18 -169 -56 51
-206 64 -307 26 -71 -26 -147 -100 -183 -176 -25 -53 -27 -68 -27 -178 0 -109
2 -125 27 -177 32 -69 103 -143 163 -169 111 -49 233 -45 313 11 l42 30 0 -30
0 -30 111 0 112 0 -7 31 c-3 17 -6 256 -6 530 l0 499 -103 0 c-57 0 -107 -3
-110 -7z m-91 -529 c19 -9 43 -29 54 -44 43 -60 44 -172 3 -229 -23 -31 -97
-71 -133 -71 -49 0 -113 42 -138 90 -30 58 -27 154 4 197 52 70 136 92 210 57z"/>
<path d="M33980 9640 l0 -530 110 0 110 0 0 530 0 530 -110 0 -110 0 0 -530z"/>
<path d="M47865 10163 c-233 -37 -411 -216 -445 -447 -52 -349 183 -626 530
-626 154 0 276 47 368 140 53 55 128 186 120 211 -3 10 -183 69 -210 69 -4 0
-14 -15 -22 -33 -19 -48 -72 -105 -120 -130 -33 -18 -58 -22 -131 -22 -78 0
-97 4 -140 27 -110 58 -159 144 -159 278 0 108 26 172 95 234 58 52 121 76
200 76 109 0 186 -43 233 -131 16 -30 30 -55 30 -56 3 -4 201 59 209 66 13 13
-25 98 -75 166 -83 113 -200 170 -364 179 -49 2 -102 2 -119 -1z"/>
<path d="M54587 10163 c-4 -3 -7 -90 -7 -191 0 -177 -1 -184 -18 -169 -56 51
-206 64 -307 26 -71 -26 -147 -100 -183 -176 -25 -53 -27 -68 -27 -178 0 -109
2 -125 27 -177 32 -69 103 -143 163 -169 111 -49 233 -45 313 11 l42 30 0 -30
0 -30 111 0 112 0 -7 31 c-3 17 -6 256 -6 530 l0 499 -103 0 c-57 0 -107 -3
-110 -7z m-91 -529 c19 -9 43 -29 54 -44 43 -60 44 -172 3 -229 -23 -31 -97
-71 -133 -71 -49 0 -113 42 -138 90 -30 58 -27 154 4 197 52 70 136 92 210 57z"/>
<path d="M68140 9640 l0 -530 110 0 110 0 0 530 0 530 -110 0 -110 0 0 -530z"/>
<path d="M69467 10163 c-4 -3 -7 -90 -7 -191 0 -177 -1 -184 -18 -169 -56 51
-206 64 -307 26 -71 -26 -147 -100 -183 -176 -25 -53 -27 -68 -27 -178 0 -109
2 -125 27 -177 32 -69 103 -143 163 -169 111 -49 233 -45 313 11 l42 30 0 -30
0 -30 111 0 112 0 -7 31 c-3 17 -6 256 -6 530 l0 499 -103 0 c-57 0 -107 -3
-110 -7z m-91 -529 c19 -9 43 -29 54 -44 43 -60 44 -172 3 -229 -23 -31 -97
-71 -133 -71 -49 0 -113 42 -138 90 -30 58 -27 154 4 197 52 70 136 92 210 57z"/>
<path d="M90097 10163 c-4 -3 -7 -90 -7 -191 0 -177 -1 -184 -18 -169 -56 51
-206 64 -307 26 -71 -26 -147 -100 -183 -176 -25 -53 -27 -68 -27 -178 0 -109
2 -125 27 -177 32 -69 103 -143 163 -169 111 -49 233 -45 313 11 l42 30 0 -30
0 -30 111 0 112 0 -7 31 c-3 17 -6 256 -6 530 l0 499 -103 0 c-57 0 -107 -3
-110 -7z m-91 -529 c19 -9 43 -29 54 -44 43 -60 44 -172 3 -229 -23 -31 -97
-71 -133 -71 -49 0 -113 42 -138 90 -30 58 -27 154 4 197 52 70 136 92 210 57z"/>
<path d="M26740 9630 l0 -520 330 0 330 0 0 110 0 110 -215 0 -216 0 3 98 3
97 193 3 192 2 0 100 0 100 -192 2 -193 3 0 95 0 95 213 3 212 2 0 110 0 110
-330 0 -330 0 0 -520z"/>
<path d="M66330 10139 c0 -6 84 -240 187 -520 l186 -510 121 3 121 3 187 510
c103 281 187 514 187 518 1 4 -54 6 -121 5 l-123 -3 -122 -355 c-67 -195 -122
-357 -123 -360 -2 -7 -62 162 -164 463 l-88 257 -124 0 c-83 0 -124 -4 -124
-11z"/>
<path d="M85420 10035 l0 -115 160 0 160 0 0 -405 0 -405 115 0 115 0 0 405 0
404 158 3 157 3 0 110 0 110 -432 3 -433 2 0 -115z"/>
<path d="M52302 10036 c-34 -57 -62 -107 -62 -110 0 -3 38 -6 85 -6 l85 0 74
78 c40 42 86 92 101 110 l27 32 -124 0 -123 0 -63 -104z"/>
<path d="M72192 10036 c-34 -57 -62 -107 -62 -110 0 -3 38 -6 85 -6 l85 0 74
78 c40 42 86 92 101 110 l27 32 -124 0 -123 0 -63 -104z"/>
<path d="M14240 10013 c-2 -117 -38 -173 -111 -173 l-39 0 0 -100 0 -100 60 0
60 0 0 -154 c0 -84 5 -177 10 -207 23 -118 103 -179 235 -179 119 0 115 -3
115 107 l0 96 -30 -6 c-40 -9 -85 9 -99 39 -6 15 -11 81 -11 164 l0 140 75 0
76 0 -3 98 -3 97 -72 3 -73 3 0 104 0 105 -95 0 -95 0 0 -37z"/>
<path d="M13538 9843 c-105 -40 -191 -129 -224 -231 -12 -40 -15 -79 -12 -155
4 -127 31 -191 113 -266 77 -69 145 -94 260 -94 137 0 233 46 293 140 51 81
50 83 -53 114 l-90 26 -17 -28 c-24 -40 -58 -59 -114 -65 -78 -9 -158 42 -179
114 l-6 22 255 0 256 0 0 68 c0 166 -64 280 -190 340 -73 35 -220 42 -292 15z
m174 -163 c43 -12 88 -61 88 -96 l0 -24 -140 0 c-131 0 -140 1 -140 19 0 27
47 81 85 97 37 16 59 17 107 4z"/>
<path d="M16156 9844 c-65 -21 -112 -52 -164 -108 -72 -78 -87 -122 -87 -256
0 -104 3 -121 27 -172 105 -224 414 -287 605 -123 163 139 173 416 19 569 -23
24 -69 56 -101 72 -51 24 -73 29 -155 31 -65 2 -110 -2 -144 -13z m214 -212
c50 -37 70 -80 70 -150 0 -79 -25 -130 -80 -161 -74 -42 -160 -21 -214 52 -17
23 -21 43 -21 107 0 93 16 122 86 158 51 27 117 24 159 -6z"/>
<path d="M18268 9843 c-105 -40 -191 -129 -224 -231 -12 -40 -15 -79 -12 -155
4 -127 31 -191 113 -266 77 -69 145 -94 260 -94 137 0 233 46 293 140 51 81
50 83 -53 114 l-90 26 -17 -28 c-24 -40 -58 -59 -114 -65 -78 -9 -158 42 -179
114 l-6 22 255 0 256 0 0 68 c0 166 -64 280 -190 340 -73 35 -220 42 -292 15z
m174 -163 c43 -12 88 -61 88 -96 l0 -24 -140 0 c-131 0 -140 1 -140 19 0 27
47 81 85 97 37 16 59 17 107 4z"/>
<path d="M29176 9844 c-65 -21 -112 -52 -164 -108 -72 -78 -87 -122 -87 -256
0 -104 3 -121 27 -172 105 -224 414 -287 605 -123 163 139 173 416 19 569 -23
24 -69 56 -101 72 -51 24 -73 29 -155 31 -65 2 -110 -2 -144 -13z m214 -212
c50 -37 70 -80 70 -150 0 -79 -25 -130 -80 -161 -74 -42 -160 -21 -214 52 -17
23 -21 43 -21 107 0 93 16 122 86 158 51 27 117 24 159 -6z"/>
<path d="M31788 9843 c-105 -40 -191 -129 -224 -231 -12 -40 -15 -79 -12 -155
4 -127 31 -191 113 -266 77 -69 145 -94 260 -94 137 0 233 46 293 140 51 81
50 83 -53 114 l-90 26 -17 -28 c-24 -40 -58 -59 -114 -65 -78 -9 -158 42 -179
114 l-6 22 255 0 256 0 0 68 c0 166 -64 280 -190 340 -73 35 -220 42 -292 15z
m174 -163 c43 -12 88 -61 88 -96 l0 -24 -140 0 c-131 0 -140 1 -140 19 0 27
47 81 85 97 37 16 59 17 107 4z"/>
<path d="M35120 9839 c-25 -11 -57 -32 -72 -46 l-28 -27 0 37 0 37 -105 0
-105 0 0 -360 0 -360 109 0 110 0 3 235 3 235 33 32 c28 28 39 33 81 33 59 0
95 -28 111 -84 5 -20 10 -129 10 -243 l0 -208 110 0 110 0 0 225 c0 253 5 275
65 301 44 18 69 18 105 -1 56 -29 60 -51 60 -300 l0 -225 111 0 111 0 -4 273
c-5 287 -8 311 -55 374 -42 57 -105 86 -198 91 -93 5 -144 -11 -207 -67 l-36
-31 -39 39 c-22 22 -56 44 -78 50 -64 17 -154 13 -205 -10z"/>
<path d="M37638 9843 c-105 -40 -191 -129 -224 -231 -12 -40 -15 -79 -12 -155
4 -127 31 -191 113 -266 77 -69 145 -94 260 -94 137 0 233 46 293 140 51 81
50 83 -53 114 l-90 26 -17 -28 c-24 -40 -58 -59 -114 -65 -78 -9 -158 42 -179
114 l-6 22 255 0 256 0 0 68 c0 166 -64 280 -190 340 -73 35 -220 42 -292 15z
m174 -163 c43 -12 88 -61 88 -96 l0 -24 -140 0 c-131 0 -140 1 -140 19 0 27
47 81 85 97 37 16 59 17 107 4z"/>
<path d="M39152 9846 c-62 -20 -117 -62 -151 -113 -28 -42 -48 -99 -39 -109 3
-2 46 -12 96 -23 l92 -18 6 22 c3 13 19 36 35 51 26 25 39 29 84 29 43 0 59
-5 79 -24 29 -27 34 -62 12 -83 -7 -8 -67 -22 -131 -32 -65 -10 -130 -22 -144
-27 -183 -69 -198 -310 -26 -395 94 -45 214 -37 290 21 l45 35 0 -30 0 -30
103 0 102 0 -5 272 c-6 298 -8 311 -69 380 -52 60 -110 81 -231 85 -72 2 -119
-2 -148 -11z m228 -456 c0 -83 -49 -130 -134 -130 -36 0 -48 5 -65 26 -46 59
-10 108 94 128 107 21 105 22 105 -24z"/>
<path d="M49348 9843 c-105 -40 -191 -129 -224 -231 -12 -40 -15 -79 -12 -155
4 -127 31 -191 113 -266 77 -69 145 -94 260 -94 137 0 233 46 293 140 51 81
50 83 -53 114 l-90 26 -17 -28 c-24 -40 -58 -59 -114 -65 -78 -9 -158 42 -179
114 l-6 22 255 0 256 0 0 68 c0 166 -64 280 -190 340 -73 35 -220 42 -292 15z
m174 -163 c43 -12 88 -61 88 -96 l0 -24 -140 0 c-131 0 -140 1 -140 19 0 27
47 81 85 97 37 16 59 17 107 4z"/>
<path d="M50142 9846 c-62 -20 -117 -62 -151 -113 -28 -42 -48 -99 -39 -109 3
-2 46 -12 96 -23 l92 -18 6 22 c3 13 19 36 35 51 26 25 39 29 84 29 43 0 59
-5 79 -24 29 -27 34 -62 12 -83 -7 -8 -67 -22 -131 -32 -65 -10 -130 -22 -144
-27 -183 -69 -198 -310 -26 -395 94 -45 214 -37 290 21 l45 35 0 -30 0 -30
103 0 102 0 -5 272 c-6 298 -8 311 -69 380 -52 60 -110 81 -231 85 -72 2 -119
-2 -148 -11z m228 -456 c0 -83 -49 -130 -134 -130 -36 0 -48 5 -65 26 -46 59
-10 108 94 128 107 21 105 22 105 -24z"/>
<path d="M50961 9840 c-105 -38 -197 -134 -227 -238 -25 -83 -16 -222 18 -294
106 -228 436 -288 612 -113 38 38 86 118 86 143 0 8 -163 62 -186 62 -5 0 -17
-14 -26 -30 -39 -69 -150 -93 -219 -47 -56 37 -79 81 -79 149 0 99 37 154 120
179 71 22 143 -11 185 -84 9 -16 17 -15 107 13 l98 31 -15 37 c-40 94 -108
159 -203 194 -66 24 -201 23 -271 -2z"/>
<path d="M52254 9850 c-108 -23 -201 -93 -255 -192 -33 -62 -34 -65 -34 -183
0 -111 2 -124 28 -176 59 -121 182 -200 323 -207 184 -10 330 83 390 248 25
70 22 210 -6 285 -32 83 -122 173 -203 204 -66 24 -181 34 -243 21z m183 -228
c47 -34 66 -82 61 -163 -2 -48 -10 -77 -24 -96 -24 -33 -97 -73 -134 -73 -45
0 -113 42 -138 85 -19 33 -22 52 -20 107 4 75 21 107 79 146 44 31 129 28 176
-6z"/>
<path d="M55188 9843 c-105 -40 -191 -129 -224 -231 -12 -40 -15 -79 -12 -155
4 -127 31 -191 113 -266 77 -69 145 -94 260 -94 137 0 233 46 293 140 51 81
50 83 -53 114 l-90 26 -17 -28 c-24 -40 -58 -59 -114 -65 -78 -9 -158 42 -179
114 l-6 22 255 0 256 0 0 68 c0 166 -64 280 -190 340 -73 35 -220 42 -292 15z
m174 -163 c43 -12 88 -61 88 -96 l0 -24 -140 0 c-131 0 -140 1 -140 19 0 27
47 81 85 97 37 16 59 17 107 4z"/>
<path d="M67502 9846 c-62 -20 -117 -62 -151 -113 -28 -42 -48 -99 -39 -109 3
-2 46 -12 96 -23 l92 -18 6 22 c3 13 19 36 35 51 26 25 39 29 84 29 43 0 59
-5 79 -24 29 -27 34 -62 12 -83 -7 -8 -67 -22 -131 -32 -65 -10 -130 -22 -144
-27 -183 -69 -198 -310 -26 -395 94 -45 214 -37 290 21 l45 35 0 -30 0 -30
103 0 102 0 -5 272 c-6 298 -8 311 -69 380 -52 60 -110 81 -231 85 -72 2 -119
-2 -148 -11z m228 -456 c0 -83 -49 -130 -134 -130 -36 0 -48 5 -65 26 -46 59
-10 108 94 128 107 21 105 22 105 -24z"/>
<path d="M70042 9846 c-62 -20 -117 -62 -151 -113 -28 -42 -48 -99 -39 -109 3
-2 46 -12 96 -23 l92 -18 6 22 c3 13 19 36 35 51 26 25 39 29 84 29 43 0 59
-5 79 -24 29 -27 34 -62 12 -83 -7 -8 -67 -22 -131 -32 -65 -10 -130 -22 -144
-27 -183 -69 -198 -310 -26 -395 94 -45 214 -37 290 21 l45 35 0 -30 0 -30
103 0 102 0 -5 272 c-6 298 -8 311 -69 380 -52 60 -110 81 -231 85 -72 2 -119
-2 -148 -11z m228 -456 c0 -83 -49 -130 -134 -130 -36 0 -48 5 -65 26 -46 59
-10 108 94 128 107 21 105 22 105 -24z"/>
<path d="M70861 9840 c-105 -38 -197 -134 -227 -238 -25 -83 -16 -222 18 -294
106 -228 436 -288 612 -113 38 38 86 118 86 143 0 8 -163 62 -186 62 -5 0 -17
-14 -26 -30 -39 -69 -150 -93 -219 -47 -56 37 -79 81 -79 149 0 99 37 154 120
179 71 22 143 -11 185 -84 9 -16 17 -15 107 13 l98 31 -15 37 c-40 94 -108
159 -203 194 -66 24 -201 23 -271 -2z"/>
<path d="M72144 9850 c-108 -23 -201 -93 -255 -192 -33 -62 -34 -65 -34 -183
0 -111 2 -124 28 -176 59 -121 182 -200 323 -207 184 -10 330 83 390 248 25
70 22 210 -6 285 -32 83 -122 173 -203 204 -66 24 -181 34 -243 21z m183 -228
c47 -34 66 -82 61 -163 -2 -48 -10 -77 -24 -96 -24 -33 -97 -73 -134 -73 -45
0 -113 42 -138 85 -19 33 -22 52 -20 107 4 75 21 107 79 146 44 31 129 28 176
-6z"/>
<path d="M86476 9844 c-65 -21 -112 -52 -164 -108 -72 -78 -87 -122 -87 -256
0 -104 3 -121 27 -172 105 -224 414 -287 605 -123 163 139 173 416 19 569 -23
24 -69 56 -101 72 -51 24 -73 29 -155 31 -65 2 -110 -2 -144 -13z m214 -212
c50 -37 70 -80 70 -150 0 -79 -25 -130 -80 -161 -74 -42 -160 -21 -214 52 -17
23 -21 43 -21 107 0 93 16 122 86 158 51 27 117 24 159 -6z"/>
<path d="M87440 9839 c-25 -11 -57 -32 -72 -46 l-28 -27 0 37 0 37 -105 0
-105 0 0 -360 0 -360 109 0 110 0 3 235 3 235 33 32 c28 28 39 33 81 33 59 0
95 -28 111 -84 5 -20 10 -129 10 -243 l0 -208 110 0 110 0 0 225 c0 253 5 275
65 301 44 18 69 18 105 -1 56 -29 60 -51 60 -300 l0 -225 111 0 111 0 -4 273
c-5 287 -8 311 -55 374 -42 57 -105 86 -198 91 -93 5 -144 -11 -207 -67 l-36
-31 -39 39 c-22 22 -56 44 -78 50 -64 17 -154 13 -205 -10z"/>
<path d="M88602 9846 c-62 -20 -117 -62 -151 -113 -28 -42 -48 -99 -39 -109 3
-2 46 -12 96 -23 l92 -18 6 22 c3 13 19 36 35 51 26 25 39 29 84 29 43 0 59
-5 79 -24 29 -27 34 -62 12 -83 -7 -8 -67 -22 -131 -32 -65 -10 -130 -22 -144
-27 -183 -69 -198 -310 -26 -395 94 -45 214 -37 290 21 l45 35 0 -30 0 -30
103 0 102 0 -5 272 c-6 298 -8 311 -69 380 -52 60 -110 81 -231 85 -72 2 -119
-2 -148 -11z m228 -456 c0 -83 -49 -130 -134 -130 -36 0 -48 5 -65 26 -46 59
-10 108 94 128 107 21 105 22 105 -24z"/>
<path d="M90698 9843 c-105 -40 -191 -129 -224 -231 -12 -40 -15 -79 -12 -155
4 -127 31 -191 113 -266 77 -69 145 -94 260 -94 137 0 233 46 293 140 51 81
50 83 -53 114 l-90 26 -17 -28 c-24 -40 -58 -59 -114 -65 -78 -9 -158 42 -179
114 l-6 22 255 0 256 0 0 68 c0 166 -64 280 -190 340 -73 35 -220 42 -292 15z
m174 -163 c43 -12 88 -61 88 -96 l0 -24 -140 0 c-131 0 -140 1 -140 19 0 27
47 81 85 97 37 16 59 17 107 4z"/>
<path d="M27885 9831 c-22 -10 -52 -31 -67 -46 l-28 -28 0 42 0 41 -105 0
-105 0 0 -365 0 -365 110 0 110 0 0 228 c0 209 2 230 20 260 11 18 32 37 46
42 39 15 97 12 123 -6 45 -32 51 -67 51 -304 l0 -220 111 0 110 0 -3 278 c-3
305 -5 314 -69 387 -19 21 -52 46 -74 56 -55 25 -176 25 -230 0z"/>
<path d="M29994 9829 c-75 -28 -137 -88 -176 -167 -32 -64 -33 -71 -33 -187 0
-109 2 -125 26 -176 53 -112 139 -178 260 -199 78 -14 163 -2 215 31 l33 20 3
-158 3 -158 108 -3 107 -3 0 506 0 505 -105 0 -105 0 0 -35 0 -35 -21 21 c-60
60 -211 79 -315 38z m246 -197 c101 -50 118 -207 32 -293 -43 -42 -93 -55
-151 -39 -47 12 -96 60 -112 108 -15 46 -5 139 19 171 50 68 138 90 212 53z"/>
<path d="M36437 9836 c-20 -8 -53 -26 -72 -40 l-35 -27 0 35 0 36 -105 0 -105
0 0 -505 0 -505 110 0 110 0 0 165 0 164 36 -24 c44 -30 89 -40 169 -39 132 2
237 69 297 191 28 58 33 79 36 163 8 195 -70 334 -215 386 -49 17 -177 17
-226 0z m160 -214 c43 -30 65 -83 65 -153 0 -69 -21 -113 -71 -146 -49 -33
-94 -38 -147 -18 -68 26 -98 72 -102 159 -3 61 -1 76 20 106 40 59 84 82 149
78 36 -3 66 -12 86 -26z"/>
<path d="M53175 9831 c-22 -10 -52 -31 -67 -46 l-28 -28 0 42 0 41 -105 0
-105 0 0 -365 0 -365 110 0 110 0 0 228 c0 209 2 230 20 260 11 18 32 37 46
42 39 15 97 12 123 -6 45 -32 51 -67 51 -304 l0 -220 111 0 110 0 -3 278 c-3
305 -5 314 -69 387 -19 21 -52 46 -74 56 -55 25 -176 25 -230 0z"/>
<path d="M73075 9831 c-22 -10 -52 -31 -67 -46 l-28 -28 0 42 0 41 -105 0
-105 0 0 -365 0 -365 110 0 110 0 0 228 c0 209 2 230 20 260 11 18 32 37 46
42 39 15 97 12 123 -6 45 -32 51 -67 51 -304 l0 -220 111 0 110 0 -3 278 c-3
305 -5 314 -69 387 -19 21 -52 46 -74 56 -55 25 -176 25 -230 0z"/>
<path d="M12930 9450 l0 -391 -26 -26 c-22 -22 -32 -25 -70 -20 l-44 5 0 -94
0 -93 35 -7 c19 -3 68 -5 108 -2 90 4 142 34 184 105 l28 48 3 433 3 432 -111
0 -110 0 0 -390z"/>
<path d="M14730 9480 l0 -360 110 0 110 0 0 360 0 360 -110 0 -110 0 0 -360z"/>
<path d="M15070 9830 c0 -9 130 -330 262 -647 l30 -73 112 0 113 0 137 360
c75 198 136 362 136 365 0 3 -52 4 -116 3 l-117 -3 -77 -224 -77 -224 -84 226
-84 227 -117 0 c-73 0 -118 -4 -118 -10z"/>
<path d="M30722 9563 l3 -278 31 -55 c56 -101 171 -153 289 -131 61 12 89 24
123 54 l22 20 0 -31 0 -32 111 0 112 0 -7 38 c-3 20 -6 184 -6 365 l0 327
-110 0 -110 0 0 -225 c0 -249 -4 -271 -60 -300 -68 -35 -151 -5 -169 62 -6 21
-11 132 -11 251 l0 212 -111 0 -110 0 3 -277z"/>
<path d="M32690 9835 c0 -2 59 -125 131 -272 71 -147 139 -289 150 -314 l20
-46 -80 -183 c-45 -101 -81 -185 -81 -187 0 -1 53 -3 118 -3 l117 0 220 497
c121 272 222 499 223 504 2 5 -50 9 -115 9 l-118 0 -79 -190 c-43 -104 -81
-188 -85 -186 -4 3 -45 88 -91 190 l-83 186 -124 0 c-68 0 -123 -2 -123 -5z"/>
<path d="M34390 9480 l0 -360 110 0 110 0 0 360 0 360 -110 0 -110 0 0 -360z"/>
<path d="M37030 9480 l0 -360 110 0 110 0 0 360 0 360 -110 0 -110 0 0 -360z"/>
<path d="M38220 9745 l0 -95 150 0 c83 0 150 -3 150 -7 0 -5 -70 -82 -155
-173 l-155 -165 0 -97 0 -98 305 0 305 0 0 95 0 95 -166 2 -166 3 166 175 166
175 -2 90 -3 90 -297 3 -298 2 0 -95z"/>
<path d="M48580 9475 l0 -365 110 0 110 0 0 188 c0 175 2 191 23 232 32 65 75
90 153 90 l64 0 0 110 0 110 -51 0 c-73 0 -127 -19 -166 -57 l-33 -34 0 46 0
45 -105 0 -105 0 0 -365z"/>
<path d="M51590 9480 l0 -360 110 0 110 0 0 360 0 360 -110 0 -110 0 0 -360z"/>
<path d="M68560 9480 l0 -360 110 0 110 0 0 360 0 360 -110 0 -110 0 0 -360z"/>
<path d="M71490 9480 l0 -360 110 0 110 0 0 360 0 360 -110 0 -110 0 0 -360z"/>
<path d="M73019 8424 c-88 -57 -74 -195 23 -232 50 -19 100 -9 137 29 52 52
53 124 2 181 -23 26 -36 32 -82 35 -39 3 -61 -1 -80 -13z"/>
<path d="M86779 8424 c-88 -57 -74 -195 23 -232 50 -19 100 -9 137 29 52 52
53 124 2 181 -23 26 -36 32 -82 35 -39 3 -61 -1 -80 -13z"/>
<path d="M87869 8424 c-88 -57 -74 -195 23 -232 50 -19 100 -9 137 29 52 52
53 124 2 181 -23 26 -36 32 -82 35 -39 3 -61 -1 -80 -13z"/>
<path d="M11500 7890 l0 -530 105 0 105 0 0 35 0 35 45 -35 c51 -38 94 -50
176 -49 127 2 232 71 291 191 28 58 33 79 36 163 5 115 -13 189 -62 265 -59
90 -145 134 -261 135 -83 0 -130 -12 -179 -45 l-36 -24 -2 192 -3 192 -107 3
-108 3 0 -531z m460 -12 c55 -38 74 -71 78 -141 5 -85 -24 -142 -90 -175 -39
-20 -55 -23 -95 -17 -120 18 -182 179 -110 287 45 67 152 90 217 46z"/>
<path d="M17047 8413 c-4 -3 -7 -90 -7 -191 0 -177 -1 -184 -18 -169 -56 51
-206 64 -307 26 -71 -26 -147 -100 -183 -176 -25 -53 -27 -68 -27 -178 0 -109
2 -125 27 -177 32 -69 103 -143 163 -169 111 -49 233 -45 313 11 l42 30 0 -30
0 -30 111 0 112 0 -7 31 c-3 17 -6 256 -6 530 l0 499 -103 0 c-57 0 -107 -3
-110 -7z m-91 -529 c19 -9 43 -29 54 -44 43 -60 44 -172 3 -229 -23 -31 -97
-71 -133 -71 -49 0 -113 42 -138 90 -30 58 -27 154 4 197 52 70 136 92 210 57z"/>
<path d="M29657 8413 c-4 -3 -7 -90 -7 -191 0 -177 -1 -184 -18 -169 -56 51
-206 64 -307 26 -71 -26 -147 -100 -183 -176 -25 -53 -27 -68 -27 -178 0 -109
2 -125 27 -177 32 -69 103 -143 163 -169 111 -49 233 -45 313 11 l42 30 0 -30
0 -30 111 0 112 0 -7 31 c-3 17 -6 256 -6 530 l0 499 -103 0 c-57 0 -107 -3
-110 -7z m-91 -529 c19 -9 43 -29 54 -44 43 -60 44 -172 3 -229 -23 -31 -97
-71 -133 -71 -49 0 -113 42 -138 90 -30 58 -27 154 4 197 52 70 136 92 210 57z"/>
<path d="M31250 7890 l0 -530 110 0 110 0 0 530 0 530 -110 0 -110 0 0 -530z"/>
<path d="M34057 8413 c-4 -3 -7 -90 -7 -191 0 -177 -1 -184 -18 -169 -56 51
-206 64 -307 26 -71 -26 -147 -100 -183 -176 -25 -53 -27 -68 -27 -178 0 -109
2 -125 27 -177 32 -69 103 -143 163 -169 111 -49 233 -45 313 11 l42 30 0 -30
0 -30 111 0 112 0 -7 31 c-3 17 -6 256 -6 530 l0 499 -103 0 c-57 0 -107 -3
-110 -7z m-91 -529 c19 -9 43 -29 54 -44 43 -60 44 -172 3 -229 -23 -31 -97
-71 -133 -71 -49 0 -113 42 -138 90 -30 58 -27 154 4 197 52 70 136 92 210 57z"/>
<path d="M51387 8413 c-4 -3 -7 -90 -7 -191 0 -177 -1 -184 -18 -169 -56 51
-206 64 -307 26 -71 -26 -147 -100 -183 -176 -25 -53 -27 -68 -27 -178 0 -109
2 -125 27 -177 32 -69 103 -143 163 -169 111 -49 233 -45 313 11 l42 30 0 -30
0 -30 111 0 112 0 -7 31 c-3 17 -6 256 -6 530 l0 499 -103 0 c-57 0 -107 -3
-110 -7z m-91 -529 c19 -9 43 -29 54 -44 43 -60 44 -172 3 -229 -23 -31 -97
-71 -133 -71 -49 0 -113 42 -138 90 -30 58 -27 154 4 197 52 70 136 92 210 57z"/>
<path d="M52610 7890 l0 -530 110 0 110 0 0 530 0 530 -110 0 -110 0 0 -530z"/>
<path d="M84687 8413 c-4 -3 -7 -90 -7 -191 0 -177 -1 -184 -18 -169 -56 51
-206 64 -307 26 -71 -26 -147 -100 -183 -176 -25 -53 -27 -68 -27 -178 0 -109
2 -125 27 -177 32 -69 103 -143 163 -169 111 -49 233 -45 313 11 l42 30 0 -30
0 -30 111 0 112 0 -7 31 c-3 17 -6 256 -6 530 l0 499 -103 0 c-57 0 -107 -3
-110 -7z m-91 -529 c19 -9 43 -29 54 -44 43 -60 44 -172 3 -229 -23 -31 -97
-71 -133 -71 -49 0 -113 42 -138 90 -30 58 -27 154 4 197 52 70 136 92 210 57z"/>
<path d="M12679 8288 c-34 -57 -64 -106 -66 -110 -2 -5 36 -8 85 -8 l89 0 103
110 102 110 -125 0 -125 0 -63 -102z"/>
<path d="M73682 8286 c-34 -57 -62 -107 -62 -110 0 -3 38 -6 85 -6 l85 0 74
78 c40 42 86 92 101 110 l27 32 -124 0 -123 0 -63 -104z"/>
<path d="M35330 8263 c-2 -117 -38 -173 -111 -173 l-39 0 0 -100 0 -100 60 0
60 0 0 -154 c0 -84 5 -177 10 -207 23 -118 103 -179 235 -179 119 0 115 -3
115 107 l0 96 -30 -6 c-40 -9 -85 9 -99 39 -6 15 -11 81 -11 164 l0 140 75 0
76 0 -3 98 -3 97 -72 3 -73 3 0 104 0 105 -95 0 -95 0 0 -37z"/>
<path d="M70870 8263 c-2 -117 -38 -173 -111 -173 l-39 0 0 -100 0 -100 60 0
60 0 0 -154 c0 -84 5 -177 10 -207 23 -118 103 -179 235 -179 119 0 115 -3
115 107 l0 96 -30 -6 c-40 -9 -85 9 -99 39 -6 15 -11 81 -11 164 l0 140 75 0
76 0 -3 98 -3 97 -72 3 -73 3 0 104 0 105 -95 0 -95 0 0 -37z"/>
<path d="M13407 8096 c-127 -47 -192 -152 -167 -269 21 -99 77 -145 223 -181
121 -30 137 -39 137 -76 0 -38 -32 -60 -88 -60 -35 0 -49 6 -73 29 -16 16 -29
37 -29 45 0 10 -9 16 -22 16 -33 -1 -157 -26 -165 -33 -12 -13 17 -84 53 -125
46 -54 94 -79 182 -93 133 -22 253 20 317 109 25 37 30 54 33 115 3 61 0 79
-20 116 -34 63 -100 106 -196 126 -127 27 -147 36 -150 72 -8 84 151 84 172 0
l6 -24 91 16 91 15 -6 34 c-8 51 -65 123 -120 151 -60 31 -207 40 -269 17z"/>
<path d="M15918 8093 c-105 -40 -191 -129 -224 -231 -12 -40 -15 -79 -12 -155
4 -127 31 -191 113 -266 77 -69 145 -94 260 -94 137 0 233 46 293 140 51 81
50 83 -53 114 l-90 26 -17 -28 c-24 -40 -58 -59 -114 -65 -78 -9 -158 42 -179
114 l-6 22 255 0 256 0 0 68 c0 166 -64 280 -190 340 -73 35 -220 42 -292 15z
m174 -163 c43 -12 88 -61 88 -96 l0 -24 -140 0 c-131 0 -140 1 -140 19 0 27
47 81 85 97 37 16 59 17 107 4z"/>
<path d="M17612 8096 c-62 -20 -117 -62 -151 -113 -28 -42 -48 -99 -39 -109 3
-2 46 -12 96 -23 l92 -18 6 22 c3 13 19 36 35 51 26 25 39 29 84 29 43 0 59
-5 79 -24 29 -27 34 -62 12 -83 -7 -8 -67 -22 -131 -32 -65 -10 -130 -22 -144
-27 -183 -69 -198 -310 -26 -395 94 -45 214 -37 290 21 l45 35 0 -30 0 -30
103 0 102 0 -5 272 c-6 298 -8 311 -69 380 -52 60 -110 81 -231 85 -72 2 -119
-2 -148 -11z m228 -456 c0 -83 -49 -130 -134 -130 -36 0 -48 5 -65 26 -46 59
-10 108 94 128 107 21 105 22 105 -24z"/>
<path d="M30258 8093 c-105 -40 -191 -129 -224 -231 -12 -40 -15 -79 -12 -155
4 -127 31 -191 113 -266 77 -69 145 -94 260 -94 137 0 233 46 293 140 51 81
50 83 -53 114 l-90 26 -17 -28 c-24 -40 -58 -59 -114 -65 -78 -9 -158 42 -179
114 l-6 22 255 0 256 0 0 68 c0 166 -64 280 -190 340 -73 35 -220 42 -292 15z
m174 -163 c43 -12 88 -61 88 -96 l0 -24 -140 0 c-131 0 -140 1 -140 19 0 27
47 81 85 97 37 16 59 17 107 4z"/>
<path d="M31876 8094 c-65 -21 -112 -52 -164 -108 -72 -78 -87 -122 -87 -256
0 -104 3 -121 27 -172 105 -224 414 -287 605 -123 163 139 173 416 19 569 -23
24 -69 56 -101 72 -51 24 -73 29 -155 31 -65 2 -110 -2 -144 -13z m214 -212
c50 -37 70 -80 70 -150 0 -79 -25 -130 -80 -161 -74 -42 -160 -21 -214 52 -17
23 -21 43 -21 107 0 93 16 122 86 158 51 27 117 24 159 -6z"/>
<path d="M32657 8096 c-127 -47 -192 -152 -167 -269 21 -99 77 -145 223 -181
121 -30 137 -39 137 -76 0 -38 -32 -60 -88 -60 -35 0 -49 6 -73 29 -16 16 -29
37 -29 45 0 10 -9 16 -22 16 -33 -1 -157 -26 -165 -33 -12 -13 17 -84 53 -125
46 -54 94 -79 182 -93 133 -22 253 20 317 109 25 37 30 54 33 115 3 61 0 79
-20 116 -34 63 -100 106 -196 126 -127 27 -147 36 -150 72 -8 84 151 84 172 0
l6 -24 91 16 91 15 -6 34 c-8 51 -65 123 -120 151 -60 31 -207 40 -269 17z"/>
<path d="M34632 8096 c-62 -20 -117 -62 -151 -113 -28 -42 -48 -99 -39 -109 3
-2 46 -12 96 -23 l92 -18 6 22 c3 13 19 36 35 51 26 25 39 29 84 29 43 0 59
-5 79 -24 29 -27 34 -62 12 -83 -7 -8 -67 -22 -131 -32 -65 -10 -130 -22 -144
-27 -183 -69 -198 -310 -26 -395 94 -45 214 -37 290 21 l45 35 0 -30 0 -30
103 0 102 0 -5 272 c-6 298 -8 311 -69 380 -52 60 -110 81 -231 85 -72 2 -119
-2 -148 -11z m228 -456 c0 -83 -49 -130 -134 -130 -36 0 -48 5 -65 26 -46 59
-10 108 94 128 107 21 105 22 105 -24z"/>
<path d="M36016 8094 c-65 -21 -112 -52 -164 -108 -72 -78 -87 -122 -87 -256
0 -104 3 -121 27 -172 105 -224 414 -287 605 -123 163 139 173 416 19 569 -23
24 -69 56 -101 72 -51 24 -73 29 -155 31 -65 2 -110 -2 -144 -13z m214 -212
c50 -37 70 -80 70 -150 0 -79 -25 -130 -80 -161 -74 -42 -160 -21 -214 52 -17
23 -21 43 -21 107 0 93 16 122 86 158 51 27 117 24 159 -6z"/>
<path d="M36797 8096 c-127 -47 -192 -152 -167 -269 21 -99 77 -145 223 -181
121 -30 137 -39 137 -76 0 -38 -32 -60 -88 -60 -35 0 -49 6 -73 29 -16 16 -29
37 -29 45 0 10 -9 16 -22 16 -33 -1 -157 -26 -165 -33 -12 -13 17 -84 53 -125
46 -54 94 -79 182 -93 133 -22 253 20 317 109 25 37 30 54 33 115 3 61 0 79
-20 116 -34 63 -100 106 -196 126 -127 27 -147 36 -150 72 -8 84 151 84 172 0
l6 -24 91 16 91 15 -6 34 c-8 51 -65 123 -120 151 -60 31 -207 40 -269 17z"/>
<path d="M49020 8089 c-25 -11 -57 -32 -72 -46 l-28 -27 0 37 0 37 -105 0
-105 0 0 -360 0 -360 109 0 110 0 3 235 3 235 33 32 c28 28 39 33 81 33 59 0
95 -28 111 -84 5 -20 10 -129 10 -243 l0 -208 110 0 110 0 0 225 c0 253 5 275
65 301 44 18 69 18 105 -1 56 -29 60 -51 60 -300 l0 -225 111 0 111 0 -4 273
c-5 287 -8 311 -55 374 -42 57 -105 86 -198 91 -93 5 -144 -11 -207 -67 l-36
-31 -39 39 c-22 22 -56 44 -78 50 -64 17 -154 13 -205 -10z"/>
<path d="M50226 8094 c-65 -21 -112 -52 -164 -108 -72 -78 -87 -122 -87 -256
0 -104 3 -121 27 -172 105 -224 414 -287 605 -123 163 139 173 416 19 569 -23
24 -69 56 -101 72 -51 24 -73 29 -155 31 -65 2 -110 -2 -144 -13z m214 -212
c50 -37 70 -80 70 -150 0 -79 -25 -130 -80 -161 -74 -42 -160 -21 -214 52 -17
23 -21 43 -21 107 0 93 16 122 86 158 51 27 117 24 159 -6z"/>
<path d="M51988 8093 c-105 -40 -191 -129 -224 -231 -12 -40 -15 -79 -12 -155
4 -127 31 -191 113 -266 77 -69 145 -94 260 -94 137 0 233 46 293 140 51 81
50 83 -53 114 l-90 26 -17 -28 c-24 -40 -58 -59 -114 -65 -78 -9 -158 42 -179
114 l-6 22 255 0 256 0 0 68 c0 166 -64 280 -190 340 -73 35 -220 42 -292 15z
m174 -163 c43 -12 88 -61 88 -96 l0 -24 -140 0 c-131 0 -140 1 -140 19 0 27
47 81 85 97 37 16 59 17 107 4z"/>
<path d="M53236 8094 c-65 -21 -112 -52 -164 -108 -72 -78 -87 -122 -87 -256
0 -104 3 -121 27 -172 105 -224 414 -287 605 -123 163 139 173 416 19 569 -23
24 -69 56 -101 72 -51 24 -73 29 -155 31 -65 2 -110 -2 -144 -13z m214 -212
c50 -37 70 -80 70 -150 0 -79 -25 -130 -80 -161 -74 -42 -160 -21 -214 52 -17
23 -21 43 -21 107 0 93 16 122 86 158 51 27 117 24 159 -6z"/>
<path d="M54017 8096 c-127 -47 -192 -152 -167 -269 21 -99 77 -145 223 -181
121 -30 137 -39 137 -76 0 -38 -32 -60 -88 -60 -35 0 -49 6 -73 29 -16 16 -29
37 -29 45 0 10 -9 16 -22 16 -33 -1 -157 -26 -165 -33 -12 -13 17 -84 53 -125
46 -54 94 -79 182 -93 133 -22 253 20 317 109 25 37 30 54 33 115 3 61 0 79
-20 116 -34 63 -100 106 -196 126 -127 27 -147 36 -150 72 -8 84 151 84 172 0
l6 -24 91 16 91 15 -6 34 c-8 51 -65 123 -120 151 -60 31 -207 40 -269 17z"/>
<path d="M67808 8093 c-105 -40 -191 -129 -224 -231 -12 -40 -15 -79 -12 -155
4 -127 31 -191 113 -266 77 -69 145 -94 260 -94 137 0 233 46 293 140 51 81
50 83 -53 114 l-90 26 -17 -28 c-24 -40 -58 -59 -114 -65 -78 -9 -158 42 -179
114 l-6 22 255 0 256 0 0 68 c0 166 -64 280 -190 340 -73 35 -220 42 -292 15z
m174 -163 c43 -12 88 -61 88 -96 l0 -24 -140 0 c-131 0 -140 1 -140 19 0 27
47 81 85 97 37 16 59 17 107 4z"/>
<path d="M68567 8096 c-127 -47 -192 -152 -167 -269 21 -99 77 -145 223 -181
121 -30 137 -39 137 -76 0 -38 -32 -60 -88 -60 -35 0 -49 6 -73 29 -16 16 -29
37 -29 45 0 10 -9 16 -22 16 -33 -1 -157 -26 -165 -33 -12 -13 17 -84 53 -125
46 -54 94 -79 182 -93 133 -22 253 20 317 109 25 37 30 54 33 115 3 61 0 79
-20 116 -34 63 -100 106 -196 126 -127 27 -147 36 -150 72 -8 84 151 84 172 0
l6 -24 91 16 91 15 -6 34 c-8 51 -65 123 -120 151 -60 31 -207 40 -269 17z"/>
<path d="M69298 8093 c-105 -40 -191 -129 -224 -231 -12 -40 -15 -79 -12 -155
4 -127 31 -191 113 -266 77 -69 145 -94 260 -94 137 0 233 46 293 140 51 81
50 83 -53 114 l-90 26 -17 -28 c-24 -40 -58 -59 -114 -65 -78 -9 -158 42 -179
114 l-6 22 255 0 256 0 0 68 c0 166 -64 280 -190 340 -73 35 -220 42 -292 15z
m174 -163 c43 -12 88 -61 88 -96 l0 -24 -140 0 c-131 0 -140 1 -140 19 0 27
47 81 85 97 37 16 59 17 107 4z"/>
<path d="M71532 8096 c-62 -20 -117 -62 -151 -113 -28 -42 -48 -99 -39 -109 3
-2 46 -12 96 -23 l92 -18 6 22 c3 13 19 36 35 51 26 25 39 29 84 29 43 0 59
-5 79 -24 29 -27 34 -62 12 -83 -7 -8 -67 -22 -131 -32 -65 -10 -130 -22 -144
-27 -183 -69 -198 -310 -26 -395 94 -45 214 -37 290 21 l45 35 0 -30 0 -30
103 0 102 0 -5 272 c-6 298 -8 311 -69 380 -52 60 -110 81 -231 85 -72 2 -119
-2 -148 -11z m228 -456 c0 -83 -49 -130 -134 -130 -36 0 -48 5 -65 26 -46 59
-10 108 94 128 107 21 105 22 105 -24z"/>
<path d="M72351 8090 c-105 -38 -197 -134 -227 -238 -25 -83 -16 -222 18 -294
106 -228 436 -288 612 -113 38 38 86 118 86 143 0 8 -163 62 -186 62 -5 0 -17
-14 -26 -30 -39 -69 -150 -93 -219 -47 -56 37 -79 81 -79 149 0 99 37 154 120
179 71 22 143 -11 185 -84 9 -16 17 -15 107 13 l98 31 -15 37 c-40 94 -108
159 -203 194 -66 24 -201 23 -271 -2z"/>
<path d="M73634 8100 c-108 -23 -201 -93 -255 -192 -33 -62 -34 -65 -34 -183
0 -111 2 -124 28 -176 59 -121 182 -200 323 -207 184 -10 330 83 390 248 25
70 22 210 -6 285 -32 83 -122 173 -203 204 -66 24 -181 34 -243 21z m183 -228
c47 -34 66 -82 61 -163 -2 -48 -10 -77 -24 -96 -24 -33 -97 -73 -134 -73 -45
0 -113 42 -138 85 -19 33 -22 52 -20 107 4 75 21 107 79 146 44 31 129 28 176
-6z"/>
<path d="M85288 8093 c-105 -40 -191 -129 -224 -231 -12 -40 -15 -79 -12 -155
4 -127 31 -191 113 -266 77 -69 145 -94 260 -94 137 0 233 46 293 140 51 81
50 83 -53 114 l-90 26 -17 -28 c-24 -40 -58 -59 -114 -65 -78 -9 -158 42 -179
114 l-6 22 255 0 256 0 0 68 c0 166 -64 280 -190 340 -73 35 -220 42 -292 15z
m174 -163 c43 -12 88 -61 88 -96 l0 -24 -140 0 c-131 0 -140 1 -140 19 0 27
47 81 85 97 37 16 59 17 107 4z"/>
<path d="M86111 8090 c-105 -38 -197 -134 -227 -238 -25 -83 -16 -222 18 -294
106 -228 436 -288 612 -113 38 38 86 118 86 143 0 8 -163 62 -186 62 -5 0 -17
-14 -26 -30 -39 -69 -150 -93 -219 -47 -56 37 -79 81 -79 149 0 99 37 154 120
179 71 22 143 -11 185 -84 9 -16 17 -15 107 13 l98 31 -15 37 c-40 94 -108
159 -203 194 -66 24 -201 23 -271 -2z"/>
<path d="M87277 8096 c-127 -47 -192 -152 -167 -269 21 -99 77 -145 223 -181
121 -30 137 -39 137 -76 0 -38 -32 -60 -88 -60 -35 0 -49 6 -73 29 -16 16 -29
37 -29 45 0 10 -9 16 -22 16 -33 -1 -157 -26 -165 -33 -12 -13 17 -84 53 -125
46 -54 94 -79 182 -93 133 -22 253 20 317 109 25 37 30 54 33 115 3 61 0 79
-20 116 -34 63 -100 106 -196 126 -127 27 -147 36 -150 72 -8 84 151 84 172 0
l6 -24 91 16 91 15 -6 34 c-8 51 -65 123 -120 151 -60 31 -207 40 -269 17z"/>
<path d="M88456 8094 c-65 -21 -112 -52 -164 -108 -72 -78 -87 -122 -87 -256
0 -104 3 -121 27 -172 105 -224 414 -287 605 -123 163 139 173 416 19 569 -23
24 -69 56 -101 72 -51 24 -73 29 -155 31 -65 2 -110 -2 -144 -13z m214 -212
c50 -37 70 -80 70 -150 0 -79 -25 -130 -80 -161 -74 -42 -160 -21 -214 52 -17
23 -21 43 -21 107 0 93 16 122 86 158 51 27 117 24 159 -6z"/>
<path d="M90158 8093 c-105 -40 -191 -129 -224 -231 -12 -40 -15 -79 -12 -155
4 -127 31 -191 113 -266 77 -69 145 -94 260 -94 137 0 233 46 293 140 51 81
50 83 -53 114 l-90 26 -17 -28 c-24 -40 -58 -59 -114 -65 -78 -9 -158 42 -179
114 l-6 22 255 0 256 0 0 68 c0 166 -64 280 -190 340 -73 35 -220 42 -292 15z
m174 -163 c43 -12 88 -61 88 -96 l0 -24 -140 0 c-131 0 -140 1 -140 19 0 27
47 81 85 97 37 16 59 17 107 4z"/>
<path d="M90917 8096 c-127 -47 -192 -152 -167 -269 21 -99 77 -145 223 -181
121 -30 137 -39 137 -76 0 -38 -32 -60 -88 -60 -35 0 -49 6 -73 29 -16 16 -29
37 -29 45 0 10 -9 16 -22 16 -33 -1 -157 -26 -165 -33 -12 -13 17 -84 53 -125
46 -54 94 -79 182 -93 133 -22 253 20 317 109 25 37 30 54 33 115 3 61 0 79
-20 116 -34 63 -100 106 -196 126 -127 27 -147 36 -150 72 -8 84 151 84 172 0
l6 -24 91 16 91 15 -6 34 c-8 51 -65 123 -120 151 -60 31 -207 40 -269 17z"/>
<path d="M91992 8096 c-62 -20 -117 -62 -151 -113 -28 -42 -48 -99 -39 -109 3
-2 46 -12 96 -23 l92 -18 6 22 c3 13 19 36 35 51 26 25 39 29 84 29 43 0 59
-5 79 -24 29 -27 34 -62 12 -83 -7 -8 -67 -22 -131 -32 -65 -10 -130 -22 -144
-27 -183 -69 -198 -310 -26 -395 94 -45 214 -37 290 21 l45 35 0 -30 0 -30
103 0 102 0 -5 272 c-6 298 -8 311 -69 380 -52 60 -110 81 -231 85 -72 2 -119
-2 -148 -11z m228 -456 c0 -83 -49 -130 -134 -130 -36 0 -48 5 -65 26 -46 59
-10 108 94 128 107 21 105 22 105 -24z"/>
<path d="M14124 8079 c-75 -28 -137 -88 -176 -167 -32 -64 -33 -71 -33 -187 0
-109 2 -125 26 -176 53 -112 139 -178 260 -199 78 -14 163 -2 215 31 l33 20 3
-158 3 -158 108 -3 107 -3 0 506 0 505 -105 0 -105 0 0 -35 0 -35 -21 21 c-60
60 -211 79 -315 38z m246 -197 c101 -50 118 -207 32 -293 -43 -42 -93 -55
-151 -39 -47 12 -96 60 -112 108 -15 46 -5 139 19 171 50 68 138 90 212 53z"/>
<path d="M66447 8086 c-20 -8 -53 -26 -72 -40 l-35 -27 0 35 0 36 -105 0 -105
0 0 -505 0 -505 110 0 110 0 0 165 0 164 36 -24 c44 -30 89 -40 169 -39 132 2
237 69 297 191 28 58 33 79 36 163 8 195 -70 334 -215 386 -49 17 -177 17
-226 0z m160 -214 c43 -30 65 -83 65 -153 0 -69 -21 -113 -71 -146 -49 -33
-94 -38 -147 -18 -68 26 -98 72 -102 159 -3 61 -1 76 20 106 40 59 84 82 149
78 36 -3 66 -12 86 -26z"/>
<path d="M70235 8081 c-22 -10 -52 -31 -67 -46 l-28 -28 0 42 0 41 -105 0
-105 0 0 -365 0 -365 110 0 110 0 0 228 c0 209 2 230 20 260 11 18 32 37 46
42 39 15 97 12 123 -6 45 -32 51 -67 51 -304 l0 -220 111 0 110 0 -3 278 c-3
305 -5 314 -69 387 -19 21 -52 46 -74 56 -55 25 -176 25 -230 0z"/>
<path d="M74555 8081 c-22 -10 -52 -31 -67 -46 l-28 -28 0 42 0 41 -105 0
-105 0 0 -365 0 -365 110 0 110 0 0 228 c0 209 2 230 20 260 11 18 32 37 46
42 39 15 97 12 123 -6 45 -32 51 -67 51 -304 l0 -220 111 0 110 0 -3 278 c-3
305 -5 314 -69 387 -19 21 -52 46 -74 56 -55 25 -176 25 -230 0z"/>
<path d="M89415 8081 c-22 -10 -52 -31 -67 -46 l-28 -28 0 42 0 41 -105 0
-105 0 0 -365 0 -365 110 0 110 0 0 228 c0 209 2 230 20 260 11 18 32 37 46
42 39 15 97 12 123 -6 45 -32 51 -67 51 -304 l0 -220 111 0 110 0 -3 278 c-3
305 -5 314 -69 387 -19 21 -52 46 -74 56 -55 25 -176 25 -230 0z"/>
<path d="M12402 7813 l3 -278 31 -55 c56 -101 171 -153 289 -131 61 12 89 24
123 54 l22 20 0 -31 0 -32 111 0 112 0 -7 38 c-3 20 -6 184 -6 365 l0 327
-110 0 -110 0 0 -225 c0 -249 -4 -271 -60 -300 -68 -35 -151 -5 -169 62 -6 21
-11 132 -11 251 l0 212 -111 0 -110 0 3 -277z"/>
<path d="M14852 7813 l3 -278 31 -55 c56 -101 171 -153 289 -131 61 12 89 24
123 54 l22 20 0 -31 0 -32 111 0 112 0 -7 38 c-3 20 -6 184 -6 365 l0 327
-110 0 -110 0 0 -225 c0 -249 -4 -271 -60 -300 -68 -35 -151 -5 -169 62 -6 21
-11 132 -11 251 l0 212 -111 0 -110 0 3 -277z"/>
<path d="M64840 8085 c0 -2 59 -125 131 -272 71 -147 139 -289 150 -314 l20
-46 -80 -183 c-45 -101 -81 -185 -81 -187 0 -1 53 -3 118 -3 l117 0 220 497
c121 272 222 499 223 504 2 5 -50 9 -115 9 l-118 0 -79 -190 c-43 -104 -81
-188 -85 -186 -4 3 -45 88 -91 190 l-83 186 -124 0 c-68 0 -123 -2 -123 -5z"/>
<path d="M67030 7725 l0 -365 110 0 110 0 0 188 c0 175 2 191 23 232 32 65 75
90 153 90 l64 0 0 110 0 110 -51 0 c-73 0 -127 -19 -166 -57 l-33 -34 0 46 0
45 -105 0 -105 0 0 -365z"/>
<path d="M72980 7730 l0 -360 110 0 110 0 0 360 0 360 -110 0 -110 0 0 -360z"/>
<path d="M86740 7730 l0 -360 110 0 110 0 0 360 0 360 -110 0 -110 0 0 -360z"/>
<path d="M87830 7730 l0 -360 110 0 110 0 0 360 0 360 -110 0 -110 0 0 -360z"/>
<path d="M34159 6674 c-88 -57 -74 -195 23 -232 50 -19 100 -9 137 29 52 52
53 124 2 181 -23 26 -36 32 -82 35 -39 3 -61 -1 -80 -13z"/>
<path d="M53369 6674 c-88 -57 -74 -195 23 -232 50 -19 100 -9 137 29 52 52
53 124 2 181 -23 26 -36 32 -82 35 -39 3 -61 -1 -80 -13z"/>
<path d="M35027 6663 c-4 -3 -7 -90 -7 -191 0 -177 -1 -184 -18 -169 -56 51
-206 64 -307 26 -71 -26 -147 -100 -183 -176 -25 -53 -27 -68 -27 -178 0 -109
2 -125 27 -177 32 -69 103 -143 163 -169 111 -49 233 -45 313 11 l42 30 0 -30
0 -30 111 0 112 0 -7 31 c-3 17 -6 256 -6 530 l0 499 -103 0 c-57 0 -107 -3
-110 -7z m-91 -529 c19 -9 43 -29 54 -44 43 -60 44 -172 3 -229 -23 -31 -97
-71 -133 -71 -49 0 -113 42 -138 90 -30 58 -27 154 4 197 52 70 136 92 210 57z"/>
<path d="M65887 6663 c-4 -3 -7 -90 -7 -191 0 -177 -1 -184 -18 -169 -56 51
-206 64 -307 26 -71 -26 -147 -100 -183 -176 -25 -53 -27 -68 -27 -178 0 -109
2 -125 27 -177 32 -69 103 -143 163 -169 111 -49 233 -45 313 11 l42 30 0 -30
0 -30 111 0 112 0 -7 31 c-3 17 -6 256 -6 530 l0 499 -103 0 c-57 0 -107 -3
-110 -7z m-91 -529 c19 -9 43 -29 54 -44 43 -60 44 -172 3 -229 -23 -31 -97
-71 -133 -71 -49 0 -113 42 -138 90 -30 58 -27 154 4 197 52 70 136 92 210 57z"/>
<path d="M70420 6140 l0 -530 110 0 110 0 0 530 0 530 -110 0 -110 0 0 -530z"/>
<path d="M72697 6663 c-4 -3 -7 -90 -7 -191 0 -177 -1 -184 -18 -169 -56 51
-206 64 -307 26 -71 -26 -147 -100 -183 -176 -25 -53 -27 -68 -27 -178 0 -109
2 -125 27 -177 32 -69 103 -143 163 -169 111 -49 233 -45 313 11 l42 30 0 -30
0 -30 111 0 112 0 -7 31 c-3 17 -6 256 -6 530 l0 499 -103 0 c-57 0 -107 -3
-110 -7z m-91 -529 c19 -9 43 -29 54 -44 43 -60 44 -172 3 -229 -23 -31 -97
-71 -133 -71 -49 0 -113 42 -138 90 -30 58 -27 154 4 197 52 70 136 92 210 57z"/>
<path d="M88557 6663 c-4 -3 -7 -90 -7 -191 0 -177 -1 -184 -18 -169 -56 51
-206 64 -307 26 -71 -26 -147 -100 -183 -176 -25 -53 -27 -68 -27 -178 0 -109
2 -125 27 -177 32 -69 103 -143 163 -169 111 -49 233 -45 313 11 l42 30 0 -30
0 -30 111 0 112 0 -7 31 c-3 17 -6 256 -6 530 l0 499 -103 0 c-57 0 -107 -3
-110 -7z m-91 -529 c19 -9 43 -29 54 -44 43 -60 44 -172 3 -229 -23 -31 -97
-71 -133 -71 -49 0 -113 42 -138 90 -30 58 -27 154 4 197 52 70 136 92 210 57z"/>
<path d="M90960 6140 l0 -530 110 0 110 0 0 530 0 530 -110 0 -110 0 0 -530z"/>
<path d="M91380 6140 l0 -530 110 0 110 0 0 530 0 530 -110 0 -110 0 0 -530z"/>
<path d="M52266 6618 c-65 -104 -116 -189 -116 -193 0 -3 39 -5 88 -5 l87 0
103 110 103 110 -125 0 c-119 0 -126 -1 -140 -22z"/>
<path d="M86478 6530 l-66 -110 88 0 88 0 75 78 c41 42 87 92 102 110 l27 32
-124 0 -123 0 -67 -110z"/>
<path d="M49360 6513 c-2 -117 -38 -173 -111 -173 l-39 0 0 -100 0 -100 60 0
60 0 0 -154 c0 -84 5 -177 10 -207 23 -118 103 -179 235 -179 119 0 115 -3
115 107 l0 96 -30 -6 c-40 -9 -85 9 -99 39 -6 15 -11 81 -11 164 l0 140 75 0
76 0 -3 98 -3 97 -72 3 -73 3 0 104 0 105 -95 0 -95 0 0 -37z"/>
<path d="M52830 6513 c-2 -117 -38 -173 -111 -173 l-39 0 0 -100 0 -100 60 0
60 0 0 -154 c0 -84 5 -177 10 -207 23 -118 103 -179 235 -179 119 0 115 -3
115 107 l0 96 -30 -6 c-40 -9 -85 9 -99 39 -6 15 -11 81 -11 164 l0 140 75 0
76 0 -3 98 -3 97 -72 3 -73 3 0 104 0 105 -95 0 -95 0 0 -37z"/>
<path d="M70910 6513 c-2 -117 -38 -173 -111 -173 l-39 0 0 -100 0 -100 60 0
60 0 0 -154 c0 -84 5 -177 10 -207 23 -118 103 -179 235 -179 119 0 115 -3
115 107 l0 96 -30 -6 c-40 -9 -85 9 -99 39 -6 15 -11 81 -11 164 l0 140 75 0
76 0 -3 98 -3 97 -72 3 -73 3 0 104 0 105 -95 0 -95 0 0 -37z"/>
<path d="M83540 6513 c-2 -117 -38 -173 -111 -173 l-39 0 0 -100 0 -100 60 0
60 0 0 -154 c0 -84 5 -177 10 -207 23 -118 103 -179 235 -179 119 0 115 -3
115 107 l0 96 -30 -6 c-40 -9 -85 9 -99 39 -6 15 -11 81 -11 164 l0 140 75 0
76 0 -3 98 -3 97 -72 3 -73 3 0 104 0 105 -95 0 -95 0 0 -37z"/>
<path d="M30308 6343 c-105 -40 -191 -129 -224 -231 -12 -40 -15 -79 -12 -155
4 -127 31 -191 113 -266 77 -69 145 -94 260 -94 137 0 233 46 293 140 51 81
50 83 -53 114 l-90 26 -17 -28 c-24 -40 -58 -59 -114 -65 -78 -9 -158 42 -179
114 l-6 22 255 0 256 0 0 68 c0 166 -64 280 -190 340 -73 35 -220 42 -292 15z
m174 -163 c43 -12 88 -61 88 -96 l0 -24 -140 0 c-131 0 -140 1 -140 19 0 27
47 81 85 97 37 16 59 17 107 4z"/>
<path d="M32898 6343 c-105 -40 -191 -129 -224 -231 -12 -40 -15 -79 -12 -155
4 -127 31 -191 113 -266 77 -69 145 -94 260 -94 137 0 233 46 293 140 51 81
50 83 -53 114 l-90 26 -17 -28 c-24 -40 -58 -59 -114 -65 -78 -9 -158 42 -179
114 l-6 22 255 0 256 0 0 68 c0 166 -64 280 -190 340 -73 35 -220 42 -292 15z
m174 -163 c43 -12 88 -61 88 -96 l0 -24 -140 0 c-131 0 -140 1 -140 19 0 27
47 81 85 97 37 16 59 17 107 4z"/>
<path d="M35656 6344 c-65 -21 -112 -52 -164 -108 -72 -78 -87 -122 -87 -256
0 -104 3 -121 27 -172 105 -224 414 -287 605 -123 163 139 173 416 19 569 -23
24 -69 56 -101 72 -51 24 -73 29 -155 31 -65 2 -110 -2 -144 -13z m214 -212
c50 -37 70 -80 70 -150 0 -79 -25 -130 -80 -161 -74 -42 -160 -21 -214 52 -17
23 -21 43 -21 107 0 93 16 122 86 158 51 27 117 24 159 -6z"/>
<path d="M36437 6346 c-127 -47 -192 -152 -167 -269 21 -99 77 -145 223 -181
121 -30 137 -39 137 -76 0 -38 -32 -60 -88 -60 -35 0 -49 6 -73 29 -16 16 -29
37 -29 45 0 10 -9 16 -22 16 -33 -1 -157 -26 -165 -33 -12 -13 17 -84 53 -125
46 -54 94 -79 182 -93 133 -22 253 20 317 109 25 37 30 54 33 115 3 61 0 79
-20 116 -34 63 -100 106 -196 126 -127 27 -147 36 -150 72 -8 84 151 84 172 0
l6 -24 91 16 91 15 -6 34 c-8 51 -65 123 -120 151 -60 31 -207 40 -269 17z"/>
<path d="M47500 6339 c-25 -11 -57 -32 -72 -46 l-28 -27 0 37 0 37 -105 0
-105 0 0 -360 0 -360 109 0 110 0 3 235 3 235 33 32 c28 28 39 33 81 33 59 0
95 -28 111 -84 5 -20 10 -129 10 -243 l0 -208 110 0 110 0 0 225 c0 253 5 275
65 301 44 18 69 18 105 -1 56 -29 60 -51 60 -300 l0 -225 111 0 111 0 -4 273
c-5 287 -8 311 -55 374 -42 57 -105 86 -198 91 -93 5 -144 -11 -207 -67 l-36
-31 -39 39 c-22 22 -56 44 -78 50 -64 17 -154 13 -205 -10z"/>
<path d="M48662 6346 c-62 -20 -117 -62 -151 -113 -28 -42 -48 -99 -39 -109 3
-2 46 -12 96 -23 l92 -18 6 22 c3 13 19 36 35 51 26 25 39 29 84 29 43 0 59
-5 79 -24 29 -27 34 -62 12 -83 -7 -8 -67 -22 -131 -32 -65 -10 -130 -22 -144
-27 -183 -69 -198 -310 -26 -395 94 -45 214 -37 290 21 l45 35 0 -30 0 -30
103 0 102 0 -5 272 c-6 298 -8 311 -69 380 -52 60 -110 81 -231 85 -72 2 -119
-2 -148 -11z m228 -456 c0 -83 -49 -130 -134 -130 -36 0 -48 5 -65 26 -46 59
-10 108 94 128 107 21 105 22 105 -24z"/>
<path d="M50038 6343 c-105 -40 -191 -129 -224 -231 -12 -40 -15 -79 -12 -155
4 -127 31 -191 113 -266 77 -69 145 -94 260 -94 137 0 233 46 293 140 51 81
50 83 -53 114 l-90 26 -17 -28 c-24 -40 -58 -59 -114 -65 -78 -9 -158 42 -179
114 l-6 22 255 0 256 0 0 68 c0 166 -64 280 -190 340 -73 35 -220 42 -292 15z
m174 -163 c43 -12 88 -61 88 -96 l0 -24 -140 0 c-131 0 -140 1 -140 19 0 27
47 81 85 97 37 16 59 17 107 4z"/>
<path d="M50970 6339 c-25 -11 -57 -32 -72 -46 l-28 -27 0 37 0 37 -105 0
-105 0 0 -360 0 -360 109 0 110 0 3 235 3 235 33 32 c28 28 39 33 81 33 59 0
95 -28 111 -84 5 -20 10 -129 10 -243 l0 -208 110 0 110 0 0 225 c0 253 5 275
65 301 44 18 69 18 105 -1 56 -29 60 -51 60 -300 l0 -225 111 0 111 0 -4 273
c-5 287 -8 311 -55 374 -42 57 -105 86 -198 91 -93 5 -144 -11 -207 -67 l-36
-31 -39 39 c-22 22 -56 44 -78 50 -64 17 -154 13 -205 -10z"/>
<path d="M52154 6346 c-88 -21 -169 -87 -200 -162 -27 -64 -23 -68 78 -88 51
-10 94 -14 95 -9 11 31 47 75 69 83 49 19 113 12 139 -15 27 -26 33 -66 12
-83 -7 -6 -67 -20 -133 -31 -65 -10 -135 -25 -155 -34 -100 -41 -151 -136
-129 -240 21 -102 102 -166 220 -175 84 -6 142 11 190 54 l39 35 3 -33 3 -33
100 -3 100 -3 -5 273 c-5 250 -7 277 -26 318 -39 84 -103 131 -205 150 -67 13
-131 11 -195 -4z m194 -523 c-7 -15 -28 -38 -47 -50 -78 -53 -175 -7 -155 73
9 36 39 51 129 66 l80 14 3 -38 c2 -21 -3 -50 -10 -65z"/>
<path d="M53931 6340 c-105 -38 -197 -134 -227 -238 -25 -83 -16 -222 18 -294
106 -228 436 -288 612 -113 38 38 86 118 86 143 0 8 -163 62 -186 62 -5 0 -17
-14 -26 -30 -39 -69 -150 -93 -219 -47 -56 37 -79 81 -79 149 0 99 37 154 120
179 71 22 143 -11 185 -84 9 -16 17 -15 107 13 l98 31 -15 37 c-40 94 -108
159 -203 194 -66 24 -201 23 -271 -2z"/>
<path d="M54756 6344 c-65 -21 -112 -52 -164 -108 -72 -78 -87 -122 -87 -256
0 -104 3 -121 27 -172 105 -224 414 -287 605 -123 163 139 173 416 19 569 -23
24 -69 56 -101 72 -51 24 -73 29 -155 31 -65 2 -110 -2 -144 -13z m214 -212
c50 -37 70 -80 70 -150 0 -79 -25 -130 -80 -161 -74 -42 -160 -21 -214 52 -17
23 -21 43 -21 107 0 93 16 122 86 158 51 27 117 24 159 -6z"/>
<path d="M55537 6346 c-127 -47 -192 -152 -167 -269 21 -99 77 -145 223 -181
121 -30 137 -39 137 -76 0 -38 -32 -60 -88 -60 -35 0 -49 6 -73 29 -16 16 -29
37 -29 45 0 10 -9 16 -22 16 -33 -1 -157 -26 -165 -33 -12 -13 17 -84 53 -125
46 -54 94 -79 182 -93 133 -22 253 20 317 109 25 37 30 54 33 115 3 61 0 79
-20 116 -34 63 -100 106 -196 126 -127 27 -147 36 -150 72 -8 84 151 84 172 0
l6 -24 91 16 91 15 -6 34 c-8 51 -65 123 -120 151 -60 31 -207 40 -269 17z"/>
<path d="M66488 6343 c-105 -40 -191 -129 -224 -231 -12 -40 -15 -79 -12 -155
4 -127 31 -191 113 -266 77 -69 145 -94 260 -94 137 0 233 46 293 140 51 81
50 83 -53 114 l-90 26 -17 -28 c-24 -40 -58 -59 -114 -65 -78 -9 -158 42 -179
114 l-6 22 255 0 256 0 0 68 c0 166 -64 280 -190 340 -73 35 -220 42 -292 15z
m174 -163 c43 -12 88 -61 88 -96 l0 -24 -140 0 c-131 0 -140 1 -140 19 0 27
47 81 85 97 37 16 59 17 107 4z"/>
<path d="M68248 6343 c-105 -40 -191 -129 -224 -231 -12 -40 -15 -79 -12 -155
4 -127 31 -191 113 -266 77 -69 145 -94 260 -94 137 0 233 46 293 140 51 81
50 83 -53 114 l-90 26 -17 -28 c-24 -40 -58 -59 -114 -65 -78 -9 -158 42 -179
114 l-6 22 255 0 256 0 0 68 c0 166 -64 280 -190 340 -73 35 -220 42 -292 15z
m174 -163 c43 -12 88 -61 88 -96 l0 -24 -140 0 c-131 0 -140 1 -140 19 0 27
47 81 85 97 37 16 59 17 107 4z"/>
<path d="M69007 6346 c-127 -47 -192 -152 -167 -269 21 -99 77 -145 223 -181
121 -30 137 -39 137 -76 0 -38 -32 -60 -88 -60 -35 0 -49 6 -73 29 -16 16 -29
37 -29 45 0 10 -9 16 -22 16 -33 -1 -157 -26 -165 -33 -12 -13 17 -84 53 -125
46 -54 94 -79 182 -93 133 -22 253 20 317 109 25 37 30 54 33 115 3 61 0 79
-20 116 -34 63 -100 106 -196 126 -127 27 -147 36 -150 72 -8 84 151 84 172 0
l6 -24 91 16 91 15 -6 34 c-8 51 -65 123 -120 151 -60 31 -207 40 -269 17z"/>
<path d="M71572 6346 c-62 -20 -117 -62 -151 -113 -28 -42 -48 -99 -39 -109 3
-2 46 -12 96 -23 l92 -18 6 22 c3 13 19 36 35 51 26 25 39 29 84 29 43 0 59
-5 79 -24 29 -27 34 -62 12 -83 -7 -8 -67 -22 -131 -32 -65 -10 -130 -22 -144
-27 -183 -69 -198 -310 -26 -395 94 -45 214 -37 290 21 l45 35 0 -30 0 -30
103 0 102 0 -5 272 c-6 298 -8 311 -69 380 -52 60 -110 81 -231 85 -72 2 -119
-2 -148 -11z m228 -456 c0 -83 -49 -130 -134 -130 -36 0 -48 5 -65 26 -46 59
-10 108 94 128 107 21 105 22 105 -24z"/>
<path d="M73326 6344 c-65 -21 -112 -52 -164 -108 -72 -78 -87 -122 -87 -256
0 -104 3 -121 27 -172 105 -224 414 -287 605 -123 163 139 173 416 19 569 -23
24 -69 56 -101 72 -51 24 -73 29 -155 31 -65 2 -110 -2 -144 -13z m214 -212
c50 -37 70 -80 70 -150 0 -79 -25 -130 -80 -161 -74 -42 -160 -21 -214 52 -17
23 -21 43 -21 107 0 93 16 122 86 158 51 27 117 24 159 -6z"/>
<path d="M74107 6346 c-127 -47 -192 -152 -167 -269 21 -99 77 -145 223 -181
121 -30 137 -39 137 -76 0 -38 -32 -60 -88 -60 -35 0 -49 6 -73 29 -16 16 -29
37 -29 45 0 10 -9 16 -22 16 -33 -1 -157 -26 -165 -33 -12 -13 17 -84 53 -125
46 -54 94 -79 182 -93 133 -22 253 20 317 109 25 37 30 54 33 115 3 61 0 79
-20 116 -34 63 -100 106 -196 126 -127 27 -147 36 -150 72 -8 84 151 84 172 0
l6 -24 91 16 91 15 -6 34 c-8 51 -65 123 -120 151 -60 31 -207 40 -269 17z"/>
<path d="M84792 6346 c-62 -20 -117 -62 -151 -113 -28 -42 -48 -99 -39 -109 3
-2 46 -12 96 -23 l92 -18 6 22 c3 13 19 36 35 51 26 25 39 29 84 29 43 0 59
-5 79 -24 29 -27 34 -62 12 -83 -7 -8 -67 -22 -131 -32 -65 -10 -130 -22 -144
-27 -183 -69 -198 -310 -26 -395 94 -45 214 -37 290 21 l45 35 0 -30 0 -30
103 0 102 0 -5 272 c-6 298 -8 311 -69 380 -52 60 -110 81 -231 85 -72 2 -119
-2 -148 -11z m228 -456 c0 -83 -49 -130 -134 -130 -36 0 -48 5 -65 26 -46 59
-10 108 94 128 107 21 105 22 105 -24z"/>
<path d="M86423 6345 c-99 -27 -183 -98 -231 -194 -25 -52 -27 -65 -27 -176 0
-116 1 -123 33 -187 37 -76 88 -125 172 -166 50 -24 66 -27 165 -27 126 0 172
15 243 80 36 31 98 132 88 142 -1 2 -43 15 -91 29 l-89 26 -18 -24 c-9 -13
-18 -26 -18 -29 0 -15 -72 -39 -118 -39 -34 0 -59 7 -83 23 -37 25 -82 84 -76
101 2 7 88 12 257 14 l253 2 -5 94 c-10 188 -104 304 -272 335 -77 14 -119 13
-183 -4z m173 -180 c25 -10 40 -26 54 -57 l19 -43 -141 -3 c-77 -1 -143 0
-146 3 -12 11 29 76 60 95 39 24 104 26 154 5z"/>
<path d="M87147 6346 c-127 -47 -192 -152 -167 -269 21 -99 77 -145 223 -181
121 -30 137 -39 137 -76 0 -38 -32 -60 -88 -60 -35 0 -49 6 -73 29 -16 16 -29
37 -29 45 0 10 -9 16 -22 16 -33 -1 -157 -26 -165 -33 -12 -13 17 -84 53 -125
46 -54 94 -79 182 -93 133 -22 253 20 317 109 25 37 30 54 33 115 3 61 0 79
-20 116 -34 63 -100 106 -196 126 -127 27 -147 36 -150 72 -8 84 151 84 172 0
l6 -24 91 16 91 15 -6 34 c-8 51 -65 123 -120 151 -60 31 -207 40 -269 17z"/>
<path d="M89168 6343 c-105 -40 -191 -129 -224 -231 -12 -40 -15 -79 -12 -155
4 -127 31 -191 113 -266 77 -69 145 -94 260 -94 137 0 233 46 293 140 51 81
50 83 -53 114 l-90 26 -17 -28 c-24 -40 -58 -59 -114 -65 -78 -9 -158 42 -179
114 l-6 22 255 0 256 0 0 68 c0 166 -64 280 -190 340 -73 35 -220 42 -292 15z
m174 -163 c43 -12 88 -61 88 -96 l0 -24 -140 0 c-131 0 -140 1 -140 19 0 27
47 81 85 97 37 16 59 17 107 4z"/>
<path d="M90338 6343 c-105 -40 -191 -129 -224 -231 -12 -40 -15 -79 -12 -155
4 -127 31 -191 113 -266 77 -69 145 -94 260 -94 137 0 233 46 293 140 51 81
50 83 -53 114 l-90 26 -17 -28 c-24 -40 -58 -59 -114 -65 -78 -9 -158 42 -179
114 l-6 22 255 0 256 0 0 68 c0 166 -64 280 -190 340 -73 35 -220 42 -292 15z
m174 -163 c43 -12 88 -61 88 -96 l0 -24 -140 0 c-131 0 -140 1 -140 19 0 27
47 81 85 97 37 16 59 17 107 4z"/>
<path d="M92006 6344 c-65 -21 -112 -52 -164 -108 -72 -78 -87 -122 -87 -256
0 -104 3 -121 27 -172 105 -224 414 -287 605 -123 163 139 173 416 19 569 -23
24 -69 56 -101 72 -51 24 -73 29 -155 31 -65 2 -110 -2 -144 -13z m214 -212
c50 -37 70 -80 70 -150 0 -79 -25 -130 -80 -161 -74 -42 -160 -21 -214 52 -17
23 -21 43 -21 107 0 93 16 122 86 158 51 27 117 24 159 -6z"/>
<path d="M92787 6346 c-127 -47 -192 -152 -167 -269 21 -99 77 -145 223 -181
121 -30 137 -39 137 -76 0 -38 -32 -60 -88 -60 -35 0 -49 6 -73 29 -16 16 -29
37 -29 45 0 10 -9 16 -22 16 -33 -1 -157 -26 -165 -33 -12 -13 17 -84 53 -125
46 -54 94 -79 182 -93 133 -22 253 20 317 109 25 37 30 54 33 115 3 61 0 79
-20 116 -34 63 -100 106 -196 126 -127 27 -147 36 -150 72 -8 84 151 84 172 0
l6 -24 91 16 91 15 -6 34 c-8 51 -65 123 -120 151 -60 31 -207 40 -269 17z"/>
<path d="M31094 6329 c-75 -28 -137 -88 -176 -167 -32 -64 -33 -71 -33 -187 0
-109 2 -125 26 -176 53 -112 139 -178 260 -199 78 -14 163 -2 215 31 l33 20 3
-158 3 -158 108 -3 107 -3 0 506 0 505 -105 0 -105 0 0 -35 0 -35 -21 21 c-60
60 -211 79 -315 38z m246 -197 c101 -50 118 -207 32 -293 -43 -42 -93 -55
-151 -39 -47 12 -96 60 -112 108 -15 46 -5 139 19 171 50 68 138 90 212 53z"/>
<path d="M29530 5975 l0 -365 110 0 110 0 0 188 c0 175 2 191 23 232 32 65 75
90 153 90 l64 0 0 110 0 110 -51 0 c-73 0 -127 -19 -166 -57 l-33 -34 0 46 0
45 -105 0 -105 0 0 -365z"/>
<path d="M31832 6063 l3 -278 31 -55 c56 -101 171 -153 289 -131 61 12 89 24
123 54 l22 20 0 -31 0 -32 111 0 112 0 -7 38 c-3 20 -6 184 -6 365 l0 327
-110 0 -110 0 0 -225 c0 -249 -4 -271 -60 -300 -68 -35 -151 -5 -169 62 -6 21
-11 132 -11 251 l0 212 -111 0 -110 0 3 -277z"/>
<path d="M33520 5975 l0 -365 110 0 110 0 0 188 c0 175 2 191 23 232 32 65 75
90 153 90 l64 0 0 110 0 110 -51 0 c-73 0 -127 -19 -166 -57 l-33 -34 0 46 0
45 -105 0 -105 0 0 -365z"/>
<path d="M34120 5980 l0 -360 110 0 110 0 0 360 0 360 -110 0 -110 0 0 -360z"/>
<path d="M53330 5980 l0 -360 110 0 110 0 0 360 0 360 -110 0 -110 0 0 -360z"/>
<path d="M67480 5975 l0 -365 110 0 110 0 0 188 c0 175 2 191 23 232 32 65 75
90 153 90 l64 0 0 110 0 110 -51 0 c-73 0 -127 -19 -166 -57 l-33 -34 0 46 0
45 -105 0 -105 0 0 -365z"/>
<path d="M69542 6063 l3 -278 31 -55 c56 -101 171 -153 289 -131 61 12 89 24
123 54 l22 20 0 -31 0 -32 111 0 112 0 -7 38 c-3 20 -6 184 -6 365 l0 327
-110 0 -110 0 0 -225 c0 -249 -4 -271 -60 -300 -68 -35 -151 -5 -169 62 -6 21
-11 132 -11 251 l0 212 -111 0 -110 0 3 -277z"/>
<path d="M84030 5975 l0 -365 110 0 110 0 0 188 c0 175 2 191 23 232 32 65 75
90 153 90 l64 0 0 110 0 110 -51 0 c-73 0 -127 -19 -166 -57 l-33 -34 0 46 0
45 -105 0 -105 0 0 -365z"/>
<path d="M85330 6330 c0 -9 130 -330 262 -647 l30 -73 112 0 113 0 137 360
c75 198 136 362 136 365 0 3 -52 4 -116 3 l-117 -3 -77 -224 -77 -224 -84 226
-84 227 -117 0 c-73 0 -118 -4 -118 -10z"/>
</g>
</svg>
