<svg xmlns="http://www.w3.org/2000/svg" viewBox="0 0 140.3 223"><defs><style>.cls-1,.cls-7{fill:#fff;}.cls-2{fill:#12424f;}.cls-3{fill:#146a8c;}.cls-4{fill:#3e899b;}.cls-5{fill:#b79a3a;}.cls-6{fill:#bcbcbc;}.cls-7{font-size:8.65px;font-family:CircularStd-Black, Circular Std;font-weight:800;}.cls-8{letter-spacing:-0.01em;}</style></defs><title>adn</title><g id="Capa_2" data-name="Capa 2"><g id="Capa_1-2" data-name="Capa 1"><path class="cls-1" d="M73.59,82.69s-58.51,23.48-19,65.1c12.77-8.24,44.09-18.54,19-65.1"/><path class="cls-2" d="M87.21,137.15A47.84,47.84,0,0,1,70.12,153l-7.73,4.23-3.63-6.64,7.72-4.23h0a40.33,40.33,0,0,0,16-54.69l-19.18-35a47.52,47.52,0,0,1-4-36.41,3.78,3.78,0,1,1,7.26,2.12A40,40,0,0,0,69.92,53L89.1,88A47.72,47.72,0,0,1,95,111.19c-.46,17.53-7.76,26-7.76,26m15.13-25.92a55.33,55.33,0,0,0-6.78-26.75l-4.23-7.72,7.72-4.23a54.88,54.88,0,0,0,26.48-32.95,11.15,11.15,0,0,0-19.9-9.42L74.1,20.94a11.16,11.16,0,0,0-1.37-5,11.15,11.15,0,0,0-20.48,2.23,54.88,54.88,0,0,0,4.57,42l4.23,7.73-7.72,4.23a55.28,55.28,0,0,0-21.9,75l4.23,7.73-7.73,4.23A54.82,54.82,0,0,0,1.46,192a11.14,11.14,0,0,0,16.06,12.9,11.09,11.09,0,0,0,5.34-6.64A33,33,0,0,1,28,187.86l26.55,7.75a32.7,32.7,0,0,1-.39,7.77l-30.63-8.76a3.68,3.68,0,1,0-2.06,7.07l31.39,9a11.15,11.15,0,0,0,21.85,2.74,54.88,54.88,0,0,0-4.58-42l-4.23-7.72,7.73-4.23a55.2,55.2,0,0,0,19.72-18.29,52.2,52.2,0,0,0,9-29.93M33.81,181.87a33,33,0,0,1,4.84-3.25l7.72-4.23,4.23,7.73a32.77,32.77,0,0,1,2.34,5.34Zm29.13-42-7.72,4.23L51,136.4a32.65,32.65,0,0,1-2.53-5.92l19.8,5.79a33.22,33.22,0,0,1-5.32,3.62m10.92-9.66L47,122.38a33.1,33.1,0,0,1,.51-7.74l30.11,8.8a33.17,33.17,0,0,1-3.74,6.79m5.73-13.88-30-8.76a33,33,0,0,1,3.88-6.75L80,108.57a33.33,33.33,0,0,1-.37,7.78M76,95.2a33.38,33.38,0,0,1,2.29,5.21l-19-5.55A34.17,34.17,0,0,1,64,91.7l7.73-4.23ZM68.23,81,60.5,85.24h0a40.33,40.33,0,0,0-16,54.7l19.17,35h0a47.59,47.59,0,0,1,4,36.42,3.79,3.79,0,0,1-7.27-2.13,40,40,0,0,0-3.34-30.65l-19.17-35a47.9,47.9,0,0,1,19-65l7.72-4.23Zm4.56-52.77,30,8.76a32.69,32.69,0,0,1-3.86,6.76L72.4,36a32.7,32.7,0,0,1,.39-7.77m3.59,21.24a33.8,33.8,0,0,1-2.33-5.32l19.11,5.58A33.77,33.77,0,0,1,88.34,53L80.61,57.2l-4.23-7.72Zm42.07-12A47.52,47.52,0,0,1,95.51,66.07L87.79,70.3,86,67l-1.82-3.32,7.72-4.23h0a40.06,40.06,0,0,0,19.31-24,3.78,3.78,0,0,1,7-.75,3.71,3.71,0,0,1,.31,2.88M15.79,196.2a3.78,3.78,0,1,1-7.26-2.12,47.52,47.52,0,0,1,22.94-28.55l7.73-4.24L41,164.61l1.81,3.32-7.72,4.23a40,40,0,0,0-19.32,24"/><path class="cls-3" d="M15.79,196.2a3.78,3.78,0,1,1-7.26-2.12,47.52,47.52,0,0,1,22.94-28.55l7.73-4.24L41,164.61l1.81,3.32-7.72,4.23a40,40,0,0,0-19.32,24"/><path class="cls-3" d="M87.21,137.15A47.93,47.93,0,0,1,70.12,153l-7.73,4.23-3.63-6.64,7.72-4.23h0a40.33,40.33,0,0,0,16-54.69l-19.18-35a47.52,47.52,0,0,1-4-36.41,3.78,3.78,0,1,1,7.26,2.12A40,40,0,0,0,69.92,53L89.1,88A47.72,47.72,0,0,1,95,111.19c-.46,17.53-7.76,26-7.76,26"/><path class="cls-4" d="M68.23,81,60.5,85.24h0a40.33,40.33,0,0,0-16,54.7l19.17,35h0a47.59,47.59,0,0,1,4,36.42,3.79,3.79,0,0,1-7.27-2.13,40,40,0,0,0-3.34-30.65l-19.17-35a47.9,47.9,0,0,1,19-65l7.72-4.23Z"/><path class="cls-4" d="M118.46,37.52A47.57,47.57,0,0,1,95.51,66.07L87.79,70.3,86,67l-1.82-3.32,7.72-4.23h0a40.06,40.06,0,0,0,19.31-24,3.78,3.78,0,0,1,7-.75,3.76,3.76,0,0,1,.32,2.88"/><path class="cls-5" d="M106.2,66.19a11.82,11.82,0,0,1-1.82-23.49,11.42,11.42,0,0,1,1.84-.15A11.82,11.82,0,0,1,108,66a11.42,11.42,0,0,1-1.84.15"/><path class="cls-1" d="M106.22,45a9.42,9.42,0,0,1,1.45,18.72,9.2,9.2,0,0,1-1.47.12,9.42,9.42,0,0,1-1.45-18.73,10.5,10.5,0,0,1,1.47-.11m0-4.8h0a13.85,13.85,0,0,0-2.22.18,14.21,14.21,0,0,0,2.2,28.25,13.83,13.83,0,0,0,2.22-.17,14.22,14.22,0,0,0-2.2-28.26"/><path class="cls-6" d="M46.79,103.31A11.82,11.82,0,0,1,45,79.82a11.54,11.54,0,0,1,1.85-.15,11.82,11.82,0,0,1,1.82,23.49,11.42,11.42,0,0,1-1.84.15"/><path class="cls-1" d="M46.81,82.07a9.42,9.42,0,0,1,1.45,18.72,9.3,9.3,0,0,1-1.47.12,9.42,9.42,0,0,1-1.45-18.72,9.11,9.11,0,0,1,1.47-.12m0-4.8h0a13.76,13.76,0,0,0-2.22.18,14.22,14.22,0,0,0,2.2,28.26,13.72,13.72,0,0,0,2.21-.18,14.22,14.22,0,0,0-2.19-28.26"/><path class="cls-6" d="M77.18,154.92a11.82,11.82,0,0,1-1.82-23.5,12.7,12.7,0,0,1,1.85-.14A11.82,11.82,0,0,1,79,154.77a11.45,11.45,0,0,1-1.85.15"/><path class="cls-1" d="M77.21,133.68a9.42,9.42,0,0,1,1.45,18.72,9.33,9.33,0,0,1-1.48.12,9.42,9.42,0,0,1-1.45-18.73,10.64,10.64,0,0,1,1.48-.11m0-4.8h0a13.76,13.76,0,0,0-2.22.18A14.22,14.22,0,0,0,63.15,145.3a14.21,14.21,0,0,0,14,12,15,15,0,0,0,2.22-.17,14.22,14.22,0,0,0-2.19-28.26"/><path class="cls-6" d="M20.24,189.88a11.82,11.82,0,0,1-1.82-23.49,12.7,12.7,0,0,1,1.85-.14,11.82,11.82,0,0,1,1.82,23.49,12.7,12.7,0,0,1-1.85.14"/><path class="cls-1" d="M20.27,168.65a9.42,9.42,0,0,1,1.45,18.72,9.3,9.3,0,0,1-1.47.12,9.42,9.42,0,0,1-1.45-18.73,9.09,9.09,0,0,1,1.47-.11m0-4.8h0a15,15,0,0,0-2.22.17,14.23,14.23,0,0,0-7,24.89,14.26,14.26,0,0,0,9.19,3.37,15,15,0,0,0,2.21-.17,14.22,14.22,0,0,0-2.19-28.26"/><path class="cls-5" d="M91.3,12.86a.65.65,0,0,0,0-1.3.65.65,0,0,0,0,1.3"/><path class="cls-5" d="M40.82,57.61A2.61,2.61,0,0,0,43.41,55a2.6,2.6,0,1,0-2.59,2.59"/><path class="cls-5" d="M10.44,144.82a2.6,2.6,0,1,0-2.59-2.6,2.63,2.63,0,0,0,2.59,2.6"/><path class="cls-5" d="M137.7,63.32a2.61,2.61,0,0,0,2.59-2.59,2.6,2.6,0,1,0-2.59,2.59"/><path class="cls-5" d="M104.41,202.72a2.6,2.6,0,1,0-2.6-2.6,2.63,2.63,0,0,0,2.6,2.6"/><path class="cls-5" d="M1.25,117.8a1.3,1.3,0,0,0,0-2.6,1.3,1.3,0,0,0,0,2.6"/><path class="cls-5" d="M116.11,118.26a1.3,1.3,0,0,0,0-2.6,1.3,1.3,0,0,0,0,2.6"/><path class="cls-5" d="M17.33,223a1.3,1.3,0,0,0,0-2.6,1.3,1.3,0,0,0,0,2.6"/><path class="cls-5" d="M87.16,169.71a1.3,1.3,0,0,0,0-2.6,1.3,1.3,0,0,0,0,2.6"/><path class="cls-5" d="M37.51,2.6a1.3,1.3,0,0,0,0-2.6,1.3,1.3,0,0,0,0,2.6"/><text class="cls-7" transform="translate(103.57 57.04)"><tspan class="cls-8">1</tspan><tspan x="3.57" y="0">.</tspan></text></g></g></svg>