<svg xmlns="http://www.w3.org/2000/svg" viewBox="0 0 29.19 29.19"><defs><style>.cls-1{fill:#0b3470;}</style></defs><title>ahorro</title><g id="Capa_2" data-name="Capa 2"><g id="Capa_1-2" data-name="Capa 1"><path class="cls-1" d="M.49,20.43v-1a1,1,0,0,1,1-1H2a8.24,8.24,0,0,1,8.25-7.79,2.42,2.42,0,0,1,3.89-1.93V7.3h1v3.4h3a3.87,3.87,0,0,1,3.13-2.87,1,1,0,0,1,.77.22,1,1,0,0,1,.35.75v2.64a8.23,8.23,0,0,1,4.33,4.61h1.51a1,1,0,0,1,1,1v3.89a1,1,0,0,1-1,1H26.71a8.25,8.25,0,0,1-4.33,4.62v1.71a1,1,0,0,1-1,1H18.49a1,1,0,0,1-1-1v-1H11.68v1a1,1,0,0,1-1,1H7.78a1,1,0,0,1-1-1V26.51a8.26,8.26,0,0,1-4.85-7h-.5v1a1,1,0,0,1-1,1H0v-1ZM12.65,9.24a1.46,1.46,0,1,0,1.46,1.46A1.46,1.46,0,0,0,12.65,9.24ZM7.48,25.74a.48.48,0,0,1,.3.45v2H10.7V26.76a.49.49,0,0,1,.49-.49H18a.49.49,0,0,1,.49.49v1.46h2.92v-2a.48.48,0,0,1,.3-.45,7.31,7.31,0,0,0,4.19-4.49.48.48,0,0,1,.46-.33h1.86V17H26.37a.48.48,0,0,1-.46-.34,7.36,7.36,0,0,0-4.2-4.48.48.48,0,0,1-.3-.45v-3A2.93,2.93,0,0,0,19,11.26a.49.49,0,0,1-.48.42H14.88a2.43,2.43,0,0,1-4.46,0h-.2A7.3,7.3,0,0,0,7.48,25.74Z"/><path class="cls-1" d="M21.89,15.57a1,1,0,0,0,1-1h1a1.95,1.95,0,1,1-3.89,0h1A1,1,0,0,0,21.89,15.57Z"/><path class="cls-1" d="M3,6.78c0,.78.72,1.14,1.24,1.4s.71.37.71.54a.49.49,0,0,1-1,0H3a1.45,1.45,0,0,0,1,1.37v.58H5v-.58a1.45,1.45,0,0,0,1-1.37c0-.79-.72-1.14-1.24-1.41S4,7,4,6.78a.49.49,0,1,1,1,0h1A1.45,1.45,0,0,0,5,5.41V4.83H4v.58A1.45,1.45,0,0,0,3,6.78Z"/><path class="cls-1" d="M5.35,1.46h-1v2h1Z"/><path class="cls-1" d="M3.41,2h-1v1h1Z"/><path class="cls-1" d="M3.41,0h-1V1h1Z"/><path class="cls-1" d="M7.3,2.43h-1V4.38h1Z"/><path class="cls-1" d="M7.3.49h-1v1h1Z"/><path class="cls-1" d="M18.49,7.78A2.43,2.43,0,0,1,18,3V.49h1V3a2.37,2.37,0,0,1,1,.45V2h1v3.4A2.43,2.43,0,0,1,18.49,7.78Zm0-3.89A1.46,1.46,0,1,0,20,5.35,1.46,1.46,0,0,0,18.49,3.89Z"/><path class="cls-1" d="M20.92,0H20V1h1Z"/><path class="cls-1" d="M17,2h-1v1h1Z"/><path class="cls-1" d="M17,0h-1V1h1Z"/><path class="cls-1" d="M15.08,5.35h-1v1h1Z"/><path class="cls-1" d="M13.14,4.38h-1V7.3h1Z"/><path class="cls-1" d="M11.19,3.41h-1v1h1Z"/><path class="cls-1" d="M11.19,1.46h-1v1h1Z"/><path class="cls-1" d="M13.14,2.43h-1v1h1Z"/><path class="cls-1" d="M15.57,14.11H9.73v-1h5.84Z"/><path class="cls-1" d="M11.19,5.35h-1v2h1Z"/></g></g></svg>