<svg xmlns="http://www.w3.org/2000/svg" xmlns:xlink="http://www.w3.org/1999/xlink" viewBox="0 0 38 38"><defs><style>.cls-1{fill:url(#Degradado_sin_nombre_8);}.cls-2{fill:#fffeff;}</style><linearGradient id="Degradado_sin_nombre_8" y1="19" x2="38" y2="19" gradientUnits="userSpaceOnUse"><stop offset="0" stop-color="#31dcc7"/><stop offset="1" stop-color="#31dc9e"/></linearGradient></defs><title>ajustes</title><g id="Capa_2" data-name="Capa 2"><g id="Capa_1-2" data-name="Capa 1"><circle class="cls-1" cx="19" cy="19" r="19"/><path class="cls-2" d="M28.19,9.56a1,1,0,0,0-.8-.52,1,1,0,0,0-.89.4l-2,2.63-1.28-1,2.17-2.79a1.06,1.06,0,0,0,.17-1,1,1,0,0,0-.73-.66,5.9,5.9,0,0,0-7.33,5.47c0,.21,0,.43-.05.67-.09,1.37-.2,3.08-1,4.15L8.93,26.5a2.72,2.72,0,0,0,.49,3.81,2.68,2.68,0,0,0,2,.55,2.74,2.74,0,0,0,1.81-1l7.44-9.59c.83-1.07,2.46-1.6,3.76-2l.64-.22A5.83,5.83,0,0,0,28,16a.88.88,0,0,0,.11-.93,5.63,5.63,0,0,0,.06-5.47Zm-1,.43a.15.15,0,0,1,.12-.07.13.13,0,0,1,.09.07,4.69,4.69,0,0,1,.05,4.4l-2.3-1.78Zm.11,5.43a4.94,4.94,0,0,1-2.51,1.72h0l-.62.21c-1.43.47-3.2,1.05-4.19,2.34l-7.44,9.59a1.84,1.84,0,0,1-2.57.32,1.82,1.82,0,0,1-.32-2.56l7.44-9.6c1-1.28,1.12-3.14,1.22-4.63,0-.24,0-.46.05-.66v0a4.92,4.92,0,0,1,1-2.87,5,5,0,0,1,3.33-1.9,5.2,5.2,0,0,1,1.84.11c.06,0,.1,0,.11.09a.17.17,0,0,1,0,.16L22.2,10.88a.44.44,0,0,0,.08.62l5,3.91h0Z"/><path class="cls-2" d="M21.74,12.2a.49.49,0,0,0-.33-.09.51.51,0,0,0-.3.17L20,13.69a.44.44,0,0,0,.08.62l2,1.54a.39.39,0,0,0,.33.09.4.4,0,0,0,.29-.17l1.09-1.4a.45.45,0,0,0-.08-.63Zm.54,2.68-1.28-1,.54-.7,1.29,1Z"/><path class="cls-2" d="M11.35,27.81a.44.44,0,0,0-.62.08.46.46,0,0,0,.08.63.49.49,0,0,0,.33.09.44.44,0,0,0,.29-.17.45.45,0,0,0-.08-.63Z"/><path class="cls-2" d="M18.17,18.3l-6.21,8a.45.45,0,0,0,.08.63.46.46,0,0,0,.32.09.48.48,0,0,0,.3-.17l6.21-8a.45.45,0,1,0-.7-.55Z"/></g></g></svg>