<svg id="Capa_1" data-name="Capa 1" xmlns="http://www.w3.org/2000/svg" viewBox="0 0 1366 768"><defs><style>.cls-1{fill:#f2cc04;}.cls-2{fill:#015582;}</style></defs><title>Alsea</title><path class="cls-1" d="M1267.6,305.37c-11.19-11.41-22.16-23-33.5-34.3-2.61-2.59-2.64-5-2-8q5.08-23.81,10.19-47.62c1.59-7.46-.16-10.27-7.62-12.25-16.33-4.35-32.63-8.83-49-12.95a7.07,7.07,0,0,1-5.33-4.44c-6.5-14.18-13.18-28.27-19.58-42.49-1.7-3.77-3.81-6.79-7.73-8.32h-1c-2.6,1.38-5.28,2.63-7.78,4.17-16,9.81-32,19.57-47.91,29.61-3.63,2.3-6.77,2.44-10.69,1.08q-39-13.56-78.09-26.79c-8.8-3-13.48,1.31-12.09,10.35,2.42,15.74,4.37,31.56,6.72,47.32.52,3.47-.61,4.89-3.78,6.1-24.46,9.36-48.84,18.92-73.27,28.37-3.39,1.31-6.47,2.87-7,6.93-.58,4.27,2,6.62,5.25,8.77,17.47,11.54,34.8,23.29,52.35,34.71,3.14,2,3.48,3.34,1.55,6.5-13.05,21.42-25.88,43-38.83,64.46-1.86,3.08-3.55,6-1.44,9.7s5.41,3.86,9.06,3.86c22.66-.05,45.32.09,68-.12,3.8,0,5.22,1.29,6,4.74,9.9,43.65,19.93,87.28,29.78,130.94.94,4.16,2,7.91,6.56,9s7-2.17,9.43-5.18q38.56-47.74,77-95.56c2.25-2.81,3.89-3,7-1.67,21.92,9.48,44,18.6,65.88,28.17,7.77,3.4,12.81-2.07,12.25-7.58-.84-8.27-1.56-16.55-2.34-24.83-1.53-16.21-3-32.42-4.64-48.62-.28-2.82.74-4.47,3-6.15,14.28-10.62,28.4-21.45,42.61-32.16C1273.8,315.71,1274,311.92,1267.6,305.37ZM1215.17,341c-1.72,1.3-3.48,2.56-5.24,3.82-3.87,2.77-5.16,6.21-4.6,11.18,1.87,16.52,3.26,33.09,4.68,49.65.44,5.1,1.7,10.18.89,15.38-2.21.45-3.91-.83-5.7-1.58q-28.4-12.06-56.77-24.21c-5.82-2.48-8.4-1.82-12.49,3.25q-35.26,43.69-70.51,87.38c-.92,1.14-1.74,3-3.24,2.82-1.89-.24-1.27-2.47-1.57-3.79q-13.88-60.36-27.6-120.75c-1.73-7.57-3.54-9.09-11.16-9.09-21.31,0-42.62,0-64.79,0,3.54-5.93,6.73-11.3,9.94-16.65q14-23.3,28-46.59c3.71-6.21,3-9.41-2.92-13.35q-22.6-15.08-45.19-30.17c-1.32-.88-3.06-1.38-3.88-3.7L972.9,232.9c12.82-5,25.65-10,38.46-15,6.64-2.61,7.7-4.3,6.77-11.27-1.84-13.82-3.63-27.66-5.79-41.43-.66-4.23.37-4.47,3.94-3.23,23.51,8.12,47.1,16,70.57,24.22a12.83,12.83,0,0,0,12.18-1.31c15.18-9.57,30.59-18.79,45.75-28.39,3.28-2.08,4.58-1.76,6.16,1.76,5.78,12.86,12,25.53,17.71,38.42,1.82,4.1,4.61,6.14,8.73,7.21,15.09,3.92,30.09,8.15,45.23,11.84,3.95,1,3.67,2.8,3,5.69-3.32,15.39-6.42,30.84-9.94,46.19-.91,4,.18,6.67,2.79,9.34,11.4,11.67,22.74,23.39,34.49,35.5C1240.23,322.07,1227.71,331.55,1215.17,341Z"/><path class="cls-1" d="M1139.46,211.31c-11.7-5.69-23.8-10.22-39.22-10.57-7.1-.73-14.88,3.12-21.77,8.51-27.58,21.59-46.71,49.29-58,82.38-3.73,11-2.16,21.35,6,30.2a84.22,84.22,0,0,0,6.6,6.82c25.67,22.28,55.43,36.83,87.89,46.23,11.51,3.34,21.25.12,29.69-8,21.7-20.91,34.73-46.67,42.22-75.51,4.76-18.33.35-34.52-11.88-48.72C1169.42,229.19,1155.33,219,1139.46,211.31Zm39.91,66.23C1178.06,297,1170,314,1160.19,330.3c-6.11,10.12-12.94,19.72-22.16,27.38a13.54,13.54,0,0,1-12.54,2.88c-20-4.59-37.82-14.09-55.38-24.17a159,159,0,0,1-27.65-19.5c-9.51-8.58-10.73-13.68-6.2-25.63,7.58-20,19.51-37.3,33.25-53.46a113,113,0,0,1,17.76-16.74,24.72,24.72,0,0,1,21.69-4.56c25,6,46.14,18.4,62.42,38.49C1176.62,261.48,1180,268.83,1179.37,277.54Z"/><path class="cls-1" d="M1113.55,242.18c-23.55-1.69-45.15,15.78-47.11,41.37-1.75,22.89,17,44.73,40.65,46.34,25.8,1.76,46.43-18.38,47.07-41.16C1156.19,265.24,1137.85,243.92,1113.55,242.18Zm26.82,45c-.68,16.92-14.42,29.56-31.76,28.74-15.32-.72-28.3-13.15-28.35-30.31,0-16.87,14.68-30.2,31.69-29.59C1128,256.59,1141,270.83,1140.37,287.18Z"/><path class="cls-2" d="M693,635c-5.7-2.23-11.86-2-17.73-3.4-27.86-6.84-45.08-24.49-52.16-51.92-7.22-27.92-7.59-56,1.84-83.49,10.64-31.06,33.79-46.41,65.54-50.23,19.27-2.32,38.18-1.29,56.06,7.07,36.1,16.88,39.14,55.72,24.25,79.87-7.77,12.6-20.4,17.63-34.52,19-22.26,2.2-44.61.63-66.91.93-3.75,0-5.16.56-4.57,4.85.86,6.27,1.77,12.46,4,18.4,5.44,14.19,16,21.81,31.2,21.93,20.33.16,40.66.18,61-.06,4.28-.05,5.31,1.22,5.09,5.28a183.6,183.6,0,0,0,0,19.48c.18,3.47-1.28,4.54-4.27,5.14-15,3-30,5.49-45.35,6.17-.91,0-2.06-.36-2.49,1Zm-1-109.93h21c.5,0,1,0,1.5-.06,10.33-.52,17.93-6.35,20.18-15.49,2.32-9.42-1.72-18.54-10.53-23.78-12.65-7.52-32.42-5.73-43.51,4-9.14,8-12.61,18.69-14.85,30.19-.94,4.85.51,5.44,4.72,5.26C677.65,524.84,684.82,525.07,692,525.07Z"/><path class="cls-2" d="M509,635c-4.62-2.11-9.65-1.25-14.45-1.7-12.43-1.15-24.72-3-37-5.34-3.34-.63-5.07-1.79-4.81-5.75a175.57,175.57,0,0,0,0-19.49c-.17-3.64.72-4.79,4.6-4.75,21.16.21,42.33.08,63.5.12a44,44,0,0,0,16.59-2.74c8.25-3.28,13.13-9.74,13-17.66-.09-8.33-5.18-12.85-12.25-15.88-10-4.29-20.83-5.34-31.28-7.86-8.24-2-16.37-4.25-24.11-7.8-22.67-10.41-29.79-27.65-29.25-49.21.74-29.67,21.86-43.74,46-48.89,25.17-5.37,50.26-3.6,75.26,1.45,4.53.92,10.48.73,13.11,3.55,2.94,3.15.78,9.21.9,14,.11,4.47,1.54,10.39-.71,13-2.63,3.09-8.74.94-13.32,1-15,.14-30,0-45,.09-6.67,0-13.28.87-19.4,3.82-11.74,5.67-13.17,19.78-2.71,27.65,8.11,6.11,18,7.41,27.53,9.41,13.83,2.9,27.56,6.16,39.82,13.62,18.16,11,24.16,27.87,22.5,48.13-2.48,30.24-23.29,43.14-47.79,48.27-6.24,1.31-12.7,1-18.81,2.95Z"/><path class="cls-2" d="M139.27,630.93c-13.16,0-26.33-.11-39.49.08-3.14,0-3.94-.88-3.87-3.92q.3-13,0-26c-.07-3,1-3.7,3.72-3.61,4.49.15,9-.21,13.49.1,3.68.26,5-1.15,6.22-4.62Q154.55,489.22,190,385.55c1.24-3.66,2.85-4.71,6.6-4.66q26.49.32,53,0c4.19-.06,6,1.19,7.35,5.22q34.88,103.11,70,206.14c1.44,4.27,3.39,5.77,7.76,5.35s8.66,0,13-.12c2.51-.08,3.5.66,3.45,3.37-.16,9-.13,18,0,27,0,2.36-.66,3.15-3.09,3.14q-40.49-.11-81,0c-2.36,0-3.18-.66-3.15-3.08q.18-13.74,0-27.49c0-2.26.9-2.9,2.93-2.88,4.16.05,8.33,0,12.5,0,2.28,0,2.88-.49,2-2.91-4.86-13.39-9.57-26.84-14.24-40.3-.67-1.94-1.78-2.43-3.7-2.43q-40.24.07-80.48,0c-2.46,0-3.36.88-4.1,3.18q-6.27,19.43-13,38.71c-1,3-.51,4,2.59,3.74a9.69,9.69,0,0,1,1.5,0c4.29.28,10.16-1.88,12.44.93,2.15,2.65.68,8.28.72,12.6,0,5.17-.2,10.34.08,15.49.19,3.42-.72,4.54-4.33,4.48C165.6,630.79,152.43,630.93,139.27,630.93ZM191.83,516h6c16.65,0,33.31-.27,50,0,5.08.09,5.21-1.34,3.85-5.54-7.44-22.84-14.61-45.76-21.91-68.64-1.89-5.92-3.9-11.79-5.86-17.68l-1.28-.06Z"/><path class="cls-2" d="M898.65,609.76c-3.83,4-6.84,7.56-10.24,10.68C874.28,633.37,857,635.36,839,634c-15.47-1.17-28.32-7.55-37.81-20.26-15.13-20.26-14.07-60.42,6.47-76.89,12.16-9.75,26.32-13,41.39-13.28s30.33-.15,45.49,0c3.53,0,4.66-1.07,4.43-4.54-.43-6.63.32-13.28-.79-19.93-1.38-8.27-5.92-13.57-13.79-16a48.14,48.14,0,0,0-14.26-2c-20.83,0-41.66-.09-62.49.09-3.6,0-4.94-.65-4.73-4.56.37-6.81.16-13.66.07-20.49,0-2.45.3-3.75,3.3-4.28,25.26-4.48,50.61-7.77,76.33-6.75a98.3,98.3,0,0,1,27.87,4.74C928.38,456,937.76,468.9,941,487a125.61,125.61,0,0,1,1.52,21.87c0,28,.07,56-.08,84,0,3.62.63,5.1,4.6,4.75,4.63-.4,9.33,0,14-.14,2.47-.08,3.6.54,3.56,3.3-.14,9-.17,18,0,27,.06,2.92-1.21,3.2-3.57,3.19q-27.74-.1-55.49,0c-2.58,0-3.31-.84-3.65-3.33C901.07,621.93,899.85,616.26,898.65,609.76Zm-21.07-58.83V551c-5.82,0-11.65-.24-17.46.06-6.71.35-13.22,1.84-18.31,6.63-7.77,7.31-8.59,16.52-6.09,26.16,2.58,9.9,10.32,14.06,19.57,16.11a39.14,39.14,0,0,0,4.93.67c16.15,1.46,35.15-8.32,38-27.5,1-6.64.28-13.27.62-19.9.14-2.71-1.74-2.3-3.35-2.31C889.55,550.92,883.56,550.93,877.58,550.93Z"/><path class="cls-2" d="M412.12,489.35c0,34.49.1,69-.12,103.47,0,4.59,1.32,5.72,5.56,5.33,4-.37,8,0,12-.11,2.17-.06,2.9.76,2.89,2.89q-.08,13.75.05,27.49c0,2-.87,2.52-2.72,2.52-19.49,0-39-.07-58.48,0-2.87,0-2.71-1.63-2.71-3.53,0-22.16,0-44.32,0-66.48,0-19.49.23-39,.26-58.47,0-27.66-.07-55.32.1-83,0-3.75-.94-5.26-4.68-4.59a4.12,4.12,0,0,1-1,0c-4.78-.33-11.09,2.1-13.93-1s-.68-9.23-.78-14c-.11-5.16.08-10.33-.06-15.49-.07-2.48.55-3.52,3.3-3.51,19,.11,38,.15,57,0,3.8,0,3.33,2.11,3.33,4.47Q412.11,437.36,412.12,489.35Z"/></svg>