<svg xmlns="http://www.w3.org/2000/svg" viewBox="0 0 11.98 15.3"><defs><style>.cls-1{fill:#0075a9;}</style></defs><title>baiwaazul</title><g id="Capa_2" data-name="Capa 2"><g id="Capa_1-2" data-name="Capa 1"><path class="cls-1" d="M10.94,7a5,5,0,0,0-5-5.05A1,1,0,0,0,5.89,4,3,3,0,0,1,8.57,8.26l1.48,1.55A5,5,0,0,0,10.94,7Z"/><path class="cls-1" d="M2.91,7V1A1,1,0,0,0,.84,1V7A5,5,0,0,0,2,10.21L3.25,8.33A3,3,0,0,1,2.91,7Z"/><path class="cls-1" d="M11.68,13a1.05,1.05,0,0,0,0-1.47,1,1,0,0,0-1.46,0,6,6,0,0,1-8.45,0A1,1,0,0,0,.3,12.93,8.06,8.06,0,0,0,11.68,13Z"/><circle class="cls-1" cx="6" cy="7.05" r="1.5"/><path class="cls-1" d="M5.89,12a5,5,0,0,0,4.16-2.19L8.57,8.26a3,3,0,0,1-5.32.07L2,10.21A5,5,0,0,0,5.89,12Z"/></g></g></svg>