<svg xmlns="http://www.w3.org/2000/svg" xmlns:xlink="http://www.w3.org/1999/xlink" viewBox="0 0 237.59 119.43"><defs><style>.cls-1{isolation:isolate;}.cls-2{fill:#0b3470;}.cls-3{fill:#5471e8;}.cls-4{fill:url(#Degradado_sin_nombre_8);}.cls-5{fill:url(#Degradado_sin_nombre_8-2);}.cls-6{fill:url(#Degradado_sin_nombre_8-3);}.cls-7,.cls-8{fill:none;stroke-miterlimit:10;}.cls-7{stroke-linecap:round;stroke-width:17.95px;mix-blend-mode:multiply;stroke:url(#Degradado_sin_nombre_8-4);}.cls-8{stroke:#f2f2f2;stroke-width:2.87px;}</style><linearGradient id="Degradado_sin_nombre_8" x1="133.32" y1="24.34" x2="144.82" y2="24.34" gradientUnits="userSpaceOnUse"><stop offset="0" stop-color="#31dcc7"/><stop offset="1" stop-color="#31dc9e"/></linearGradient><linearGradient id="Degradado_sin_nombre_8-2" x1="150.77" y1="33.64" x2="165.05" y2="33.64" xlink:href="#Degradado_sin_nombre_8"/><linearGradient id="Degradado_sin_nombre_8-3" x1="139.02" y1="48.33" x2="177.25" y2="48.33" xlink:href="#Degradado_sin_nombre_8"/><linearGradient id="Degradado_sin_nombre_8-4" x1="-652" y1="-143.45" x2="-557.77" y2="-143.45" gradientTransform="matrix(1, 0, 0, -1, 652, -97.02)" xlink:href="#Degradado_sin_nombre_8"/></defs><title>baiwamobileclinea</title><g class="cls-1"><g id="Capa_2" data-name="Capa 2"><g id="Capa_1-2" data-name="Capa 1"><path class="cls-2" d="M105.25,119.38c-7.79,0-13.81-6.29-13.81-14.45V79.09h4.37V95.23a12.18,12.18,0,0,1,9.49-4.63c7.62,0,13.7,6.13,13.7,14.33S112.81,119.38,105.25,119.38Zm0-24.63c-5.07,0-9.28,4.53-9.28,10.18s4.27,10.29,9.28,10.29,9.22-4.48,9.22-10.29S110.31,94.75,105.25,94.75Z"/><path class="cls-2" d="M149.75,118.74h-4.37v-4.27a11.66,11.66,0,0,1-9.48,5c-7.57,0-13.7-6.18-13.7-14.39S128.38,90.6,136,90.6c7.78,0,13.75,6.34,13.75,14.44ZM136,94.75c-5.11,0-9.27,4.53-9.27,10.29s4.16,10.18,9.27,10.18,9.28-4.53,9.28-10.18S141,94.75,136,94.75Z"/><path class="cls-2" d="M156.15,87.13V83.72a2.27,2.27,0,0,1,4.53,0v3.41Zm4.53,31.61h-4.53V91.29h4.53Z"/><path class="cls-2" d="M205.13,108.88a10.13,10.13,0,0,1-10.5,10.5,9.16,9.16,0,0,1-8.26-4.53,9,9,0,0,1-8.21,4.53,10.17,10.17,0,0,1-10.5-10.5V91.29h4.53v17.59a6,6,0,1,0,11.94,0V91.29h4.53v17.59a6,6,0,1,0,11.94,0V91.29h4.53Z"/><path class="cls-2" d="M237.59,118.74h-4.37v-4.27a11.66,11.66,0,0,1-9.48,5c-7.57,0-13.7-6.18-13.7-14.39s6.18-14.44,13.8-14.44c7.79,0,13.75,6.34,13.75,14.44Zm-13.75-24c-5.11,0-9.27,4.53-9.27,10.29s4.16,10.18,9.27,10.18,9.28-4.53,9.28-10.18S228.85,94.75,223.84,94.75Z"/><path class="cls-3" d="M181.51,33.15A24.12,24.12,0,0,0,157.42,9.06a4.94,4.94,0,1,0,0,9.87,14.23,14.23,0,0,1,14.21,14.22,14,14,0,0,1-1.46,6.27l7.08,7.39A24,24,0,0,0,181.51,33.15Z"/><path class="cls-4" d="M143.2,33.15V4.94a4.94,4.94,0,1,0-9.88,0V33.15A24,24,0,0,0,139,48.68l5.8-9A14.05,14.05,0,0,1,143.2,33.15Z"/><path class="cls-3" d="M185,61.86a4.94,4.94,0,1,0-7-7,28.54,28.54,0,0,1-40.31-.14,4.94,4.94,0,1,0-7,7A38.42,38.42,0,0,0,185,61.86Z"/><circle class="cls-5" cx="157.91" cy="33.64" r="7.14"/><path class="cls-6" d="M157.42,57.24a24.1,24.1,0,0,0,19.83-10.43l-7.08-7.39a14.2,14.2,0,0,1-25.35.31l-5.8,9A24.06,24.06,0,0,0,157.42,57.24Z"/><line class="cls-7" x1="8.97" y1="46.43" x2="85.26" y2="46.43"/><circle class="cls-8" cx="86.78" cy="46.49" r="7.43"/></g></g></g></svg>