<?xml version="1.0" encoding="utf-8"?>
<!-- Generator: Adobe Illustrator 24.3.0, SVG Export Plug-In . SVG Version: 6.00 Build 0)  -->
<svg version="1.1" xmlns="http://www.w3.org/2000/svg" xmlns:xlink="http://www.w3.org/1999/xlink" x="0px" y="0px"
	 viewBox="0 0 1923 1775" style="enable-background:new 0 0 1923 1775;" xml:space="preserve">
<style type="text/css">
	.st0{fill:#D4D8E1;}
	.st1{opacity:0.5;}
	.st2{fill:#FFFEFF;}
	.st3{fill:none;stroke:#00698F;stroke-miterlimit:10;}
	.st4{fill:#F9F8F9;}
	.st5{fill:#87E1D1;}
	.st6{fill:#00698F;}
	.st7{fill:#005470;}
	.st8{fill:#E6E6E6;}
	.st9{fill:none;}
	.st10{fill:#0075A9;}
	.st11{font-family:'CircularStd-Black';}
	.st12{font-size:16.0208px;}
	.st13{letter-spacing:1;}
	.st14{fill:#ED4848;}
	.st15{fill:#F7C90B;}
	.st16{fill:#37D354;}
	.st17{fill:#2D2A26;}
	.st18{fill:#ECF7F4;}
	.st19{fill:#00394D;}
	.st20{font-size:65.0075px;}
	.st21{font-family:'CircularStd-Book';}
	.st22{font-size:60px;}
	.st23{fill:#D2AC57;}
	.st24{clip-path:url(#SVGID_2_);}
	.st25{fill:none;stroke:#005470;stroke-miterlimit:10;}
	.st26{fill:none;stroke:#87E1D1;stroke-miterlimit:10;}
	.st27{fill:none;stroke:#D2AC57;stroke-miterlimit:10;}
	.st28{clip-path:url(#SVGID_4_);}
</style>
<g id="Fondo">
	
		<text transform="matrix(1 0 0 1 1272.9912 11233.583)" style="fill:#FFFFFF; font-family:'CircularStd-Medium'; font-size:55.6147px;">Opción b</text>
	<rect x="-0.3" y="0.1" class="st0" width="1923" height="1774.9"/>
	<g class="st1">
		<image style="overflow:visible;" width="1682" height="1670" xlink:href="E2B82BEB.png"  transform="matrix(1 0 0 1 119 83)">
		</image>
	</g>
	<path class="st2" d="M1722.6,1689H197.4c-21.7,0-39.4-17.6-39.4-39.4V160.4c0-21.7,17.6-39.4,39.4-39.4h1525.2
		c21.7,0,39.4,17.6,39.4,39.4v1489.2C1762,1671.4,1744.4,1689,1722.6,1689z"/>
	<rect x="2571.7" y="0.1" class="st0" width="1923" height="1112.9"/>
	<g class="st1">
		<image style="overflow:visible;" width="1682" height="891" xlink:href="E2B82BE9.png"  transform="matrix(1 0 0 1 2691 83)">
		</image>
	</g>
	<path class="st2" d="M4306,915H2758c-15.5,0-28-12.5-28-28V149.1c0-15.5,12.5-28,28-28h1548c15.5,0,28,12.5,28,28V887
		C4334,902.5,4321.5,915,4306,915z"/>
</g>
<g id="Elementos">
	<rect x="10182.4" y="-1155.1" class="st9" width="139.7" height="24.9"/>
	<text transform="matrix(1 0 0 1 10182.4385 -1143.5056)" class="st6 st11 st12 st13">INICIAR SESIÓN</text>
	<polyline class="st3" points="10147.4,-1151.1 10140.7,-1144.3 10133.9,-1151.1 	"/>
	<rect x="157.7" y="178.3" class="st4" width="1604.3" height="103.6"/>
	<g>
		<path class="st5" d="M213.7,252.2h-1.4c-3.1,0-5.6-2.5-5.6-5.6v-1.4c0-3.1,2.5-5.6,5.6-5.6h1.4c3.1,0,5.6,2.5,5.6,5.6v1.4
			C219.3,249.6,216.8,252.2,213.7,252.2z"/>
		<path class="st6" d="M230.2,252.2h-1.4c-3.2,0-5.7-2.6-5.7-5.7v-17.5c0-3.2,2.6-5.7,5.7-5.7h1.4c3.2,0,5.7,2.6,5.7,5.7v17.5
			C235.9,249.7,233.4,252.2,230.2,252.2z"/>
		<path class="st7" d="M246.3,252.2h-1.4c-3.2,0-5.7-2.6-5.7-5.7v-34.2c0-3.2,2.6-5.7,5.7-5.7h1.4c3.2,0,5.7,2.6,5.7,5.7v34.2
			C252.1,249.7,249.5,252.2,246.3,252.2z"/>
		<path class="st8" d="M213.7,235.8h-1.4c-3.1,0-5.6-2.5-5.6-5.6v-1.4c0-3.1,2.5-5.6,5.6-5.6h1.4c3.1,0,5.6,2.5,5.6,5.6v1.4
			C219.3,233.3,216.8,235.8,213.7,235.8z"/>
		<path class="st8" d="M213.7,219.2h-1.4c-3.1,0-5.6-2.5-5.6-5.6v-1.4c0-3.1,2.5-5.6,5.6-5.6h1.4c3.1,0,5.6,2.5,5.6,5.6v1.4
			C219.3,216.7,216.8,219.2,213.7,219.2z"/>
		<path class="st8" d="M230.2,219.2h-1.4c-3.1,0-5.6-2.5-5.6-5.6v-1.4c0-3.1,2.5-5.6,5.6-5.6h1.4c3.1,0,5.6,2.5,5.6,5.6v1.4
			C235.8,216.7,233.3,219.2,230.2,219.2z"/>
	</g>
	<g>
		<rect x="1045.1" y="220.9" class="st9" width="102.2" height="25.8"/>
		<text transform="matrix(1 0 0 1 1045.063 232.4945)"><tspan x="0" y="0" class="st10 st11 st12 st13">CONTAC</tspan><tspan x="78.6" y="0" class="st10 st11 st12 st13">-</tspan></text>
	</g>
	<g>
		<rect x="1182.3" y="220.9" class="st9" width="167.8" height="13.2"/>
		<text transform="matrix(1 0 0 1 1182.2622 232.4946)" class="st10 st11 st12 st13">COLABORADORES</text>
	</g>
	<rect x="1558.4" y="220.9" class="st9" width="139.7" height="24.9"/>
	<text transform="matrix(1 0 0 1 1558.4387 232.4944)" class="st6 st11 st12 st13">INICIAR SESIÓN</text>
	<g>
		<rect x="897" y="220.9" class="st9" width="113.1" height="25.8"/>
		<text transform="matrix(1 0 0 1 897.0112 232.4945)" class="st10 st11 st12 st13">NOSOTROS</text>
	</g>
	<g>
		<rect x="744.9" y="220.9" class="st9" width="117.1" height="25.8"/>
		<text transform="matrix(1 0 0 1 744.9038 232.4945)" class="st10 st11 st12 st13">EXPERIENCIA</text>
	</g>
	<g>
		<rect x="614.9" y="220.9" class="st9" width="95" height="25.8"/>
		<text transform="matrix(1 0 0 1 614.8872 232.4935)" class="st10 st11 st12 st13">PRINCIPAL</text>
	</g>
	<circle class="st14" cx="196.8" cy="151" r="7.3"/>
	<circle class="st15" cx="219.7" cy="151" r="7.3"/>
	<circle class="st16" cx="242.6" cy="151" r="7.3"/>
	<path class="st4" d="M1549,162.4h-1254c-5.6,0-10.2-4.6-10.2-10.2v-2.6c0-5.6,4.6-10.2,10.2-10.2h1254c5.6,0,10.2,4.6,10.2,10.2
		v2.6C1559.1,157.9,1554.6,162.4,1549,162.4z"/>
	<g>
		<path class="st17" d="M274.3,249.7l4.8-6.5l-4.7-6.2c-0.4-0.5-0.1-1.1,0.6-1.1h3.1c0.5,0,0.9,0,1.2,0.5l2.4,3.5h0l2.4-3.5
			c0.3-0.4,0.6-0.5,1.1-0.5h3.3c0.6,0,0.8,0.6,0.4,1.1l-4.7,6.2l4.7,6.5c0.3,0.5,0.1,1.1-0.4,1.1h-3.3c-0.5,0-0.8-0.2-1-0.6
			l-2.6-3.7h0l-2.8,4c-0.1,0.1-0.4,0.3-0.6,0.3h-3.6C274.1,250.7,274,250.1,274.3,249.7z"/>
		<path class="st17" d="M292,244.8v-2.5c0-0.4,0.3-0.7,0.7-0.7h8.3c0.4,0,0.7,0.3,0.7,0.7v2.5c0,0.4-0.3,0.7-0.7,0.7h-8.3
			C292.3,245.5,292,245.2,292,244.8z"/>
		<path class="st17" d="M312.1,235.5c1.5,0,2.6,0.4,3.3,0.7v-10.7c0-0.4,0.3-0.7,0.7-0.7h3.2c0.4,0,0.7,0.3,0.7,0.7V250
			c0,0.4-0.3,0.7-0.7,0.7h-1.4c-0.3,0-0.6-0.3-0.7-0.7l-0.4-1.2c0,0-1.7,2.2-4.9,2.2c-4,0-7.1-3.5-7.1-7.8
			C304.8,239,307.7,235.5,312.1,235.5z M312.5,247.1c2,0,2.9-1.5,3.1-2.4v-4.3c0,0-1-0.9-2.9-0.9c-2.1,0-3.6,1.7-3.6,3.8
			C309.1,245.4,310.5,247.1,312.5,247.1z"/>
		<path class="st17" d="M329.3,241.3c1.5,0,2.7,0.4,2.7,0.4c0-1.9-0.6-2.6-1.9-2.6c-1.4,0-3.3,0.3-4.2,0.6c-0.5,0.1-0.8-0.2-0.9-0.7
			l-0.3-1.9c-0.1-0.6,0.2-0.8,0.5-0.9c0.3-0.1,2.7-0.7,5-0.7c4.6,0,5.7,2.4,5.7,6.5v8.1c0,0.4-0.3,0.7-0.7,0.7H334
			c-0.3,0-0.4-0.1-0.6-0.5l-0.4-1c-0.9,0.8-2.2,1.9-4.5,1.9c-3,0-5-1.9-5-5.1C323.4,243.4,325.5,241.3,329.3,241.3z M329.4,247.9
			c1.2,0,2.3-1,2.6-1.4v-2c0,0-1-0.4-2.1-0.4c-1.4,0-2.4,0.8-2.4,2C327.4,247.1,328.2,247.9,329.4,247.9z"/>
		<path class="st17" d="M341.1,239.8h-1.3c-0.4,0-0.7-0.3-0.7-0.7v-2.5c0-0.4,0.3-0.7,0.7-0.7h1.3v-4.1c0-0.4,0.3-0.7,0.7-0.7l3,0
			c0.4,0,0.7,0.3,0.7,0.7v4.2h3.3c0.4,0,0.7,0.3,0.7,0.7v2.5c0,0.4-0.3,0.7-0.7,0.7h-3.3v5.9c0,1,0.6,1.2,1.2,1.2
			c0.6,0,1.4-0.3,1.8-0.4c0.4-0.1,0.7,0,0.8,0.4l0.7,2.3c0.1,0.4,0,0.7-0.4,0.9c-0.2,0.1-2.6,1-4.4,1c-2.9,0-4.1-1.8-4.1-4.8V239.8z
			"/>
		<path class="st17" d="M357.9,241.3c1.5,0,2.7,0.4,2.7,0.4c0-1.9-0.6-2.6-1.9-2.6c-1.4,0-3.3,0.3-4.2,0.6c-0.5,0.1-0.8-0.2-0.9-0.7
			l-0.3-1.9c-0.1-0.6,0.2-0.8,0.5-0.9c0.3-0.1,2.7-0.7,5-0.7c4.6,0,5.7,2.4,5.7,6.5v8.1c0,0.4-0.3,0.7-0.7,0.7h-1.3
			c-0.3,0-0.4-0.1-0.6-0.5l-0.4-1c-0.9,0.8-2.2,1.9-4.5,1.9c-3,0-5-1.9-5-5.1C352,243.4,354.2,241.3,357.9,241.3z M358,247.9
			c1.2,0,2.3-1,2.6-1.4v-2c0,0-1-0.4-2.1-0.4c-1.4,0-2.4,0.8-2.4,2C356.1,247.1,356.9,247.9,358,247.9z"/>
	</g>
	<g>
		<g>
			<path class="st5" d="M910.2,565.6h-3.3c-7.3,0-13.1-5.9-13.1-13.1v-3.3c0-7.3,5.9-13.1,13.1-13.1h3.3c7.3,0,13.1,5.9,13.1,13.1
				v3.3C923.3,559.7,917.4,565.6,910.2,565.6z"/>
			<path class="st6" d="M948.9,565.8h-3.4c-7.4,0-13.4-6-13.4-13.4v-40.9c0-7.4,6-13.4,13.4-13.4h3.4c7.4,0,13.4,6,13.4,13.4v40.9
				C962.2,559.8,956.2,565.8,948.9,565.8z"/>
			<path class="st7" d="M986.6,565.8h-3.4c-7.4,0-13.4-6-13.4-13.4v-80c0-7.4,6-13.4,13.4-13.4h3.4c7.4,0,13.4,6,13.4,13.4v80
				C1000,559.8,994,565.8,986.6,565.8z"/>
			<path class="st8" d="M910.2,527.3h-3.3c-7.3,0-13.1-5.9-13.1-13.1v-3.3c0-7.3,5.9-13.1,13.1-13.1h3.3c7.3,0,13.1,5.9,13.1,13.1
				v3.3C923.3,521.4,917.4,527.3,910.2,527.3z"/>
			<path class="st8" d="M910.2,488.6h-3.3c-7.3,0-13.1-5.9-13.1-13.1v-3.3c0-7.3,5.9-13.1,13.1-13.1h3.3c7.3,0,13.1,5.9,13.1,13.1
				v3.3C923.3,482.7,917.4,488.6,910.2,488.6z"/>
			<path class="st8" d="M948.8,488.6h-3.3c-7.3,0-13.1-5.9-13.1-13.1v-3.3c0-7.3,5.9-13.1,13.1-13.1h3.3c7.3,0,13.1,5.9,13.1,13.1
				v3.3C962,482.7,956.1,488.6,948.8,488.6z"/>
		</g>
		<g>
			<path class="st17" d="M841.4,639.3l11.3-15.2l-10.9-14.5c-0.9-1.1-0.2-2.5,1.3-2.5h7.2c1.1,0,2.1,0.1,2.9,1.2l5.6,8.2h0.1
				l5.7-8.2c0.7-1,1.4-1.2,2.6-1.2h7.8c1.5,0,1.9,1.4,1,2.5L865.1,624l11,15.3c0.8,1.1,0.3,2.5-1,2.5h-7.6c-1.1,0-1.8-0.5-2.4-1.4
				l-6.2-8.7h-0.1l-6.6,9.4c-0.3,0.3-1,0.7-1.4,0.7h-8.3C840.9,641.8,840.6,640.4,841.4,639.3z"/>
			<path class="st17" d="M882.7,628v-5.8c0-1,0.7-1.6,1.6-1.6h19.4c1,0,1.6,0.7,1.6,1.6v5.8c0,0.9-0.7,1.6-1.6,1.6h-19.4
				C883.4,629.5,882.7,628.9,882.7,628z"/>
			<path class="st17" d="M929.9,606.2c3.5,0,6.2,1,7.7,1.6v-25.1c0-0.9,0.8-1.6,1.6-1.6h7.4c0.9,0,1.6,0.8,1.6,1.6v57.5
				c0,0.9-0.8,1.6-1.6,1.6h-3.4c-0.8,0-1.4-0.7-1.6-1.6l-0.9-2.7c0,0-4.1,5.2-11.4,5.2c-9.5,0-16.7-8.2-16.7-18.2
				C912.7,614.3,919.5,606.2,929.9,606.2z M930.6,633.3c4.6,0,6.7-3.6,7.3-5.6v-10.1c0,0-2.4-2-6.8-2c-4.9,0-8.4,4-8.4,8.9
				C922.7,629.3,926,633.3,930.6,633.3z"/>
			<path class="st17" d="M970.1,619.9c3.5,0,6.3,1,6.3,1c0.1-4.4-1.3-6-4.5-6c-3.2,0-7.7,0.7-9.7,1.3c-1.2,0.3-1.8-0.4-2-1.6
				l-0.8-4.5c-0.3-1.3,0.4-1.9,1.2-2.2c0.7-0.3,6.2-1.6,11.8-1.6c10.9,0,13.4,5.6,13.4,15.1v18.8c0,0.9-0.8,1.6-1.6,1.6H981
				c-0.6,0-1-0.3-1.5-1.2l-1-2.3c-2,1.8-5.2,4.4-10.6,4.4c-6.9,0-11.7-4.5-11.7-11.9C956.2,624.6,961.2,619.9,970.1,619.9z
				 M970.2,635.3c2.8,0,5.5-2.3,6-3.4v-4.8c0,0-2.3-1-4.9-1c-3.4,0-5.6,1.9-5.6,4.7C965.7,633.4,967.5,635.3,970.2,635.3z"/>
			<path class="st17" d="M997.6,616.2h-3c-0.9,0-1.6-0.8-1.6-1.6v-5.8c0-1,0.7-1.6,1.6-1.6h3v-9.6c0-0.9,0.8-1.6,1.6-1.6l7.1-0.1
				c0.9,0,1.6,0.8,1.6,1.6v9.7h7.6c1,0,1.6,0.7,1.6,1.6v5.8c0,0.9-0.7,1.6-1.6,1.6h-7.6v13.9c0,2.4,1.3,2.8,2.7,2.8
				c1.5,0,3.3-0.6,4.3-1c1-0.3,1.6,0.1,1.9,1l1.7,5.5c0.3,0.9-0.1,1.7-1,2.1c-0.4,0.3-6.1,2.3-10.3,2.3c-6.7,0-9.6-4.2-9.6-11.2
				V616.2z"/>
			<path class="st17" d="M1037.1,619.9c3.5,0,6.3,1,6.3,1c0.1-4.4-1.3-6-4.5-6c-3.2,0-7.7,0.7-9.7,1.3c-1.2,0.3-1.8-0.4-2-1.6
				l-0.8-4.5c-0.3-1.3,0.4-1.9,1.2-2.2c0.7-0.3,6.3-1.6,11.8-1.6c10.9,0,13.4,5.6,13.4,15.1v18.8c0,0.9-0.8,1.6-1.6,1.6h-3.1
				c-0.6,0-1-0.3-1.5-1.2l-1-2.3c-2,1.8-5.2,4.4-10.6,4.4c-6.9,0-11.7-4.5-11.7-11.9C1023.2,624.6,1028.2,619.9,1037.1,619.9z
				 M1037.3,635.3c2.8,0,5.5-2.3,6-3.4v-4.8c0,0-2.3-1-4.9-1c-3.4,0-5.6,1.9-5.6,4.7C1032.7,633.4,1034.6,635.3,1037.3,635.3z"/>
		</g>
	</g>
	<rect x="1385.1" y="220.9" class="st9" width="128.6" height="24.9"/>
	<text transform="matrix(1 0 0 1 1385.0815 232.4949)" class="st6 st11 st12 st13">SOLUCIONES</text>
	
		<image style="overflow:visible;" width="665" height="267" xlink:href="E2B82BEF.jpg"  transform="matrix(2.4 0 0 2.4 158.0459 1020.61)">
	</image>
	<rect x="156" y="915.4" class="st18" width="806" height="145"/>
	
		<rect x="962" y="915.4" transform="matrix(-1 -1.224647e-16 1.224647e-16 -1 2725.0918 1975.766)" class="st2" width="801" height="145"/>
	<rect x="740" y="1095.4" class="st18" width="107" height="26"/>
	<g>
		<text transform="matrix(1 0 0 1 244.5161 1067.4231)" class="st19 st11 st20">Nosotros</text>
	</g>
	<rect x="345.5" y="704.5" class="st9" width="1232" height="45.5"/>
	<text transform="matrix(1 0 0 1 534.6061 747.9399)"><tspan x="0" y="0" class="st7 st21 st22">Transformamos</tspan><tspan x="422.3" y="0" class="st7 st11 st22"> </tspan><tspan x="437.1" y="0" class="st23 st11 st22">datos</tspan><tspan x="593.7" y="0" class="st7 st11 st22"> </tspan><tspan x="608.5" y="0" class="st7 st21 st22">en activo</tspan></text>
	<g>
		<defs>
			<rect id="SVGID_1_" x="156" y="282" width="1607" height="631"/>
		</defs>
		<clipPath id="SVGID_2_">
			<use xlink:href="#SVGID_1_"  style="overflow:visible;"/>
		</clipPath>
		<g class="st24">
			<circle class="st25" cx="225" cy="370" r="166"/>
			<circle class="st26" cx="1742.5" cy="782.5" r="67"/>
			<path class="st27" d="M1548.6,527.5H1382c-10.8,0-19.5-8.7-19.5-19.5v0c0-10.8,8.7-19.5,19.5-19.5h166.6
				c10.8,0,19.5,8.7,19.5,19.5v0C1568.1,518.8,1559.3,527.5,1548.6,527.5z"/>
			<path class="st25" d="M1682.5,364.5h-24c-2.8,0-5-2.2-5-5v-24c0-2.8,2.2-5,5-5h24c2.8,0,5,2.2,5,5v24
				C1687.5,362.3,1685.3,364.5,1682.5,364.5z"/>
			<path class="st26" d="M815.5,857.5h-24c-2.8,0-5-2.2-5-5v-24c0-2.8,2.2-5,5-5h24c2.8,0,5,2.2,5,5v24
				C820.5,855.3,818.3,857.5,815.5,857.5z"/>
			<circle class="st23" cx="323" cy="861" r="9"/>
			<circle class="st27" cx="671" cy="404" r="9"/>
			<circle class="st5" cx="1363" cy="822" r="9"/>
			<circle class="st5" cx="1174" cy="282" r="9"/>
		</g>
	</g>
	<g>
		<defs>
			<rect id="SVGID_3_" x="2727" y="282" width="1607" height="634"/>
		</defs>
		<clipPath id="SVGID_4_">
			<use xlink:href="#SVGID_3_"  style="overflow:visible;"/>
		</clipPath>
		<g class="st28">
			<circle class="st25" cx="2796" cy="370" r="166"/>
			<circle class="st26" cx="4313.5" cy="782.5" r="67"/>
			<path class="st27" d="M4119.6,527.5H3953c-10.8,0-19.5-8.7-19.5-19.5v0c0-10.8,8.7-19.5,19.5-19.5h166.6
				c10.8,0,19.5,8.7,19.5,19.5v0C4139.1,518.8,4130.3,527.5,4119.6,527.5z"/>
			<path class="st25" d="M4253.5,364.5h-24c-2.8,0-5-2.2-5-5v-24c0-2.8,2.2-5,5-5h24c2.8,0,5,2.2,5,5v24
				C4258.5,362.3,4256.3,364.5,4253.5,364.5z"/>
			<path class="st26" d="M3386.5,857.5h-24c-2.8,0-5-2.2-5-5v-24c0-2.8,2.2-5,5-5h24c2.8,0,5,2.2,5,5v24
				C3391.5,855.3,3389.3,857.5,3386.5,857.5z"/>
			<circle class="st23" cx="2894" cy="861" r="9"/>
			<circle class="st27" cx="3242" cy="404" r="9"/>
			<circle class="st5" cx="3934" cy="822" r="9"/>
			<circle class="st5" cx="3745" cy="282" r="9"/>
		</g>
	</g>
	<rect x="2729.7" y="178.3" class="st4" width="1604.3" height="103.6"/>
	<g>
		<path class="st5" d="M2785.7,252.2h-1.4c-3.1,0-5.6-2.5-5.6-5.6v-1.4c0-3.1,2.5-5.6,5.6-5.6h1.4c3.1,0,5.6,2.5,5.6,5.6v1.4
			C2791.3,249.6,2788.8,252.2,2785.7,252.2z"/>
		<path class="st6" d="M2802.2,252.2h-1.4c-3.2,0-5.7-2.6-5.7-5.7v-17.5c0-3.2,2.6-5.7,5.7-5.7h1.4c3.2,0,5.7,2.6,5.7,5.7v17.5
			C2807.9,249.7,2805.4,252.2,2802.2,252.2z"/>
		<path class="st7" d="M2818.3,252.2h-1.4c-3.2,0-5.7-2.6-5.7-5.7v-34.2c0-3.2,2.6-5.7,5.7-5.7h1.4c3.2,0,5.7,2.6,5.7,5.7v34.2
			C2824.1,249.7,2821.5,252.2,2818.3,252.2z"/>
		<path class="st8" d="M2785.7,235.8h-1.4c-3.1,0-5.6-2.5-5.6-5.6v-1.4c0-3.1,2.5-5.6,5.6-5.6h1.4c3.1,0,5.6,2.5,5.6,5.6v1.4
			C2791.3,233.3,2788.8,235.8,2785.7,235.8z"/>
		<path class="st8" d="M2785.7,219.2h-1.4c-3.1,0-5.6-2.5-5.6-5.6v-1.4c0-3.1,2.5-5.6,5.6-5.6h1.4c3.1,0,5.6,2.5,5.6,5.6v1.4
			C2791.3,216.7,2788.8,219.2,2785.7,219.2z"/>
		<path class="st8" d="M2802.2,219.2h-1.4c-3.1,0-5.6-2.5-5.6-5.6v-1.4c0-3.1,2.5-5.6,5.6-5.6h1.4c3.1,0,5.6,2.5,5.6,5.6v1.4
			C2807.8,216.7,2805.3,219.2,2802.2,219.2z"/>
	</g>
	<g>
		<rect x="3617.1" y="220.9" class="st9" width="102.2" height="25.8"/>
		<text transform="matrix(1 0 0 1 3617.063 232.4945)"><tspan x="0" y="0" class="st10 st11 st12 st13">CONTAC</tspan><tspan x="78.6" y="0" class="st10 st11 st12 st13">-</tspan></text>
	</g>
	<g>
		<rect x="3754.3" y="220.9" class="st9" width="167.8" height="13.2"/>
		<text transform="matrix(1 0 0 1 3754.2622 232.4946)" class="st10 st11 st12 st13">COLABORADORES</text>
	</g>
	<rect x="4130.4" y="220.9" class="st9" width="139.7" height="24.9"/>
	<text transform="matrix(1 0 0 1 4130.4385 232.4944)" class="st6 st11 st12 st13">INICIAR SESIÓN</text>
	<g>
		<rect x="3469" y="220.9" class="st9" width="113.1" height="25.8"/>
		<text transform="matrix(1 0 0 1 3469.0112 232.4945)" class="st10 st11 st12 st13">NOSOTROS</text>
	</g>
	<g>
		<rect x="3316.9" y="220.9" class="st9" width="117.1" height="25.8"/>
		<text transform="matrix(1 0 0 1 3316.9038 232.4945)" class="st10 st11 st12 st13">EXPERIENCIA</text>
	</g>
	<g>
		<rect x="3186.9" y="220.9" class="st9" width="95" height="25.8"/>
		<text transform="matrix(1 0 0 1 3186.8872 232.4935)" class="st10 st11 st12 st13">PRINCIPAL</text>
	</g>
	<circle class="st14" cx="2768.8" cy="151" r="7.3"/>
	<circle class="st15" cx="2791.7" cy="151" r="7.3"/>
	<circle class="st16" cx="2814.6" cy="151" r="7.3"/>
	<path class="st4" d="M4121,162.4h-1254c-5.6,0-10.2-4.6-10.2-10.2v-2.6c0-5.6,4.6-10.2,10.2-10.2h1254c5.6,0,10.2,4.6,10.2,10.2
		v2.6C4131.1,157.9,4126.6,162.4,4121,162.4z"/>
	<g>
		<path class="st17" d="M2846.3,249.7l4.8-6.5l-4.7-6.2c-0.4-0.5-0.1-1.1,0.6-1.1h3.1c0.5,0,0.9,0,1.2,0.5l2.4,3.5h0l2.4-3.5
			c0.3-0.4,0.6-0.5,1.1-0.5h3.3c0.6,0,0.8,0.6,0.4,1.1l-4.7,6.2l4.7,6.5c0.3,0.5,0.1,1.1-0.4,1.1h-3.3c-0.5,0-0.8-0.2-1-0.6
			l-2.6-3.7h0l-2.8,4c-0.1,0.1-0.4,0.3-0.6,0.3h-3.6C2846.1,250.7,2846,250.1,2846.3,249.7z"/>
		<path class="st17" d="M2864,244.8v-2.5c0-0.4,0.3-0.7,0.7-0.7h8.3c0.4,0,0.7,0.3,0.7,0.7v2.5c0,0.4-0.3,0.7-0.7,0.7h-8.3
			C2864.3,245.5,2864,245.2,2864,244.8z"/>
		<path class="st17" d="M2884.1,235.5c1.5,0,2.6,0.4,3.3,0.7v-10.7c0-0.4,0.3-0.7,0.7-0.7h3.2c0.4,0,0.7,0.3,0.7,0.7V250
			c0,0.4-0.3,0.7-0.7,0.7h-1.4c-0.3,0-0.6-0.3-0.7-0.7l-0.4-1.2c0,0-1.7,2.2-4.9,2.2c-4,0-7.1-3.5-7.1-7.8
			C2876.8,239,2879.7,235.5,2884.1,235.5z M2884.5,247.1c2,0,2.9-1.5,3.1-2.4v-4.3c0,0-1-0.9-2.9-0.9c-2.1,0-3.6,1.7-3.6,3.8
			C2881.1,245.4,2882.5,247.1,2884.5,247.1z"/>
		<path class="st17" d="M2901.3,241.3c1.5,0,2.7,0.4,2.7,0.4c0-1.9-0.6-2.6-1.9-2.6c-1.4,0-3.3,0.3-4.2,0.6
			c-0.5,0.1-0.8-0.2-0.9-0.7l-0.3-1.9c-0.1-0.6,0.2-0.8,0.5-0.9c0.3-0.1,2.7-0.7,5-0.7c4.6,0,5.7,2.4,5.7,6.5v8.1
			c0,0.4-0.3,0.7-0.7,0.7h-1.3c-0.3,0-0.4-0.1-0.6-0.5l-0.4-1c-0.9,0.8-2.2,1.9-4.5,1.9c-3,0-5-1.9-5-5.1
			C2895.4,243.4,2897.5,241.3,2901.3,241.3z M2901.4,247.9c1.2,0,2.3-1,2.6-1.4v-2c0,0-1-0.4-2.1-0.4c-1.4,0-2.4,0.8-2.4,2
			C2899.4,247.1,2900.2,247.9,2901.4,247.9z"/>
		<path class="st17" d="M2913.1,239.8h-1.3c-0.4,0-0.7-0.3-0.7-0.7v-2.5c0-0.4,0.3-0.7,0.7-0.7h1.3v-4.1c0-0.4,0.3-0.7,0.7-0.7l3,0
			c0.4,0,0.7,0.3,0.7,0.7v4.2h3.3c0.4,0,0.7,0.3,0.7,0.7v2.5c0,0.4-0.3,0.7-0.7,0.7h-3.3v5.9c0,1,0.6,1.2,1.1,1.2
			c0.6,0,1.4-0.3,1.8-0.4c0.4-0.1,0.7,0,0.8,0.4l0.7,2.3c0.1,0.4,0,0.7-0.4,0.9c-0.2,0.1-2.6,1-4.4,1c-2.9,0-4.1-1.8-4.1-4.8V239.8z
			"/>
		<path class="st17" d="M2929.9,241.3c1.5,0,2.7,0.4,2.7,0.4c0-1.9-0.6-2.6-1.9-2.6c-1.4,0-3.3,0.3-4.2,0.6
			c-0.5,0.1-0.8-0.2-0.9-0.7l-0.3-1.9c-0.1-0.6,0.2-0.8,0.5-0.9c0.3-0.1,2.7-0.7,5-0.7c4.6,0,5.7,2.4,5.7,6.5v8.1
			c0,0.4-0.3,0.7-0.7,0.7h-1.3c-0.3,0-0.4-0.1-0.6-0.5l-0.4-1c-0.9,0.8-2.2,1.9-4.5,1.9c-3,0-5-1.9-5-5.1
			C2924,243.4,2926.2,241.3,2929.9,241.3z M2930,247.9c1.2,0,2.3-1,2.6-1.4v-2c0,0-1-0.4-2.1-0.4c-1.4,0-2.4,0.8-2.4,2
			C2928.1,247.1,2928.9,247.9,2930,247.9z"/>
	</g>
	<g>
		<g>
			<path class="st5" d="M3482.2,565.6h-3.3c-7.3,0-13.1-5.9-13.1-13.1v-3.3c0-7.3,5.9-13.1,13.1-13.1h3.3c7.3,0,13.1,5.9,13.1,13.1
				v3.3C3495.3,559.7,3489.4,565.6,3482.2,565.6z"/>
			<path class="st6" d="M3520.9,565.8h-3.4c-7.4,0-13.4-6-13.4-13.4v-40.9c0-7.4,6-13.4,13.4-13.4h3.4c7.4,0,13.4,6,13.4,13.4v40.9
				C3534.2,559.8,3528.2,565.8,3520.9,565.8z"/>
			<path class="st7" d="M3558.6,565.8h-3.4c-7.4,0-13.4-6-13.4-13.4v-80c0-7.4,6-13.4,13.4-13.4h3.4c7.4,0,13.4,6,13.4,13.4v80
				C3572,559.8,3566,565.8,3558.6,565.8z"/>
			<path class="st8" d="M3482.2,527.3h-3.3c-7.3,0-13.1-5.9-13.1-13.1v-3.3c0-7.3,5.9-13.1,13.1-13.1h3.3c7.3,0,13.1,5.9,13.1,13.1
				v3.3C3495.3,521.4,3489.4,527.3,3482.2,527.3z"/>
			<path class="st8" d="M3482.2,488.6h-3.3c-7.3,0-13.1-5.9-13.1-13.1v-3.3c0-7.3,5.9-13.1,13.1-13.1h3.3c7.3,0,13.1,5.9,13.1,13.1
				v3.3C3495.3,482.7,3489.4,488.6,3482.2,488.6z"/>
			<path class="st8" d="M3520.8,488.6h-3.3c-7.3,0-13.1-5.9-13.1-13.1v-3.3c0-7.3,5.9-13.1,13.1-13.1h3.3c7.3,0,13.1,5.9,13.1,13.1
				v3.3C3534,482.7,3528.1,488.6,3520.8,488.6z"/>
		</g>
		<g>
			<path class="st17" d="M3413.4,639.3l11.3-15.2l-10.9-14.5c-0.9-1.1-0.2-2.5,1.3-2.5h7.2c1.1,0,2.1,0.1,2.9,1.2l5.6,8.2h0.1
				l5.7-8.2c0.7-1,1.4-1.2,2.6-1.2h7.8c1.5,0,1.9,1.4,1,2.5l-10.9,14.4l11,15.3c0.8,1.1,0.3,2.5-1,2.5h-7.6c-1.1,0-1.8-0.5-2.4-1.4
				l-6.2-8.7h-0.1l-6.6,9.4c-0.3,0.3-1,0.7-1.4,0.7h-8.3C3412.9,641.8,3412.6,640.4,3413.4,639.3z"/>
			<path class="st17" d="M3454.7,628v-5.8c0-1,0.7-1.6,1.6-1.6h19.4c1,0,1.6,0.7,1.6,1.6v5.8c0,0.9-0.7,1.6-1.6,1.6h-19.4
				C3455.4,629.5,3454.7,628.9,3454.7,628z"/>
			<path class="st17" d="M3501.9,606.2c3.5,0,6.2,1,7.7,1.6v-25.1c0-0.9,0.8-1.6,1.6-1.6h7.4c0.9,0,1.6,0.8,1.6,1.6v57.5
				c0,0.9-0.8,1.6-1.6,1.6h-3.4c-0.8,0-1.4-0.7-1.6-1.6l-0.9-2.7c0,0-4.1,5.2-11.4,5.2c-9.5,0-16.7-8.2-16.7-18.2
				C3484.7,614.3,3491.5,606.2,3501.9,606.2z M3502.6,633.3c4.6,0,6.7-3.6,7.3-5.6v-10.1c0,0-2.4-2-6.8-2c-4.9,0-8.4,4-8.4,8.9
				C3494.7,629.3,3498,633.3,3502.6,633.3z"/>
			<path class="st17" d="M3542.1,619.9c3.5,0,6.3,1,6.3,1c0.1-4.4-1.3-6-4.5-6c-3.2,0-7.7,0.7-9.7,1.3c-1.2,0.3-1.8-0.4-2-1.6
				l-0.8-4.5c-0.3-1.3,0.4-1.9,1.2-2.2c0.7-0.3,6.2-1.6,11.8-1.6c10.9,0,13.4,5.6,13.4,15.1v18.8c0,0.9-0.8,1.6-1.6,1.6h-3.1
				c-0.6,0-1-0.3-1.5-1.2l-1-2.3c-2,1.8-5.2,4.4-10.6,4.4c-6.9,0-11.7-4.5-11.7-11.9C3528.2,624.6,3533.2,619.9,3542.1,619.9z
				 M3542.2,635.3c2.8,0,5.5-2.3,6-3.4v-4.8c0,0-2.3-1-4.9-1c-3.4,0-5.6,1.9-5.6,4.7C3537.7,633.4,3539.5,635.3,3542.2,635.3z"/>
			<path class="st17" d="M3569.6,616.2h-3c-0.9,0-1.6-0.8-1.6-1.6v-5.8c0-1,0.7-1.6,1.6-1.6h3v-9.6c0-0.9,0.8-1.6,1.6-1.6l7.1-0.1
				c0.9,0,1.6,0.8,1.6,1.6v9.7h7.6c1,0,1.6,0.7,1.6,1.6v5.8c0,0.9-0.7,1.6-1.6,1.6h-7.6v13.9c0,2.4,1.3,2.8,2.7,2.8
				c1.5,0,3.3-0.6,4.3-1c1-0.3,1.6,0.1,1.9,1l1.7,5.5c0.3,0.9-0.1,1.7-1,2.1c-0.4,0.3-6.1,2.3-10.3,2.3c-6.7,0-9.6-4.2-9.6-11.2
				V616.2z"/>
			<path class="st17" d="M3609.1,619.9c3.5,0,6.3,1,6.3,1c0.1-4.4-1.3-6-4.5-6c-3.2,0-7.7,0.7-9.7,1.3c-1.2,0.3-1.8-0.4-2-1.6
				l-0.8-4.5c-0.3-1.3,0.4-1.9,1.2-2.2c0.7-0.3,6.2-1.6,11.8-1.6c10.9,0,13.4,5.6,13.4,15.1v18.8c0,0.9-0.8,1.6-1.6,1.6h-3.1
				c-0.6,0-1-0.3-1.5-1.2l-1-2.3c-2,1.8-5.2,4.4-10.6,4.4c-6.9,0-11.7-4.5-11.7-11.9C3595.2,624.6,3600.2,619.9,3609.1,619.9z
				 M3609.3,635.3c2.8,0,5.5-2.3,6-3.4v-4.8c0,0-2.3-1-4.9-1c-3.4,0-5.6,1.9-5.6,4.7C3604.7,633.4,3606.6,635.3,3609.3,635.3z"/>
		</g>
	</g>
	<rect x="3957.1" y="220.9" class="st9" width="128.6" height="24.9"/>
	<text transform="matrix(1 0 0 1 3957.0815 232.4949)" class="st6 st11 st12 st13">SOLUCIONES</text>
	<rect x="2917.5" y="704.5" class="st9" width="1232" height="45.5"/>
	<text transform="matrix(1 0 0 1 3106.606 747.9399)"><tspan x="0" y="0" class="st7 st21 st22">Transformamos</tspan><tspan x="422.3" y="0" class="st7 st11 st22"> </tspan><tspan x="437.1" y="0" class="st23 st11 st22">datos</tspan><tspan x="593.7" y="0" class="st7 st11 st22"> </tspan><tspan x="608.5" y="0" class="st7 st21 st22">en activo</tspan></text>
</g>
</svg>
