<svg xmlns="http://www.w3.org/2000/svg" viewBox="0 0 364 91.39"><defs><style>.cls-1{fill:#fff;fill-rule:evenodd;}</style></defs><g id="Capa_2" data-name="Capa 2"><g id="Page_1" data-name="Page 1"><g id="Capa_1-2" data-name="Capa 1"><path class="cls-1" d="M104.19,68.52,119,35.3c3.94-7.44,7.22-10.95,16.28-11.22h37.23c5.76,1.21,6,3.87,4.91,9.18L162.86,66.18c-2,4.33-5.5,7.42-12.07,8.45H139l-6.83-16.46h10.61c3-.65,3.51-.93,5.38-3.5l4.51-10.05c.45-2.45.08-3.88-2.47-4.51h-9.74c-3.89.35-5.14,1.43-6.73,5.39L113.42,91.39l-9.23-22.87Z"/><path class="cls-1" d="M359.53,24.08H326l-4.38,10.15h23.18c2.25,0,2.78.9,2.28,2.89l-1.5,3.11a4.5,4.5,0,0,1-3.34,1H325.68c-6.35,0-9.14,2.07-12.89,7.15l-7.37,16.69c-1.73,4.87.53,7.36,5.41,7h35.45L362.75,35C364.52,30.12,365.16,25.78,359.53,24.08Zm-23.37,38H324.3c-2.12-1.13-1.7-2-1.27-3.66L325.57,53c1.45-1.12,1.67-1.34,4.37-1.5h10.82Z"/><path class="cls-1" d="M211.92,72.16l21.25-48.08h31.59c6.95.88,9.66,5,7.72,11.33L256.3,72.17H241.18l14.73-33.06c.31-2.36.09-3.61-2.21-3.82H242.9L226.55,72.17Z"/><path class="cls-1" d="M111.53,24.08H85.09c-6.93.79-10.63,4.13-13.84,10.24L58.64,62.79c-1,3.93-1.73,8,4.5,9.34H98.48l4.51-9.9H76.87c-2.12,0-2.49-.22-2.48-1.81l1.8-3.82a4.82,4.82,0,0,1,3-1.24H106l10.58-23.85C117.9,27.8,116.49,24.17,111.53,24.08ZM99.15,38.48l-2.7,6.42H81.37l3.38-7.66c1-1.65,1.93-2.05,3.83-2h9C99.63,36,99.47,36.25,99.15,38.48Z"/><path class="cls-1" d="M43.09,0C33.48,1.11,29,6.5,25.81,13.65L0,72.21H37.8c8.39-.57,12.6-4.55,17.91-11.94l5.21-11.45c1.66-5.84,2.18-9.13-1.18-15.14C65,31.85,68.6,29,72,23.58L82.4,0Zm1.36,47.1-4.64,10.6a6.08,6.08,0,0,1-5.37,3.17H21.64l8-18.05H41.86C44.26,43.25,44.76,44.23,44.45,47.11ZM53.25,27c-1.43,2.38-2.84,3.33-5.38,3.16H35.08l6-13.76c1.77-2.92,2.52-3.68,6.66-4.28H59.85Z"/><path class="cls-1" d="M221.1,24.08H194.66c-6.92.79-10.63,4.13-13.84,10.24l-12.6,28.47c-1,3.93-1.73,8,4.5,9.34h35.34l4.5-9.9h-26c-2.11,0-2.49-.22-2.47-1.81l1.8-3.82a4.79,4.79,0,0,1,3-1.24H215.7l10.47-23.85C227.48,27.8,226.07,24.17,221.1,24.08Zm-12.37,14.4L206,44.9H191l3.37-7.66c1-1.65,1.93-2.05,3.83-2h9C209.2,36,209,36.25,208.73,38.48Z"/><path class="cls-1" d="M315.93,24.07,311,34.93H297.13c-2.37-.2-3.05.75-2,2.9l9,15.25c1.6,4,.41,7.8-1.82,11.13a18.37,18.37,0,0,1-13.54,7.94H260l4.52-10.26h22.23c3.24-.17,2.24-1.92,1-4.3l-10.52-17.4a10.05,10.05,0,0,1,1.12-10,14.59,14.59,0,0,1,11.66-6.13Z"/></g></g></g></svg>