<svg xmlns="http://www.w3.org/2000/svg" viewBox="0 0 1890.17 1309"><defs><style>.cls-1{isolation:isolate;}.cls-2,.cls-25{fill:#f9f3ef;}.cls-20,.cls-3{fill:#fff;}.cls-24,.cls-4{fill:#507aa5;}.cls-14,.cls-17,.cls-25,.cls-5{font-size:22.19px;}.cls-14,.cls-17,.cls-5{fill:#f7f3ed;}.cls-14,.cls-5{font-family:CircularStd-Book, Circular Std;}.cls-15,.cls-17,.cls-5{letter-spacing:0.05em;}.cls-6{letter-spacing:-0.01em;}.cls-14,.cls-7{letter-spacing:0.04em;}.cls-8{letter-spacing:0.05em;}.cls-9{letter-spacing:-0.02em;}.cls-10{letter-spacing:0.02em;}.cls-11{letter-spacing:0.03em;}.cls-12{letter-spacing:0.03em;}.cls-13{letter-spacing:0.05em;}.cls-16{letter-spacing:0.05em;}.cls-17,.cls-20,.cls-25{font-family:CircularStd-Black, Circular Std;font-weight:800;}.cls-18{letter-spacing:0.05em;}.cls-19{fill:#f08e38;}.cls-20{font-size:34.78px;letter-spacing:0.05em;}.cls-21{letter-spacing:0.05em;}.cls-22{letter-spacing:0.03em;}.cls-23{letter-spacing:0.05em;}.cls-24{mix-blend-mode:multiply;}.cls-25{letter-spacing:0.01em;}.cls-26{letter-spacing:0.01em;}</style></defs><title>casosdeexito-proveedores</title><g class="cls-1"><g id="Capa_2" data-name="Capa 2"><g id="Capa_1-2" data-name="Capa 1"><rect class="cls-2" width="1890.17" height="1308"/><rect class="cls-3" x="365.58" y="175.91" width="1481" height="545.23" rx="54.72"/><rect class="cls-3" x="365.58" y="741.9" width="1481" height="545.23" rx="54.72"/><path class="cls-4" d="M.58,3H160.12A155.46,155.46,0,0,1,315.58,158.46v995.08A155.46,155.46,0,0,1,160.12,1309H.58a0,0,0,0,1,0,0V3A0,0,0,0,1,.58,3Z"/><text class="cls-5" transform="translate(108.84 363.79)">MA<tspan class="cls-6" x="38.67" y="0">P</tspan><tspan class="cls-7" x="51.7" y="0">A</tspan><tspan class="cls-8" x="68.05" y="0">S</tspan></text><text class="cls-5" transform="translate(104.43 468.02)">VEN<tspan class="cls-9" x="47.73" y="0">T</tspan><tspan class="cls-7" x="60.53" y="0">A</tspan><tspan class="cls-8" x="76.88" y="0">S</tspan></text><text class="cls-5" transform="translate(48.89 572.25)">N<tspan class="cls-10" x="18.04" y="0">O</tspan><tspan x="36.39" y="0">TIFI</tspan><tspan class="cls-11" x="78.61" y="0">C</tspan><tspan class="cls-12" x="95.92" y="0">A</tspan><tspan class="cls-13" x="111.94" y="0">CIONES</tspan></text><text class="cls-14" transform="translate(49.02 677.01)">C<tspan class="cls-15" x="17.53" y="0">ONFIGU</tspan><tspan class="cls-16" x="109.19" y="0">R</tspan><tspan class="cls-10" x="123.92" y="0">A</tspan><tspan class="cls-15" x="139.94" y="0">CIÓN</tspan></text><text class="cls-17" transform="translate(55.04 782.05)">CER<tspan class="cls-18" x="47.33" y="0">R</tspan><tspan x="62.35" y="0">AR SESIÓN</tspan></text><path class="cls-19" d="M.58,3h1886a0,0,0,0,1,0,0V48.05A96.95,96.95,0,0,1,1789.63,145H97.53A96.95,96.95,0,0,1,.58,48.05V3a0,0,0,0,1,0,0Z"/><text class="cls-20" transform="translate(684.58 89.83)">ANÁLISIS DE <tspan class="cls-21" x="245.13" y="0">PR</tspan><tspan class="cls-22" x="291.42" y="0">O</tspan><tspan class="cls-23" x="320.43" y="0">VEEDORES</tspan></text><rect class="cls-24" x="4.58" y="219" width="310" height="59"/><text class="cls-25" transform="translate(75.59 258.76)">D<tspan class="cls-18" x="16.35" y="0">A</tspan><tspan class="cls-8" x="33.73" y="0">SHB</tspan><tspan class="cls-26" x="80.97" y="0">O</tspan><tspan class="cls-15" x="99.16" y="0">ARD</tspan></text></g></g></g></svg>