<svg xmlns="http://www.w3.org/2000/svg" viewBox="0 0 117.91 122.7"><defs><style>.cls-1{fill:#239fa7;}.cls-2{fill:#ecf7f4;}.cls-3{fill:#80e1d2;}.cls-4{fill:#d5b046;}.cls-5{fill:#b79a3a;}.cls-6{fill:#1c8785;}.cls-7{fill:#12424f;}</style></defs><title>casosdeexito-icon-inventario</title><g id="Capa_2" data-name="Capa 2"><g id="Capa_1-2" data-name="Capa 1"><rect class="cls-1" x="30.67" y="10.22" width="69.53" height="96.11" rx="6.13"/><path class="cls-2" d="M38.85,18.4H92V98.16H38.85Z"/><path class="cls-3" d="M79.75,18.4H51.12V10.22H59.3L57.26,2H73.62l-2.05,8.18h8.18Z"/><path class="cls-4" d="M75.66,120.65H2V55.21H38.85V87.93H75.66Z"/><path class="cls-5" d="M51.12,87.93H63.39V100.2H51.12Z"/><path class="cls-4" d="M75.66,90H72.59A3.06,3.06,0,0,0,69.53,93v5.19a16.28,16.28,0,0,1-16.28,16.29H44a3.06,3.06,0,0,0-3.07,3.06v3.07H75.66Z"/><path class="cls-5" d="M14.31,87.93H26.58V100.2H14.31Z"/><path class="cls-4" d="M38.85,90H35.79A3.06,3.06,0,0,0,32.72,93v5.19a16.28,16.28,0,0,1-16.28,16.29H7.16a3.06,3.06,0,0,0-3.07,3.06v3.07H38.85Z"/><path class="cls-5" d="M14.31,55.21H26.58V67.48H14.31Z"/><path class="cls-4" d="M38.85,57.26H35.79a3.06,3.06,0,0,0-3.07,3.07v5.19A16.28,16.28,0,0,1,16.44,81.8H7.16a3.06,3.06,0,0,0-3.07,3.06v3.07H38.85Z"/><path class="cls-6" d="M112.94,62.87,58.09,79.28l-9-1.57,6.66-6.27L110.6,55a4.09,4.09,0,0,1,2.34,7.84Z"/><path class="cls-7" d="M117.65,57.19A6.14,6.14,0,0,0,110,53.07L55.16,69.49a2.08,2.08,0,0,0-.82.46l-6.66,6.27a2,2,0,0,0-.09,2.89,2,2,0,0,0,1.14.61l9,1.58a2.12,2.12,0,0,0,.94-.06l44.51-13.32.2,4.21L89.23,76.36l1.17,3.92,15.68-4.69a2,2,0,0,0,1.45-2l-.31-6.82,6.31-1.89a6.14,6.14,0,0,0,4.12-7.64ZM58,77.18l-4.5-.78,3.33-3.13,9.33-2.8,1.18,3.92Zm13.25-4L70,69.3l32.76-9.8.19,4.21Zm42.36-13.3a2.05,2.05,0,0,1-1.21,1L107,62.5l-.19-4.21,4.34-1.3a2,2,0,0,1,2.39,2.93Z"/><path class="cls-7" d="M75.66,85.89H40.9V55.21a2,2,0,0,0-2-2H2a2,2,0,0,0-2,2v65.44a2.05,2.05,0,0,0,2,2H75.66a2.05,2.05,0,0,0,2-2V87.93A2,2,0,0,0,75.66,85.89ZM53.17,90h8.18v8.18H53.17ZM16.36,57.26h8.18v8.18H16.36Zm-12.27,0h8.18V67.48a2.05,2.05,0,0,0,2,2H26.58a2.05,2.05,0,0,0,2.05-2V57.26h8.18V85.89H4.09ZM16.36,90h8.18v8.18H16.36ZM4.09,90h8.18V100.2a2.05,2.05,0,0,0,2,2H26.58a2.05,2.05,0,0,0,2.05-2V90h8.18v28.63H4.09Zm69.53,28.63H40.9V90h8.18V100.2a2,2,0,0,0,2,2H63.39a2.05,2.05,0,0,0,2-2V90h8.18Z"/><path class="cls-7" d="M65.44,110.43h4.09v4.09H65.44Z"/><path class="cls-7" d="M28.63,110.43h4.09v4.09H28.63Z"/><path class="cls-7" d="M28.63,77.71h4.09V81.8H28.63Z"/><path class="cls-7" d="M32.72,16.36a4.09,4.09,0,0,1,4.09-4.09H49.08v4.09H38.85a2,2,0,0,0-2,2V49.08H40.9V20.45H90V53.17h4.09V18.4a2,2,0,0,0-2-2H81.8V12.27H94.07a4.1,4.1,0,0,1,4.09,4.09V51.12h4.09V16.36a8.19,8.19,0,0,0-8.18-8.18H74.19L75.6,2.54a2,2,0,0,0-2-2.54H57.26a2.05,2.05,0,0,0-2,2,2.07,2.07,0,0,0,.06.5l1.41,5.64H36.81a8.18,8.18,0,0,0-8.18,8.18V49.08h4.09Zm20.45-4.09H59.3a2,2,0,0,0,2-2.54L59.88,4.09H71L69.59,9.73a2,2,0,0,0,2,2.54h6.14v4.09H53.17Z"/><path class="cls-7" d="M98.16,100.2a4.1,4.1,0,0,1-4.09,4.09H81.8v4.09H94.07a8.19,8.19,0,0,0,8.18-8.18V81.8H98.16Z"/><path class="cls-7" d="M94.07,98.16V83.84H90V96.11H81.8v4.09H92A2,2,0,0,0,94.07,98.16Z"/><path class="cls-7" d="M57.26,26.58a2,2,0,0,0-2-2H47a2,2,0,0,0-2,2v8.18a2,2,0,0,0,2,2.05h8.18a2.05,2.05,0,0,0,2-2.05Zm-4.09,6.14H49.08V28.63h4.09Z"/><path class="cls-7" d="M55.21,42.94H47A2,2,0,0,0,45,45v8.18a2,2,0,0,0,2,2h8.18a2,2,0,0,0,2-2V45A2.05,2.05,0,0,0,55.21,42.94Zm-2,8.18H49.08V47h4.09Z"/><path class="cls-7" d="M61.35,24.54h4.09v4.09H61.35Z"/><path class="cls-7" d="M61.35,32.72H85.89v4.09H61.35Z"/><path class="cls-7" d="M69.53,24.54H85.89v4.09H69.53Z"/><path class="cls-7" d="M61.35,42.94h4.09V47H61.35Z"/><path class="cls-7" d="M61.35,51.12H85.89v4.09H61.35Z"/><path class="cls-7" d="M69.53,42.94H85.89V47H69.53Z"/></g></g></svg>