<svg xmlns="http://www.w3.org/2000/svg" viewBox="0 0 126.79 126.79"><defs><style>.cls-1{fill:#d5b046;}.cls-2{fill:#b79a3a;}.cls-3{fill:#239fa7;}.cls-4{fill:#ecf7f4;}.cls-5{fill:#c1e8e1;}.cls-6{fill:#7cc8b1;}.cls-7{fill:#80e1d2;}.cls-8{fill:#12424f;}</style></defs><title>casosdeexito-icon-proveedores</title><g id="Capa_2" data-name="Capa 2"><g id="Capa_1-2" data-name="Capa 1"><path class="cls-1" d="M120.65,92v24.54a4.1,4.1,0,0,1-4.09,4.09H92a4.1,4.1,0,0,1-4.09-4.09V92A4.1,4.1,0,0,1,92,87.93h8.18v8.18h8.18V87.93h8.18A4.1,4.1,0,0,1,120.65,92Z"/><path class="cls-1" d="M124.74,83.84a4.1,4.1,0,0,1-4.09,4.09H96.11A4.1,4.1,0,0,1,92,83.84V59.3a4.1,4.1,0,0,1,4.09-4.09h8.18v8.18h8.18V55.21h8.18a4.1,4.1,0,0,1,4.09,4.09Z"/><path class="cls-1" d="M92,59.3V83.84a4.1,4.1,0,0,1-4.09,4.09H79.75V75.66a4.1,4.1,0,0,0-4.09-4.09H59.3V59.3a4.1,4.1,0,0,1,4.09-4.09h8.18v8.18h8.18V55.21h8.18A4.1,4.1,0,0,1,92,59.3Z"/><path class="cls-1" d="M120.65,6.13v45a4.1,4.1,0,0,1-4.09,4.09H67.48a4.1,4.1,0,0,1-4.09-4.09v-45A4.11,4.11,0,0,1,67.48,2H83.84V14.31H100.2V2h16.36A4.11,4.11,0,0,1,120.65,6.13Z"/><path class="cls-2" d="M83.84,2H100.2V14.31H83.84Z"/><path class="cls-2" d="M71.57,55.21h8.18v8.18H71.57Z"/><path class="cls-2" d="M104.29,55.21h8.18v8.18h-8.18Z"/><path class="cls-2" d="M100.2,87.93h8.18v8.18H100.2Z"/><path class="cls-3" d="M37.83,18.4a9.2,9.2,0,0,1,6.5,15.71,9.08,9.08,0,0,1-6.5,2.7H24.54a6.15,6.15,0,0,0-6.14,6.13V47a4.13,4.13,0,0,0-4.09,4.09v.35a4.08,4.08,0,0,0,1.21,2.9l2.88,2.89V67.48L16,66.3A25.29,25.29,0,0,1,27.32,18.4Z"/><path class="cls-4" d="M38.85,113.64v11.1H2V94.5a21.38,21.38,0,0,0,7.43,16.17l.92.76a20.26,20.26,0,0,0,2.88,2.08,21.18,21.18,0,0,0,11,3H27a21.31,21.31,0,0,0,7.18-1.25Z"/><path class="cls-4" d="M22.49,104.29l-9.22,9.22a20.26,20.26,0,0,1-2.88-2.08l-.92-.76a21.29,21.29,0,0,1,6.38-36.09l2.55-1A42.49,42.49,0,0,1,30.67,84.78a41.57,41.57,0,0,1,3.62,5.91,42.12,42.12,0,0,1,3.42,9.25v0Z"/><path class="cls-5" d="M55.91,89.06a5.8,5.8,0,0,0-3.66,3.66l-1.13,3.39V79.75H75.66a4.1,4.1,0,0,0,4.09-4.09v45a4.1,4.1,0,0,1-4.09,4.09H51.12v-15.5l16.2-5.81a5.82,5.82,0,0,0,2.56-9.71A5.87,5.87,0,0,0,65.76,92H63.39l-1.55-1.55A5.78,5.78,0,0,0,55.91,89.06Z"/><path class="cls-6" d="M75.66,71.57a4.1,4.1,0,0,1,4.09,4.09,4.1,4.1,0,0,1-4.09,4.09H55.21V71.57H75.66Z"/><path class="cls-7" d="M51.12,85.89V96.11L37.71,99.94a42.12,42.12,0,0,0-3.42-9.25Z"/><path class="cls-7" d="M69.88,93.72a5.82,5.82,0,0,1-2.56,9.71l-16.2,5.81-12.27,4.4-4.7,1.67A21.31,21.31,0,0,1,27,116.56H24.23a21.18,21.18,0,0,1-11-3l9.22-9.22L37.71,100v0l13.41-3.83,1.13-3.39a5.78,5.78,0,0,1,9.59-2.25L63.39,92h2.37a5.87,5.87,0,0,1,4.12,1.7Z"/><path class="cls-7" d="M30.67,67.48v17.3A42.49,42.49,0,0,0,18.4,73.62V57.26l-2.88-2.89a4.08,4.08,0,0,1-1.21-2.9v-.35A4.13,4.13,0,0,1,18.4,47V42.94a6.15,6.15,0,0,1,6.14-6.13H35.21a6.16,6.16,0,0,1,5.48,3.35c1.8,3.52,4.3,9.1,4.3,13l-6.14,2v5.3a7,7,0,0,1-7,7Z"/><path class="cls-8" d="M122.25,53.41a6.23,6.23,0,0,0,.45-2.29v-45A6.15,6.15,0,0,0,116.56,0H67.48a6.14,6.14,0,0,0-6.13,6.13v45a6,6,0,0,0,.45,2.29,6.11,6.11,0,0,0-4.54,5.89V69.53H53.17v8.18H49.08v6.63l-13.81,4a42.7,42.7,0,0,0-2.55-4.07V69.45a8.93,8.93,0,0,0,8.18-9V56.69l6.13-2V53.17c0-4.23-2.46-9.92-4.52-14a8,8,0,0,0-.7-1.11,11.24,11.24,0,0,0-4-21.75H27.32A27.32,27.32,0,0,0,15.1,68.12l1.26.63V72.2l-1.22.46A23.42,23.42,0,0,0,0,94.07H0v32.72H40.9V115.07l8.18-2.93v14.65H75.66a6.15,6.15,0,0,0,6.14-6.14V90h4.46a6,6,0,0,0-.37,2v24.54A6.15,6.15,0,0,0,92,122.7h24.54a6.15,6.15,0,0,0,6.14-6.14V92a6.18,6.18,0,0,0-.45-2.28,6.14,6.14,0,0,0,4.54-5.9V59.3A6.12,6.12,0,0,0,122.25,53.41ZM85.89,4.09H98.16v8.18H85.89Zm-20.45,2a2,2,0,0,1,2-2H81.8V16.36h20.45V4.09h14.31a2.05,2.05,0,0,1,2,2v45a2.05,2.05,0,0,1-2,2.05H67.48a2.05,2.05,0,0,1-2-2.05Zm40.9,51.13h4.09v4.09h-4.09Zm-32.72,0h4.09v4.09H73.62ZM57.26,73.62h18.4a2,2,0,1,1,0,4.09H57.26ZM23.57,106.11l29.15-8.33,1.47-4.41a3.74,3.74,0,0,1,6.2-1.46l2.16,2.16h3.21a3.77,3.77,0,0,1,3.77,3.77,3.85,3.85,0,0,1-2.89,3.67L33.46,113.39A19,19,0,0,1,27,114.52H24.23A19.18,19.18,0,0,1,16.71,113ZM49.08,88.6v6l-10,2.85a44.09,44.09,0,0,0-2-5.41ZM42.83,51.73l-6,2V60.5a4.93,4.93,0,0,1-4.94,4.94H24.54v4.09h4.09v9.75a44.26,44.26,0,0,0-8.18-6.75V56.41L17,52.92a2,2,0,0,1-.6-1.45v-.35a2,2,0,0,1,2-2h2.05V42.94a4.09,4.09,0,0,1,4.09-4.09H35.22a4.1,4.1,0,0,1,3.65,2.24,37.65,37.65,0,0,1,4,10.64Zm-38.74-8A23.26,23.26,0,0,1,27.32,20.45H37.83a7.16,7.16,0,1,1,0,14.31H24.54a8.19,8.19,0,0,0-8.18,8.18v2.4a6.14,6.14,0,0,0-4.09,5.78v.35a6.1,6.1,0,0,0,1.8,4.34l2.29,2.29v6A23.07,23.07,0,0,1,4.09,43.68ZM16.57,76.49l1.57-.59a40.27,40.27,0,0,1,17,22.65l-11.34,3.24L23,99.37A17.33,17.33,0,0,0,10.72,88l-1,4a13.26,13.26,0,0,1,9.4,8.71l1,3.07L13,110.89c-.44-.31-.87-.65-1.29-1l-.9-.78a19.24,19.24,0,0,1,5.76-32.62ZM36.81,122.7H4.09V107.64a22.83,22.83,0,0,0,4.06,4.57l.9.78a23.37,23.37,0,0,0,15.18,5.62H27a23.14,23.14,0,0,0,7.86-1.37l2-.7Zm38.85,0H53.17v-12l14.71-5.27A7.86,7.86,0,0,0,65.76,90H64.24l-1-1a7.64,7.64,0,0,0-10.11-.76V81.8H75.66a6.06,6.06,0,0,0,2-.38v39.23A2.05,2.05,0,0,1,75.66,122.7Zm6.14-47a6.15,6.15,0,0,0-6.14-6.13H61.35V59.3a2,2,0,0,1,2-2h6.14v8.18H81.8V57.26h6.13a2.05,2.05,0,0,1,2,2V83.84a2.05,2.05,0,0,1-2,2H81.8Zm36.81,40.9a2.05,2.05,0,0,1-2,2H92a2,2,0,0,1-2-2V92a2,2,0,0,1,2-2h6.14v8.18h12.27V90h6.13a2,2,0,0,1,2,2ZM102.25,90h4.09v4.09h-4.09Zm20.45-6.14a2.05,2.05,0,0,1-2,2H96.11a2,2,0,0,1-2-2V59.3a2,2,0,0,1,2-2h6.14v8.18h12.27V57.26h6.13a2.05,2.05,0,0,1,2,2Z"/><path class="cls-8" d="M102.25,45h4.09v4.09h-4.09Z"/><path class="cls-8" d="M94.07,45h4.09v4.09H94.07Z"/><path class="cls-8" d="M110.43,45h4.09v4.09h-4.09Z"/><path class="cls-8" d="M94.07,36.81h20.45V40.9H94.07Z"/></g></g></svg>