<svg xmlns="http://www.w3.org/2000/svg" viewBox="0 0 85.89 122.7"><defs><style>.cls-1{fill:#80e1d2;}.cls-2{fill:#7cc8b1;}.cls-3{fill:#d5b046;}.cls-4{fill:#1c8785;}.cls-5{fill:#12424f;}</style></defs><title>casosdeexito-icon-cafe</title><g id="Capa_2" data-name="Capa 2"><g id="Capa_1-2" data-name="Capa 1"><polygon class="cls-1" points="9.96 14.67 2.05 31.62 1.3 119.76 67.22 120.89 67.22 32 75.88 15.42 75.66 1.53 9.59 1.49 9.96 14.67"/><polygon class="cls-2" points="75.88 15.42 67.22 32 67.22 121.12 83.04 120.89 83.42 30.49 75.88 15.42"/><path class="cls-3" d="M47.63,71.55s-10.55-8.67-20.72,2.63-7.15,20-7.15,20,9,13.18,22.6-1.51S47.63,71.55,47.63,71.55Z"/><polygon class="cls-4" points="36.71 1.11 36.71 14.67 28.42 31.24 28.42 51.58 40.85 51.58 40.85 29.74 49.08 12.27 49.14 1.49 36.71 1.11"/><path class="cls-5" d="M84.38,27.17,77.71,13.83V2a2.05,2.05,0,0,0-2-2H10.22a2,2,0,0,0-2,2V13.83L1.51,27.17A14.37,14.37,0,0,0,0,33.57v87.08a2.05,2.05,0,0,0,2,2h81.8a2.05,2.05,0,0,0,2-2V33.57A14.51,14.51,0,0,0,84.38,27.17ZM51.12,4.09h22.5v8.18H51.12ZM38.68,15.15s0-.09,0-.13a1.91,1.91,0,0,0,.13-.62s0-.05,0-.08V4.09H47v9.74L40.36,27.17a14.51,14.51,0,0,0-1.51,6.4V49.08H30.67V33.57A10.48,10.48,0,0,1,31.75,29l6.9-13.77A.26.26,0,0,1,38.68,15.15ZM12.27,4.09H34.76v8.18H12.27ZM65.44,33.57v85H4.09v-85A10.21,10.21,0,0,1,5.17,29l6.32-12.64h22L28.1,27.17a14.38,14.38,0,0,0-1.52,6.4V51.12a2.05,2.05,0,0,0,2.05,2.05H40.9a2,2,0,0,0,2-2.05V33.57A10.48,10.48,0,0,1,44,29l6.32-12.64h22L67,27.17A14.37,14.37,0,0,0,65.44,33.57Zm16.36,85H69.53v-85A10.21,10.21,0,0,1,70.61,29l5-10.11L80.72,29a10.34,10.34,0,0,1,1.08,4.57Z"/><path class="cls-5" d="M37.42,66.5a25.71,25.71,0,0,0-12.79,7.22A25.74,25.74,0,0,0,17.42,86.5,12.61,12.61,0,0,0,20.3,98.29a11.52,11.52,0,0,0,8.4,3.23,16.93,16.93,0,0,0,3.41-.34A25.68,25.68,0,0,0,44.89,94,25.62,25.62,0,0,0,52.1,81.18a12.59,12.59,0,0,0-2.88-11.79A12.61,12.61,0,0,0,37.42,66.5Zm-16,20.82a21.75,21.75,0,0,1,6.1-10.7,21.6,21.6,0,0,1,10.71-6.11,13.93,13.93,0,0,1,2.57-.27,8,8,0,0,1,4.64,1.33,14.1,14.1,0,0,1-2.91,1.76,20.68,20.68,0,0,0-9.61,9.61,14.06,14.06,0,0,1-3.21,4.53,14.47,14.47,0,0,1-4.53,3.22,18.13,18.13,0,0,0-3.56,2.15A10.66,10.66,0,0,1,21.43,87.32ZM48.1,80.37A21.66,21.66,0,0,1,42,91.06a21.54,21.54,0,0,1-10.7,6.11,9.31,9.31,0,0,1-7.23-1A15,15,0,0,1,27,94.35a18.45,18.45,0,0,0,5.62-4,18.14,18.14,0,0,0,4-5.62A16.58,16.58,0,0,1,44.35,77a18.91,18.91,0,0,0,3.55-2.16A10.7,10.7,0,0,1,48.1,80.37Z"/></g></g></svg>