<svg xmlns="http://www.w3.org/2000/svg" xmlns:xlink="http://www.w3.org/1999/xlink" viewBox="0 0 1909 1308"><defs><style>.cls-1{fill:none;}.cls-2{isolation:isolate;}.cls-3{fill:#f7f3ed;}.cls-4{clip-path:url(#clip-path);}.cls-5{fill:#fff;}.cls-6{clip-path:url(#clip-path-2);}.cls-7{clip-path:url(#clip-path-3);}.cls-8,.cls-9{fill:#efc6a3;}.cls-9{mix-blend-mode:multiply;}.cls-10,.cls-14,.cls-19,.cls-21,.cls-23{font-size:18px;}.cls-10,.cls-14,.cls-19,.cls-21,.cls-24{fill:#48637c;}.cls-10,.cls-14,.cls-19{font-family:CircularStd-Book, Circular Std;}.cls-10,.cls-17{letter-spacing:0.05em;}.cls-11{letter-spacing:-0.01em;}.cls-12,.cls-19{letter-spacing:0.04em;}.cls-13,.cls-14,.cls-21{letter-spacing:0.05em;}.cls-15{letter-spacing:-0.02em;}.cls-16{letter-spacing:0.03em;}.cls-18{letter-spacing:0.03em;}.cls-20{letter-spacing:0.05em;}.cls-21,.cls-23,.cls-25{font-family:CircularStd-Black, Circular Std;font-weight:800;}.cls-22{letter-spacing:0.05em;}.cls-23{fill:#f9f6f4;letter-spacing:0.01em;}.cls-25{font-size:30px;fill:#efcaaf;letter-spacing:0.02em;}.cls-26{letter-spacing:0.05em;}.cls-27{letter-spacing:0.05em;}.cls-28{letter-spacing:0.05em;}.cls-29{letter-spacing:0.05em;}.cls-30{letter-spacing:0.05em;}.cls-31{letter-spacing:0.03em;}.cls-32{letter-spacing:0.02em;}.cls-33{letter-spacing:0.07em;}</style><clipPath id="clip-path"><rect class="cls-1" x="1261.97" y="241.66" width="605.03" height="1021.38" rx="53.12"/></clipPath><clipPath id="clip-path-2"><rect class="cls-1" x="49.82" y="243.75" width="1184.99" height="623.83" rx="53.12"/></clipPath><clipPath id="clip-path-3"><rect class="cls-1" x="48" y="891.25" width="781.51" height="378.75" rx="53.12"/></clipPath></defs><title>casosdeexito-proveedores-1</title><g class="cls-2"><g id="Capa_2" data-name="Capa 2"><g id="Capa_1-2" data-name="Capa 1"><rect class="cls-3" x="9.42" width="1890.17" height="1308"/><g class="cls-4"><rect class="cls-5" x="1373.4" y="1234.58" width="460.46" height="68.56"/><rect class="cls-5" x="1292.28" y="862.1" width="158.82" height="50.27"/><rect class="cls-5" x="1287.71" y="288.52" width="193.1" height="52.56"/></g><g class="cls-6"><rect class="cls-5" x="64" y="824.39" width="1165.44" height="153.11"/></g><g class="cls-7"><rect class="cls-5" x="71.99" y="935.22" width="17.14" height="314.21"/><rect class="cls-5" x="776.97" y="935.22" width="17.14" height="314.21"/><rect class="cls-5" x="426.2" y="883.81" width="14.85" height="711.83" transform="translate(-806.1 1673.34) rotate(-90)"/><rect class="cls-5" x="426.2" y="582.16" width="14.85" height="711.83" transform="translate(-504.45 1371.7) rotate(-90)"/><rect class="cls-5" x="20.58" y="876.95" width="858.08" height="57.13"/><rect class="cls-5" x="20.58" y="929.51" width="78.84" height="366.77"/></g><path class="cls-8" d="M912-732h12.44A91.56,91.56,0,0,1,1016-640.44V964.44A91.56,91.56,0,0,1,924.44,1056H912a0,0,0,0,1,0,0V-732A0,0,0,0,1,912-732Z" transform="translate(1126 -802) rotate(90)"/><rect class="cls-9" x="419" y="148" width="168" height="49" rx="24.5"/><text class="cls-10" transform="translate(618.52 177.5)">MA<tspan class="cls-11" x="31.37" y="0">P</tspan><tspan class="cls-12" x="41.94" y="0">A</tspan><tspan class="cls-13" x="55.21" y="0">S</tspan></text><text class="cls-14" transform="translate(740.3 177.5)">VEN<tspan class="cls-15" x="38.72" y="0">T</tspan><tspan class="cls-12" x="49.1" y="0">A</tspan><tspan x="62.37" y="0">S</tspan></text><text class="cls-14" transform="translate(869.24 177.5)">N<tspan class="cls-16" x="14.63" y="0">O</tspan><tspan class="cls-17" x="29.52" y="0">TIFI</tspan><tspan class="cls-18" x="63.77" y="0">C</tspan><tspan class="cls-16" x="77.81" y="0">A</tspan><tspan x="90.81" y="0">CIONES</tspan></text><text class="cls-19" transform="translate(1088.29 177.71)">C<tspan class="cls-13" x="14.22" y="0">ONFIGU</tspan><tspan class="cls-20" x="88.58" y="0">R</tspan><tspan class="cls-16" x="100.53" y="0">A</tspan><tspan class="cls-13" x="113.53" y="0">CIÓN</tspan></text><text class="cls-21" transform="translate(1307.13 177.51)">CER<tspan class="cls-22" x="38.39" y="0">R</tspan><tspan x="50.58" y="0">AR SESIÓN</tspan></text><text class="cls-23" transform="translate(442.79 177.18)">D<tspan class="cls-22" x="13.27" y="0">A</tspan><tspan class="cls-13" x="27.36" y="0">SHB</tspan><tspan x="65.68" y="0">O</tspan><tspan class="cls-13" x="80.44" y="0">ARD</tspan></text><rect class="cls-24" y="10" width="1909" height="123"/><text class="cls-25" transform="translate(556.45 83.78)">C<tspan class="cls-26" x="23.64" y="0">ADENA DE </tspan><tspan class="cls-27" x="197.55" y="0">S</tspan><tspan class="cls-26" x="217.29" y="0">UMINI</tspan><tspan class="cls-28" x="316.47" y="0">S</tspan><tspan class="cls-29" x="336.21" y="0">T</tspan><tspan class="cls-30" x="356.7" y="0">R</tspan><tspan class="cls-26" x="376.89" y="0">O DE EM</tspan><tspan class="cls-30" x="511.88" y="0">P</tspan><tspan class="cls-29" x="531.63" y="0">RE</tspan><tspan class="cls-31" x="570.95" y="0">S</tspan><tspan class="cls-26" x="590.15" y="0">A </tspan><tspan class="cls-32" x="622.55" y="0">C</tspan><tspan class="cls-26" x="646.19" y="0">AF</tspan><tspan class="cls-33" x="688.25" y="0">E</tspan><tspan class="cls-26" x="707.78" y="0">TE</tspan><tspan class="cls-28" x="747.26" y="0">R</tspan><tspan class="cls-26" x="767.57" y="0">A</tspan></text></g></g></g></svg>