<svg xmlns="http://www.w3.org/2000/svg" viewBox="0 0 1913 1308"><defs><style>.cls-1{fill:#edf3f4;}.cls-2{fill:#66859e;}.cls-3{fill:#d8777e;}.cls-13,.cls-15,.cls-17,.cls-4,.cls-8{font-size:18px;}.cls-13,.cls-15,.cls-17,.cls-18,.cls-4,.cls-8{fill:#f7f3ed;}.cls-13,.cls-4,.cls-8{font-family:CircularStd-Book, Circular Std;}.cls-11,.cls-4{letter-spacing:0.05em;}.cls-5{letter-spacing:-0.01em;}.cls-13,.cls-6{letter-spacing:0.04em;}.cls-15,.cls-7,.cls-8{letter-spacing:0.05em;}.cls-9{letter-spacing:-0.02em;}.cls-10{letter-spacing:0.03em;}.cls-12{letter-spacing:0.03em;}.cls-14{letter-spacing:0.05em;}.cls-15,.cls-17,.cls-18{font-family:CircularStd-Black, Circular Std;font-weight:800;}.cls-16{letter-spacing:0.05em;}.cls-17{letter-spacing:0.01em;}.cls-18{font-size:30px;letter-spacing:0.05em;}.cls-19{letter-spacing:-0.01em;}.cls-20{letter-spacing:0.05em;}.cls-21{fill:#fff;}</style></defs><title>casosdeexito-retail</title><g id="Capa_2" data-name="Capa 2"><g id="Capa_1-2" data-name="Capa 1"><rect class="cls-1" x="12.42" width="1890.17" height="1308"/><rect class="cls-2" x="907.5" y="-747.5" width="92" height="1907" transform="translate(1159.5 -747.5) rotate(90)"/><path class="cls-3" d="M422,162H590a0,0,0,0,1,0,0v50.88A28.12,28.12,0,0,1,561.88,241H450.12A28.12,28.12,0,0,1,422,212.88V162A0,0,0,0,1,422,162Z"/><text class="cls-4" transform="translate(621.52 216.5)">MA<tspan class="cls-5" x="31.37" y="0">P</tspan><tspan class="cls-6" x="41.94" y="0">A</tspan><tspan class="cls-7" x="55.21" y="0">S</tspan></text><text class="cls-8" transform="translate(743.3 216.5)">VEN<tspan class="cls-9" x="38.72" y="0">T</tspan><tspan class="cls-6" x="49.1" y="0">A</tspan><tspan x="62.37" y="0">S</tspan></text><text class="cls-8" transform="translate(872.24 216.5)">N<tspan class="cls-10" x="14.63" y="0">O</tspan><tspan class="cls-11" x="29.52" y="0">TIFI</tspan><tspan class="cls-12" x="63.77" y="0">C</tspan><tspan class="cls-10" x="77.81" y="0">A</tspan><tspan x="90.81" y="0">CIONES</tspan></text><text class="cls-13" transform="translate(1091.29 216.71)">C<tspan class="cls-7" x="14.22" y="0">ONFIGU</tspan><tspan class="cls-14" x="88.58" y="0">R</tspan><tspan class="cls-10" x="100.53" y="0">A</tspan><tspan class="cls-7" x="113.53" y="0">CIÓN</tspan></text><text class="cls-15" transform="translate(1310.13 216.51)">CER<tspan class="cls-16" x="38.39" y="0">R</tspan><tspan x="50.58" y="0">AR SESIÓN</tspan></text><text class="cls-17" transform="translate(445.79 216.18)">D<tspan class="cls-16" x="13.27" y="0">A</tspan><tspan class="cls-7" x="27.36" y="0">SHB</tspan><tspan x="65.68" y="0">O</tspan><tspan class="cls-7" x="80.44" y="0">ARD</tspan></text><rect class="cls-3" x="2" y="2" width="1911" height="175"/><text class="cls-18" transform="translate(785.32 103.78)">ANÁLISIS DE VEN<tspan class="cls-19" x="277.56" y="0">T</tspan><tspan class="cls-20" x="296.1" y="0">A</tspan><tspan x="319.59" y="0">S</tspan></text><rect class="cls-21" x="78" y="307" width="469" height="455.39" rx="77"/><rect class="cls-21" x="576" y="307" width="469" height="455.39" rx="77"/><rect class="cls-21" x="78" y="796.61" width="707.95" height="455.39" rx="77"/><rect class="cls-21" x="827.54" y="796.61" width="706.94" height="455.39" rx="77"/><rect class="cls-21" x="1073" y="307" width="465.28" height="455.39" rx="77"/><rect class="cls-21" x="1567.31" y="307" width="268.1" height="942.15" rx="77"/></g></g></svg>