<svg xmlns="http://www.w3.org/2000/svg" viewBox="0 0 121.1 130.88"><defs><style>.cls-1{fill:#80e1d2;}.cls-2{fill:#a9d4e3;}.cls-3{fill:#d5b046;}.cls-4{fill:#ecf7f4;}.cls-5{fill:#12424f;}</style></defs><title>casosdeexito-icon-retail</title><g id="Capa_2" data-name="Capa 2"><g id="Capa_1-2" data-name="Capa 1"><path class="cls-1" d="M16.58,1.92h88V21.46H16.58Z"/><path class="cls-1" d="M16.57,1.92H29.36V21.46H16.57Z"/><path class="cls-1" d="M16.58,41h88v78.18H16.58Z"/><path class="cls-1" d="M16.57,41h7.67v78.18H16.57Z"/><path class="cls-2" d="M16.58,41H1.92L16.58,21.46h11Z"/><path class="cls-2" d="M45.89,41H31.23l7.33-19.55h11Z"/><path class="cls-2" d="M75.21,41H60.55V21.46h11Z"/><path class="cls-2" d="M104.53,41H89.87L82.54,21.46h11Z"/><path class="cls-2" d="M9.25,55.67a7.33,7.33,0,0,1-7.33-7.33V41H16.58v7.33A7.34,7.34,0,0,1,9.25,55.67Z"/><path class="cls-2" d="M38.56,55.67a7.34,7.34,0,0,1-7.33-7.33V41H45.89v7.33A7.33,7.33,0,0,1,38.56,55.67Z"/><path class="cls-2" d="M67.88,55.67a7.33,7.33,0,0,1-7.33-7.33V41H75.21v7.33A7.33,7.33,0,0,1,67.88,55.67Z"/><path class="cls-2" d="M97.2,55.67a7.33,7.33,0,0,1-7.33-7.33V41h14.66v7.33A7.34,7.34,0,0,1,97.2,55.67Z"/><path class="cls-3" d="M31.23,41H16.58l11-19.55h11Z"/><path class="cls-3" d="M60.55,41H45.89l3.67-19.55h11Z"/><path class="cls-3" d="M89.87,41H75.21L71.54,21.46h11Z"/><path class="cls-3" d="M119.18,41H104.53l-11-19.55h11Z"/><path class="cls-3" d="M23.9,55.67a7.33,7.33,0,0,1-7.32-7.33V41H31.23v7.33A7.33,7.33,0,0,1,23.9,55.67Z"/><path class="cls-3" d="M82.54,55.67a7.33,7.33,0,0,1-7.33-7.33V41H89.87v7.33A7.33,7.33,0,0,1,82.54,55.67Z"/><path class="cls-3" d="M53.22,55.67a7.33,7.33,0,0,1-7.33-7.33V41H60.55v7.33A7.33,7.33,0,0,1,53.22,55.67Z"/><path class="cls-3" d="M111.86,55.67a7.33,7.33,0,0,1-7.33-7.33V41h14.65v7.33A7.33,7.33,0,0,1,111.86,55.67Z"/><path class="cls-4" d="M26.35,65.89H55.66v53.3H26.35Z"/><path class="cls-4" d="M26.35,65.89H34v53.3H26.35Z"/><path class="cls-4" d="M65.44,65.89H94.75V90.21H65.44Z"/><path class="cls-4" d="M65.44,65.89H73.1V90.21H65.44Z"/><path class="cls-5" d="M121.09,40.87a1.83,1.83,0,0,0-.37-1l-14.28-19V1.92A1.91,1.91,0,0,0,104.53,0H84.88a1.92,1.92,0,0,0,0,3.83h17.73V19.54H18.49V3.83h58a1.92,1.92,0,1,0,0-3.83h-60a1.92,1.92,0,0,0-1.91,1.92V20.83L.38,39.86A2,2,0,0,0,0,41v7.33c0,7.22,8.62,11.87,14.66,7.49v61.44H6.8a1.91,1.91,0,0,0-1.91,1.92V129a1.91,1.91,0,0,0,1.91,1.92H114.3a1.92,1.92,0,0,0,1.92-1.92v-9.77a1.92,1.92,0,0,0-1.92-1.92h-7.86V94.05a1.92,1.92,0,1,0-3.83,0v23.22h-45V65.89A1.92,1.92,0,0,0,55.67,64H40.75a1.92,1.92,0,1,0,0,3.84h13v49.46H28.26V67.81h4.13a1.92,1.92,0,0,0,0-3.84h-6a1.92,1.92,0,0,0-1.92,1.92v51.38H18.49V55.82A9.48,9.48,0,0,0,31.23,54a9.32,9.32,0,0,0,14.66,0,9.32,9.32,0,0,0,14.66,0,9.32,9.32,0,0,0,14.66,0,9.32,9.32,0,0,0,14.66,0,9.48,9.48,0,0,0,12.74,1.86V85.69a1.92,1.92,0,1,0,3.83,0V55.83c6,4.33,14.66-.27,14.66-7.49V41a.61.61,0,0,0,0-.14ZM112.38,127H8.72V121.1H112.38ZM76.8,39.09l-3-15.71h7.36L87.1,39.09Zm-42.8,0,5.89-15.71h7.36l-3,15.71Zm14.2,0,2.95-15.71h7.48V39.09Zm14.27,0V23.38H70l3,15.71ZM35.8,23.38,29.91,39.09H19.85l8.84-15.71ZM91.2,39.09,85.31,23.38h7.1l8.84,15.71Zm14.45,0L96.81,23.38h6.76l11.78,15.71ZM17.53,23.38h6.76L15.45,39.09H5.75ZM9.25,53.75a5.42,5.42,0,0,1-5.42-5.41V42.92H14.66v5.44A5.43,5.43,0,0,1,9.25,53.75Zm20.07-5.41a5.42,5.42,0,0,1-10.83,0V42.92H29.32Zm14.66,0a5.42,5.42,0,0,1-10.83,0V42.92H44Zm14.65,0a5.41,5.41,0,0,1-10.82,0V42.92H58.63Zm9.25,5.41a5.42,5.42,0,0,1-5.41-5.41V42.92H73.29v5.42h0A5.42,5.42,0,0,1,67.88,53.75ZM88,48.34a5.41,5.41,0,1,1-10.82,0h0V42.92H88Zm14.66,0a5.42,5.42,0,0,1-10.83,0V42.92h10.83Zm14.66,0a5.42,5.42,0,0,1-10.83,0V42.92h10.83Z"/><path class="cls-5" d="M65.44,64a1.92,1.92,0,0,0-1.92,1.92V99.64a1.92,1.92,0,0,0,1.92,1.92H94.75a1.92,1.92,0,0,0,1.92-1.92V65.89A1.92,1.92,0,0,0,94.75,64Zm1.91,3.84H92.84V88.29H67.35ZM92.84,97.72H67.35V92.13H92.84Z"/><path class="cls-5" d="M34.2,94.75v9.78a1.92,1.92,0,0,0,3.84,0V94.75a1.92,1.92,0,0,0-3.84,0Z"/></g></g></svg>