<svg xmlns="http://www.w3.org/2000/svg" viewBox="0 0 1890.17 1308"><defs><style>.cls-1{fill:#edf3f4;}.cls-2{fill:#92c4df;}.cls-3{fill:#fff;}.cls-4{fill:#c9dad2;}.cls-5{font-size:30px;fill:#2e5d87;font-family:CircularStd-Black, Circular Std;font-weight:800;letter-spacing:0.05em;}.cls-6{letter-spacing:0.05em;}.cls-7{letter-spacing:0.01em;}.cls-8{letter-spacing:-0.01em;}.cls-9{letter-spacing:0.05em;}</style></defs><title>casosdeexito-inventarios</title><g id="Capa_2" data-name="Capa 2"><g id="Capa_1-2" data-name="Capa 1"><rect class="cls-1" width="1890.17" height="1308"/><path class="cls-2" d="M.58,3h1886a0,0,0,0,1,0,0V48.05A96.95,96.95,0,0,1,1789.63,145H97.53A96.95,96.95,0,0,1,.58,48.05V3a0,0,0,0,1,0,0Z"/><rect class="cls-3" x="953.52" y="175.6" width="887.06" height="545.23" rx="54.72"/><rect class="cls-3" x="41.58" y="744.33" width="1802" height="514.07" rx="54.72"/><rect class="cls-3" x="41.58" y="175.91" width="887.06" height="545.23" rx="54.72"/><rect class="cls-4" x="1015.58" y="58" width="219" height="40"/><text class="cls-5" transform="translate(661.74 88.34)">ADMINI<tspan class="cls-6" x="123.36" y="0">S</tspan><tspan x="143.1" y="0">T</tspan><tspan class="cls-6" x="163.59" y="0">R</tspan><tspan class="cls-7" x="183.9" y="0">A</tspan><tspan x="206.25" y="0" xml:space="preserve">CIÓN DE  INVEN</tspan><tspan class="cls-8" x="462.63" y="0">T</tspan><tspan class="cls-9" x="481.17" y="0">ARIO</tspan></text></g></g></svg>