<svg xmlns="http://www.w3.org/2000/svg" viewBox="0 0 34.89 34.89"><defs><style>.cls-1{fill:#0b3470;}</style></defs><title>centralizar2</title><g id="Capa_2" data-name="Capa 2"><g id="Capa_1-2" data-name="Capa 1"><path class="cls-1" d="M23.5,17.7a.51.51,0,0,0,.51-.51V13.5a.51.51,0,0,0-.33-.48L17.6,10.77a.55.55,0,0,0-.36,0l-6,2.3a.5.5,0,0,0-.33.47v1.65a.51.51,0,0,0,.51.51.53.53,0,0,0,.51-.52v-.9l5,1.87,0,6.76-5-1.88V17.57a.51.51,0,1,0-1,0v3.81a.5.5,0,0,0,.33.48l6.07,2.25h0a.56.56,0,0,0,.36,0l6.05-2.29a.52.52,0,0,0,.33-.48V19.57a.51.51,0,1,0-1,0V21l-5,1.9,0-6.75,5-1.91v3A.51.51,0,0,0,23.5,17.7Zm-6.06-2.45-4.61-1.71,4.6-1.74L22,13.51Z"/><path class="cls-1" d="M16.89,5.1V8.77a.52.52,0,0,0,1,0l0-3.67a2.58,2.58,0,1,0-1,0ZM17.39,1a1.56,1.56,0,1,1-1.55,1.56A1.57,1.57,0,0,1,17.39,1Z"/><path class="cls-1" d="M27.3,23.7a3.59,3.59,0,0,0-2.11.71L24,23.19a.52.52,0,0,0-.72,0,.51.51,0,0,0,0,.72l1.23,1.22A3.53,3.53,0,1,0,27.3,23.7Zm0,6.06a2.52,2.52,0,1,1,2.51-2.53A2.51,2.51,0,0,1,27.32,29.76Z"/><path class="cls-1" d="M7.59,11.19a3.53,3.53,0,0,0,2.11-.71l1.23,1.22a.51.51,0,0,0,.36.15.57.57,0,0,0,.36-.16.51.51,0,0,0,0-.72L10.42,9.75a3.53,3.53,0,1,0-2.83,1.44Zm0-6.06A2.52,2.52,0,1,1,5.06,7.66,2.53,2.53,0,0,1,7.57,5.13Z"/><path class="cls-1" d="M18,29.79V26.12a.51.51,0,0,0-.52-.51.5.5,0,0,0-.5.51v3.67a2.58,2.58,0,1,0,1,0Zm-.5,4.08a1.56,1.56,0,1,1,1.55-1.56A1.55,1.55,0,0,1,17.5,33.87Z"/><path class="cls-1" d="M32.31,14.82a2.57,2.57,0,0,0-2.52,2.07H26.12a.52.52,0,0,0,0,1l3.67,0a2.58,2.58,0,1,0,2.52-3.09Zm0,4.13a1.56,1.56,0,1,1,1.55-1.56A1.56,1.56,0,0,1,32.32,19Z"/><path class="cls-1" d="M5.1,18H8.77a.51.51,0,0,0,.51-.52.5.5,0,0,0-.51-.5H5.1a2.58,2.58,0,1,0,0,1ZM2.58,19.05a1.56,1.56,0,1,1,1.55-1.56A1.55,1.55,0,0,1,2.58,19.05Z"/><path class="cls-1" d="M23.56,11.8a.51.51,0,0,0,.36-.15l1.22-1.23A3.53,3.53,0,1,0,23.7,7.59a3.59,3.59,0,0,0,.71,2.11l-1.22,1.23a.52.52,0,0,0,0,.72.51.51,0,0,0,.36.15Zm3.67-6.74a2.52,2.52,0,1,1-2.5,2.53A2.52,2.52,0,0,1,27.23,5.06Z"/><path class="cls-1" d="M11,23.24,9.75,24.47a3.52,3.52,0,1,0,.73.72L11.7,24a.51.51,0,0,0-.73-.72ZM7.66,29.83a2.52,2.52,0,1,1,2.51-2.53A2.52,2.52,0,0,1,7.66,29.83Z"/></g></g></svg>