<svg xmlns="http://www.w3.org/2000/svg" viewBox="0 0 35.29 35.67"><defs><style>.cls-1{fill:#0b3470;}</style></defs><title>conocerydefinir1</title><g id="Capa_2" data-name="Capa 2"><g id="Capa_1-2" data-name="Capa 1"><path class="cls-1" d="M30.59,17.19l0,13-4,0a.63.63,0,0,0-.66.59V34.4l-24.55.09L1.33,1.29l29.2-.1,0,7.7h1.33l0-8.3A.64.64,0,0,0,31.19,0L.66.11A.63.63,0,0,0,0,.7L.12,35.08a.62.62,0,0,0,.67.59l25.88-.09a.7.7,0,0,0,.47-.17l4.63-4.17a.52.52,0,0,0,.13-.17.14.14,0,0,0,0-.06.83.83,0,0,0,0-.15v0l0-13.63ZM27.33,33.56V31.43H29.7Z"/><path class="cls-1" d="M34.68,9.94a2.32,2.32,0,0,0-2.93,0L20.17,20.37a.57.57,0,0,0-.19.42v1.78a.63.63,0,0,0,.66.59h2a.66.66,0,0,0,.47-.18L34.69,12.56A1.72,1.72,0,0,0,34.68,9.94ZM22.37,22H21.31V21l8.27-7.44,1.06.94Z"/><path class="cls-1" d="M6,7.8a2.52,2.52,0,0,0-2.65,2.38A2.53,2.53,0,0,0,6,12.54a2.52,2.52,0,0,0,2.64-2.38A2.52,2.52,0,0,0,6,7.8Zm0,3.55a1.25,1.25,0,0,1-1.33-1.18A1.26,1.26,0,0,1,6,9a1.26,1.26,0,0,1,1.33,1.18A1.25,1.25,0,0,1,6,11.35Z"/><polygon class="cls-1" points="18.4 2.84 17.45 2 15.94 3.37 14.41 2.01 13.48 2.85 15 4.21 13.48 5.57 14.43 6.41 15.94 5.04 17.47 6.4 18.41 5.55 16.88 4.2 18.4 2.84"/><path class="cls-1" d="M24.58,7.14a2.52,2.52,0,0,0-2.65,2.38,2.53,2.53,0,0,0,2.67,2.36A2.52,2.52,0,0,0,27.24,9.5,2.51,2.51,0,0,0,24.58,7.14Zm0,3.55a1.25,1.25,0,0,1-1.33-1.18,1.33,1.33,0,0,1,2.65,0A1.25,1.25,0,0,1,24.59,10.69Z"/><path class="cls-1" d="M8.05,24.39A2.52,2.52,0,0,0,5.4,26.77a2.53,2.53,0,0,0,2.67,2.36,2.52,2.52,0,0,0,2.64-2.38A2.52,2.52,0,0,0,8.05,24.39Zm0,3.55a1.19,1.19,0,1,1,0-2.37,1.19,1.19,0,1,1,0,2.37Z"/><polygon class="cls-1" points="11.14 16.5 10.2 15.66 8.69 17.02 7.16 15.67 6.22 16.51 7.75 17.87 6.23 19.23 7.17 20.07 8.69 18.7 10.22 20.05 11.15 19.21 9.63 17.86 11.14 16.5"/><polygon class="cls-1" points="27.77 24.73 26.82 23.9 25.31 25.27 23.78 23.91 22.84 24.75 24.37 26.11 22.86 27.47 23.8 28.31 25.31 26.94 26.84 28.3 27.77 27.45 26.25 26.1 27.77 24.73"/><path class="cls-1" d="M12.15,11.92h1.13V10.73H10.62a.63.63,0,0,0-.66.6v2.37h1.32v-.83A8,8,0,0,1,10.84,24l1,.79A9,9,0,0,0,12.15,11.92Z"/><path class="cls-1" d="M16,27.32a2.38,2.38,0,1,0,0,4.74,2.52,2.52,0,0,0,2.65-2.38A2.53,2.53,0,0,0,16,27.32Zm0,3.56A1.28,1.28,0,0,1,14.7,29.7,1.34,1.34,0,1,1,16,30.88Z"/><path class="cls-1" d="M20.41,8.51l-2-1.77-.94.84.87.76L10,8.37V9.56l8.35,0-.86.77.95.83,2-1.78A.55.55,0,0,0,20.41,8.51Z"/><path class="cls-1" d="M21.94,11.89H19.29v1.18h1.08a15.72,15.72,0,0,0-5,11.47v1.59h1.32V24.54a14.59,14.59,0,0,1,4.6-10.6v.91h1.33V12.48A.63.63,0,0,0,21.94,11.89Z"/></g></g></svg>