<svg xmlns="http://www.w3.org/2000/svg" xmlns:xlink="http://www.w3.org/1999/xlink" viewBox="0 0 211.1 149.39"><defs><style>.cls-1{opacity:0.2;fill:url(#Degradado_sin_nombre_8);}.cls-2{fill:none;stroke-miterlimit:10;stroke-width:2px;stroke:url(#Degradado_sin_nombre_40);}.cls-3{fill:url(#Degradado_sin_nombre_40-2);}</style><linearGradient id="Degradado_sin_nombre_8" x1="105.83" y1="242.92" x2="105.15" y2="9.51" gradientUnits="userSpaceOnUse"><stop offset="0.51" stop-color="#efeedf" stop-opacity="0"/><stop offset="0.58" stop-color="#f1f0e3" stop-opacity="0.13"/><stop offset="0.75" stop-color="#f6f6ee" stop-opacity="0.47"/><stop offset="1" stop-color="#fff"/></linearGradient><linearGradient id="Degradado_sin_nombre_40" x1="35.89" y1="8.18" x2="179.11" y2="8.18" gradientUnits="userSpaceOnUse"><stop offset="0" stop-color="#efeedf" stop-opacity="0"/><stop offset="0.1" stop-color="#f0efe1" stop-opacity="0.06"/><stop offset="0.29" stop-color="#f3f2e6" stop-opacity="0.23"/><stop offset="0.56" stop-color="#f7f7ef" stop-opacity="0.51"/><stop offset="0.9" stop-color="#fdfdfb" stop-opacity="0.88"/><stop offset="1" stop-color="#fff"/></linearGradient><linearGradient id="Degradado_sin_nombre_40-2" x1="35.89" y1="8.18" x2="179.11" y2="8.18" xlink:href="#Degradado_sin_nombre_40"/></defs><g id="Capa_2" data-name="Capa 2"><g id="Guia"><path class="cls-1" d="M0,149.39,53.83,6.27a8,8,0,0,1,15.11.31l42.89,129.84a8,8,0,0,0,14.63,1.34l42.65-77.82a8,8,0,0,1,14.62,1.32l27.37,82.1"/><line class="cls-2" x1="35.89" y1="8.18" x2="176.94" y2="8.18"/><polygon class="cls-3" points="170.32 16.36 168.95 14.89 176.18 8.18 168.95 1.47 170.32 0 179.11 8.18 170.32 16.36"/></g></g></svg>