<svg xmlns="http://www.w3.org/2000/svg" viewBox="0 0 84.59 18.63"><defs><style>.cls-1{fill:#003662;}.cls-2{fill:#fff;}</style></defs><title>creditsuisse</title><g id="Capa_2" data-name="Capa 2"><g id="Capa_1-2" data-name="Capa 1"><path class="cls-1" d="M77.35,5.56l-.12-.51a11.17,11.17,0,0,0-1.4-3.11A13,13,0,0,0,74.43.11.16.16,0,0,1,74.38,0l.16.11A36,36,0,0,1,78.6,3.35a37.5,37.5,0,0,1,4.21,4.52,26.18,26.18,0,0,1,1.68,2.38l.1.17c-.44-.21-.86-.42-1.28-.61A7.51,7.51,0,0,0,82,9.33c.8.77,1.58,1.53,2.34,2.38l-.19-.05A19.83,19.83,0,0,0,81,10.9a17.26,17.26,0,0,0-3.52-.2,16.09,16.09,0,0,0-3.65.6l-.1,0c0-.1-.06-.19-.08-.29a26.47,26.47,0,0,0-2.37-6.34,16.86,16.86,0,0,0-2.14-3.2A8.09,8.09,0,0,0,67.86.25a.09.09,0,0,1,0-.06L68,.26a50.43,50.43,0,0,1,8.29,4.6c.3.2.6.42.91.62l.16.08c0,.12,0,.25,0,.38a5.36,5.36,0,0,1-.29,2.66c0,.05,0,.09,0,.15.55,0,1.1-.05,1.65,0a11.18,11.18,0,0,1,1.62.19c.53.1,1.06.23,1.61.36l-.09-.1-.48-.43c-1.24-1.09-2.53-2.1-3.87-3.06Z"/><path class="cls-1" d="M8.31,12.11l-.21.06a3.18,3.18,0,0,0-.16-.32A3,3,0,0,0,6.66,10.5a3.2,3.2,0,0,0-1.35-.36,4,4,0,0,0-1.68.26,3.16,3.16,0,0,0-1.86,1.89,4.43,4.43,0,0,0,.39,4.06,3.19,3.19,0,0,0,2.35,1.52A4.06,4.06,0,0,0,6.1,17.8a2.87,2.87,0,0,0,1.37-.86,4.6,4.6,0,0,0,.59-.87l.1-.21.22,0,0,.41c0,.42-.07.84-.1,1.26a.23.23,0,0,1-.14.21,6,6,0,0,1-1.88.71,6.9,6.9,0,0,1-1.51.14,5,5,0,0,1-3.54-1.54A4.15,4.15,0,0,1,0,14.59a4.44,4.44,0,0,1,1.36-3.8A4.51,4.51,0,0,1,3.61,9.6,6.12,6.12,0,0,1,7,9.75c.37.12.73.26,1.09.4a.17.17,0,0,1,.14.16c0,.57.09,1.14.14,1.71C8.32,12,8.31,12.07,8.31,12.11Z"/><path class="cls-1" d="M22,18.5v-.24q0-3,0-6.05a2.1,2.1,0,0,0-.05-.43.78.78,0,0,0-.12-.22.19.19,0,0,1-.05-.19h.1c.93,0,1.85,0,2.78,0a4,4,0,0,1,2.16.68,3.33,3.33,0,0,1,1.38,2.17A3.53,3.53,0,0,1,26.4,18a4.51,4.51,0,0,1-2,.52c-.75,0-1.5,0-2.25,0Zm1.22-6.45c0,.29,0,5.66,0,5.78l0,0a7.79,7.79,0,0,0,1.6-.06,2.4,2.4,0,0,0,1.91-1.65,3.79,3.79,0,0,0,.13-2,2.37,2.37,0,0,0-2-2A7.29,7.29,0,0,0,23.29,12Z"/><path class="cls-1" d="M40,17.84c0-.62,0-1.23-.07-1.86l.23-.05c0,.07,0,.13.07.2a3.11,3.11,0,0,0,.51,1,2.19,2.19,0,0,0,2.2.75,1.55,1.55,0,0,0,1.16-1.3A1.49,1.49,0,0,0,43.5,15a6.14,6.14,0,0,0-.89-.53c-.45-.23-.91-.47-1.35-.72a2.58,2.58,0,0,1-.87-.77A1.91,1.91,0,0,1,40,12a2.24,2.24,0,0,1,1.43-2.28,3.41,3.41,0,0,1,1.92-.23,3.52,3.52,0,0,1,1.22.41.28.28,0,0,1,.17.28c0,.37,0,.75.06,1.13v.3l-.22,0a.88.88,0,0,1,0-.15,2,2,0,0,0-2.26-1.34,1.31,1.31,0,0,0-1,1.53.36.36,0,0,1,0,.1,1.21,1.21,0,0,0,.28.46,2.79,2.79,0,0,0,.61.46l1.28.68a6.66,6.66,0,0,1,1,.63,2.21,2.21,0,0,1,.91,1.36,2.54,2.54,0,0,1-.92,2.57,3.14,3.14,0,0,1-2.34.68A4.93,4.93,0,0,1,40,17.84Z"/><path class="cls-1" d="M9.8,18.52v-6.2a2.72,2.72,0,0,0-.05-.49,1.39,1.39,0,0,0-.12-.28,1.47,1.47,0,0,1-.07-.17l.14,0h2.15a3.15,3.15,0,0,1,1.25.27,1.72,1.72,0,0,1,1,1.08,1.7,1.7,0,0,1-.56,1.8,1.9,1.9,0,0,1-.54.34l-.14.05.05.06a2.17,2.17,0,0,1,.67.71c.36.57.72,1.15,1.1,1.72a3.27,3.27,0,0,0,.35.48,1.35,1.35,0,0,0,.76.47l.12.05,0,0-.4.1a3.08,3.08,0,0,1-.91,0,1.37,1.37,0,0,1-1-.58c-.14-.19-.26-.39-.39-.59l-.93-1.54a1.88,1.88,0,0,0-.16-.23.81.81,0,0,0-.6-.34H11v3.25C10.59,18.53,10.22,18.51,9.8,18.52ZM11,14.6a2.47,2.47,0,0,0,1-.07,1.65,1.65,0,0,0,.42-.21A1.31,1.31,0,0,0,12.88,13a1.13,1.13,0,0,0-1-1,6,6,0,0,0-.74,0A.28.28,0,0,0,11,12Z"/><path class="cls-1" d="M51,11.36H52c0,.06,0,.11,0,.17,0,1.54,0,3.08,0,4.61a3.54,3.54,0,0,1-.09.86,2,2,0,0,1-1.51,1.49,3.57,3.57,0,0,1-1.38.09,4.25,4.25,0,0,1-.71-.14A1.93,1.93,0,0,1,47,17.18a3.75,3.75,0,0,1-.18-1.33v-3.5c0-.11,0-.22,0-.32a.76.76,0,0,0-.21-.5.35.35,0,0,1-.08-.16H48V16a3.56,3.56,0,0,0,.1.92,1.23,1.23,0,0,0,1.14,1,2.51,2.51,0,0,0,.82,0,1.39,1.39,0,0,0,1.17-1.24,3.71,3.71,0,0,0,0-.47v-4a2.43,2.43,0,0,0,0-.38.94.94,0,0,0-.14-.26C51,11.48,51,11.44,51,11.36Z"/><path class="cls-1" d="M67.67,11.37h4l0,1.22h-.15a.8.8,0,0,0-.81-.59c-.52,0-1,0-1.57,0H69.1a20.51,20.51,0,0,0,0,2.23h2v.62h-2c0,.14,0,2.69,0,2.93l.12,0a10,10,0,0,0,1.81,0,1.15,1.15,0,0,0,.94-.54L72,17.2l.16.05c-.1.43-.19.84-.28,1.24-.19,0-3.86,0-4,0v-6.2a3,3,0,0,0,0-.42.52.52,0,0,0-.16-.31C67.65,11.5,67.65,11.5,67.67,11.37Z"/><path class="cls-1" d="M17.71,14.23h2v.63h-2c0,.13-.06,2.62,0,2.93l.12,0a11.18,11.18,0,0,0,1.83,0,1.1,1.1,0,0,0,.93-.52c0-.09.11-.11.21,0-.09.4-.18.81-.28,1.23h-4V12.29c0-.14,0-.27,0-.41a.65.65,0,0,0-.15-.35.53.53,0,0,1-.08-.17h4v1.22c-.05,0-.1,0-.14-.05a1,1,0,0,0-.9-.53H17.71Z"/><path class="cls-1" d="M66.07,13h-.19l-.06-.16a1.48,1.48,0,0,0-1.33-1,1.39,1.39,0,0,0-.64.1,1,1,0,0,0-.54,1.12.81.81,0,0,0,.31.44,4.93,4.93,0,0,0,.54.34c.37.21.77.4,1.15.62a4.21,4.21,0,0,1,.52.34,2,2,0,0,1,.37,2.7,2.37,2.37,0,0,1-1.66,1,3.18,3.18,0,0,1-1.89-.37L62.3,18a.14.14,0,0,1-.09-.14c0-.46,0-.92-.05-1.4l.22,0c0,.09,0,.16.08.23a1.85,1.85,0,0,0,.8,1.06,1.66,1.66,0,0,0,1.44.13,1.09,1.09,0,0,0,.71-.84,1.07,1.07,0,0,0-.44-1.2c-.19-.12-.39-.24-.6-.35s-.66-.33-1-.52a3.36,3.36,0,0,1-.6-.45,1.78,1.78,0,0,1,0-2.52l.16-.15a2.39,2.39,0,0,1,1.31-.49,2.84,2.84,0,0,1,1.57.3.46.46,0,0,1,.15.09.2.2,0,0,1,.08.12c0,.4,0,.8,0,1.2Z"/><path class="cls-1" d="M60.71,13H60.5l-.06-.15a1.53,1.53,0,0,0-1.9-.93,1,1,0,0,0-.61,1.14.81.81,0,0,0,.34.47,5.84,5.84,0,0,0,.53.33c.38.2.75.39,1.12.6a4.43,4.43,0,0,1,.46.29,1.89,1.89,0,0,1,.8,1.66,1.92,1.92,0,0,1-.71,1.48,2.46,2.46,0,0,1-1.94.6,3.65,3.65,0,0,1-1.6-.56.15.15,0,0,1-.1-.12c0-.47,0-.94,0-1.42l.22,0c0,.08,0,.15.07.21a1.92,1.92,0,0,0,.53.86,1.62,1.62,0,0,0,1.74.34,1.09,1.09,0,0,0,.72-1.06,1,1,0,0,0-.43-.93,4.72,4.72,0,0,0-.61-.37l-.9-.47a5.14,5.14,0,0,1-.54-.37,1.79,1.79,0,0,1-.34-2.51,2.12,2.12,0,0,1,.53-.46,2.56,2.56,0,0,1,1.14-.34,2.86,2.86,0,0,1,1.57.33.3.3,0,0,1,.19.3c0,.32,0,.65,0,1Z"/><path class="cls-1" d="M35.3,18.51H34.11V12L34,12H32.89a.87.87,0,0,0-.81.49.13.13,0,0,1-.17.07V11.37h5.57v1.1c-.08,0-.13,0-.18-.06a.62.62,0,0,0-.56-.37c-.46,0-.93,0-1.39,0l-.05,0Z"/><path class="cls-1" d="M53.52,11.37h1.41c0,.12,0,6.94,0,7.13H53.77c0-.06,0-.13,0-.19V12.07a.71.71,0,0,0-.19-.56A.72.72,0,0,1,53.52,11.37Z"/><path class="cls-1" d="M30.8,11.37v7.14H29.63V12.28c0-.12,0-.25,0-.37a.57.57,0,0,0-.16-.36c-.05-.05-.05-.05,0-.18Z"/><path class="cls-2" d="M77.35,5.56l.13.11c1.33,1,2.63,2,3.86,3.06l.48.43.09.1L80.3,8.89a10.87,10.87,0,0,0-1.61-.18c-.55,0-1.11,0-1.66,0l0-.15a5.36,5.36,0,0,0,.29-2.66c0-.13,0-.26,0-.38Z"/></g></g></svg>