<svg xmlns="http://www.w3.org/2000/svg" xmlns:xlink="http://www.w3.org/1999/xlink" viewBox="0 0 2495.15 487.15"><defs><style>.cls-1{isolation:isolate;}.cls-2,.cls-3,.cls-4,.cls-5,.cls-6{fill:none;stroke-miterlimit:10;}.cls-2,.cls-3,.cls-4,.cls-5{stroke-linecap:round;mix-blend-mode:multiply;}.cls-2,.cls-3,.cls-4{stroke-width:50px;}.cls-2{stroke:url(#Degradado_sin_nombre_8);}.cls-3{stroke:url(#Degradado_sin_nombre_8-2);}.cls-4{stroke:url(#Degradado_sin_nombre_8-3);}.cls-5{stroke:#5471e8;stroke-width:50.42px;}.cls-6{stroke:#f2f2f2;stroke-width:8px;}</style><linearGradient id="Degradado_sin_nombre_8" x1="2.72" y1="25" x2="337.51" y2="25" gradientUnits="userSpaceOnUse"><stop offset="0" stop-color="#31dcc7"/><stop offset="1" stop-color="#31dc9e"/></linearGradient><linearGradient id="Degradado_sin_nombre_8-2" x1="6487.48" y1="-4702.27" x2="6581" y2="-4702.27" xlink:href="#Degradado_sin_nombre_8"/><linearGradient id="Degradado_sin_nombre_8-3" x1="185.36" y1="395.44" x2="381.21" y2="395.44" xlink:href="#Degradado_sin_nombre_8"/></defs><title>cruzadalarga</title><g class="cls-1"><g id="Capa_2" data-name="Capa 2"><g id="Capa_1-2" data-name="Capa 1"><line class="cls-2" x1="27.72" y1="25" x2="312.51" y2="25"/><path class="cls-3" d="M6512.48-4857c24,0,43.52,15.58,43.52,34.8v274.57" transform="translate(-6202.06 4883.12)"/><path class="cls-4" d="M277.06,328.74h79.15a0,0,0,0,1,0,0v66.7a66.7,66.7,0,0,1-66.7,66.7H277.06a66.7,66.7,0,0,1-66.7-66.7v0A66.7,66.7,0,0,1,277.06,328.74Z"/><line class="cls-5" x1="352.94" y1="332.86" x2="2469.94" y2="334.12"/><circle class="cls-6" cx="312.53" cy="25.32" r="20.52"/><circle class="cls-6" cx="24.52" cy="25.32" r="20.52"/></g></g></g></svg>