<svg xmlns="http://www.w3.org/2000/svg" viewBox="0 0 63.45 63.45"><defs><style>.cls-1{fill:#d5b046;}.cls-2{fill:#ddf2ec;}.cls-3{fill:#78e1d3;}.cls-4{fill:#c9e5dc;}.cls-5{fill:#b8994b;}.cls-6{fill:#2ecaeb;}.cls-7{fill:#1f94d0;}.cls-8{fill:#12424f;}</style></defs><title>dataviz</title><g id="Capa_2" data-name="Capa 2"><g id="Capa_1-2" data-name="Capa 1"><circle class="cls-1" cx="31.86" cy="30.11" r="29.05"/><circle class="cls-2" cx="31.71" cy="29.69" r="25.12"/><path class="cls-3" d="M.89,48.17S9.83,33.83,31.43,33.46,62.16,48,62.16,48,53.78,62.51,32.36,62.7.89,48.17.89,48.17Z"/><circle class="cls-4" cx="31.52" cy="47.8" r="14.26"/><circle class="cls-5" cx="31.52" cy="47.8" r="10.34"/><polygon class="cls-1" points="43.07 19.79 45.06 24.55 48.37 20.85 43.07 19.79"/><polygon class="cls-6" points="33.42 25.2 33.54 33.16 39.63 34.45 39.52 23.32 33.42 25.2"/><polygon class="cls-6" points="21.49 25.01 21.36 34.67 27.31 33.8 28.05 27.24 23.22 23.16 21.49 25.01"/><polygon class="cls-7" points="15.2 27.78 15.2 36.71 21.36 34.67 21.37 24.38 15.2 27.78"/><polygon class="cls-7" points="27.86 27.78 27.7 33.3 33.7 33.63 33.54 26 27.86 27.78"/><path class="cls-8" d="M63.23,47.47a38.81,38.81,0,0,0-4.72-5A29.39,29.39,0,0,0,61.4,29.68a29.68,29.68,0,1,0-59.35,0A29.39,29.39,0,0,0,4.94,42.45a38.81,38.81,0,0,0-4.72,5,1,1,0,0,0,0,1.26A38.27,38.27,0,0,0,30.5,63.45H33A38.27,38.27,0,0,0,63.23,48.73h0a1,1,0,0,0,0-1.26ZM4.09,29.68a27.64,27.64,0,0,1,55.27,0,27.31,27.31,0,0,1-2.47,11.4c-.55-.43-1.11-.86-1.68-1.26a25.33,25.33,0,0,0,2.1-10.14,25.59,25.59,0,1,0-51.17,0,25.33,25.33,0,0,0,2.1,10.14c-.57.4-1.13.83-1.68,1.26a27.31,27.31,0,0,1-2.47-11.4m41.62-3.31L50,21a.92.92,0,0,0-.57-1.48L43,18.41a.92.92,0,0,0-1,1.2l.65,1.95-14.7,4.9-3.65-3.65a1,1,0,0,0-1.21-.17L12.69,28.29a1,1,0,0,0,1,1.8l.66-.36V36.3A36.83,36.83,0,0,0,10,38.66a23.54,23.54,0,1,1,43.53,0,38.06,38.06,0,0,0-12.55-5.07V24.28l2.32-.78.86,2.58a.92.92,0,0,0,1.59.29m-.88-5.58,2.05.34a.21.21,0,0,1,.13.34l-1.36,1.7a.21.21,0,0,1-.37-.06l-.68-2.05a.21.21,0,0,1,.23-.27M38.89,25v8.25c-1.35-.2-2.71-.34-4.1-.41V26.32Zm-6.14,2v5.75H30.5c-.62,0-1.23,0-1.85,0V28.37Zm-6.14,1.06V33a37.59,37.59,0,0,0-4.1.64V25.26l.85-.46Zm-6.14-1.68v7.7a38.5,38.5,0,0,0-4.1,1.34V28.61ZM2.9,47.43A36.12,36.12,0,0,1,22.84,35.61a15.29,15.29,0,0,0,0,25A36.18,36.18,0,0,1,2.9,48.77a1,1,0,0,1,0-1.34m28.82,14A13.3,13.3,0,1,1,45,48.1,13.32,13.32,0,0,1,31.72,61.4m8.89-.81a15.29,15.29,0,0,0,0-25A36.12,36.12,0,0,1,60.55,47.43a1,1,0,0,1,0,1.34A36.18,36.18,0,0,1,40.61,60.59"/><path class="cls-8" d="M31.72,36.84A11.26,11.26,0,1,0,43,48.1,11.27,11.27,0,0,0,31.72,36.84m0,20.47a9.21,9.21,0,1,1,9.21-9.21,9.22,9.22,0,0,1-9.21,9.21"/><path class="cls-8" d="M23.54,14.33H33.77a1,1,0,0,1,0,2H23.54a1,1,0,1,1,0-2"/><path class="cls-8" d="M32.75,18.42h1a1,1,0,0,1,0,2h-1Z"/><rect class="cls-8" x="28.65" y="18.42" width="2.05" height="2.05"/><path class="cls-8" d="M23.54,18.42h3.07v2H23.54a1,1,0,1,1,0-2"/><path class="cls-8" d="M23.54,10.23H33.77a1,1,0,0,1,0,2H23.54a1,1,0,1,1,0-2"/></g></g></svg>