<svg xmlns="http://www.w3.org/2000/svg" viewBox="0 0 85.73 85.73"><defs><style>.cls-1{fill:#fffeff;}.cls-2{fill:#00394d;}</style></defs><g id="Capa_2" data-name="Capa 2"><g id="Elementos"><circle class="cls-1" cx="42.87" cy="42.87" r="42.87"/><g id="_10-point" data-name=" 10-point"><path class="cls-2" d="M21.46,59.73V23.35H17.18V61.87A2.14,2.14,0,0,0,19.32,64H68.55V59.73Z"/><path class="cls-2" d="M36.45,51.17A6.42,6.42,0,1,0,30,44.75,6.42,6.42,0,0,0,36.45,51.17Zm0-8.56a2.14,2.14,0,1,1-2.14,2.14A2.14,2.14,0,0,1,36.45,42.61Z"/><path class="cls-2" d="M49.29,40.47a8.56,8.56,0,1,0-8.56-8.56A8.56,8.56,0,0,0,49.29,40.47Zm0-12.84A4.28,4.28,0,1,1,45,31.91,4.28,4.28,0,0,1,49.29,27.63Z"/><circle class="cls-2" cx="27.88" cy="53.31" r="2.14"/><circle class="cls-2" cx="51.43" cy="51.17" r="2.14"/><circle class="cls-2" cx="64.27" cy="38.33" r="2.14"/><circle class="cls-2" cx="32.16" cy="29.77" r="2.14"/></g></g></g></svg>