<svg xmlns="http://www.w3.org/2000/svg" viewBox="0 0 606.67 306.73"><defs><style>.cls-1,.cls-20{fill:#00394d;}.cls-2{font-size:13.62px;}.cls-13,.cls-17,.cls-2,.cls-26,.cls-5{fill:#f2f2f2;}.cls-13,.cls-2{font-family:CircularStd-Book, CircularStd Book;}.cls-3{letter-spacing:-0.01em;}.cls-4{fill:#00698f;}.cls-5{font-size:16.35px;}.cls-17,.cls-20,.cls-5{font-family:CircularStd-Black, CircularStd Black;font-weight:800;}.cls-6{letter-spacing:0em;}.cls-7{fill:#2d2a26;}.cls-8{letter-spacing:-0.05em;}.cls-9{letter-spacing:0em;}.cls-10{letter-spacing:-0.01em;}.cls-11{letter-spacing:0em;}.cls-12{fill:#d2ac57;}.cls-13{font-size:15.11px;}.cls-14{letter-spacing:0em;}.cls-15{letter-spacing:-0.01em;}.cls-16{letter-spacing:0.01em;}.cls-17,.cls-20{font-size:18.13px;}.cls-18{fill:#87e1d1;}.cls-19{letter-spacing:0.01em;}.cls-21{fill:#f5f5f5;}.cls-22{fill:#f5f4f9;}.cls-23{fill:#ddd9e4;}.cls-24{fill:#ffbe92;}.cls-25{fill:#cecae0;}.cls-27{letter-spacing:-0.01em;}.cls-28{fill:none;stroke:#00698f;stroke-linecap:round;stroke-linejoin:round;stroke-width:3px;}</style></defs><g id="Capa_2" data-name="Capa 2"><g id="Elementos"><path class="cls-1" d="M18.87,131.63H88a8.12,8.12,0,0,1,8.12,8.12v1.74A8.12,8.12,0,0,1,88,149.61H18.87a0,0,0,0,1,0,0v-18A0,0,0,0,1,18.87,131.63Z"/><text class="cls-2" transform="translate(31.41 144.73)"><tspan class="cls-3">C</tspan><tspan x="7.75" y="0">ombinar</tspan></text><circle class="cls-4" cx="12.79" cy="140.62" r="12.53"/><text class="cls-5" transform="translate(8.6 145.5)">3</text><path class="cls-1" d="M493,131.63h69.17a8.12,8.12,0,0,1,8.12,8.12v1.74a8.12,8.12,0,0,1-8.12,8.12H493a0,0,0,0,1,0,0v-18a0,0,0,0,1,0,0Z"/><text class="cls-2" transform="translate(507.2 144.73)">Dist<tspan class="cls-6" x="22.16" y="0">r</tspan><tspan x="26.67" y="0">ibuir</tspan></text><circle class="cls-4" cx="486.9" cy="140.62" r="12.53"/><text class="cls-5" transform="translate(482.71 145.5)">6</text><path class="cls-1" d="M14.8,237.36h91a8.12,8.12,0,0,1,8.12,8.12v1.74a8.12,8.12,0,0,1-8.12,8.12h-91a0,0,0,0,1,0,0v-18A0,0,0,0,1,14.8,237.36Z"/><circle class="cls-7" cx="12.53" cy="246.35" r="12.53"/><text class="cls-5" transform="translate(8.34 251.14)">4</text><text class="cls-2" transform="translate(33.7 250.28)"><tspan class="cls-8">T</tspan><tspan class="cls-9" x="6.16" y="0">r</tspan><tspan x="10.54" y="0">ans</tspan><tspan class="cls-10" x="30.07" y="0">f</tspan><tspan x="33.87" y="0">o</tspan><tspan class="cls-11" x="41.35" y="0">r</tspan><tspan x="45.85" y="0">mar</tspan></text><path class="cls-12" d="M297.71,28.81v33.4l-5.5-5.53A1.58,1.58,0,1,0,290,58.9l8.2,8.24h0a1.57,1.57,0,0,0,2.23,0h0l8.19-8.24a1.57,1.57,0,1,0-2.23-2.22l-5.51,5.53V28.81a1.58,1.58,0,0,0-3.15,0Z"/><path class="cls-1" d="M297.29,17.89H393A8.12,8.12,0,0,1,401.16,26v3.71A8.12,8.12,0,0,1,393,37.84H297.29a0,0,0,0,1,0,0V17.89A0,0,0,0,1,297.29,17.89Z"/><text class="cls-13" transform="translate(323.73 32.43)"><tspan class="cls-14">R</tspan><tspan x="8.19" y="0">e</tspan><tspan class="cls-15" x="15.76" y="0">c</tspan><tspan x="22.44" y="0">ole</tspan><tspan class="cls-16" x="41.88" y="0">c</tspan><tspan x="48.84" y="0">tar</tspan></text><circle class="cls-12" cx="299.61" cy="27.87" r="13.9"/><text class="cls-17" transform="translate(294.35 33.28)">1</text><path class="cls-18" d="M220,122.1s25.45,28.6,54.16,0c0,0,25.45,28.6,54.15,0,0,0,25.46,28.6,54.16,0,0,0,25.46,28.6,54.16,0a38.87,38.87,0,0,0,4.65,4.2V126a137.36,137.36,0,0,0-10.62-53.14c-26.17,19.54-48.19-5.19-48.19-5.19-28.7,28.6-54.16,0-54.16,0-28.7,28.6-54.15,0-54.15,0-28.71,28.6-54.16,0-54.16,0-18,17.92-34.7,13.38-44.67,7.49a137.25,137.25,0,0,0-9.63,47.05l.14-.14S191.24,150.7,220,122.1Z"/><path class="cls-1" d="M381.68,176.5c-28.71,28.6-54.16,0-54.16,0-28.71,28.6-54.16,0-54.16,0-28.7,28.6-54.16,0-54.16,0-15.72,15.67-30.47,14.17-40.59,9.62a137.87,137.87,0,0,0,249.67-3.29C402.81,200.24,381.68,176.5,381.68,176.5Z"/><path class="cls-4" d="M436.61,122.1c-28.7,28.6-54.16,0-54.16,0-28.7,28.6-54.16,0-54.16,0-28.7,28.6-54.16,0-54.16,0-28.7,28.6-54.15,0-54.15,0-28.71,28.6-54.16,0-54.16,0a1.85,1.85,0,0,0-.14.14c0,1.26-.06,2.52-.06,3.79a137.31,137.31,0,0,0,13.76,60.09c10.12,4.55,24.87,6,40.6-9.62,0,0,25.45,28.6,54.15,0,0,0,25.46,28.6,54.16,0,0,0,25.46,28.6,54.16,0,0,0,21.13,23.74,46.6,6.33a137.35,137.35,0,0,0,12.21-56.53A38.87,38.87,0,0,1,436.61,122.1Z"/><path class="cls-1" d="M264.65,145.44h77.62a8.12,8.12,0,0,1,8.12,8.12v3.71a8.12,8.12,0,0,1-8.12,8.12H264.65a0,0,0,0,1,0,0V145.44a0,0,0,0,1,0,0Z"/><text class="cls-13" transform="translate(294.9 159.97)"><tspan class="cls-19">I</tspan><tspan x="3.76" y="0">nge</tspan><tspan class="cls-14" x="28.17" y="0">r</tspan><tspan x="33.17" y="0">ir</tspan></text><circle class="cls-18" cx="269.99" cy="155.41" r="13.9"/><text class="cls-20" transform="translate(264.73 160.83)">2</text><g id="Page-1"><g id="_026---Searching-Data" data-name="026---Searching-Data"><g id="Icons_copy" data-name="Icons copy"><path id="Shape" class="cls-21" d="M272.86,4.91V16.68h-51V4.91A3.93,3.93,0,0,1,225.76,1h43.18A3.93,3.93,0,0,1,272.86,4.91Z"/><path id="Shape-2" data-name="Shape" class="cls-21" d="M250.29,48.09H225.76a3.93,3.93,0,0,1-3.93-3.93V32.38h19.63v1A16.68,16.68,0,0,0,250.29,48.09Z"/><path id="Shape-3" data-name="Shape" class="cls-21" d="M272.86,16.68v8.83a16.7,16.7,0,0,0-14.72-8.83Z"/><circle id="Oval" class="cls-4" cx="247.35" cy="54.95" r="2.94"/><path id="Shape-4" data-name="Shape" class="cls-21" d="M258.14,16.68a16.69,16.69,0,0,0-16.68,15.7H221.83V16.68Z"/><path id="Shape-5" data-name="Shape" class="cls-12" d="M274.82,33.37a16.51,16.51,0,0,1-4,10.79,16.65,16.65,0,0,1-29.35-10.79v-1a16.68,16.68,0,0,1,31.4-6.87A16.47,16.47,0,0,1,274.82,33.37Z"/><path id="Shape-6" data-name="Shape" class="cls-21" d="M270.9,32.38H245.43a12.76,12.76,0,0,1,25.47,0Z"/><path id="Shape-7" data-name="Shape" class="cls-21" d="M270.9,33.37a12.76,12.76,0,0,1-25.52,0c0-.33,0-.66.05-1H270.9Z"/><path id="Shape-8" data-name="Shape" class="cls-12" d="M277.67,57.23a2.94,2.94,0,0,1-4.14-.41L266.26,48a16.37,16.37,0,0,0,4.55-3.73l7.27,8.88A2.94,2.94,0,0,1,277.67,57.23Z"/></g><g id="Icons"><path id="Shape-9" data-name="Shape" d="M225.76,49.07h20.6v2.1a3.93,3.93,0,1,0,2,0v-2.1h1.75a17.47,17.47,0,0,0,15.91.09l6.78,8.28a4,4,0,0,0,2.65,1.42,3.92,3.92,0,0,0,3.42-6.39l-6.77-8.31a17.53,17.53,0,0,0,1.77-18.85V4.91A4.9,4.9,0,0,0,268.94,0H225.76a4.91,4.91,0,0,0-4.91,4.91V44.16A4.91,4.91,0,0,0,225.76,49.07ZM249.31,55a2,2,0,1,1-2-2A2,2,0,0,1,249.31,55ZM225.76,47.1a2.94,2.94,0,0,1-2.95-2.94V33.37h17.67a18.15,18.15,0,0,0,.26,2.94h-6.15a1,1,0,1,0,0,2h6.59a17.73,17.73,0,0,0,1.69,3.93H226.74a1,1,0,0,0,0,2h17.45a17.36,17.36,0,0,0,2.87,2.94Zm-2.95-29.44h27.27A18,18,0,0,0,246,20.61H234.59a1,1,0,1,0,0,2h9.6a17.67,17.67,0,0,0-2.32,3.93H226.74a1,1,0,1,0,0,2h14.44a17.4,17.4,0,0,0-.59,2.94H222.81Zm54.52,36.05a2,2,0,0,1,.43,1.44,1.94,1.94,0,0,1-.71,1.33,2,2,0,0,1-2.77-.28l-6.55-8a17.56,17.56,0,0,0,3-2.48Zm-19.19-4.64a15.71,15.71,0,1,1,11.1-4.6A15.7,15.7,0,0,1,258.14,49.07Zm8.06-31.41h5.68v4.63A17.8,17.8,0,0,0,266.2,17.66ZM225.76,2h43.18a3,3,0,0,1,2.94,3V15.7H222.81V4.91A3,3,0,0,1,225.76,2Z"/><path id="Shape-10" data-name="Shape" d="M226.74,6.87h3.92a1,1,0,0,0,0-2h-3.92a1,1,0,1,0,0,2Z"/><path id="Shape-11" data-name="Shape" d="M234.59,6.87H268a1,1,0,1,0,0-2H234.59a1,1,0,1,0,0,2Z"/><path id="Shape-12" data-name="Shape" d="M226.74,22.57h3.92a1,1,0,0,0,0-2h-3.92a1,1,0,1,0,0,2Z"/><path id="Shape-13" data-name="Shape" d="M226.74,38.27h3.92a1,1,0,1,0,0-2h-3.92a1,1,0,0,0,0,2Z"/><path id="Shape-14" data-name="Shape" d="M226.74,12.76H268a1,1,0,1,0,0-2H226.74a1,1,0,0,0,0,2Z"/><path id="Shape-15" data-name="Shape" d="M258.14,19.63A13.72,13.72,0,0,0,246,27.05v.07a13.63,13.63,0,0,0-.82,10.51v.06a13.74,13.74,0,1,0,13-18.06Zm0,2a11.78,11.78,0,0,1,11.6,9.81h-23.2a11.66,11.66,0,0,1,.91-2.94H265a1,1,0,1,0,0-2H248.59A11.75,11.75,0,0,1,258.14,21.59Zm0,23.55a11.79,11.79,0,0,1-10.69-6.87H265a1,1,0,1,0,0-2H246.75a12.17,12.17,0,0,1-.39-2.94h23.56A11.78,11.78,0,0,1,258.14,45.14Z"/></g></g></g><g id="Filled_Outline" data-name="Filled Outline"><path class="cls-18" d="M81.23,77.43,73,69.23a3.08,3.08,0,0,0-4.35,4.35l2.95,3H63.87c-7.72,0-14.35,6.51-16.14,15.82a15.82,15.82,0,0,1-4,8,8.65,8.65,0,0,1-6.14,2.81H25.76a3.07,3.07,0,0,0,0,6.14H37.62c7.71,0,14.35-6.5,16.14-15.81a15.74,15.74,0,0,1,4-8,8.61,8.61,0,0,1,6.14-2.81h7.76l-2.95,2.95A3.08,3.08,0,1,0,73,90l8.2-8.2a3.08,3.08,0,0,0,0-4.35Z"/><path class="cls-12" d="M81.23,104.08,73,95.88a3.08,3.08,0,0,0-4.35,4.35l2.95,3H63.87a8.65,8.65,0,0,1-6.14-2.81,15.82,15.82,0,0,1-4-8C52,83,45.33,76.53,37.62,76.53H25.76a3.08,3.08,0,0,0,0,6.15H37.62a8.61,8.61,0,0,1,6.14,2.81,15.74,15.74,0,0,1,4,8c1.79,9.31,8.42,15.81,16.14,15.81h7.76l-2.95,3A3.08,3.08,0,0,0,73,116.62h0l8.2-8.2a3.07,3.07,0,0,0,0-4.34Z"/><path d="M73.75,95.15A4.1,4.1,0,0,0,68,101h0l1.2,1.2H63.87a7.58,7.58,0,0,1-5.4-2.5,14.31,14.31,0,0,1-3.53-6.72,14.31,14.31,0,0,1,3.53-6.72,7.59,7.59,0,0,1,5.4-2.51h5.29L68,84.9a4.1,4.1,0,1,0,5.79,5.8L82,82.5a4.09,4.09,0,0,0,0-5.79l-8.2-8.2A4.1,4.1,0,1,0,68,74.31l1.2,1.2H63.87c-5.17,0-9.87,2.71-13.12,7.16-3.25-4.45-8-7.16-13.13-7.16H25.76a4.1,4.1,0,1,0,0,8.19H37.62A7.63,7.63,0,0,1,43,86.21a14.39,14.39,0,0,1,3.52,6.72A14.39,14.39,0,0,1,43,99.65a7.66,7.66,0,0,1-5.41,2.5H25.76a4.1,4.1,0,0,0,0,8.2H37.62c5.17,0,9.87-2.71,13.12-7.17,3.25,4.46,8,7.17,13.13,7.17h5.29l-1.2,1.2a4.1,4.1,0,0,0,5.79,5.8h0l8.2-8.2a4.1,4.1,0,0,0,0-5.8Zm-9.88-17.6h7.76a1,1,0,0,0,.73-1.74l-3-3a2.05,2.05,0,0,1,2.9-2.9l8.19,8.19a2.05,2.05,0,0,1,0,2.9h0l-8.19,8.2a2.05,2.05,0,0,1-2.94-2.86l0,0,3-2.95a1,1,0,0,0,0-1.45,1.06,1.06,0,0,0-.73-.3H63.87A9.62,9.62,0,0,0,57,84.77a15.19,15.19,0,0,0-3,4.46A23.28,23.28,0,0,0,52,84.52c2.89-4.31,7.19-7,11.92-7ZM37.62,108.3H25.76a2,2,0,0,1,0-4.1H37.62a9.65,9.65,0,0,0,6.87-3.11,15.11,15.11,0,0,0,3-4.47,23.61,23.61,0,0,0,2.08,4.72c-2.89,4.31-7.19,7-11.92,7Zm42.88-.6-8.19,8.2a2.05,2.05,0,0,1-2.9-2.9l3-3a1,1,0,0,0,0-1.45,1.06,1.06,0,0,0-.73-.3H63.87c-7.22,0-13.44-6.16-15.14-15a16.74,16.74,0,0,0-4.24-8.54,9.6,9.6,0,0,0-6.87-3.12H25.76a2,2,0,1,1,0-4.09H37.62c7.22,0,13.44,6.16,15.14,15A16.77,16.77,0,0,0,57,101.09a9.65,9.65,0,0,0,6.87,3.11h7.76a1,1,0,0,0,.73-1.75l-3-3a2,2,0,1,1,2.89-2.9l8.2,8.2a2.05,2.05,0,0,1,0,2.9Z"/></g><path class="cls-4" d="M39,185.11a17.86,17.86,0,1,0,0,35.72h5.31a1.11,1.11,0,0,1,.79,1.9l-4.33,4.33a2.23,2.23,0,1,0,3.12,3.19l0,0,10-10.05A2.23,2.23,0,0,0,54,217L44,207a2.23,2.23,0,0,0-3.19,3.13l0,0,4.33,4.33a1.13,1.13,0,0,1,0,1.58,1.1,1.1,0,0,1-.79.32H39a13.39,13.39,0,0,1,0-26.78,2.24,2.24,0,0,0,0-4.47Z"/><path class="cls-18" d="M60.61,189.45h5.17a13.39,13.39,0,0,1,0,26.78,2.24,2.24,0,1,0,0,4.47,17.86,17.86,0,0,0,0-35.72H60.61a1.11,1.11,0,0,1-.79-1.9l4.33-4.33A2.23,2.23,0,0,0,61,175.57l0,0-10.05,10a2.23,2.23,0,0,0,0,3.15L61,198.84a2.23,2.23,0,1,0,3.17-3.14v0l-4.33-4.33a1.11,1.11,0,0,1,0-1.58,1.15,1.15,0,0,1,.79-.32Z"/><path d="M65.78,222.92a4.46,4.46,0,1,1,0-8.92,11.16,11.16,0,0,0,0-22.32H63.3l2.42,2.42a4.46,4.46,0,0,1-6.31,6.31l-10-10a4.48,4.48,0,0,1,0-6.32l10-10a4.46,4.46,0,0,1,6.31,6.31l-2.42,2.43h2.48a20.09,20.09,0,0,1,0,40.17Zm-5.17-33.48h5.17a13.4,13.4,0,0,1,0,26.79,2.23,2.23,0,1,0,0,4.46,17.86,17.86,0,0,0,0-35.71H60.61a1.12,1.12,0,0,1-1.12-1.12,1.13,1.13,0,0,1,.33-.79l4.33-4.33A2.23,2.23,0,0,0,61,175.57l0,0-10.05,10a2.24,2.24,0,0,0,0,3.16l10.05,10a2.23,2.23,0,1,0,3.17-3.13l0,0-4.32-4.33a1.12,1.12,0,0,1,.79-1.91Z"/><path d="M42.39,233.11a4.46,4.46,0,0,1-3.16-7.62l2.43-2.42H39a20.09,20.09,0,0,1,0-40.18,4.47,4.47,0,0,1,0,8.93,11.16,11.16,0,0,0,0,22.32h2.62l-2.43-2.42a4.47,4.47,0,0,1,6.32-6.32l10,10a4.47,4.47,0,0,1,0,6.31l-10,10.05a4.42,4.42,0,0,1-3.16,1.3Zm-3.35-48a17.86,17.86,0,1,0,0,35.72h5.31a1.11,1.11,0,0,1,.79,1.9l-4.33,4.33a2.23,2.23,0,0,0,3.12,3.19l0,0,10-10A2.23,2.23,0,0,0,54,217L44,207a2.23,2.23,0,0,0-3.19,3.13l0,0,4.33,4.33a1.11,1.11,0,0,1-.79,1.9H39a13.39,13.39,0,0,1,0-26.78,2.24,2.24,0,0,0,0-4.47Z"/><path class="cls-18" d="M531.75,119.32H515l2.2-8.7,1.16-4.59h10.06l1.16,4.59Z"/><path class="cls-22" d="M548.81,108.57h-50.9a2.79,2.79,0,0,1-2.8-2.79V69.33a2.8,2.8,0,0,1,2.8-2.8h50.9a2.8,2.8,0,0,1,2.8,2.8v36.45A2.79,2.79,0,0,1,548.81,108.57Z"/><path class="cls-1" d="M544,87.69H502.77a.56.56,0,0,1-.56-.56V73.66h42.3V87.13A.56.56,0,0,1,544,87.69Z"/><path class="cls-23" d="M527.32,92.05H507.47a.94.94,0,0,1,0-1.87h19.85a.94.94,0,0,1,0,1.87Z"/><path class="cls-23" d="M527.32,95.77H507.47a.93.93,0,0,1,0-1.86h19.85a.93.93,0,1,1,0,1.86Z"/><path class="cls-24" d="M537.2,95.77h-3.08a.93.93,0,1,1,0-1.86h3.08a.93.93,0,1,1,0,1.86Z"/><path class="cls-18" d="M551.61,73.66V69.33a2.8,2.8,0,0,0-2.8-2.8h-50.9a2.8,2.8,0,0,0-2.8,2.8v4.33Z"/><path class="cls-18" d="M495.11,101.12v4.66a2.79,2.79,0,0,0,2.8,2.79h50.9a2.79,2.79,0,0,0,2.8-2.79v-4.66Z"/><path class="cls-12" d="M560.74,119.32H547a1.87,1.87,0,0,1-1.87-1.86V91.55A1.87,1.87,0,0,1,547,89.69h13.79a1.87,1.87,0,0,1,1.87,1.86v25.91a1.87,1.87,0,0,1-1.87,1.86Z"/><path class="cls-22" d="M545.09,107.77v9.69a1.86,1.86,0,0,0,1.86,1.86h13.79a1.87,1.87,0,0,0,1.87-1.86v-9.69Z"/><path class="cls-25" d="M557.39,92.34l.87-2.65h-8.83l.87,2.65a.92.92,0,0,0,.88.64h5.33a.92.92,0,0,0,.88-.64Z"/><path class="cls-22" d="M505.59,119.32h-25a1.86,1.86,0,0,1-1.86-1.86V86a1.87,1.87,0,0,1,1.86-1.87h25A1.87,1.87,0,0,1,507.45,86v31.5A1.86,1.86,0,0,1,505.59,119.32Z"/><path class="cls-4" d="M507.45,90.18V86a1.87,1.87,0,0,0-1.86-1.87h-25A1.87,1.87,0,0,0,478.75,86v4.22Z"/><path class="cls-12" d="M489.47,115.57h-5.78a.56.56,0,0,1-.56-.56V95a.56.56,0,0,1,.56-.56h5.78A.56.56,0,0,1,490,95v20A.56.56,0,0,1,489.47,115.57Z"/><path class="cls-1" d="M502.51,101.31h-9.32a.56.56,0,0,1-.55-.56V95a.56.56,0,0,1,.55-.56h9.32a.56.56,0,0,1,.56.56v5.77A.56.56,0,0,1,502.51,101.31Z"/><path class="cls-12" d="M502.51,115.57h-9.32a.56.56,0,0,1-.55-.56V104.47a.56.56,0,0,1,.55-.56h9.32a.56.56,0,0,1,.56.56V115A.56.56,0,0,1,502.51,115.57Z"/><path class="cls-7" d="M500.74,69.15a.93.93,0,0,0-.93.93v0a.94.94,0,1,0,1.87,0v0A.94.94,0,0,0,500.74,69.15Z"/><path class="cls-7" d="M503.6,69.15a.93.93,0,0,0-.93.93v0a.93.93,0,1,0,1.86,0v0A.93.93,0,0,0,503.6,69.15Z"/><path class="cls-7" d="M506.46,69.15a.93.93,0,0,0-.93.93v0a.93.93,0,1,0,1.86,0v0A.93.93,0,0,0,506.46,69.15Z"/><path class="cls-7" d="M560.74,88.75h-8.2V69.33a3.73,3.73,0,0,0-3.73-3.73h-50.9a3.73,3.73,0,0,0-3.73,3.73V79A.93.93,0,0,0,496,79V74.59h54.64V88.75H547a2.81,2.81,0,0,0-2.8,2.8V96A.94.94,0,0,0,546,96V91.55a.93.93,0,0,1,.93-.93h1.81l.65,2a1.86,1.86,0,0,0,1.77,1.29h5.33a1.86,1.86,0,0,0,1.77-1.29l.65-2h1.81a.94.94,0,0,1,.94.93v25.91a.94.94,0,0,1-.94.93H547a.93.93,0,0,1-.93-.93V101.12a.93.93,0,0,0-.94-.93H508.39V86a2.81,2.81,0,0,0-2.8-2.8h-25a2.8,2.8,0,0,0-2.79,2.8v31.5a2.8,2.8,0,0,0,2.79,2.8h25a2.81,2.81,0,0,0,2.8-2.8v-8h8.1l-2.24,8.89h-2.12a.94.94,0,0,0,0,1.87h22.46a.94.94,0,0,0,0-1.87h-2.12l-2.24-8.89h13.92v8a2.81,2.81,0,0,0,2.8,2.8h13.79a2.81,2.81,0,0,0,2.8-2.8V91.55a2.81,2.81,0,0,0-2.8-2.8Zm-64.7-16V69.33a1.87,1.87,0,0,1,1.87-1.87h50.9a1.87,1.87,0,0,1,1.87,1.87v3.39Zm60.47,19.33h-5.33l-.46-1.43H557Zm-75.9-7h25a.93.93,0,0,1,.93.93v3.29H479.68V86a.93.93,0,0,1,.93-.93Zm25.91,32.43a.93.93,0,0,1-.93.93h-25a.93.93,0,0,1-.93-.93V91.12h26.84Zm24,.93H516.17l2.24-8.89h9.9Zm-22.16-10.75v-5.59h35.76v5.59Z"/><path class="cls-7" d="M483.63,88.08a.93.93,0,0,0,.93-.93v0a.94.94,0,0,0-1.87,0v0A.94.94,0,0,0,483.63,88.08Z"/><path class="cls-7" d="M486.48,88.08a.94.94,0,0,0,.94-.93v0a.94.94,0,0,0-1.87,0v0A.93.93,0,0,0,486.48,88.08Z"/><path class="cls-7" d="M489.34,88.08a.93.93,0,0,0,.93-.93v0a.93.93,0,0,0-1.86,0v0A.93.93,0,0,0,489.34,88.08Z"/><path class="cls-26" d="M522.93,80.17l.43-.43.43.43a.93.93,0,0,0,.66.27.93.93,0,0,0,.66-1.59L524,77.76a.94.94,0,0,0-1.32,0l-1.09,1.09a.93.93,0,0,0,1.32,1.32Z"/><path class="cls-4" d="M552,115h-2.6a.56.56,0,0,1-.56-.56v-16a.56.56,0,0,1,.56-.56H552a.56.56,0,0,1,.56.56v16A.56.56,0,0,1,552,115Z"/><circle class="cls-12" cx="540.68" cy="84.09" r="1.04"/><circle class="cls-12" cx="540.68" cy="80.94" r="1.04"/><circle class="cls-12" cx="540.68" cy="77.79" r="1.04"/><rect class="cls-18" x="494.97" y="177.84" width="43.99" height="10.62"/><rect class="cls-18" x="539.46" y="192.51" width="13.65" height="10.11"/><circle class="cls-12" cx="551.09" cy="228.91" r="14.66"/><g id="_10-Windows" data-name="10-Windows"><path class="cls-7" d="M538.89,215.7H495.73a1.2,1.2,0,0,1-1.2-1.2v-36a1.2,1.2,0,0,1,1.2-1.2h43.16a1.2,1.2,0,0,1,1.2,1.2v36A1.2,1.2,0,0,1,538.89,215.7Zm-42-2.39h40.76V179.74H496.93Z"/><path class="cls-7" d="M538.89,189.33H495.73a1.2,1.2,0,0,1-1.2-1.2v-9.59a1.2,1.2,0,0,1,1.2-1.2h43.16a1.2,1.2,0,0,1,1.2,1.2v9.59A1.2,1.2,0,0,1,538.89,189.33Zm-42-2.4h40.76v-7.19H496.93Z"/><path class="cls-7" d="M513.71,184.53h-1.2a1.2,1.2,0,1,1,0-2.4h1.2a1.2,1.2,0,1,1,0,2.4Z"/><path class="cls-7" d="M507.72,184.53h-1.2a1.2,1.2,0,1,1,0-2.4h1.2a1.2,1.2,0,0,1,0,2.4Z"/><path class="cls-7" d="M501.72,184.53h-1.2a1.2,1.2,0,0,1,0-2.4h1.2a1.2,1.2,0,0,1,0,2.4Z"/><path class="cls-7" d="M553.28,203.71H538.89a1.19,1.19,0,0,1-1.2-1.19v-9.6a1.19,1.19,0,0,1,1.2-1.19h14.39a1.19,1.19,0,0,1,1.2,1.19v9.6A1.19,1.19,0,0,1,553.28,203.71Zm-13.19-2.39h12v-7.2h-12Z"/><path class="cls-7" d="M518.51,197.72H501.72a1.2,1.2,0,0,1,0-2.4h16.79a1.2,1.2,0,1,1,0,2.4Z"/><path class="cls-7" d="M532.89,197.72H524.5a1.2,1.2,0,0,1,0-2.4h8.39a1.2,1.2,0,1,1,0,2.4Z"/><path class="cls-7" d="M506.52,202.52h-4.8a1.2,1.2,0,0,1,0-2.4h4.8a1.2,1.2,0,1,1,0,2.4Z"/><path class="cls-7" d="M532.89,202.52H512.51a1.2,1.2,0,1,1,0-2.4h20.38a1.2,1.2,0,1,1,0,2.4Z"/><path class="cls-7" d="M518.51,207.31H501.72a1.2,1.2,0,0,1,0-2.4h16.79a1.2,1.2,0,1,1,0,2.4Z"/><path class="cls-7" d="M529.3,207.31h-4.8a1.2,1.2,0,0,1,0-2.4h4.8a1.2,1.2,0,1,1,0,2.4Z"/><path class="cls-7" d="M547.28,210.91h-3.59a1.2,1.2,0,0,1,0-2.4h3.59a1.2,1.2,0,1,1,0,2.4Z"/><path class="cls-7" d="M532.89,220.5H516.11a1.2,1.2,0,0,1,0-2.4h16.78a1.2,1.2,0,1,1,0,2.4Z"/><path class="cls-7" d="M549.68,234.89a1.22,1.22,0,0,1-.85-.35l-4.79-4.8a1.2,1.2,0,1,1,1.69-1.7l4.8,4.8a1.2,1.2,0,0,1,0,1.7A1.22,1.22,0,0,1,549.68,234.89Z"/><path class="cls-7" d="M549.68,234.89a1.21,1.21,0,0,1-1-1.87l7.2-10.79a1.2,1.2,0,1,1,2,1.33l-7.19,10.79A1.19,1.19,0,0,1,549.68,234.89Z"/><path class="cls-7" d="M550.88,244.48a15.59,15.59,0,1,1,15.58-15.59A15.6,15.6,0,0,1,550.88,244.48Zm0-28.78a13.19,13.19,0,1,0,13.19,13.19A13.21,13.21,0,0,0,550.88,215.7Z"/><path class="cls-7" d="M536.49,230.09H510.12a1.2,1.2,0,0,1-1.2-1.2V214.5a1.19,1.19,0,0,1,1.2-1.19h27.57V192.92a1.19,1.19,0,0,1,1.2-1.19h14.39a1.19,1.19,0,0,1,1.2,1.19v21.8a1.2,1.2,0,0,1-1.4,1.18,13.71,13.71,0,0,0-2.2-.2,13.21,13.21,0,0,0-13.19,13.19A1.2,1.2,0,0,1,536.49,230.09Zm-25.18-2.4h24a15.6,15.6,0,0,1,15.54-14.38c.39,0,.79,0,1.2.05V194.12h-12V214.5a1.2,1.2,0,0,1-1.2,1.2H511.31Z"/></g><path class="cls-4" d="M150.5,139.13H117.11l5.53-5.51a1.58,1.58,0,1,0-2.23-2.23l-8.24,8.2h0a1.58,1.58,0,0,0,0,2.23h0l8.24,8.2a1.58,1.58,0,1,0,2.23-2.23l-5.53-5.51H150.5a1.58,1.58,0,1,0,0-3.15Z"/><path class="cls-4" d="M598.47,202.31V168.92l5.5,5.53a1.58,1.58,0,0,0,2.24-2.23L598,164h0a1.59,1.59,0,0,0-2.23,0h0l-8.2,8.23a1.58,1.58,0,1,0,2.23,2.23l5.51-5.53v33.39a1.58,1.58,0,1,0,3.15,0Z"/><path class="cls-1" d="M484,237.36h69.17a8.12,8.12,0,0,1,8.12,8.12v1.74a8.12,8.12,0,0,1-8.12,8.12H484a0,0,0,0,1,0,0v-18a0,0,0,0,1,0,0Z"/><text class="cls-2" transform="translate(505.51 250.28)"><tspan class="cls-27">P</tspan><tspan x="7.04" y="0">ublicar</tspan></text><circle class="cls-12" cx="485.56" cy="246.35" r="12.53"/><text class="cls-5" transform="translate(481.36 251.23)">5</text><path class="cls-28" d="M424.36,257.72c-30,29.31-71.8,47.51-118.1,47.51-48.05,0-91.31-19.6-121.46-50.89"/><path class="cls-4" d="M412,259.55a.75.75,0,0,0,.88.59l11.26-2.21-2.76,11.14a.75.75,0,1,0,1.46.36l3-12.28a.75.75,0,0,0-.19-.7.72.72,0,0,0-.68-.22l-12.42,2.44a.73.73,0,0,0-.37.19A.76.76,0,0,0,412,259.55Z"/></g></g></svg>