<svg xmlns="http://www.w3.org/2000/svg" viewBox="0 0 36.85 39.31"><defs><style>.cls-1{fill:#fff;}</style></defs><g id="Capa_2" data-name="Capa 2"><g id="Guia"><path class="cls-1" d="M28.14,17.92A1.22,1.22,0,0,0,27,17.2H22.11v-16A1.23,1.23,0,0,0,20.88,0H16a1.23,1.23,0,0,0-1.23,1.23v16H9.83a1.23,1.23,0,0,0-.93,2l8.6,9.83a1.23,1.23,0,0,0,.93.42,1.21,1.21,0,0,0,.92-.42L28,19.23A1.21,1.21,0,0,0,28.14,17.92Z"/><path class="cls-1" d="M31.94,27V34.4h-27V27H0v9.82a2.46,2.46,0,0,0,2.46,2.46H34.4a2.46,2.46,0,0,0,2.45-2.46V27Z"/></g></g></svg>