<svg xmlns="http://www.w3.org/2000/svg" viewBox="0 0 68.36 68.36"><defs><style>.cls-1{fill:#0075a9;}</style></defs><title>facebook-social</title><g id="Capa_2" data-name="Capa 2"><g id="Capa_1-2" data-name="Capa 1"><g id="qydObe.tif"><path class="cls-1" d="M31.05,0h6.26a6.24,6.24,0,0,0,.94.26,34.21,34.21,0,0,1,29,25.24c.47,1.82.76,3.7,1.14,5.55v6.26a6.71,6.71,0,0,0-.26.95,34.2,34.2,0,0,1-25.25,29c-1.82.47-3.69.76-5.54,1.14H31.05a6.59,6.59,0,0,0-.94-.26,34.2,34.2,0,0,1-29-25.24C.67,41,.37,39.16,0,37.31V31.05a6.71,6.71,0,0,0,.26-.95,34.19,34.19,0,0,1,25.24-29C27.33.67,29.2.37,31.05,0ZM62.66,34.3A28.48,28.48,0,1,0,34,62.66,28.59,28.59,0,0,0,62.66,34.3Z"/><path class="cls-1" d="M42.67,17.14v7.07c-1.32,0-2.59,0-3.85,0S37,24.77,37,26c0,.75,0,1.51,0,2.42h5.69l-.52,5.74H37v17H28.53v-17H22.85V28.53h5.64c0-1.7,0-3.25,0-4.8.07-4.12,2-6.29,6.08-6.55C37.21,17,39.87,17.14,42.67,17.14Z"/></g></g></g></svg>