<?xml version="1.0" encoding="utf-8"?>
<!-- Generator: Adobe Illustrator 24.2.0, SVG Export Plug-In . SVG Version: 6.00 Build 0)  -->
<svg version="1.1" xmlns="http://www.w3.org/2000/svg" xmlns:xlink="http://www.w3.org/1999/xlink" x="0px" y="0px"
	 viewBox="0 0 104 104" style="enable-background:new 0 0 104 104;" xml:space="preserve">
<style type="text/css">
	.st0{fill:#E05A44;}
	.st1{fill:#76AD9B;}
	.st2{fill:#EFEEDF;}
	.st3{fill:#CECDC2;}
	.st4{fill:#4B4C4C;}
	.st5{fill:none;stroke:#D1D0B4;stroke-width:0.2673;stroke-linecap:round;stroke-linejoin:round;stroke-miterlimit:10;}
</style>
<g id="Fondos">
</g>
<g id="Icono">
	<circle class="st2" cx="52" cy="52" r="51.5"/>
	<path class="st4" d="M72.4,46.9c-1.2,0-2.3,0.1-3.4,0.4l-4.4-11.7H66c2.2,0,4.3-0.8,5.9-2.4l1.5-1.4c0.7-0.7,0.7-1.7,0-2.4
		c-0.7-0.7-1.8-0.7-2.4,0l-1.5,1.4c-1,0.9-2.2,1.4-3.5,1.4h-3.9c-0.6,0-1.1,0.3-1.4,0.8c-0.3,0.5-0.4,1.1-0.2,1.6l1.7,4.5
		c0,0,0,0,0,0c0,0,0,0,0,0H40.1l-3-5l3.2-1.1c0.8-0.3,1.3-1,1.1-1.9c-0.1-0.8-0.9-1.4-1.7-1.4h-9.5c-1.3,0-2.4,1-2.4,2.4
		c0,2.1,1.7,3.7,3.7,3.7c0.4,0,0.8-0.1,1.2-0.2l0.9-0.3l3,5.1l-2.3,7c-0.8-0.2-1.5-0.3-2.3-0.3c-4-0.1-7.8,1.4-10.6,4.3
		c-2.7,2.8-4.1,6.4-4,10.3c0.2,7.4,6.2,13.4,13.7,13.7c0.2,0,0.3,0,0.5,0c3.9,0,7.5-1.5,10.2-4.3c2.2-2.2,3.5-5.1,3.9-8.1h2.8
		c0.6,0.5,1.4,0.8,2.2,0.8c1.9,0,3.4-1.5,3.4-3.4c0-0.6-0.2-1.2-0.4-1.7l9.7-16.4l2.4,6.5c-4.5,2.4-7.5,7.1-7.5,12.5
		c0,7.8,6.3,14.1,14.1,14.1S86.5,68.8,86.5,61S80.2,46.9,72.4,46.9z M59.1,42.5l-8.4,14.3c0,0,0,0,0,0c0,0,0,0,0,0l-8.5-14.3
		L59.1,42.5L59.1,42.5z M39.1,44.1l8.6,14.4c-0.1,0.3-0.3,0.6-0.3,0.8h-1.7c-0.6-4.8-3.7-9-8-11L39.1,44.1z M34.6,59.2
		c-0.1-0.2-0.2-0.4-0.4-0.5l2-6.1c2.5,1.4,4.3,3.9,4.8,6.6H34.6z M38.5,67.6c-1.9,1.9-4.4,3-7.2,2.9c-5-0.2-9.1-4.2-9.2-9.2
		c-0.1-2.6,0.9-5.1,2.7-7c1.8-1.9,4.3-2.9,6.9-2.9c0.1,0,0.2,0,0.3,0c0.3,0,0.7,0,1,0.1l-2.1,6.2c-1.5,0.4-2.6,1.7-2.6,3.3
		c0,1.9,1.5,3.4,3.4,3.4c1.3,0,2.4-0.6,3-1.8H41C40.7,64.5,39.8,66.2,38.5,67.6z M72.4,70.6c-5.3,0-9.5-4.3-9.5-9.5
		c0-3.4,1.8-6.4,4.5-8.1l3.2,8.7c0.3,0.7,0.9,1.1,1.6,1.1c0.2,0,0.4,0,0.6-0.1c0.9-0.3,1.3-1.3,1-2.2l-3.3-8.7
		c0.6-0.1,1.2-0.2,1.8-0.2c5.3,0,9.5,4.3,9.5,9.5S77.6,70.6,72.4,70.6z"/>
</g>
</svg>
