<svg xmlns="http://www.w3.org/2000/svg" viewBox="0 0 18.72 12.14"><defs><style>.cls-1{fill:#0075a9;}</style></defs><title>fleetazul</title><g id="Capa_2" data-name="Capa 2"><g id="Capa_1-2" data-name="Capa 1"><path class="cls-1" d="M6.46,0,4.38,0,9.23,6.09,4.38,12.14H6.46L11.3,6.07S6.41,0,6.46,0Z"/><path class="cls-1" d="M17.2,8l1.52-1.91H16S14.1,3.69,12.68,1.91h2.75L13.91,0H11.14l0,0L9.11,0,14,6.09,9.11,12.14h2.07l0,0h2.71l1.52-1.91h-2.7L14.5,8Z"/><polygon class="cls-1" points="6.82 6.24 6.87 6.2 3.34 1.9 2.11 2.9 4.2 5.45 0 5.45 0 7.03 4.2 7.03 2.11 9.58 3.34 10.58 6.87 6.28 6.82 6.24"/></g></g></svg>