<svg xmlns="http://www.w3.org/2000/svg" viewBox="0 0 42.44 42.44"><defs><style>.cls-1,.cls-3{fill:#005470;}.cls-2{fill:#fefefe;}.cls-3{stroke:#005470;stroke-miterlimit:10;}.cls-4{fill:#fcfcfc;}.cls-5{fill:#fdfdfd;}</style></defs><g id="Capa_2" data-name="Capa 2"><g id="Capa_1-2" data-name="Capa 1"><path class="cls-1" d="M19.27,0h3.89a4.31,4.31,0,0,0,.59.16,21.23,21.23,0,0,1,18,15.67c.29,1.13.47,2.3.71,3.44v3.89a3.23,3.23,0,0,0-.16.59,21.23,21.23,0,0,1-15.68,18c-1.13.29-2.29.47-3.44.71H19.27a2.94,2.94,0,0,0-.58-.16,21.23,21.23,0,0,1-18-15.67c-.3-1.14-.48-2.3-.71-3.45V19.27a3.83,3.83,0,0,0,.16-.58A21.22,21.22,0,0,1,15.83.71C17,.41,18.13.23,19.27,0ZM38.9,21.29A17.68,17.68,0,1,0,21.1,38.9,17.74,17.74,0,0,0,38.9,21.29Z"/><path class="cls-2" d="M29,23h3.34c.17,0,.21-.05.22-.21a6.74,6.74,0,0,0-.13-1.62,4.84,4.84,0,0,0-1.89-3.12,4.64,4.64,0,0,0-3.23-.81,4.61,4.61,0,0,0-3.76,2.31,5.65,5.65,0,0,0-.43,4.81,4.26,4.26,0,0,0,2.62,2.76,5.73,5.73,0,0,0,2.78.33,4.25,4.25,0,0,0,3.81-3.09c0-.11,0-.15-.11-.15H30.18a.16.16,0,0,0-.18.13,1.39,1.39,0,0,1-.56.66,2.67,2.67,0,0,1-2.8.19,2.13,2.13,0,0,1-1.11-2c0-.15,0-.18.19-.18Zm-1.33-7.2h2.57c.14,0,.19,0,.18-.18q0-.48,0-1c0-.15,0-.2-.18-.2H25.15c-.13,0-.18,0-.18.17,0,.32,0,.65,0,1,0,.14,0,.19.19.19Z"/><path class="cls-3" d="M10.65,13.79h6.66a6,6,0,0,1,2.09.34,2.78,2.78,0,0,1,1.92,2.58,3.73,3.73,0,0,1-.1,1.33,2.77,2.77,0,0,1-1.36,1.69l-.35.2A3.38,3.38,0,0,1,21.21,21a3.84,3.84,0,0,1-2.43,6.07,6.56,6.56,0,0,1-1.47.17H10.65Zm3,9.32c0,.54,0,1.09,0,1.63,0,.18,0,.24.23.24h2.85a4.4,4.4,0,0,0,.89-.08A1.55,1.55,0,0,0,19,23.61a2.63,2.63,0,0,0,0-.84,1.56,1.56,0,0,0-1.2-1.39,3.42,3.42,0,0,0-1-.12h-3c-.18,0-.2.06-.2.21C13.62,22,13.61,22.56,13.61,23.11Zm1.81-7c-.61,0-1.12,0-1.64,0-.13,0-.17,0-.17.17,0,.94,0,1.88,0,2.83,0,.1,0,.15.14.15,1,0,2,0,3.05,0a1.53,1.53,0,0,0,1.61-1.92,1.37,1.37,0,0,0-1.27-1.16A12.85,12.85,0,0,0,15.42,16.09Z"/><path class="cls-3" d="M29,23H25.72c-.15,0-.2,0-.19.18a2.13,2.13,0,0,0,1.11,2,2.67,2.67,0,0,0,2.8-.19,1.39,1.39,0,0,0,.56-.66.16.16,0,0,1,.18-.13h2.08c.13,0,.15,0,.11.15a4.25,4.25,0,0,1-3.81,3.09,5.73,5.73,0,0,1-2.78-.33,4.26,4.26,0,0,1-2.62-2.76,5.65,5.65,0,0,1,.43-4.81,4.61,4.61,0,0,1,3.76-2.31,4.64,4.64,0,0,1,3.23.81,4.84,4.84,0,0,1,1.89,3.12,6.74,6.74,0,0,1,.13,1.62c0,.16-.05.22-.22.21Zm.86-1.68c0-.13,0-.24,0-.34a2,2,0,0,0-1-1.49,2.25,2.25,0,0,0-3.34,1.61c0,.2,0,.22.19.22,1.32,0,2.63,0,3.94,0Z"/><path class="cls-3" d="M27.71,15.82H25.16c-.15,0-.19-.05-.19-.19,0-.32,0-.65,0-1,0-.15.05-.17.18-.17h5.13c.15,0,.19,0,.18.2q0,.48,0,1c0,.15,0,.18-.18.18Z"/><path class="cls-4" d="M13.61,23.11c0-.55,0-1.1,0-1.65,0-.15,0-.21.2-.21h3a3.42,3.42,0,0,1,1,.12A1.56,1.56,0,0,1,19,22.77a2.63,2.63,0,0,1,0,.84,1.55,1.55,0,0,1-1.37,1.28,4.4,4.4,0,0,1-.89.08H13.84c-.2,0-.23-.06-.23-.24C13.62,24.2,13.61,23.65,13.61,23.11Z"/><path class="cls-5" d="M15.42,16.09a12.85,12.85,0,0,1,1.72.06,1.37,1.37,0,0,1,1.27,1.16,1.53,1.53,0,0,1-1.61,1.92c-1,0-2,0-3.05,0-.12,0-.14,0-.14-.15,0-.95,0-1.89,0-2.83,0-.13,0-.17.17-.17C14.3,16.1,14.81,16.09,15.42,16.09Z"/><path class="cls-5" d="M29.9,21.34h-.22c-1.31,0-2.62,0-3.94,0-.17,0-.23,0-.19-.22a2.25,2.25,0,0,1,3.34-1.61,2,2,0,0,1,1,1.49C29.87,21.1,29.88,21.21,29.9,21.34Z"/></g></g></svg>