<svg xmlns="http://www.w3.org/2000/svg" viewBox="0 0 42.44 42.44"><defs><style>.cls-1{fill:#005470;}</style></defs><g id="Capa_2" data-name="Capa 2"><g id="Capa_1-2" data-name="Capa 1"><g id="qydObe.tif"><path class="cls-1" d="M19.27,0h3.89a4.31,4.31,0,0,0,.59.16,21.23,21.23,0,0,1,18,15.67c.29,1.13.47,2.3.71,3.44v3.89a3.23,3.23,0,0,0-.16.59,21.23,21.23,0,0,1-15.68,18c-1.13.29-2.29.47-3.44.71H19.27a2.94,2.94,0,0,0-.58-.16,21.23,21.23,0,0,1-18-15.67c-.3-1.14-.48-2.3-.71-3.45V19.27a3.83,3.83,0,0,0,.16-.58A21.22,21.22,0,0,1,15.83.71C17,.41,18.13.23,19.27,0ZM38.9,21.29A17.68,17.68,0,1,0,21.1,38.9,17.74,17.74,0,0,0,38.9,21.29Z"/><path class="cls-1" d="M26.49,10.64V15c-.82,0-1.61,0-2.39,0S23,15.37,23,16.14c0,.47,0,.94,0,1.51h3.53l-.32,3.56H23V31.79H17.71V21.23H14.19V17.71h3.49c0-1.06,0-2,0-3,0-2.56,1.23-3.91,3.77-4.07C23.1,10.56,24.75,10.64,26.49,10.64Z"/></g></g></g></svg>