<svg xmlns="http://www.w3.org/2000/svg" viewBox="0 0 42.44 42.44"><defs><style>.cls-1,.cls-3{fill:#005470;}.cls-2{fill:#fefefe;}.cls-3{stroke:#005470;stroke-miterlimit:10;}.cls-4{fill:#fdfdfd;}</style></defs><g id="Capa_2" data-name="Capa 2"><g id="Capa_1-2" data-name="Capa 1"><path class="cls-1" d="M19.27,0h3.89a4.31,4.31,0,0,0,.59.16,21.23,21.23,0,0,1,18,15.67c.29,1.13.47,2.3.71,3.44v3.89a3.23,3.23,0,0,0-.16.59,21.23,21.23,0,0,1-15.68,18c-1.13.29-2.29.47-3.44.71H19.27a2.94,2.94,0,0,0-.58-.16,21.23,21.23,0,0,1-18-15.67c-.3-1.14-.48-2.3-.71-3.45V19.27a3.83,3.83,0,0,0,.16-.58A21.22,21.22,0,0,1,15.83.71C17,.41,18.13.23,19.27,0ZM38.9,21.29A17.68,17.68,0,1,0,21.1,38.9,17.74,17.74,0,0,0,38.9,21.29Z"/><path class="cls-2" d="M21.62,13.45H20.35a61.93,61.93,0,0,0-6.53.32,2.76,2.76,0,0,0-2.44,2.05,6.51,6.51,0,0,0-.2,1.07A33,33,0,0,0,11,22.05a22.57,22.57,0,0,0,.35,3.76,2.74,2.74,0,0,0,2.32,2.29c.7.11,1.4.18,2.11.22q3.55.2,7.11.15a62.11,62.11,0,0,0,6.68-.32,2.75,2.75,0,0,0,2.41-1.83,6.24,6.24,0,0,0,.24-1.14,29.92,29.92,0,0,0,.24-3.54,28.26,28.26,0,0,0-.33-5.44,2.74,2.74,0,0,0-2.27-2.37,13.29,13.29,0,0,0-1.56-.19C26.05,13.48,23.84,13.45,21.62,13.45Z"/><path class="cls-3" d="M21.62,13.45c2.22,0,4.43,0,6.64.19a13.29,13.29,0,0,1,1.56.19,2.74,2.74,0,0,1,2.27,2.37,28.26,28.26,0,0,1,.33,5.44,29.92,29.92,0,0,1-.24,3.54,6.24,6.24,0,0,1-.24,1.14,2.75,2.75,0,0,1-2.41,1.83,62.11,62.11,0,0,1-6.68.32q-3.55,0-7.11-.15c-.71,0-1.41-.11-2.11-.22a2.74,2.74,0,0,1-2.32-2.29A22.57,22.57,0,0,1,11,22.05a33,33,0,0,1,.22-5.16,6.51,6.51,0,0,1,.2-1.07,2.76,2.76,0,0,1,2.44-2.05,61.93,61.93,0,0,1,6.53-.32Zm-2.06,4.29v6.43L25.14,21Z"/><path class="cls-4" d="M19.56,17.74,25.14,21l-5.58,3.21Z"/></g></g></svg>