<svg xmlns="http://www.w3.org/2000/svg" viewBox="0 0 85.03 92.29"><defs><style>.cls-1{isolation:isolate;}.cls-2{fill:#87e1d1;}.cls-3{fill:#00698f;}.cls-4{fill:#005470;}.cls-5{fill:#e6e6e6;mix-blend-mode:multiply;}.cls-6{fill:#2d2a26;}</style></defs><title>gracias-logo</title><g class="cls-1"><g id="Capa_2" data-name="Capa 2"><g id="Capa_1-2" data-name="Capa 1"><rect class="cls-2" x="12.34" y="43.89" width="16.87" height="16.87" rx="8.43"/><rect class="cls-3" x="34.16" y="22.36" width="17.15" height="38.52" rx="8.57"/><rect class="cls-4" x="55.7" y="0.01" width="17.23" height="60.87" rx="8.61"/><rect class="cls-5" x="12.34" y="22.05" width="16.87" height="16.87" rx="8.43"/><rect class="cls-5" x="12.34" width="16.87" height="16.87" rx="8.43"/><rect class="cls-5" x="34.44" width="16.87" height="16.87" rx="8.43"/><path class="cls-6" d="M.16,90.94l4.53-6.1L.3,79a.61.61,0,0,1,.52-1h2.9a1.2,1.2,0,0,1,1.15.48l2.26,3.28h0l2.3-3.28a1.1,1.1,0,0,1,1-.48h3.14c.59,0,.77.55.42,1L9.68,84.8l4.42,6.14c.32.45.14,1-.42,1H10.62a1.13,1.13,0,0,1-1-.56L7.17,87.9h0L4.48,91.67a.84.84,0,0,1-.55.28H.58C0,92-.15,91.39.16,90.94Z"/><path class="cls-6" d="M16.75,86.39V84.05a.64.64,0,0,1,.67-.66h7.77a.64.64,0,0,1,.66.66v2.34a.63.63,0,0,1-.66.62H17.42A.63.63,0,0,1,16.75,86.39Z"/><path class="cls-6" d="M35.68,77.66a8.51,8.51,0,0,1,3.1.62V68.21a.68.68,0,0,1,.66-.66h3a.69.69,0,0,1,.67.66V91.28a.7.7,0,0,1-.67.67H41c-.31,0-.55-.28-.66-.67L40,90.2a6.09,6.09,0,0,1-4.56,2.09c-3.8,0-6.69-3.31-6.69-7.31S31.53,77.66,35.68,77.66ZM36,88.53a3,3,0,0,0,2.93-2.26v-4a4.53,4.53,0,0,0-2.72-.8A3.42,3.42,0,0,0,32.82,85,3.32,3.32,0,0,0,36,88.53Z"/><path class="cls-6" d="M51.82,83.13a9,9,0,0,1,2.54.38c0-1.78-.52-2.4-1.81-2.4a17.15,17.15,0,0,0-3.91.52c-.48.14-.73-.17-.8-.63l-.31-1.81a.68.68,0,0,1,.49-.87,19,19,0,0,1,4.74-.66c4.35,0,5.36,2.26,5.36,6.06v7.56a.69.69,0,0,1-.66.67H56.21c-.25,0-.42-.11-.6-.49l-.41-.94a6,6,0,0,1-4.26,1.77,4.44,4.44,0,0,1-4.7-4.77C46.24,85.05,48.26,83.13,51.82,83.13Zm.07,6.2A3.22,3.22,0,0,0,54.29,88V86.06a5.43,5.43,0,0,0-1.95-.42c-1.36,0-2.27.76-2.27,1.88A1.74,1.74,0,0,0,51.89,89.33Z"/><path class="cls-6" d="M62.86,81.66H61.68a.65.65,0,0,1-.63-.66V78.67a.63.63,0,0,1,.63-.66h1.18V74.14a.69.69,0,0,1,.67-.66l2.85,0a.65.65,0,0,1,.63.66V78h3.07a.64.64,0,0,1,.66.66V81a.66.66,0,0,1-.66.66H67v5.58c0,1,.52,1.12,1.08,1.12A5.6,5.6,0,0,0,69.8,88a.55.55,0,0,1,.77.39l.69,2.19a.63.63,0,0,1-.38.84,13.29,13.29,0,0,1-4.15.9c-2.68,0-3.87-1.67-3.87-4.49Z"/><path class="cls-6" d="M78.72,83.13a9,9,0,0,1,2.55.38c0-1.78-.53-2.4-1.82-2.4a17,17,0,0,0-3.9.52c-.49.14-.73-.17-.8-.63l-.31-1.81a.68.68,0,0,1,.48-.87,19,19,0,0,1,4.74-.66C84,77.66,85,79.92,85,83.72v7.56a.69.69,0,0,1-.66.67H83.11c-.24,0-.42-.11-.59-.49l-.42-.94a6,6,0,0,1-4.25,1.77,4.44,4.44,0,0,1-4.7-4.77C73.15,85.05,75.17,83.13,78.72,83.13Zm.07,6.2A3.22,3.22,0,0,0,81.2,88V86.06a5.45,5.45,0,0,0-2-.42c-1.35,0-2.26.76-2.26,1.88A1.73,1.73,0,0,0,78.79,89.33Z"/></g></g></g></svg>