<svg xmlns="http://www.w3.org/2000/svg" viewBox="0 0 18.84 18.85"><defs><style>.cls-1{fill:#b3b3b3;}</style></defs><title>iconig</title><g id="Capa_2" data-name="Capa 2"><g id="Capa_1-2" data-name="Capa 1"><path class="cls-1" d="M18.79,5.54a6.9,6.9,0,0,0-.43-2.29,4.65,4.65,0,0,0-1.09-1.67A4.58,4.58,0,0,0,15.6.5,6.88,6.88,0,0,0,13.31.06C12.3,0,12,0,9.42,0S6.55,0,5.54.06A6.9,6.9,0,0,0,3.25.49,4.65,4.65,0,0,0,1.58,1.58,4.5,4.5,0,0,0,.5,3.25,6.88,6.88,0,0,0,.06,5.54C0,6.55,0,6.87,0,9.42s0,2.88.06,3.89a6.79,6.79,0,0,0,.43,2.28,4.6,4.6,0,0,0,1.09,1.68,4.63,4.63,0,0,0,1.67,1.08,6.88,6.88,0,0,0,2.29.44c1,0,1.32.06,3.88.06s2.88,0,3.89-.06a6.81,6.81,0,0,0,2.28-.44,4.81,4.81,0,0,0,2.76-2.76,7.07,7.07,0,0,0,.44-2.28c0-1,.05-1.33.05-3.89S18.84,6.55,18.79,5.54Zm-1.69,7.7A5,5,0,0,1,16.77,15,3.1,3.1,0,0,1,15,16.77a5.07,5.07,0,0,1-1.74.33c-1,0-1.3,0-3.81,0s-2.82,0-3.81,0a5.09,5.09,0,0,1-1.75-.33,2.88,2.88,0,0,1-1.08-.7A3,3,0,0,1,2.09,15a5.09,5.09,0,0,1-.33-1.75c0-1-.05-1.29-.05-3.81s0-2.81.05-3.8a5.09,5.09,0,0,1,.33-1.75A3,3,0,0,1,3.88,2.09a5.15,5.15,0,0,1,1.75-.32c1-.05,1.29-.06,3.8-.06s2.82,0,3.81.06A5.15,5.15,0,0,1,15,2.09a2.88,2.88,0,0,1,1.08.7,3,3,0,0,1,.7,1.09,5.09,5.09,0,0,1,.33,1.75c0,1,0,1.29,0,3.8S17.14,12.24,17.1,13.24Z"/><path class="cls-1" d="M9.42,4.58a4.85,4.85,0,1,0,4.85,4.84A4.84,4.84,0,0,0,9.42,4.58Zm0,8a3.15,3.15,0,1,1,3.15-3.15A3.15,3.15,0,0,1,9.42,12.57Z"/><path class="cls-1" d="M15.59,4.39a1.13,1.13,0,1,1-1.13-1.13A1.13,1.13,0,0,1,15.59,4.39Z"/></g></g></svg>