<svg xmlns="http://www.w3.org/2000/svg" viewBox="0 0 39.58 39.58"><defs><style>.cls-1{fill:#113339}</style></defs><g id="Capa_2" data-name="Capa 2"><g id="Capa_1-2" data-name="Capa 1"><path class="cls-1" d="M21.6 39.58H18a3.44 3.44 0 0 0-.55-.15A19.78 19.78 0 1 1 39 15c.25 1 .4 2 .6 3v3.63a3.44 3.44 0 0 0-.15.55 19.8 19.8 0 0 1-14.64 16.74c-1.05.28-2.14.45-3.21.66ZM19.79 3.31a16.49 16.49 0 1 0 16.49 16.45A16.55 16.55 0 0 0 19.79 3.31Z"/><path class="cls-1" d="M18.2 16.54h3.24V18a11.7 11.7 0 0 1 1.85-1.21 3.23 3.23 0 0 1 4.54 2.54 28.5 28.5 0 0 1 .2 3.93v3.1h-3.29v-4.34a5.47 5.47 0 0 0-.2-1.46 1.46 1.46 0 0 0-2.76-.15 4.52 4.52 0 0 0-.32 1.5v4.47H18.2ZM13.24 16.54h3.2v9.8h-3.2ZM14.84 14.85a1.65 1.65 0 1 1 1.65-1.61 1.65 1.65 0 0 1-1.65 1.61Z"/></g></g></svg>