<svg xmlns="http://www.w3.org/2000/svg" viewBox="0 0 84.14 67.89"><defs><style>.cls-1{fill:#fff;stroke:#f2f2f2;stroke-miterlimit:10;fill-rule:evenodd;}</style></defs><title>inroads</title><g id="Capa_2" data-name="Capa 2"><g id="Capa_1-2" data-name="Capa 1"><polygon class="cls-1" points="2 53.93 32.79 53.93 38.36 2.7 2 53.93 2 53.93"/><polygon class="cls-1" points="80.86 53.93 50.06 53.93 44.5 2.7 80.86 53.93 80.86 53.93"/><polygon class="cls-1" points="0.97 53.09 31.69 53.09 37.32 1.86 0.97 53.09 0.97 53.09"/><polygon class="cls-1" points="79.76 53.09 49.03 53.09 43.4 1.86 79.76 53.09 79.76 53.09"/><path class="cls-1" d="M2.07,65c0,1.17-.13,1.36-1.1,1.36v.84H6v-.84c-1,0-1.1-.19-1.1-1.36V57.81c0-1.16.07-1.35,1.1-1.35v-.84H1v.84c1,0,1.1.19,1.1,1.35V65Z"/><path class="cls-1" d="M10.41,55.62H6.53v.84c1.1,0,1.29.19,1.29,1.35V65c0,1.17-.19,1.36-1.22,1.36v.84h3.55v-.84c-1.1,0-1.23-.19-1.23-1.36V58.14H9l6.08,9.25h1.75V57.81c0-1.16.19-1.35,1.16-1.35v-.84H14.42v.84c1.1,0,1.3.19,1.3,1.35V63.7h-.07l-5.24-8.08Z"/><path class="cls-1" d="M26.58,61.76a3.68,3.68,0,0,0,2.07-1.1,3,3,0,0,0,.72-1.94,2.61,2.61,0,0,0-1.23-2.33,6.78,6.78,0,0,0-3.82-.77H19v.84c1.22,0,1.29.19,1.29,1.35V65c0,1.17-.07,1.36-1.29,1.36v.78h5.3v-.78c-1.1,0-1.16-.19-1.16-1.36V62.08H24l2.91,5H30.4v-.78c-.52,0-.84-.13-1.49-1.1l-2.33-3.49Zm-3.42-4.2c0-.78.06-1,.45-1h.71a2.32,2.32,0,0,1,1.62.51,2.63,2.63,0,0,1,.51,1.68,2.08,2.08,0,0,1-.64,1.75,2.37,2.37,0,0,1-1.75.58h-.9V57.56Z"/><path class="cls-1" d="M37.52,67.39a6.51,6.51,0,0,0,4.72-1.55,5.93,5.93,0,0,0,1.49-4.4,5.83,5.83,0,0,0-1.88-4.73,7,7,0,0,0-4.33-1.29,7.06,7.06,0,0,0-4.34,1.29,5.86,5.86,0,0,0-1.94,4.73,6.19,6.19,0,0,0,1.49,4.4,6.61,6.61,0,0,0,4.72,1.55Zm0-11.06a2.74,2.74,0,0,1,2.26,1c.65.71,1,1.94,1,4.07a7.15,7.15,0,0,1-1,4.08,3,3,0,0,1-2.39,1.1,3.11,3.11,0,0,1-2.33-1.1,7.27,7.27,0,0,1-.9-4.08c0-2.13.32-3.36,1-4.07a2.74,2.74,0,0,1,2.26-1Z"/><path class="cls-1" d="M51.62,63.83l.58,1.49c.26.77.26,1-.71,1v.84h4.85v-.84c-.58,0-.78-.19-1.17-1.1l-4-9.83H49.42l-3.69,10c-.26.71-.52.9-1,.9v.84h3v-.84c-.91,0-1-.19-.65-1.16l.45-1.36Zm-.33-1H47.93l1.55-4.6h.07l1.74,4.6Z"/><path class="cls-1" d="M57.05,67.19h5.43c2.85,0,4.27-.58,5.37-1.68a6.34,6.34,0,0,0,1.36-4.27,5.7,5.7,0,0,0-1.49-4.14c-1.1-1-2.58-1.42-4.78-1.42l-5.89-.06v.84c1.29,0,1.42.19,1.42,1.35V65c0,1.17-.13,1.36-1.42,1.36v.84Zm4.27-9.63c0-.85.06-1,.65-1h.9a2.76,2.76,0,0,1,2.46,1.16,6.22,6.22,0,0,1,.91,3.69,5.64,5.64,0,0,1-.91,3.62,3.3,3.3,0,0,1-2.72,1.23H62c-.59,0-.71-.2-.71-1.1l.06-7.63Z"/><path class="cls-1" d="M79.69,58.59A22.51,22.51,0,0,1,79.24,56a9.6,9.6,0,0,0-3.49-.58,7.34,7.34,0,0,0-3.56.78,2.8,2.8,0,0,0-1.36,2.33,2.94,2.94,0,0,0,.65,1.81,8.27,8.27,0,0,0,3.36,1.94,7,7,0,0,1,2.33,1.16,1.65,1.65,0,0,1,.52,1.17A1.56,1.56,0,0,1,77,65.9a3,3,0,0,1-1.81.52c-1.68,0-2.84-.52-3.49-2.72l-1,.26a21.92,21.92,0,0,1,.59,2.78,13.23,13.23,0,0,0,3.88.65,6.31,6.31,0,0,0,4.14-1.23,3.11,3.11,0,0,0,1.1-2.39,3,3,0,0,0-.84-2.07,9.77,9.77,0,0,0-3.37-1.82,9.28,9.28,0,0,1-2.13-1,1.25,1.25,0,0,1-.52-1,1.13,1.13,0,0,1,.45-.9,2.92,2.92,0,0,1,1.82-.52c1.87,0,2.45.58,2.91,2.39l1-.19Z"/><path class="cls-1" d="M82,66.48h.25V65.9h.2l.39.58h.25l-.38-.58c.13-.06.32-.13.32-.39a.33.33,0,0,0-.13-.26.86.86,0,0,0-.52-.13H82v1.36Zm.25-1.16h.13c.2,0,.39,0,.39.19s-.13.26-.32.26h-.2v-.45Zm.2-.71a1.27,1.27,0,0,0-1.23,1.23,1.23,1.23,0,0,0,2.46,0,1.28,1.28,0,0,0-1.23-1.23Zm0,.19a1,1,0,1,1-1,1,1,1,0,0,1,1-1Z"/></g></g></svg>