<svg xmlns="http://www.w3.org/2000/svg" viewBox="0 0 67.38 67.33"><defs><style>.cls-1{fill:#0075a9;}</style></defs><title>instagram-social</title><g id="Capa_2" data-name="Capa 2"><g id="Capa_1-2" data-name="Capa 1"><g id="_17eJd3.tif" data-name="17eJd3.tif"><path class="cls-1" d="M37.37,67.33H30.08a5.32,5.32,0,0,0-.77-.25A33.73,33.73,0,0,1,.42,28.44C2.89,12.88,16.14.79,31.55,0,48-.75,62.23,9.5,66.31,25.15c.42,1.61.72,3.26,1.07,4.88v7.3a3.56,3.56,0,0,0-.25.76A33.59,33.59,0,0,1,42.25,66.27C40.64,66.69,39,67,37.37,67.33ZM61.72,33.65c0-15.19-12.53-27.95-27.47-28-16,0-28.55,12.38-28.54,28.17a28,28,0,0,0,56-.2Z"/><path class="cls-1" d="M33.6,50.38a73,73,0,0,1-7.69-.05c-5.56-.58-8.42-3.29-8.81-8.87a113.22,113.22,0,0,1,0-15.52c.39-5.64,3.28-8.52,8.92-8.9a115,115,0,0,1,15.53,0c5.57.39,8.43,3.26,8.81,8.84a111.65,111.65,0,0,1,0,15.52c-.41,5.86-3.86,8.81-9.75,9-2.33.08-4.67,0-7,0ZM47.33,33.8h.09c0-2.29.08-4.58,0-6.86-.19-4.35-2-6.58-6.21-6.8a154.51,154.51,0,0,0-15.52.09c-3.31.17-5.24,2.07-5.39,5.37-.23,5.39-.23,10.81,0,16.21a5.14,5.14,0,0,0,5.29,5.31c5.21.26,10.45.35,15.66.09,4-.2,5.65-2,6.05-6A73.22,73.22,0,0,0,47.33,33.8Z"/><path class="cls-1" d="M33.77,42.37a8.69,8.69,0,1,1,8.65-8.66A8.72,8.72,0,0,1,33.77,42.37Zm0-14.25a5.56,5.56,0,1,0,5.52,5.55A5.59,5.59,0,0,0,33.79,28.12Z"/><path class="cls-1" d="M42.64,26.71a2,2,0,1,1,2.07-1.94A1.9,1.9,0,0,1,42.64,26.71Z"/></g></g></g></svg>