<svg xmlns="http://www.w3.org/2000/svg" xmlns:xlink="http://www.w3.org/1999/xlink" viewBox="0 0 229.33 161.12"><defs><style>.cls-1{fill:none;stroke-miterlimit:10;stroke-width:2px;stroke:url(#Degradado_sin_nombre_58);}.cls-2{fill:url(#Degradado_sin_nombre_58-2);}.cls-3{opacity:0.3;fill:url(#Degradado_sin_nombre_53);}</style><linearGradient id="Degradado_sin_nombre_58" x1="79.1" y1="77.01" x2="222.33" y2="77.01" gradientUnits="userSpaceOnUse"><stop offset="0" stop-color="#efeedf" stop-opacity="0"/><stop offset="0.03" stop-color="#f1f0e2" stop-opacity="0.11"/><stop offset="0.1" stop-color="#f4f3e8" stop-opacity="0.29"/><stop offset="0.17" stop-color="#f6f5ee" stop-opacity="0.46"/><stop offset="0.24" stop-color="#f9f8f2" stop-opacity="0.61"/><stop offset="0.32" stop-color="#fbfaf6" stop-opacity="0.73"/><stop offset="0.41" stop-color="#fcfbfa" stop-opacity="0.83"/><stop offset="0.51" stop-color="#fdfcfc" stop-opacity="0.91"/><stop offset="0.62" stop-color="#fefdfe" stop-opacity="0.96"/><stop offset="0.75" stop-color="#fffeff" stop-opacity="0.99"/><stop offset="1" stop-color="#fffeff"/></linearGradient><linearGradient id="Degradado_sin_nombre_58-2" x1="79.1" y1="77.01" x2="222.33" y2="77.01" xlink:href="#Degradado_sin_nombre_58"/><linearGradient id="Degradado_sin_nombre_53" x1="114.97" y1="262.72" x2="114.23" y2="9.16" gradientUnits="userSpaceOnUse"><stop offset="0.24" stop-color="#efeedf" stop-opacity="0"/><stop offset="0.37" stop-color="#edd8c8" stop-opacity="0.15"/><stop offset="0.67" stop-color="#e79f8d" stop-opacity="0.53"/><stop offset="1" stop-color="#e05a44"/></linearGradient></defs><g id="Capa_2" data-name="Capa 2"><g id="Guia"><line class="cls-1" x1="79.1" y1="77.01" x2="220.16" y2="77.01"/><polygon class="cls-2" points="213.53 85.19 212.17 83.72 219.39 77.01 212.17 70.29 213.53 68.83 222.33 77.01 213.53 85.19"/><path class="cls-3" d="M0,161.12,58.48,5.64A8.7,8.7,0,0,1,74.89,6L121.49,147a8.7,8.7,0,0,0,15.89,1.45l46.33-84.54a8.7,8.7,0,0,1,15.88,1.43l29.74,89.19"/></g></g></svg>