<svg xmlns="http://www.w3.org/2000/svg" xmlns:xlink="http://www.w3.org/1999/xlink" viewBox="0 0 2595.21 487.03"><defs><style>.cls-1{isolation:isolate;}.cls-2,.cls-3,.cls-4,.cls-5,.cls-6{fill:none;stroke-miterlimit:10;}.cls-2,.cls-3,.cls-4,.cls-5{stroke-linecap:round;mix-blend-mode:multiply;}.cls-2,.cls-3,.cls-4{stroke-width:50px;}.cls-2{stroke:url(#Degradado_sin_nombre_8);}.cls-3{stroke:url(#Degradado_sin_nombre_8-2);}.cls-4{stroke:url(#Degradado_sin_nombre_8-3);}.cls-5{stroke:#5471e8;stroke-width:50.42px;}.cls-6{stroke:#f2f2f2;stroke-width:8px;}</style><linearGradient id="Degradado_sin_nombre_8" y1="25.03" x2="440.37" y2="25.03" gradientUnits="userSpaceOnUse"><stop offset="0" stop-color="#31dcc7"/><stop offset="1" stop-color="#31dc9e"/></linearGradient><linearGradient id="Degradado_sin_nombre_8-2" x1="6490.25" y1="-4700.68" x2="6584.17" y2="-4700.68" xlink:href="#Degradado_sin_nombre_8"/><linearGradient id="Degradado_sin_nombre_8-3" x1="285.42" y1="395.33" x2="481.28" y2="395.33" xlink:href="#Degradado_sin_nombre_8"/></defs><title>lineacruzadaxl</title><g class="cls-1"><g id="Capa_2" data-name="Capa 2"><g id="Capa_1-2" data-name="Capa 1"><line class="cls-2" x1="25" y1="25" x2="415.37" y2="25.06"/><path class="cls-3" d="M6515.25-4856.77c24.26,0,43.92,15.72,43.92,35.12v277" transform="translate(-6102 4883)"/><path class="cls-4" d="M377.12,328.62h79.15a0,0,0,0,1,0,0v66.7a66.7,66.7,0,0,1-66.7,66.7H377.12a66.7,66.7,0,0,1-66.7-66.7v0A66.7,66.7,0,0,1,377.12,328.62Z"/><line class="cls-5" x1="453" y1="332.74" x2="2570" y2="334"/><circle class="cls-6" cx="415.38" cy="25.39" r="20.71"/><circle class="cls-6" cx="453.57" cy="332.48" r="20.71"/><circle class="cls-6" cx="24.77" cy="25.38" r="20.71"/></g></g></g></svg>