<svg xmlns="http://www.w3.org/2000/svg" viewBox="0 0 534.02 281.33"><defs><style>.cls-1{fill:#4b4c4c;}.cls-2{fill:#efeedf;}.cls-3{fill:#cccbc0;}</style></defs><g id="Capa_2" data-name="Capa 2"><g id="Capa_1-2" data-name="Capa 1"><path class="cls-1" d="M4.79,49.95h418.4A15.8,15.8,0,0,1,439,65.75v0a15.8,15.8,0,0,1-15.8,15.8H4.79A4.79,4.79,0,0,1,0,76.77v-22a4.79,4.79,0,0,1,4.79-4.79Z"/><path class="cls-2" d="M4.79,96.77h456a15.8,15.8,0,0,1,15.8,15.8v0a15.8,15.8,0,0,1-15.8,15.8H4.79A4.79,4.79,0,0,1,0,123.59v-22a4.79,4.79,0,0,1,4.79-4.79Z"/><path class="cls-1" d="M4.79,149.83h502a15.8,15.8,0,0,1,15.8,15.8v0a15.8,15.8,0,0,1-15.8,15.8H4.79A4.79,4.79,0,0,1,0,176.65v-22a4.79,4.79,0,0,1,4.79-4.79Z"/><path class="cls-2" d="M4.79,196.66h386a15.8,15.8,0,0,1,15.8,15.8v0a15.8,15.8,0,0,1-15.8,15.8H4.79A4.79,4.79,0,0,1,0,223.48v-22a4.79,4.79,0,0,1,4.79-4.79Z"/><path class="cls-3" d="M4.79,0H518.21A15.8,15.8,0,0,1,534,15.8v0a15.8,15.8,0,0,1-15.8,15.8H4.79A4.79,4.79,0,0,1,0,26.82v-22A4.79,4.79,0,0,1,4.79,0Z"/><path class="cls-3" d="M4.79,249.72H436.22a15.8,15.8,0,0,1,15.8,15.8v0a15.8,15.8,0,0,1-15.8,15.8H4.79A4.79,4.79,0,0,1,0,276.54v-22a4.79,4.79,0,0,1,4.79-4.79Z"/></g></g></svg>