<svg xmlns="http://www.w3.org/2000/svg" viewBox="0 0 67.32 67.32"><defs><style>.cls-1{fill:#0075a9;}</style></defs><title>linkedin-social</title><g id="Capa_2" data-name="Capa 2"><g id="Capa_1-2" data-name="Capa 1"><path class="cls-1" d="M36.75,67.32H30.58a7.51,7.51,0,0,0-.93-.25c-24.12-2.78-37.42-30-24.8-50.73A33.6,33.6,0,0,1,66.3,25.53c.42,1.67.68,3.37,1,5.06v6.17a6.34,6.34,0,0,0-.26.92A33.69,33.69,0,0,1,42.2,66.21C40.41,66.67,38.57,67,36.75,67.32ZM33.67,5.63a28,28,0,1,0,28,28A28.14,28.14,0,0,0,33.67,5.63Z"/><path class="cls-1" d="M31,28.13h5.51v2.43a19.52,19.52,0,0,1,3.15-2.06,5.48,5.48,0,0,1,7.71,4.32,45.16,45.16,0,0,1,.34,6.7c0,1.72,0,3.44,0,5.27h-5.6c0-2.47,0-4.93,0-7.39a8.52,8.52,0,0,0-.34-2.47A2.48,2.48,0,0,0,37,34.66a7.24,7.24,0,0,0-.54,2.56c-.07,2.51,0,5,0,7.6H31Z"/><path class="cls-1" d="M22.52,28.13H28V44.8H22.52Z"/><path class="cls-1" d="M25.25,25.26A2.81,2.81,0,1,1,28,22.53,2.81,2.81,0,0,1,25.25,25.26Z"/></g></g></svg>