<?xml version="1.0" encoding="utf-8"?>
<!-- Generator: Adobe Illustrator 16.0.0, SVG Export Plug-In . SVG Version: 6.00 Build 0)  -->
<!DOCTYPE svg PUBLIC "-//W3C//DTD SVG 1.1//EN" "http://www.w3.org/Graphics/SVG/1.1/DTD/svg11.dtd">
<svg version="1.1" id="Capa_1" xmlns="http://www.w3.org/2000/svg" xmlns:xlink="http://www.w3.org/1999/xlink" x="0px" y="0px"
	 width="183px" height="59px" viewBox="0 0 183 59" enable-background="new 0 0 183 59" xml:space="preserve">
<g>
	<defs>
		<rect id="SVGID_1_" width="183" height="59"/>
	</defs>
	<clipPath id="SVGID_2_">
		<use xlink:href="#SVGID_1_"  overflow="visible"/>
	</clipPath>
	<g clip-path="url(#SVGID_2_)">
		<defs>
			<rect id="SVGID_3_" width="183" height="59"/>
		</defs>
		<clipPath id="SVGID_4_">
			<use xlink:href="#SVGID_3_"  overflow="visible"/>
		</clipPath>
		<path clip-path="url(#SVGID_4_)" fill="#A8E1D0" d="M11.501,55.514L11.501,55.514c-3.949,0-7.15-3.201-7.15-7.15
			c0-3.948,3.201-7.149,7.15-7.149s7.15,3.201,7.15,7.149C18.651,52.312,15.45,55.514,11.501,55.514"/>
		<path clip-path="url(#SVGID_4_)" fill="#25698C" d="M30.284,55.613h-0.209c-3.957,0-7.164-3.208-7.164-7.164V30.12
			c0-3.957,3.207-7.164,7.164-7.164h0.209c3.957,0,7.164,3.207,7.164,7.164v18.329C37.448,52.405,34.241,55.613,30.284,55.613"/>
		<path clip-path="url(#SVGID_4_)" fill="#22556E" d="M48.543,55.613H48.3c-3.966,0-7.181-3.215-7.181-7.181V11.187
			c0-3.966,3.215-7.18,7.181-7.18h0.243c3.966,0,7.181,3.214,7.181,7.18v37.246C55.724,52.398,52.509,55.613,48.543,55.613"/>
		<g clip-path="url(#SVGID_4_)">
			<g>
				<defs>
					<rect id="SVGID_5_" x="4.351" y="22.692" width="14.3" height="14.3"/>
				</defs>
				<clipPath id="SVGID_6_">
					<use xlink:href="#SVGID_5_"  overflow="visible"/>
				</clipPath>
				<path clip-path="url(#SVGID_6_)" fill="#E6E6E6" d="M11.501,36.992L11.501,36.992c-3.949,0-7.15-3.201-7.15-7.149
					c0-3.95,3.201-7.151,7.15-7.151s7.15,3.201,7.15,7.151C18.651,33.791,15.45,36.992,11.501,36.992"/>
			</g>
		</g>
		<g clip-path="url(#SVGID_4_)">
			<g>
				<defs>
					<rect id="SVGID_7_" x="4.351" y="4" width="14.3" height="14.301"/>
				</defs>
				<clipPath id="SVGID_8_">
					<use xlink:href="#SVGID_7_"  overflow="visible"/>
				</clipPath>
				<path clip-path="url(#SVGID_8_)" fill="#E6E6E6" d="M11.501,18.301L11.501,18.301c-3.949,0-7.15-3.201-7.15-7.15
					C4.351,7.201,7.552,4,11.501,4s7.15,3.201,7.15,7.151C18.651,15.1,15.45,18.301,11.501,18.301"/>
			</g>
		</g>
		<g clip-path="url(#SVGID_4_)">
			<g>
				<defs>
					<rect id="SVGID_9_" x="23.029" y="4" width="14.301" height="14.301"/>
				</defs>
				<clipPath id="SVGID_10_">
					<use xlink:href="#SVGID_9_"  overflow="visible"/>
				</clipPath>
				<path clip-path="url(#SVGID_10_)" fill="#E6E6E6" d="M30.18,18.301L30.18,18.301c-3.949,0-7.15-3.201-7.15-7.15
					C23.03,7.201,26.23,4,30.18,4s7.15,3.201,7.15,7.151C37.33,15.1,34.129,18.301,30.18,18.301"/>
			</g>
		</g>
		<path clip-path="url(#SVGID_4_)" fill="#312E2A" d="M67.583,40.045l5.91-7.957l-5.729-7.594c-0.454-0.591-0.091-1.318,0.682-1.318
			h3.775c0.591,0,1.091,0.045,1.5,0.636l2.956,4.274h0.045l3.002-4.274c0.363-0.499,0.727-0.636,1.363-0.636h4.093
			c0.772,0,1,0.727,0.546,1.318l-5.73,7.548l5.774,8.003c0.41,0.592,0.182,1.319-0.545,1.319h-4.001
			c-0.591,0-0.955-0.273-1.274-0.728l-3.228-4.548h-0.045L73.221,41c-0.137,0.182-0.5,0.364-0.728,0.364h-4.365
			C67.355,41.364,67.173,40.637,67.583,40.045"/>
		<path clip-path="url(#SVGID_4_)" fill="#312E2A" d="M89.229,34.11v-3.047c0-0.499,0.363-0.863,0.863-0.863h10.141
			c0.5,0,0.863,0.364,0.863,0.863v3.047c0,0.455-0.363,0.819-0.863,0.819H90.092C89.592,34.93,89.229,34.565,89.229,34.11"/>
		<path clip-path="url(#SVGID_4_)" fill="#312E2A" d="M113.921,22.72c1.818,0,3.229,0.5,4.047,0.819V10.398
			c0-0.455,0.41-0.864,0.864-0.864h3.865c0.454,0,0.863,0.409,0.863,0.864V40.5c0,0.455-0.409,0.864-0.863,0.864h-1.773
			c-0.409,0-0.728-0.364-0.864-0.864l-0.454-1.41c0,0-2.138,2.729-5.957,2.729c-4.956,0-8.73-4.319-8.73-9.549
			C104.918,26.95,108.51,22.72,113.921,22.72 M114.33,36.907c2.41,0,3.501-1.863,3.82-2.955v-5.275c0,0-1.273-1.045-3.547-1.045
			c-2.547,0-4.411,2.091-4.411,4.637C110.192,34.816,111.92,36.907,114.33,36.907"/>
		<path clip-path="url(#SVGID_4_)" fill="#312E2A" d="M134.977,29.859c1.82,0,3.32,0.5,3.32,0.5
			c0.044-2.318-0.684-3.137-2.365-3.137c-1.683,0-4.047,0.364-5.093,0.682c-0.637,0.182-0.955-0.226-1.046-0.818l-0.409-2.364
			c-0.137-0.682,0.227-1.001,0.637-1.138c0.363-0.136,3.273-0.863,6.184-0.863c5.685,0,7.003,2.956,7.003,7.912V40.5
			c0,0.455-0.409,0.864-0.864,0.864h-1.637c-0.318,0-0.546-0.137-0.773-0.637l-0.545-1.228c-1.047,0.954-2.729,2.318-5.548,2.318
			c-3.638,0-6.139-2.364-6.139-6.229C127.701,32.36,130.339,29.859,134.977,29.859 M135.067,37.954c1.455,0,2.865-1.229,3.138-1.774
			v-2.5c0,0-1.228-0.546-2.547-0.546c-1.772,0-2.955,1-2.955,2.455C132.703,36.953,133.658,37.954,135.067,37.954"/>
		<path clip-path="url(#SVGID_4_)" fill="#312E2A" d="M149.393,27.949h-1.547c-0.454,0-0.818-0.408-0.818-0.863V24.04
			c0-0.501,0.364-0.864,0.818-0.864h1.547v-5.048c0-0.454,0.408-0.865,0.863-0.865l3.729-0.044c0.454,0,0.818,0.409,0.818,0.864
			v5.093h4.001c0.5,0,0.864,0.363,0.864,0.864v3.046c0,0.455-0.364,0.863-0.864,0.863h-4.001v7.275c0,1.274,0.682,1.455,1.409,1.455
			c0.772,0,1.728-0.317,2.228-0.5c0.501-0.182,0.864,0.046,1.001,0.5l0.909,2.865c0.183,0.455-0.045,0.909-0.5,1.092
			c-0.228,0.136-3.183,1.182-5.411,1.182c-3.501,0-5.047-2.183-5.047-5.866V27.949z"/>
		<path clip-path="url(#SVGID_4_)" fill="#312E2A" d="M170.083,29.859c1.818,0,3.318,0.5,3.318,0.5
			c0.046-2.318-0.682-3.137-2.363-3.137c-1.683,0-4.048,0.364-5.094,0.682c-0.636,0.182-0.954-0.226-1.046-0.818l-0.408-2.364
			c-0.137-0.682,0.227-1.001,0.636-1.138c0.364-0.136,3.274-0.863,6.185-0.863c5.684,0,7.003,2.956,7.003,7.912V40.5
			c0,0.455-0.411,0.864-0.864,0.864h-1.638c-0.317,0-0.545-0.137-0.772-0.637l-0.546-1.228c-1.046,0.954-2.728,2.318-5.548,2.318
			c-3.637,0-6.138-2.364-6.138-6.229C162.808,32.36,165.444,29.859,170.083,29.859 M170.174,37.954c1.455,0,2.864-1.229,3.138-1.774
			v-2.5c0,0-1.229-0.546-2.547-0.546c-1.773,0-2.956,1-2.956,2.455C167.809,36.953,168.764,37.954,170.174,37.954"/>
	</g>
</g>
</svg>
