<svg xmlns="http://www.w3.org/2000/svg" viewBox="0 0 71.72 77.84"><defs><style>.cls-1,.cls-2{fill:#113339}.cls-2{opacity:.4}</style></defs><g id="Capa_2" data-name="Capa 2"><g id="Capa_1-2" data-name="Capa 1"><rect class="cls-1" x="10.41" y="37.02" width="14.23" height="14.23" rx="7.11"/><rect class="cls-1" x="28.81" y="18.86" width="14.46" height="32.49" rx="7.23"/><rect class="cls-1" x="46.98" y=".01" width="14.53" height="51.34" rx="7.26"/><rect class="cls-2" x="10.41" y="18.59" width="14.23" height="14.23" rx="7.11"/><rect class="cls-2" x="10.41" width="14.23" height="14.23" rx="7.11"/><rect class="cls-2" x="29.05" width="14.23" height="14.23" rx="7.11"/><path class="cls-1" d="M.14 76.7 4 71.55.25 66.64a.52.52 0 0 1 .45-.85h2.44a1 1 0 0 1 1 .41L6 69l2-2.8a.93.93 0 0 1 .88-.41h2.64c.5 0 .65.47.36.85l-3.72 4.88 3.73 5.18c.27.38.12.85-.35.85H9a1 1 0 0 1-.83-.47l-2.12-2.94H6l-2.22 3.17a.72.72 0 0 1-.47.24H.49c-.49 0-.62-.47-.35-.85ZM14.13 72.86v-2a.55.55 0 0 1 .56-.56h6.55a.54.54 0 0 1 .56.56v2a.53.53 0 0 1-.56.53h-6.55a.53.53 0 0 1-.56-.53ZM30.09 65.5a7 7 0 0 1 2.62.53v-8.5a.58.58 0 0 1 .56-.56h2.5a.58.58 0 0 1 .55.56V77a.57.57 0 0 1-.55.56h-1.15c-.27 0-.47-.24-.56-.56l-.29-.91a5.18 5.18 0 0 1-3.85 1.76 5.89 5.89 0 0 1-5.65-6.17c0-3.45 2.32-6.18 5.82-6.18Zm.27 9.17a2.58 2.58 0 0 0 2.47-1.91v-3.41a3.82 3.82 0 0 0-2.3-.68 2.9 2.9 0 0 0-2.85 3 2.81 2.81 0 0 0 2.68 3ZM43.7 70.11a7.43 7.43 0 0 1 2.15.33c0-1.5-.44-2-1.53-2a13.86 13.86 0 0 0-3.29.44c-.41.12-.62-.15-.68-.53l-.26-1.53a.57.57 0 0 1 .41-.73 15.63 15.63 0 0 1 4-.56c3.67 0 4.52 1.91 4.52 5.11V77a.57.57 0 0 1-.56.56h-1.05c-.21 0-.36-.09-.5-.41l-.36-.79A5.06 5.06 0 0 1 43 77.84a3.75 3.75 0 0 1-4-4c0-2.11 1.7-3.73 4.7-3.73Zm.06 5.24a2.74 2.74 0 0 0 2-1.15v-1.62a4.61 4.61 0 0 0-1.65-.35c-1.14 0-1.91.65-1.91 1.59a1.47 1.47 0 0 0 1.56 1.53ZM53 68.88h-1a.56.56 0 0 1-.53-.56v-2a.54.54 0 0 1 .53-.56h1v-3.23a.59.59 0 0 1 .56-.56h2.41a.56.56 0 0 1 .53.56v3.29h2.59a.54.54 0 0 1 .55.56v2a.56.56 0 0 1-.55.56h-2.57v4.7c0 .83.44.94.91.94a4.65 4.65 0 0 0 1.44-.32.46.46 0 0 1 .65.32l.59 1.85a.54.54 0 0 1-.33.71 11 11 0 0 1-3.5.76C54 77.84 53 76.43 53 74.05ZM66.4 70.11a7.4 7.4 0 0 1 2.14.33c0-1.5-.44-2-1.53-2a14 14 0 0 0-3.29.44c-.41.12-.62-.15-.67-.53l-.27-1.53a.57.57 0 0 1 .41-.73 15.71 15.71 0 0 1 4-.56c3.67 0 4.53 1.91 4.53 5.11V77a.58.58 0 0 1-.56.56H70.1c-.21 0-.35-.09-.5-.41l-.35-.79a5.11 5.11 0 0 1-3.59 1.49 3.75 3.75 0 0 1-4-4c.03-2.12 1.74-3.74 4.74-3.74Zm.06 5.24a2.7 2.7 0 0 0 2-1.15v-1.62a4.6 4.6 0 0 0-1.64-.35c-1.15 0-1.91.65-1.91 1.59a1.46 1.46 0 0 0 1.55 1.53Z"/></g></g></svg>