<?xml version="1.0" standalone="no"?>
<!DOCTYPE svg PUBLIC "-//W3C//DTD SVG 20010904//EN"
 "http://www.w3.org/TR/2001/REC-SVG-20010904/DTD/svg10.dtd">
<svg version="1.0" xmlns="http://www.w3.org/2000/svg"
 width="70.000000pt" height="76.000000pt" viewBox="0 0 70.000000 76.000000"
 preserveAspectRatio="xMidYMid meet">

<g transform="translate(0.000000,76.000000) scale(0.100000,-0.100000)"
fill="#000000" stroke="none">
<path d="M482 737 c-21 -22 -22 -32 -22 -230 0 -194 1 -208 20 -227 27 -27 71
-26 98 3 21 22 22 32 22 228 0 202 0 206 -23 227 -30 28 -68 28 -95 -1z"/>
<path d="M323 570 c-35 -14 -43 -42 -43 -153 0 -90 3 -108 21 -131 25 -32 70
-35 99 -6 18 18 20 33 20 138 0 101 -3 121 -17 134 -25 22 -54 28 -80 18z"/>
<path d="M320 160 c0 -36 -3 -40 -24 -40 -33 0 -56 -25 -56 -60 0 -41 24 -61
71 -58 l39 3 0 98 c0 80 -3 97 -15 97 -11 0 -15 -11 -15 -40z m-2 -94 c2 -10
-1 -23 -7 -29 -16 -16 -44 14 -35 37 8 22 38 17 42 -8z"/>
<path d="M520 140 c0 -11 -4 -20 -10 -20 -5 0 -10 -7 -10 -15 0 -8 4 -15 9
-15 6 0 11 -19 13 -42 3 -44 20 -57 53 -44 17 6 9 36 -8 33 -7 -1 -13 10 -15
26 -2 19 1 27 12 27 9 0 16 7 16 15 0 8 -7 15 -15 15 -8 0 -15 9 -15 20 0 11
-7 20 -15 20 -8 0 -15 -9 -15 -20z"/>
<path d="M0 111 c0 -5 7 -14 15 -21 19 -16 19 -44 0 -60 -8 -7 -15 -16 -15
-21 0 -16 32 -10 46 9 13 16 15 16 25 0 11 -19 39 -25 39 -8 0 6 -7 21 -15 34
-14 21 -14 24 0 36 19 16 20 40 1 40 -7 0 -19 -7 -27 -16 -11 -14 -13 -14 -21
0 -9 17 -48 22 -48 7z"/>
<path d="M397 113 c-14 -14 -6 -23 21 -23 l27 -1 -32 -14 c-58 -25 -36 -78 28
-71 32 3 34 6 37 45 2 24 -2 49 -9 57 -12 14 -60 19 -72 7z m45 -75 c-9 -9
-15 -9 -24 0 -9 9 -7 12 12 12 19 0 21 -3 12 -12z"/>
<path d="M617 113 c-15 -14 -5 -23 26 -24 l32 -1 -35 -12 c-63 -23 -48 -76 21
-73 l39 1 0 46 c0 25 -5 51 -12 58 -13 13 -60 16 -71 5z m48 -73 c-3 -5 -10
-10 -16 -10 -5 0 -9 5 -9 10 0 6 7 10 16 10 8 0 12 -4 9 -10z"/>
<path d="M140 55 c0 -10 11 -15 35 -15 24 0 35 5 35 15 0 10 -11 15 -35 15
-24 0 -35 -5 -35 -15z"/>
</g>
</svg>
