<svg xmlns="http://www.w3.org/2000/svg" viewBox="0 0 74.17 21.29"><defs><style>.cls-1{fill:#00698f;}.cls-2{fill:#00394d;}</style></defs><title>nucleusresearch</title><g id="Capa_2" data-name="Capa 2"><g id="Capa_1-2" data-name="Capa 1"><path class="cls-1" d="M12.23,17.78c-.08-.76-.67-1.14-1.22-1.58l1.06,5c-.24.14-.35,0-.44-.18-.33-.78-.67-1.55-1-2.32l-.18-.38-.53,2.94-.17,0,.45-3.11-.16,0-.4,1.62H9.57L10,17.65l-.11,0L8.54,21.13l-.14,0c0-.13.06-.27.1-.39.36-.95.67-1.92,1.11-2.83A1.73,1.73,0,0,0,9.36,16l-.22.3c0-.06-.09-.17-.1-.16a8.92,8.92,0,0,0-1.3.68c-.15.11-.15.43-.27.64l.17-.74c-1.58.57-1.74,2-2.08,3.3L5.42,20l.16-.89,0,0L5,19.75l-.11-.06c.3-.79,1.12-1.36,1-2.35l-2.71,1-.07-.09.43-.52c0,.34.16.16.28.12l1.76-.68c.54-.2.7-.47.63-1.09l-.7.11c-.38.06-.8,0-1.06.38,0-.25-.1-.13-.18-.06-.42.37-.83.75-1.26,1.12a3.3,3.3,0,0,1-.3.22l-.1-.13L4,16.55l-.05-.09-1.71.74-.06-.13.55-.34v-.09H1.81v-.12a1.32,1.32,0,0,1,.26-.05,2.48,2.48,0,0,0,1.94-1,6,6,0,0,1,.66-.57l-1.3,1.32A3.48,3.48,0,0,0,6,14.42a1.06,1.06,0,0,0-1.16.33l.24-.35a2.68,2.68,0,0,0-1.78.24c-.51.36-1.08.65-1.62,1l-.34.17-.08-.14,2.86-1.73v-.1L.54,14c-.15-.17,0-.31.24-.47,1-.59,2.06-1.2,3.09-1.8.13-.07.26-.15.5-.31-1.52-.34-2.76-1.25-4.3-1.09l0-.1.27-.17L0,9.8c.11,0,.17-.06.21,0a8.46,8.46,0,0,0,3.38.47c.48,0,1,0,1.44,0,.08,0,.17-.08.25-.13.26.09.51.3.85,0A5.5,5.5,0,0,0,5.49,10s-.13.1-.2.15a3.23,3.23,0,0,0-.66-.4C3.34,9.35,2.05,9,.75,8.61L.29,8.46l0-.16L3,8.74V8.65C2.32,8.5,1.6,8.36.89,8.2A2.34,2.34,0,0,1,.39,8a2.61,2.61,0,0,1,.55-.14,8.94,8.94,0,0,0,1.12-.08L.69,6.91l.08-.12c.74.25,1.34.84,2.11,1L3,7.72,1.41,6.12l0,0c.52.47,1,.95,1.55,1.4a1,1,0,0,0,.58.24c.71,0,1.43,0,2.27,0C5.3,7.37,4.89,7,4.54,6.65A3.57,3.57,0,0,0,2.37,5.5a8.15,8.15,0,0,1-.85-.22l0-.15,1.53.33,0-.07c-.28-.25-.56-.49-.82-.75a1,1,0,0,1-.15-.31A3.75,3.75,0,0,0,5,5.91c0-.52-.4-.72-.74-1L4.37,5l.06-.06L3.08,3.18l.07-.05L3.93,4l.13-.11c0-.44-.42-.8-.42-1.25l.13,0,.68,1.56A2.67,2.67,0,0,0,5.6,5.47c.06,0,.13.07.15.13.36.81,1.12.82,1.87,1,0-.11-.06-.2-.1-.23-.29-.18-.35-.5-.48-.76a6.17,6.17,0,0,0-1.6-2l.62.48L6.13,4,4.81,1.79,5,1.71c.85,1.1,1.27,2.5,2.3,3.47l.12,0-1.53-4L6,1.11l1,2.4.08,0L6.54.93h.07c.14.65.27,1.3.42,1.94s.28,1.26.44,1.89A2.06,2.06,0,0,0,8.25,6L8,5.86c.12.76.27,1,.81.89L8.34,6l.31.17L7.47.5l.16,0L8.8,5.87h.07L10.32,0l.14,0a1.5,1.5,0,0,1,0,.3c-.32,1.37-.64,2.75-1,4.12a2.06,2.06,0,0,0,0,1.23c.14.45.26.9.39,1.36L9,7.37l-.08-.14-.79,1L8,8.11,7.16,8l.47.72c-.51-.13-.6-.94-1.37-.62L7,8.62l-.12.13L6.41,8.4c.13.51.15,1.08.9,1.1l0,.11L7,9.76l.2.73L6,10.58c.33.79.74.26,1.15.29-.11.06-.24.12-.35.19a2.72,2.72,0,0,0-.29.3l-.38,0A.25.25,0,0,0,6,10.89a.55.55,0,0,0-.38,0,2.19,2.19,0,0,0-.4.21l.5-.44-.07-.14L4,11c.46.46.83.17,1.21,0l-.39.32a.68.68,0,0,0,.85.08A1.6,1.6,0,0,1,6,11.33l-.6.31c.5.15.91.5,1.32,0l.36.08a3.51,3.51,0,0,1,.27.43c.09.21.33.38.06.65a.89.89,0,0,0-.12.65l.6-.46.07.06-.17.33a2.71,2.71,0,0,1,1.67.95c.1.1.36.09.54.08.46,0,.91-.26,1.38,0,.09.05.25,0,.4,0l-.07-.39.65.08c.13,0,.41-.29.44-.42s.17-.2.24-.19c.42.1.42.11.81-.15l-.6-.05v-.1a19.12,19.12,0,0,1,2.55-.29l-1.95-.54c.17-.06.27-.13.36-.12a3.2,3.2,0,0,1,.69.19,1.26,1.26,0,0,0,1,0c.32.14.67.46.93.39a16.45,16.45,0,0,0,2.16-.8c.07,0,.1-.13.16-.22l.39.05V11.8a4,4,0,0,0-2.12-.14c0-.07-.05-.2-.09-.21-.63-.1-1.26-.2-1.89-.27a3.89,3.89,0,0,0-.78.11l.64.61c-.13-.09-.27-.19-.41-.27s-.34-.16-.58-.26l.31-.29-.27-.4.05-.15c1.44.4,2.49-.5,3.73-1-1.36-.64-2.67-.3-4-.1l0-.14,1.34-.49-.88-.22a2.41,2.41,0,0,0-.53-.07c-.44,0-.62-.36-.9-.63.57-.29.54-.88.71-1.37L13,7.74l-.14-.1.59-.95-.06-.06-.56.49,0,0c.35-.36.71-.7,1-1.07a2.66,2.66,0,0,0,.5-.67c.43-1,.82-2,1.28-3.19l-.42.33L16,1.34l.14,0-1,2.67.08,0,1.54-2.29.15.09L15.65,4.25l.1.09L16.84,3l.13.13-.93,1c-.31.34-.63.66-.95,1l.09.11,1.17-.56L15.9,5c-.44.28-1,.43-1.21,1V5.69A1.51,1.51,0,0,0,14.1,7h0l-.1.27.09.06L17.76,4,17.71,4l-.85.45c.26-.18.51-.37.78-.53a6.87,6.87,0,0,1,.93-.5c-.14.42-.53.61-.81.89s-.67.61-1,.91l-1,.88-1,.93.31,0-.87.44a.34.34,0,0,0,.27,0A11.73,11.73,0,0,0,17.66,5.9c.06,0,.07-.14.1-.21l1.89-.91.07.08a1.79,1.79,0,0,1-.25.23,18.6,18.6,0,0,0-2,1.21c-.79.61-1.79.86-2.59,1.54a10.09,10.09,0,0,0,5.95-.91l.05.25-1.74.65,0,.09h1.53c.5,0,.52,0,.44.49L19,9.32v.13l2.41.6,0,.11-.94.06c-.08-.08-.14-.22-.23-.25a12.49,12.49,0,0,0-1.46-.37,2.18,2.18,0,0,0-.69.14l0,.13c.25.09.49.2.74.28.42.12.81.41,1.28.23,0,.08,0,.22.05.23a7.81,7.81,0,0,0,.82.14,3.84,3.84,0,0,0,.49,0c0,.16-.07.26-.1.36a6.89,6.89,0,0,0-.91-.14c-.53,0-1.06,0-1.59,0-.85,0-1.7-.1-2.55-.14h-.42a.38.38,0,0,0,.22.18c1.2.2,2.39.39,3.58.6a2.3,2.3,0,0,0,1.66-.5c.14.19.06.31-.13.38l-.58.24.74.19V12A.8.8,0,0,1,21,12a2.21,2.21,0,0,0-1.46.08,12.8,12.8,0,0,0-1.95.85l3.55-.17V13c-1.12.14-2.27.12-3.41.26,1,.24,2,.84,3.09.72,0,.37,0,.34-.33.34a10.74,10.74,0,0,0-2,.2,8.61,8.61,0,0,0,2.07.34H18.81l1.27,1-.06.08c-.28-.24-.58-.47-.85-.72A1.5,1.5,0,0,0,18,14.76c-.84,0-1.69,0-2.54.12,1.2,1,2.71,1.29,4.08,1.88l-.05.16-1-.35,0,.06.83.51,0,.11c-.14-.05-.28-.09-.41-.15l-3.24-1.59a.59.59,0,0,0-.39,0,4.65,4.65,0,0,0,.41.64c.75.82,1.51,1.62,2.22,2.49l-1.12-1-1.32-1.2-.75-.72.73.57c-.13-.65-.81-1.27-1.29-1.19l.43.5c-.41-.36-.83-.67-1.45-.32.91,1.64,2.27,3,3.32,4.51l-.13.1-1.35-1.7-.07.05,1,1.86-.15.09c-.07-.11-.14-.22-.2-.33-.6-1-1.18-2-1.8-3a12.46,12.46,0,0,0-1-1.33c-.09-.11-.27-.15-.4-.22l-.1.1c.25.86.43,1.74.75,2.57a3.55,3.55,0,0,0,.87,1c.2.2.43.36.64.54l-.14.14L13.2,18.3l-.14.09.76,2.53-.14,0-1.37-3.4-.1,0,0,.19ZM7.89,16.13l0-.23c-.09,0-.21,0-.26.09s-.23.35-.35.53l.12.1.55-.5s.12.14.15.13l1.15-.42,0-.12-.69.08C8.23,15.81,8,15.81,7.89,16.13ZM7.08,12.6S7,12.48,7,12.49l-1.64,1,.06.15.89-.23c.2,0,.46.06.58,0A.55.55,0,0,0,7.08,12.6ZM6.63,6.77,6,6.41,6,6.5C7,8,7,8,7.55,7.77l-.93-1,.91.84c.11.09.23.17.4.29-.06-1-.06-1-.89-1.2-.07,0-.14-.06-.2,0A.7.7,0,0,0,6.63,6.77Zm-4.9,6.59a1.18,1.18,0,0,0,.42,0l3.37-1.13.36-.15A1,1,0,0,0,4.71,12a3.72,3.72,0,0,1-.57.27l.8-.52a.66.66,0,0,0-.79,0c-1,.59-2,1.16-3,1.74l-.37.24,0,.08Zm15.52.18c-.19-.1-.42-.33-.57-.28-.68.2-1.35.48-2,.74.13.55.13.59.6.56.83-.06,1.66-.15,2.5-.24A.8.8,0,0,0,18,14.2l1.51-.06V14l-2.2-.63ZM6.7,12.25a2.45,2.45,0,0,0-.67,0c-1.22.4-2.44.82-3.66,1.24l-.31.14A5.55,5.55,0,0,0,6.7,12.25ZM3.38,8c.85,1,1.94,1,3.06,1.23-.18-.42-.32-.77-.49-1.1a.28.28,0,0,0-.24-.12Zm13.07.73a8.69,8.69,0,0,0,4.42-.63C19.36,8.11,17.87,8,16.45,8.77ZM11.59,20.52l.09,0c-.3-1.35-.59-2.7-.88-4.06,0,0-.05-.06-.14-.15a5.14,5.14,0,0,0-.14,1.7A20.87,20.87,0,0,0,11.59,20.52Zm7.9-9.83v-.18A7.39,7.39,0,0,0,18,10c-.55-.07-1,.36-1.45.64C17.51,10.64,18.5,10.76,19.49,10.69ZM8.23,14.54l-.07-.13a5,5,0,0,1-.82.36.9.9,0,0,0-.67,1C7.7,16,7.8,15.05,8.23,14.54Zm9.08-6.42c-1.06,0-2,0-3,.07A2.84,2.84,0,0,0,17.31,8.12ZM2.21,10.43a2.3,2.3,0,0,0,2.65.14c-.46-.05-.88-.12-1.3-.14S2.7,10.43,2.21,10.43Zm4.71,3.86a1.61,1.61,0,0,0,1.37-.15c.25-.15.18-.42,0-.47a1.58,1.58,0,0,0-.89,0C7.23,13.75,7.12,14,6.92,14.29ZM3.92,6,5.64,7.5C5.27,6.18,5.08,6,3.92,6ZM.79,8v.1l2.88.6C2.79,7.8,1.76,8,.79,8Zm8.39,7.54L8.7,14.46H8.52L8,15.67Zm1.67,0c.15.64.73.91,1.14,1.34-.1-.37-.26-.7-.36-1.06S11.26,15.33,10.85,15.55ZM17.47,9a1.76,1.76,0,0,0,2.22-.29ZM5.72,13.74A1.89,1.89,0,0,0,4,14.29C4.69,14.26,5.34,14.54,5.72,13.74Zm.78,1.45L5,15.93l0,.14A6.94,6.94,0,0,1,5.9,16C6.4,16,6.51,15.67,6.5,15.19ZM9.32,5.42H9.24c-.06.22-.13.44-.18.67-.14.55,0,.7.66.77ZM6.68,7.8,5.55,6.33l-.1.06a10.94,10.94,0,0,1,.44,1.07C6,7.83,6.22,8,6.68,7.8Zm6,9.88.11,0-.54-1.81-.11,0A2.73,2.73,0,0,0,12.64,17.68Zm-6.21-.83.13.1L7.33,16C6.52,16,6.48,16.07,6.43,16.85Zm7-3.09c.36.45.67.25,1,.06l-.17-.47Zm-6.89,0c-.53-.13-.82.16-1.09.53C6.11,14.41,6.18,14.37,6.52,13.72Zm3.91,1.95c-.77.11-.85.3-.41,1.08Zm3.94-2.38.18.5,1.12-.44,0-.06ZM6.71,14.52l-.1-.11-.93.82.08.09C6.08,15.06,6.68,15.13,6.71,14.52Zm3.91.41-.34-.41c-.09.11-.29.25-.26.31a1.48,1.48,0,0,0,.33.38ZM5.81,9.44l0,.1,1,.56C6.66,9.36,6.15,9.55,5.81,9.44ZM9,14.55l.38.91C9.54,14.73,9.41,14.47,9,14.55ZM3,9.07l1.52.43,0-.13A2.92,2.92,0,0,0,3,9.07ZM14.87,5l.15.11.76-1.23-.11-.08Zm-9.58.42-.14.13c.26.26.36.69.79.69Zm7.49,9.27,0,.18c.21.33.49.12.75.06l0-.12Zm-1.12.76.29.75.07,0v-.8Z"/><path class="cls-1" d="M12.51,6l-.42,1.25-.29-.11a7.75,7.75,0,0,1-.12-.82.91.91,0,0,1,.16-.44v.77l.15,0c.43-2.11.67-4.26,1.07-6.38h.12a3.09,3.09,0,0,1,0,.43c-.23,1.48-.48,3-.72,4.44,0,.24-.08.47-.1.71,0,0,.1.09.16.14Z"/><path class="cls-1" d="M11.6.17l.09,2.18.06,0L12,1.82h-.09l-.18,3.1V3.52l-.12,0-.47,1.73-.15,0a9.57,9.57,0,0,0,.52-5Z"/><path class="cls-1" d="M12.52,6c.23-.83.48-1.66.69-2.49.25-1,.46-2,.76-2.95-.21.94-.43,1.88-.63,2.82-.13.67-.19,1.37-.37,2-.05.18,0,.6-.46.58Z"/><path class="cls-2" d="M34.1,10.53A1.33,1.33,0,0,1,32.66,10c-.9-1-1.87-2-2.81-3a2.82,2.82,0,0,1-.24-.36l-.14.08v3.81h-1V5.28a1.49,1.49,0,0,1,1.6.48C31,6.82,32,7.8,32.88,8.81a3.36,3.36,0,0,0,.25.23V5.27h1Z"/><path class="cls-2" d="M68.46,9.22A6,6,0,0,1,69.3,9a.45.45,0,0,1,.38.14c.48.84,2.39.93,3.14.45a.47.47,0,0,0-.08-.9,11.35,11.35,0,0,0-1.34-.28,16.49,16.49,0,0,1-1.87-.47,1.15,1.15,0,0,1-.75-1.19,1.23,1.23,0,0,1,.75-1.2,4.19,4.19,0,0,1,3.85.16,4.36,4.36,0,0,1,.79.88c-.41.12-.69.21-1,.28A.22.22,0,0,1,73,6.76C72.45,5.9,71.58,6,70.75,6a1.28,1.28,0,0,0-.66.18.69.69,0,0,0-.31.45.57.57,0,0,0,.37.4c.55.15,1.13.23,1.7.35a11.71,11.71,0,0,1,1.33.32,1.31,1.31,0,0,1,.94,1.16,1.45,1.45,0,0,1-.77,1.45,4.4,4.4,0,0,1-4.14-.23A7.74,7.74,0,0,1,68.46,9.22Z"/><path class="cls-2" d="M55.73,5.26h4.74v.86H56.78V7.36h3.15v.92H56.78V9.66h3.77v.87H55.73Z"/><path class="cls-2" d="M48.4,6.94a5.91,5.91,0,0,1-.85,0,.61.61,0,0,1-.33-.25,2.32,2.32,0,0,0-3-.27,2,2,0,0,0-.18,2.8,2.25,2.25,0,0,0,3.33-.32.61.61,0,0,1,.4-.24,3.86,3.86,0,0,1,.69,0,2.17,2.17,0,0,1-.83,1.46,3.85,3.85,0,0,1-4,.07,2.77,2.77,0,0,1-1.05-3,2.36,2.36,0,0,1,2-1.94,4.18,4.18,0,0,1,2.4.11A2.24,2.24,0,0,1,48.4,6.94Z"/><path class="cls-2" d="M40.29,5.26h1c0,.15,0,.3,0,.44,0,.89,0,1.78,0,2.67a2.11,2.11,0,0,1-1.67,2.2,4.45,4.45,0,0,1-2.32,0,2,2,0,0,1-1.65-2c-.05-1.09,0-2.19,0-3.31h1V8.32a1.24,1.24,0,0,0,.7,1.26,2.64,2.64,0,0,0,2.2,0,1.3,1.3,0,0,0,.67-1.3c0-.85,0-1.7,0-2.55Z"/><path class="cls-2" d="M66.27,5.26h1c0,.63,0,1.25,0,1.86,0,.39,0,.79,0,1.18a2.09,2.09,0,0,1-1.77,2.3,4.55,4.55,0,0,1-2.4-.08,1.86,1.86,0,0,1-1.42-1.73c-.06-1.16,0-2.32,0-3.52h1V6.1c0,.61,0,1.22,0,1.82-.05,1.52.61,2,2.19,1.85,1-.08,1.37-.56,1.38-1.58S66.27,6.26,66.27,5.26Z"/><path class="cls-2" d="M31.62,15.3l1.51,2.06c-.42.1-.7.08-.94-.29s-.72-1-1.06-1.48a.58.58,0,0,0-.57-.29c-.48,0-1,0-1.49,0v2.08H28.5V12.66H30c.61,0,1.22,0,1.82.06.85.11,1.25.55,1.25,1.27s-.43,1.12-1.23,1.27Zm-2.54-2.06v1.51c.94,0,1.86,0,2.77,0a.68.68,0,0,0,.67-.76.67.67,0,0,0-.67-.73C30.94,13.21,30,13.24,29.08,13.24Z"/><path class="cls-2" d="M57.46,15.3v2.09h-.57V12.66h.63c.69,0,1.38,0,2.07,0a4.16,4.16,0,0,1,1,.14A1.1,1.1,0,0,1,61.48,14a1.19,1.19,0,0,1-.85,1.2c-.17.06-.36.09-.61.16l1.5,2a.72.72,0,0,1-.93-.3c-.32-.51-.72-1-1.06-1.48A.6.6,0,0,0,59,15.3C58.47,15.32,58,15.3,57.46,15.3Zm0-2.06v1.57h.93c.6,0,1.21,0,1.81-.07a.69.69,0,0,0,.68-.72.7.7,0,0,0-.68-.77C59.33,13.21,58.42,13.24,57.5,13.24Z"/><path class="cls-2" d="M49.72,5.26h1V9.62h3.83v.92H49.72Z"/><path class="cls-2" d="M44.2,13.54l-.38.31a2.72,2.72,0,0,0-2.64-.77,1,1,0,0,0-.56.22.91.91,0,0,0-.33.58.79.79,0,0,0,.39.54,3.79,3.79,0,0,0,1,.22c.54.09,1.1.12,1.64.23a1.16,1.16,0,0,1,1.06,1,1.27,1.27,0,0,1-.86,1.37,3.51,3.51,0,0,1-4-.83l.41-.38a2.75,2.75,0,0,0,3,.84,1.51,1.51,0,0,0,.53-.21.6.6,0,0,0,.36-.69,1,1,0,0,0-.48-.53,11.26,11.26,0,0,0-1.43-.26,9.92,9.92,0,0,1-1.46-.28A1.09,1.09,0,0,1,40,13C40.84,12.27,43.51,12.34,44.2,13.54Z"/><path class="cls-2" d="M46.15,14.7h3v.48h-3v1.7h3.69l0,.5H45.58V12.69h4.17v.49h-3.6Z"/><path class="cls-2" d="M34.53,12.68h4.19v.51h-3.6v1.5h3v.49h-3v1.71h3.66v.49H34.53Z"/><path class="cls-2" d="M69.51,15.21v2.18H69V12.68h.53v2h3.74v-2h.57v4.69h-.54V15.21Z"/><path class="cls-2" d="M50.41,17.36l1.78-3.47c.14-.28.3-.54.42-.83a.59.59,0,0,1,.59-.42c.36,0,.43.22.54.44.73,1.41,1.45,2.83,2.19,4.27-.38.11-.69.13-.81-.32a1.13,1.13,0,0,0-1.43-.88,10.72,10.72,0,0,1-1.7,0,.45.45,0,0,0-.52.33c-.07.18-.19.33-.25.51C51.09,17.38,50.85,17.5,50.41,17.36Zm2.75-4.25-1.25,2.53h2.51Z"/><path class="cls-2" d="M67.82,13.84l-.52.26a2.49,2.49,0,0,0-2.91-1A1.81,1.81,0,0,0,63.18,15a1.75,1.75,0,0,0,1.17,1.8,2.46,2.46,0,0,0,3-.91l.47.26a8.58,8.58,0,0,1-.66.76,3.23,3.23,0,0,1-3.84-.06,2.44,2.44,0,0,1-.63-2.64,2.21,2.21,0,0,1,1.92-1.63A3.13,3.13,0,0,1,67,13,5.87,5.87,0,0,1,67.82,13.84Z"/></g></g></svg>