<svg xmlns="http://www.w3.org/2000/svg" viewBox="0 0 236.4 152.67"><defs><style>.cls-1{fill:#fff;}.cls-2{font-size:28px;font-family:CircularStd-Black, Circular Std;font-weight:800;}.cls-2,.cls-3{fill:#0b3470;}</style></defs><title>obrero-sysco</title><g id="Capa_2" data-name="Capa 2"><g id="Capa_1-2" data-name="Capa 1"><circle class="cls-1" cx="212.86" cy="76.34" r="23.54"/><text class="cls-2" transform="translate(204.36 84.55)">=</text><g id="Delivery"><path class="cls-3" d="M15.27,66.36V60a11.65,11.65,0,0,1-5.09-9.67V30.53A2.55,2.55,0,0,1,7.63,28V22.9a22.9,22.9,0,0,1,45.8,0v2.55H66.16a2.54,2.54,0,1,1,0,5.08H50.89V43.26A17.84,17.84,0,0,1,35.62,60.89v5.27h2.55A17.83,17.83,0,0,1,56,84v17.81h5.09V48.35a2.55,2.55,0,0,1,2.54-2.55h71.25a2.55,2.55,0,0,1,2.54,2.55v61.06a2.55,2.55,0,0,1-2.54,2.55H111.7a12.74,12.74,0,0,1-12.46,10.18H91.6v7.63a2.54,2.54,0,0,1-2.54,2.54H73.79a2.54,2.54,0,0,1-2.54-2.54v-2.54H56v22.9a2.55,2.55,0,0,1-2.55,2.54H2.54A2.54,2.54,0,0,1,0,150.13V84A17.83,17.83,0,0,1,15.27,66.36ZM48.35,22.9a17.82,17.82,0,0,0-35.63,0v2.55H48.35ZM28,56h5.09A12.74,12.74,0,0,0,45.8,43.26V30.53H15.27V50.29a6.62,6.62,0,0,0,3.68,6,2.55,2.55,0,0,1,1.41,2.27v7.64H30.53V61.07H28A2.55,2.55,0,0,1,28,56Zm66.16-5.09V69l3.67-2.46a2.56,2.56,0,0,1,2.83,0L104.32,69V50.89Zm38.16,0h-22.9v22.9a2.54,2.54,0,0,1-4,2.12l-6.22-4.15L93,75.9a2.54,2.54,0,0,1-4-2.11V50.89H66.16v50.89h5.09V99.24a2.55,2.55,0,0,1,2.54-2.55H89.06a2.55,2.55,0,0,1,2.54,2.55v7.63h40.71ZM99.24,117.05a7.65,7.65,0,0,0,7.19-5.09H91.6v5.09Zm-22.9,10.18H86.51V101.78H76.34Zm-5.09-20.36h-28a7.64,7.64,0,0,1-7.64-7.63V89.06a7.63,7.63,0,1,0-15.26,0v15.26a17.83,17.83,0,0,0,17.81,17.82H71.25ZM38.17,127.23a22.93,22.93,0,0,1-22.9-22.91V89.06a12.72,12.72,0,0,1,25.44,0V99.24a2.55,2.55,0,0,0,2.55,2.54h7.63V84A12.73,12.73,0,0,0,38.17,71.25H17.81A12.73,12.73,0,0,0,5.09,84V137.4h45.8V127.23ZM5.09,147.58h45.8v-5.09H5.09Z"/></g></g></g></svg>