<svg xmlns="http://www.w3.org/2000/svg" viewBox="0 0 158.08 49.06"><defs><style>.cls-1,.cls-2{fill:#fff;}.cls-1{fill-rule:evenodd;}</style></defs><title>opentec</title><g id="Capa_2" data-name="Capa 2"><g id="Capa_1-2" data-name="Capa 1"><polygon class="cls-1" points="85.17 28.77 86.53 21.5 76.8 21.44 76.53 22.9 75.38 28.78 83.14 28.77 85.17 28.77 85.17 28.77"/><polygon class="cls-1" points="140.27 10.13 140.1 10.23 140 10.36 139.18 10.99 138.47 11.72 137.86 12.48 137.35 13.31 136.9 14.14 136.56 15.1 136.3 16.06 136.13 17.12 135.92 18.08 135.89 19.1 138.88 19.1 138.88 21.31 136.54 21.32 135.83 21.32 135.79 21.98 135.99 22.74 136.2 23.3 136.54 23.96 136.95 24.66 137.46 25.42 137.9 25.91 138.48 26.38 139.06 26.8 139.74 27.23 140.45 27.56 141.23 27.89 142.05 28.19 142.97 28.45 143.85 28.59 144.81 28.68 145.73 28.71 146.67 28.68 147.56 28.55 148.51 28.38 149.46 28.15 150.42 27.86 151.13 27.52 151.91 27.15 152.86 26.69 153.34 26.33 153.85 26 154.76 25.27 155.17 24.87 155.58 24.5 156.33 23.71 156.94 22.82 157.41 21.96 157.75 21.1 157.96 20.27 150.44 20.28 150.2 20.54 149.94 20.87 149.56 21.24 149.19 21.67 148.71 22.03 148.31 22.3 147.89 22.53 147.49 22.7 147.15 22.83 146.74 22.89 146.37 22.93 146.02 22.89 145.72 22.83 145.31 22.7 144.97 22.56 144.63 22.37 144.36 22.14 143.84 21.54 143.64 21.18 143.51 20.78 143.33 20.32 143.23 19.89 143.16 18.96 143.16 18.47 143.23 18 143.5 17.01 143.74 16.22 144.05 15.52 144.42 14.89 144.92 14.33 145.61 13.73 145.94 13.43 146.36 13.2 147.1 12.9 147.88 12.8 148.7 12.9 148.94 12.97 149.21 13.1 149.45 13.27 149.69 13.5 149.86 13.73 150.03 14.03 150.16 14.33 150.33 14.72 155.6 14.72 158.05 14.71 157.95 13.82 157.81 12.99 157.54 12.2 157.2 11.5 156.72 10.81 156.18 10.22 155.53 9.62 154.82 9.13 154.03 8.7 153.22 8.33 152.37 8.04 151.52 7.81 150.6 7.64 149.64 7.54 148.66 7.51 147.68 7.55 146.59 7.58 145.57 7.75 144.55 7.98 143.63 8.28 142.71 8.64 141.86 9.07 141.01 9.57 140.27 10.13 140.27 10.13"/><path class="cls-1" d="M133.41,19.1h2.24l0-1,0-.9-.07-.73-.1-.69-.14-.67-.13-.58-.24-.63-.24-.57-.55-1.08-.37-.54-.38-.46-.4-.46-.45-.4-.4-.36-.38-.3-.75-.53-.81-.46-.79-.36-.88-.3-.44-.13-.41-.07-.48-.09-.44,0-.88,0-1.4,0-1.29.17-1.29.23-1.23.37-.26.13-1,.4-1,.53-.3.16-.24.24-.41.19-.3.27-.78.6-.72.69v.13l-.51.5-.41.56-.4.6-.34.66-.34.66-.27.76-.24.76-.17.86-.13.5-.07.53-.07.49v.54l0,.95.18,1,.07.43.13.46.34.92.45.87.57.85.59.63.61.63.61.56.64.5.62.39.68.37.68.29.68.23,1.29.23.64.07.69.1h.92l.2,0h.71l.89-.1.88-.13.82-.2.82-.23.78-.26.06-.07,0,0h.07l.21-.06.4-.13.75-.44.75-.46.68-.5.68-.56.4-.43.21-.23.24-.2.41-.46.2-.24.24-.19.64-.93.07-.1.2-.43.21-.36.37-.63h-7.79l-.74.54-.34.23-.34.2-.34.13-.31.1-.31.06-.27,0-.71-.07-.58-.13-.51-.26-.24-.17-.17-.13-.44-.53-.17-.36-.1-.43-.17-.7,0-.72,11.86,0Zm-4.56-3.2h-6.7l0-.23,0-.17.1-.17.17-.63.31-.49v-.07h.07l.1-.23.13-.1.51-.53.27-.23.34-.13.31-.14.37-.06.78,0,.41,0,.41.06.38.1.37.17.31.17.3.26.24.26.27.36.24.47.07.23.1.27,0,.19v.1l0,.14v.46Z"/><polygon class="cls-1" points="98.68 1.48 98.68 1.57 97.5 8.52 103.72 8.52 100.17 28.66 108.67 28.66 110.71 28.65 111.42 24.78 113.38 13.23 113.98 9.96 114.29 8.5 118.71 8.5 120.71 8.5 122.38 0.03 98.92 0.05 98.68 1.48 98.68 1.48"/><path class="cls-1" d="M100.8,13.48l-.11-.66-.1-.6-.17-.56-.23-.5-.25-.36-.19-.3-.28-.29L99.23,10l-.44-.36-.44-.26-.51-.27-.51-.19-.44-.14-.07,0,0,0-.67-.2-.65-.09-.95,0-.72,0-.68.13-.75.17-.68.3-.75.29-.71.44-.75.46-.75.56-.26.17-.24.23v-.1l.4-2.22H79.07l-.24,1.39-1.52,9V17.57L77.17,16,77,15.25l-.17-.69-.24-.66-.27-.63-.44-.82-.48-.73-.58-.7-.58-.59-.78-.63-.75-.53-.81-.46-.82-.36-.88-.3L69.75,8,69.35,8l-.48-.09-.44,0-.92,0-1.33,0L65,8l-1.19.2-1.12.33-1.09.36-1,.5-1,.56-.88.7-.68.53-.58.63-.92.93-.75,1-.57,1-.41,1-.21-.9L54.46,14l-.27-.7-.24-.6-.27-.59-.28-.53L53.06,11l-.3-.46-.38-.43-.33-.36-.59-.5-.54-.39-.61-.37-.62-.23L49,8l-.68-.17-.76-.09h-.71l-1.09.07-1,.23-1,.33-.88.53-1.19.82-.2.17V9.86l.13-1.45H32.19l-.34,1.39-.44,1.82-.07-.46,0-.13v-.3l-.14-.93L31,9.28l-.14-.5-.41-1-.51-1.06-.61-1L28.82,5l-.55-.66-.58-.63-.61-.53L26.4,2.6l-.71-.46-.75-.43-.75-.36L23.34,1,22.49.72,21.57.46,20.66.29l-1-.16-1-.07L17.56,0,16.48,0l-1.57.1L13.44.34,12.05.63,10.73,1,9.47,1.5l-1.19.56-1.12.63-1,.73-1,.83-.92.92-.85,1L3,6.7l-.34.59L1.93,8.42,1.32,9.71.81,11.06l-.24.73-.17.8-.17.59-.1.66L0,15.27v1.18L0,17l.07.49L.17,18l.07.43.07.36.06.33.07.27.11.23.06.4.18.46.2.46.27.56.28.53.37.63.37.63.48.69.48.6.57.56.58.53.65.49.65.43L6.4,27l.75.36.81.37.82.26.89.26.88.2,1,.2,1,.1,1,.09,1.06,0,1.12,0,.88-.1.88-.1.89-.17.92-.19.88-.3.92-.34.88-.36,1-.43.41-.16L24.49,26l1.08-.73.48-.39.48-.37.44-.39.2-.2,0-.07.07,0,.14-.07.64-.69,1.7-2.19,0-.07.07,0,0,.06,0,.17-.1.63-.4,2-.35,1.91-.33,1.83-.31,1.72-.05.46-.1.57-.08.42-.08.54-.09.36-.31,1.32-.23,1.19-.18,1.09-.2,1h9.73L38,29.19,38.5,26h.23l.1.33.21.33.24.3.34.33.37.23.44.27.51.23.58.26.61.17.62.13,1.22.13h.61l.61,0,.62-.07.68-.1.16,0,.24,0,.45-.19.57-.24.65-.33.34-.2.41-.2.4-.36.45-.33L51,25.9l.72-.8.34-.43.37-.39.41-.7.41-.69.33-.73.34-.76.24-.33,0-.07h.06l.11.1.06.2v.13l0,.2.24,1.06.44,1.19.31.56.37.6.45.59.54.56.54.5.65.46.64.4.75.36.79.33.88.29.58.14.64.13,1.4.23h.07l.88,0,.2,0h.72l.41-.07.2,0h.24l.88-.13.82-.2.81-.23.75-.3.07-.07,0,0h.07l.2-.07.42-.13.74-.43.75-.46.68-.5.71-.53.78-.73.17-.27.2-.23.41-.46.78-1V23h0l.07-.1.21-.37.23-.43.11-.66H68.85l-.38.3-.34.26-.34.23-.3.2-.65.27-.3.06-.27,0-.72-.07-.61-.16-.58-.27L63.92,22l-.37-.53-.18-.33-.1-.29-.1-.37,0-.33,0-.73H87l0-.56,0-.24.07-.16,0-.16.07-.1,0-.17.27-.46.4-.47.24-.29.28-.17.24-.1.26,0h.35l.3.1.24.1.17.23.1.16.07.27,0,.3v.43L88.4,28.77h9.9l2.5-14.69v-.59ZM42.16,15.69l.33-.1.38,0,.34.13.37.23.31.3.3.36.18.4.14.46,0,.47,0,.46-.16.46-.21.53-.27.37-.1.06-.07.1-.13.17-.35.23-.33.2-.48,0-.41,0-.34-.13-.27-.17L41.07,20l-.17-.2-.17-.26-.07-.23h-15V17.52H40.59l.14-.4.1-.3.24-.43.3-.29.34-.24.45-.16ZM70,14.1l.24.47.07.23.1.26,0,.2v.1l0,.13V16H63.84l0-.23.1-.33.24-.63.31-.49.13-.07,0-.23.14-.1.51-.53.27-.23.35-.14.3-.13.37-.07.79,0,.4,0,.41.06.37.1.38.17.3.16.31.27.24.26.27.36ZM17,9.43l.44.1.47.16.41.17.41.26.34.27.38.33.3.36.3.43.21.4.17.46.14.46.1.46,0,.47v.46l-.07.5-.1.53-.17.46-.2.46-.14.2-.07.1,0,.13-.14.2-.06.1,0,.13-.34.37-.34.36-.37.33-.21.17-.17.2-.68.29-.34.14L17,19l-.14.1-.61.14-.62.09-.61,0-.61,0-.51-.13-.44-.17-.41-.19-.37-.23-.38-.3L12,17.87l-.3-.37-.24-.36L11,16.21l-.23-.92-.07-.5,0-.46.17-1,.2-.7.31-.59.37-.57.44-.46.44-.46.58-.37.85-.49L15,9.4l1-.1,1,.13Z"/><polygon class="cls-1" points="155.53 36.15 158.08 36.15 158.08 32.43 39.63 32.43 39.46 33.97 39.12 36.15 155.53 36.15 155.53 36.15"/><polygon class="cls-1" points="0 32.47 0 33.93 0 36.14 23 36.15 24.89 36.15 25.66 32.45 0.53 32.47 0 32.47"/><path class="cls-2" d="M83.38,44.66H81.1L80,46.8h-.87l3.67-6.72h.8l.84,6.72h-.78ZM83.3,44l-.16-1.38A15,15,0,0,1,83,41c-.12.27-.24.54-.37.81L81.49,44Z"/><path class="cls-2" d="M87.19,46.89A1.71,1.71,0,0,1,85.32,45a4.08,4.08,0,0,1,.34-1.69,2.89,2.89,0,0,1,.94-1.21A2.25,2.25,0,0,1,88,41.67a3.28,3.28,0,0,1,1.23.24l-.22.64a2.66,2.66,0,0,0-1-.23,1.44,1.44,0,0,0-.94.35,2.28,2.28,0,0,0-.67,1A3.78,3.78,0,0,0,86.11,45a1.28,1.28,0,0,0,.31.92,1.11,1.11,0,0,0,.84.32,2.06,2.06,0,0,0,.62-.09,4.07,4.07,0,0,0,.58-.22v.66A2.79,2.79,0,0,1,87.19,46.89Z"/><path class="cls-2" d="M91.37,46.89a1.76,1.76,0,0,1-1.33-.5A1.92,1.92,0,0,1,89.56,45a4.06,4.06,0,0,1,.34-1.65,3.11,3.11,0,0,1,.91-1.24,2,2,0,0,1,1.24-.44,1.56,1.56,0,0,1,1.06.31,1.08,1.08,0,0,1,.35.85,1.46,1.46,0,0,1-.76,1.3,4.23,4.23,0,0,1-2.18.47h-.16V45a1.42,1.42,0,0,0,.28.94,1.09,1.09,0,0,0,.87.33,2.06,2.06,0,0,0,.6-.08,5.84,5.84,0,0,0,.76-.3v.67a4.28,4.28,0,0,1-.76.28A3.33,3.33,0,0,1,91.37,46.89ZM92,42.33a1.2,1.2,0,0,0-.88.43,2.85,2.85,0,0,0-.64,1.2h0a3.8,3.8,0,0,0,1.61-.27.88.88,0,0,0,.56-.8.54.54,0,0,0-.17-.4A.73.73,0,0,0,92,42.33Z"/><path class="cls-2" d="M94.78,46.8H94l1.52-7.15h.77Z"/><path class="cls-2" d="M98.39,46.89a1.76,1.76,0,0,1-1.32-.5A1.93,1.93,0,0,1,96.58,45a4.07,4.07,0,0,1,.35-1.65,3.09,3.09,0,0,1,.9-1.24,2,2,0,0,1,1.25-.44,1.56,1.56,0,0,1,1.06.31,1.08,1.08,0,0,1,.35.85,1.46,1.46,0,0,1-.76,1.3,4.24,4.24,0,0,1-2.19.47h-.15l0,.37a1.43,1.43,0,0,0,.29.94,1.09,1.09,0,0,0,.87.33,2.11,2.11,0,0,0,.6-.08,6.45,6.45,0,0,0,.76-.3v.67a4.28,4.28,0,0,1-.76.28A3.43,3.43,0,0,1,98.39,46.89ZM99,42.33a1.23,1.23,0,0,0-.89.43,3,3,0,0,0-.63,1.2h0a3.8,3.8,0,0,0,1.61-.27.88.88,0,0,0,.56-.8.54.54,0,0,0-.17-.4A.73.73,0,0,0,99,42.33Z"/><path class="cls-2" d="M104.23,41.67a1.84,1.84,0,0,1,.55.07l-.17.69a2,2,0,0,0-.48-.06,1.27,1.27,0,0,0-.78.27,2.37,2.37,0,0,0-.64.77,3.66,3.66,0,0,0-.4,1.08l-.49,2.31h-.77l1.07-5h.64l-.1.94h0a5.07,5.07,0,0,1,.55-.63,1.5,1.5,0,0,1,.45-.29A1.32,1.32,0,0,1,104.23,41.67Z"/><path class="cls-2" d="M107.44,41.67a1.3,1.3,0,0,1,.75.23,1.46,1.46,0,0,1,.51.65h0l.31-.79h.59l-1.08,5H108l.12-1h0a2.28,2.28,0,0,1-1.74,1,1.22,1.22,0,0,1-1-.45,2,2,0,0,1-.36-1.25,4.65,4.65,0,0,1,.33-1.77,2.91,2.91,0,0,1,.9-1.28A2,2,0,0,1,107.44,41.67Zm-.88,4.58a1.29,1.29,0,0,0,.89-.42,3.44,3.44,0,0,0,.72-1.11,3.71,3.71,0,0,0,.27-1.37,1,1,0,0,0-.26-.75.85.85,0,0,0-.67-.28,1.27,1.27,0,0,0-.89.39,2.81,2.81,0,0,0-.65,1.07,4.56,4.56,0,0,0-.23,1.43A1.15,1.15,0,0,0,106,46,.71.71,0,0,0,106.56,46.25Z"/><path class="cls-2" d="M112.14,46.89a1.85,1.85,0,0,1-1.38-.49,1.87,1.87,0,0,1-.49-1.39,4.08,4.08,0,0,1,.34-1.69,2.79,2.79,0,0,1,.93-1.21,2.25,2.25,0,0,1,1.35-.44,3.28,3.28,0,0,1,1.23.24l-.21.64a2.7,2.7,0,0,0-1-.23,1.48,1.48,0,0,0-.94.35,2.36,2.36,0,0,0-.66,1,3.78,3.78,0,0,0-.24,1.36,1.32,1.32,0,0,0,.3.92,1.12,1.12,0,0,0,.84.32,2.18,2.18,0,0,0,.63-.09,4.58,4.58,0,0,0,.58-.22v.66A2.82,2.82,0,0,1,112.14,46.89Z"/><path class="cls-2" d="M115.09,46.8h-.77l1.08-5h.77Zm.52-6.32a.6.6,0,0,1,.15-.42.49.49,0,0,1,.38-.17c.27,0,.4.14.4.42a.6.6,0,0,1-.15.42.45.45,0,0,1-.36.18.44.44,0,0,1-.3-.11A.42.42,0,0,1,115.61,40.48Z"/><path class="cls-2" d="M119.39,41.7a1.83,1.83,0,0,1,1.38.52,1.91,1.91,0,0,1,.51,1.42,4.09,4.09,0,0,1-.33,1.63,2.74,2.74,0,0,1-.9,1.18,2.09,2.09,0,0,1-1.28.42,1.8,1.8,0,0,1-1.38-.52,2,2,0,0,1-.5-1.42,4.11,4.11,0,0,1,.33-1.64,2.83,2.83,0,0,1,.91-1.18A2.13,2.13,0,0,1,119.39,41.7Zm1.09,1.83a1.23,1.23,0,0,0-.29-.85,1,1,0,0,0-.78-.33,1.35,1.35,0,0,0-.9.34,2.14,2.14,0,0,0-.61.94,3.81,3.81,0,0,0-.22,1.34,1.39,1.39,0,0,0,.29.94,1.11,1.11,0,0,0,.84.32,1.29,1.29,0,0,0,.86-.33,2.22,2.22,0,0,0,.59-1A4.09,4.09,0,0,0,120.48,43.53ZM119.15,41a8.07,8.07,0,0,0,.57-.69c.21-.28.38-.51.49-.69h.87v.1a10.51,10.51,0,0,1-1.45,1.41h-.48Z"/><path class="cls-2" d="M125.07,46.8l.68-3.18a4.32,4.32,0,0,0,.09-.66.72.72,0,0,0-.16-.47.73.73,0,0,0-.53-.17,1.31,1.31,0,0,0-.79.28,2.42,2.42,0,0,0-.69.78,4.28,4.28,0,0,0-.45,1.24l-.46,2.18H122l1.07-5h.64l-.1.94h.05a3,3,0,0,1,.85-.8,1.75,1.75,0,0,1,.85-.23,1.29,1.29,0,0,1,.92.32,1.15,1.15,0,0,1,.34.89,3.8,3.8,0,0,1-.11.83l-.65,3.09Z"/><path class="cls-2" d="M135.61,42.7a4.78,4.78,0,0,1-.46,2.17,3.29,3.29,0,0,1-1.33,1.43,4.13,4.13,0,0,1-2.06.5h-1.85l1.42-6.72H133a2.56,2.56,0,0,1,1.91.67A2.61,2.61,0,0,1,135.61,42.7Zm-3.8,3.18a2.48,2.48,0,0,0,2.35-1.51,3.87,3.87,0,0,0,.32-1.64,1.86,1.86,0,0,0-.4-1.29A1.53,1.53,0,0,0,132.9,41h-.67l-1,4.88Z"/><path class="cls-2" d="M137.2,46.8h-1.08l1.08-5.08h1.08Zm.22-6.33a.72.72,0,0,1,.18-.51.65.65,0,0,1,.5-.19.62.62,0,0,1,.4.12.45.45,0,0,1,.15.37.73.73,0,0,1-.18.52A.69.69,0,0,1,138,41a.65.65,0,0,1-.4-.12A.41.41,0,0,1,137.42,40.47Z"/><path class="cls-2" d="M143.74,41.72l-.14.63-.88.15a1.54,1.54,0,0,1,.12.63,1.88,1.88,0,0,1-.54,1.41,2.09,2.09,0,0,1-1.47.52,1.76,1.76,0,0,1-.42,0q-.51.18-.51.48a.26.26,0,0,0,.14.24,2.17,2.17,0,0,0,.42.1l.59.07a2.27,2.27,0,0,1,1.16.4,1.09,1.09,0,0,1,.35.87,1.62,1.62,0,0,1-.7,1.39,3.43,3.43,0,0,1-2,.49,2.55,2.55,0,0,1-1.44-.35,1.06,1.06,0,0,1-.52-.94,1.17,1.17,0,0,1,.32-.82,2.54,2.54,0,0,1,1-.58.67.67,0,0,1-.35-.59.81.81,0,0,1,.21-.55,2.28,2.28,0,0,1,.68-.44,1.25,1.25,0,0,1-.62-1.16,1.91,1.91,0,0,1,.56-1.45,2,2,0,0,1,1.49-.55,3,3,0,0,1,.73.09Zm-3.76,5a1.48,1.48,0,0,0-.79.32.75.75,0,0,0-.28.6.56.56,0,0,0,.26.48,1.36,1.36,0,0,0,.78.18,2.39,2.39,0,0,0,1.17-.25.78.78,0,0,0,.42-.71.42.42,0,0,0-.21-.37,1.77,1.77,0,0,0-.72-.19Zm1.24-4.37a.88.88,0,0,0-.53.17,1.11,1.11,0,0,0-.34.49,1.59,1.59,0,0,0-.13.66.78.78,0,0,0,.16.51.61.61,0,0,0,.47.17.79.79,0,0,0,.52-.17,1.23,1.23,0,0,0,.34-.5,1.83,1.83,0,0,0,.12-.68C141.83,42.56,141.63,42.35,141.22,42.35Z"/><path class="cls-2" d="M144.69,46.8h-1.08l1.08-5.08h1.08Zm.22-6.33a.72.72,0,0,1,.18-.51.74.74,0,0,1,.9-.07.45.45,0,0,1,.15.37.69.69,0,0,1-.19.52.73.73,0,0,1-.88.06A.41.41,0,0,1,144.91,40.47Z"/><path class="cls-2" d="M148.07,46a2.07,2.07,0,0,0,.69-.14v.81a2.17,2.17,0,0,1-.43.14,2.67,2.67,0,0,1-.56.06c-.84,0-1.25-.38-1.25-1.13a2.85,2.85,0,0,1,.07-.61l.55-2.61h-.74l.1-.51.87-.38.59-1.06h.67l-.24,1.13h1.29l-.18.82h-1.28l-.56,2.62a1.91,1.91,0,0,0-.06.43.41.41,0,0,0,.12.31A.46.46,0,0,0,148.07,46Z"/><path class="cls-2" d="M151.27,46.89a1.22,1.22,0,0,1-1-.47,2,2,0,0,1-.38-1.31,4.71,4.71,0,0,1,.32-1.73,3.21,3.21,0,0,1,.88-1.28,1.86,1.86,0,0,1,1.23-.47,1.45,1.45,0,0,1,.77.2,1.38,1.38,0,0,1,.5.61h.05l.28-.72h.83l-1.08,5.08h-.84l.1-.81h0A2.07,2.07,0,0,1,151.27,46.89Zm.39-.87a1.06,1.06,0,0,0,.74-.36,2.77,2.77,0,0,0,.6-.95,3.68,3.68,0,0,0,.23-1.31,1,1,0,0,0-.21-.65.75.75,0,0,0-.57-.24,1,1,0,0,0-.73.35,2.62,2.62,0,0,0-.56,1,4.16,4.16,0,0,0-.2,1.27,1.15,1.15,0,0,0,.18.7A.65.65,0,0,0,151.66,46Z"/><path class="cls-2" d="M156.17,46.8H155.1l1.51-7.15h1.08Z"/></g></g></svg>