<svg xmlns="http://www.w3.org/2000/svg" viewBox="0 0 85.73 85.73"><defs><style>.cls-1{fill:#fffeff;}.cls-2{fill:#00394d;}</style></defs><g id="Capa_2" data-name="Capa 2"><g id="Elementos"><circle class="cls-1" cx="42.87" cy="42.87" r="42.87"/><path class="cls-2" d="M44,40.67A26,26,0,0,0,18,66.6a2,2,0,0,0,4,0,21.94,21.94,0,1,1,43.87,0,2,2,0,0,0,4,0A26,26,0,0,0,44,40.67Z"/><path class="cls-2" d="M44,16.77A10.46,10.46,0,1,0,54.42,27.22,10.47,10.47,0,0,0,44,16.77ZM44,37.2a8.72,8.72,0,1,1,8.72-8.72A8.74,8.74,0,0,1,44,37.2Z"/></g></g></svg>