<svg xmlns="http://www.w3.org/2000/svg" viewBox="0 0 78.9 78.82"><defs><style>.cls-1,.cls-2{fill:#00394c}.cls-2{opacity:.25}</style></defs><g id="Capa_2" data-name="Capa 2"><g id="Capa_1-2" data-name="Capa 1"><path class="cls-1" d="M39.41 62.82A22.59 22.59 0 0 1 26.78 59a22.93 22.93 0 0 1-10.62-18 24.48 24.48 0 0 1 .33-6 1.17 1.17 0 0 0-1-1.53c-.68-.1-1.18.33-1.34 1.16A24.8 24.8 0 0 0 14 43.1a25.18 25.18 0 0 0 6.28 13.45c.34.38.31.58 0 .92A44.025 44.025 0 0 0 17 60.74c-.4.43-.66.41-1.13.1a7.92 7.92 0 0 0-12 8.67 7.56 7.56 0 0 0 6.35 5.75 7.47 7.47 0 0 0 7.74-3.19 7.59 7.59 0 0 0 .5-8.48c-.25-.46-.27-.71.13-1.09q1.71-1.61 3.32-3.32c.41-.43.64-.4 1.09 0A24.84 24.84 0 0 0 36.32 65a25.27 25.27 0 0 0 19.81-6c.32-.27.49-.28.79 0 1.11 1.14 2.23 2.28 3.38 3.38a.81.81 0 0 1 .2 1.2 7.94 7.94 0 0 0 8.3 11.63 7.78 7.78 0 0 0 6.41-6.16 7.93 7.93 0 0 0-12.3-8.16c-.36.24-.54.22-.82-.07-1.09-1.04-2.09-2.13-3.22-3.16-.54-.49-.53-.75 0-1.32a25.19 25.19 0 0 0 6.09-20.57 24.82 24.82 0 0 0-5.87-13c-.31-.36-.28-.54 0-.85 1.18-1.15 2.35-2.31 3.49-3.49a.6.6 0 0 1 .9-.13 7.79 7.79 0 0 0 5.33 1 7.95 7.95 0 1 0-7.88-3.3c.27.4.21.58-.1.87-1.1 1.08-2.21 2.15-3.26 3.28-.44.47-.67.43-1.15 0a25.23 25.23 0 0 0-22.36-5.85 24.55 24.55 0 0 0-11.72 5.94c-.37.33-.57.34-.92 0-1.1-1.15-2.23-2.28-3.37-3.38-.34-.32-.32-.51-.07-.88a7.81 7.81 0 0 0 1.3-5.85 8 8 0 1 0-3.9 8.24.64.64 0 0 1 1 .13c1.1 1.14 2.23 2.27 3.38 3.37.39.38.45.59.06 1a23.75 23.75 0 0 0-3.56 5.46c-.41.84-.23 1.54.44 1.85s1.29 0 1.71-.82c.05-.09.09-.19.14-.28a23.36 23.36 0 1 1 20.9 33.74Zm-6.17-22.7-.16.12-.47.26a14.24 14.24 0 0 0-7.11 9.31 4.54 4.54 0 0 0 1.95 5 21.16 21.16 0 0 0 6.09 2.48 1.18 1.18 0 0 0 .71-2.29 5.76 5.76 0 0 0-.59-.18A22 22 0 0 1 29.05 53a2.19 2.19 0 0 1-1.25-2.48 11.89 11.89 0 0 1 7-8.4 1.07 1.07 0 0 1 1 0 7.92 7.92 0 0 0 7.26 0 1.07 1.07 0 0 1 1 0A11.87 11.87 0 0 1 51 50.13 2.26 2.26 0 0 1 49.69 53a22.15 22.15 0 0 1-10.11 2.58 1.2 1.2 0 0 0-1.33 1.18A1.18 1.18 0 0 0 39.58 58a23.11 23.11 0 0 0 11.68-3.08 4.53 4.53 0 0 0 2.16-5 14.23 14.23 0 0 0-2.48-5.33 14.67 14.67 0 0 0-5.31-4.4 9 9 0 0 0 2-6.55c-.07-2.41 0-4.83 0-7.24a5.24 5.24 0 0 0-5.43-5.44h-5.47a5.24 5.24 0 0 0-5.48 5.53v7.08a9 9 0 0 0 1.99 6.55Zm45.66-.7a1.18 1.18 0 0 0-1.18-1.23 1.17 1.17 0 0 0-1.2 1.27 1.19 1.19 0 0 0 2.38 0ZM47.77 1.88a1.21 1.21 0 0 0-2.41 0 1.21 1.21 0 0 0 2.41 0Zm-14.34 0a1.2 1.2 0 0 0-2.4 0 1.2 1.2 0 1 0 2.4 0Zm42.76 23.4a1.19 1.19 0 1 0-1.12 1.23 1.21 1.21 0 0 0 1.12-1.24Zm-71.13.14a1.22 1.22 0 0 0-1.15-1.22 1.2 1.2 0 1 0-.11 2.4 1.25 1.25 0 0 0 1.26-1.19Zm46.23 49.22a1.2 1.2 0 1 0 0 2.4 1.23 1.23 0 0 0 1.21-1.23 1.22 1.22 0 0 0-1.21-1.17ZM27.6 4.28A1.28 1.28 0 0 0 28.78 3a1.21 1.21 0 0 0-2.41.14 1.26 1.26 0 0 0 1.23 1.14Zm19 71.55A1.2 1.2 0 1 0 47.81 77a1.2 1.2 0 0 0-1.19-1.17ZM73 22.16a1.2 1.2 0 0 0 1.16-1.27 1.19 1.19 0 1 0-2.37.13A1.2 1.2 0 0 0 73 22.16Zm4.41 20.89a1.2 1.2 0 0 0 .05 2.4 1.2 1.2 0 0 0-.05-2.4ZM1.48 33.48A1.23 1.23 0 0 0 .3 34.74a1.21 1.21 0 0 0 1.19 1.16 1.21 1.21 0 0 0 0-2.42Zm32 43.57a1.19 1.19 0 1 0-1.16 1.19 1.2 1.2 0 0 0 1.15-1.19ZM56.87 4.82a1.19 1.19 0 0 0-1.2-1.21 1.16 1.16 0 0 0-1.16 1.17A1.2 1.2 0 0 0 55.71 6a1.18 1.18 0 0 0 1.16-1.18ZM23.11 6a1.21 1.21 0 0 0 1.21-1.22 1.19 1.19 0 0 0-1.2-1.15 1.24 1.24 0 0 0-1.22 1.25A1.2 1.2 0 0 0 23.11 6ZM2.39 47.79A1.2 1.2 0 0 0 1.21 49a1.22 1.22 0 0 0 1.18 1.2 1.21 1.21 0 0 0 0-2.41Zm26.44 28a1.18 1.18 0 0 0-1.25-1.17 1.15 1.15 0 0 0-1.12 1.21A1.21 1.21 0 0 0 27.71 77a1.18 1.18 0 0 0 1.12-1.17ZM5.08 53.53a1.21 1.21 0 0 0-1.27-1.16 1.18 1.18 0 0 0-1.13 1.21 1.2 1.2 0 0 0 2.4 0Zm71.14 0a1.2 1.2 0 0 0-2.39-.06A1.21 1.21 0 0 0 75 54.72a1.18 1.18 0 0 0 1.22-1.15Zm-.89-4.64a1.2 1.2 0 0 0 1.18 1.24 1.2 1.2 0 0 0 0-2.4 1.18 1.18 0 0 0-1.18 1.2ZM56.94 74.05a1.2 1.2 0 0 0-2.39 0 1.2 1.2 0 0 0 2.39 0ZM77.67 30a1.18 1.18 0 0 0-1.13-1.28 1.2 1.2 0 0 0-.09 2.39A1.18 1.18 0 0 0 77.67 30ZM5.93 56.71a1.17 1.17 0 0 0-1.18 1.15 1.18 1.18 0 1 0 1.18-1.15Zm32.31 20.9a1.18 1.18 0 1 0-1.12 1.21 1.18 1.18 0 0 0 1.12-1.21Zm4.8 0a1.18 1.18 0 1 0-1.15 1.17A1.15 1.15 0 0 0 43 77.64ZM77.4 35.76a1.18 1.18 0 0 0 1.19-1.14 1.2 1.2 0 0 0-1.19-1.23 1.15 1.15 0 0 0-1.18 1.15 1.17 1.17 0 0 0 1.18 1.22ZM3.56 30a1.17 1.17 0 0 0-1.23-1.17 1.18 1.18 0 0 0 0 2.36A1.16 1.16 0 0 0 3.56 30Zm19.62 42.89A1.17 1.17 0 0 0 22 74a1.18 1.18 0 0 0 2.36.11 1.18 1.18 0 0 0-1.18-1.22Zm51-15a1.18 1.18 0 1 0-2.35 0A1.18 1.18 0 0 0 73 59.07a1.16 1.16 0 0 0 1.15-1.21ZM52.4 3a1.18 1.18 0 1 0-2.36 0 1.13 1.13 0 0 0 1.15 1.16A1.15 1.15 0 0 0 52.4 3ZM7.09 21a1.19 1.19 0 0 0-2.37 0 1.15 1.15 0 0 0 1.12 1.2 1.19 1.19 0 0 0 1.25-1.13ZM2.67 44.27a1.14 1.14 0 0 0-1.22-1.17 1.16 1.16 0 0 0-1.14 1.18 1.2 1.2 0 0 0 1.23 1.19 1.16 1.16 0 0 0 1.13-1.2Z"/><path class="cls-2" d="M41.76 0c0 .12.13.13.24.14a1 1 0 0 1 1 1.14 1.11 1.11 0 0 1-.93 1.15 1.11 1.11 0 0 1-1.29-.59 1.16 1.16 0 0 1 .27-1.52c.13-.11.35-.12.4-.32ZM37 0c0 .12.12.13.23.15a1 1 0 0 1 1 1.16 1.11 1.11 0 0 1-1 1.14 1.11 1.11 0 0 1-1.28-.84A1.13 1.13 0 0 1 36.46.2c.12-.08.32 0 .37-.2Z"/><path class="cls-1" d="M0 39c.17 0 .17-.16.25-.24a1.19 1.19 0 0 1 1.81-.08 1.21 1.21 0 0 1-.06 1.7 1.17 1.17 0 0 1-1.74-.19L0 39.91ZM39.41 62.82a23.37 23.37 0 1 0-20.9-33.74c-.05.09-.09.19-.14.28-.42.84-1 1.13-1.71.82s-.85-1-.44-1.85a23.75 23.75 0 0 1 3.56-5.46c.39-.44.33-.65-.06-1-1.15-1.1-2.28-2.23-3.38-3.37a.64.64 0 0 0-1-.13 7.94 7.94 0 1 1 3.9-8.24A7.81 7.81 0 0 1 18 16c-.25.37-.27.56.07.88 1.14 1.1 2.27 2.23 3.37 3.38.35.36.55.35.92 0a24.55 24.55 0 0 1 11.72-5.94 25.23 25.23 0 0 1 22.36 5.85c.48.41.71.45 1.15 0 1-1.13 2.16-2.2 3.26-3.28.31-.29.37-.47.1-.87a7.94 7.94 0 1 1 7.87 3.31 7.79 7.79 0 0 1-5.33-1 .6.6 0 0 0-.9.13 164.06 164.06 0 0 1-3.49 3.49c-.32.31-.35.49 0 .85a24.82 24.82 0 0 1 5.87 13 25.19 25.19 0 0 1-6.09 20.57c-.48.57-.49.83 0 1.32 1.11 1 2.16 2.12 3.22 3.21.28.29.46.31.82.07a7.93 7.93 0 1 1 5.88 14.29 7.94 7.94 0 0 1-8.3-11.63.81.81 0 0 0-.2-1.2c-1.15-1.1-2.27-2.24-3.38-3.38-.3-.31-.47-.3-.79 0a25.27 25.27 0 0 1-19.81 6 24.84 24.84 0 0 1-13.4-5.85c-.45-.37-.68-.4-1.09 0q-1.6 1.71-3.32 3.32c-.4.38-.38.63-.13 1.09a7.59 7.59 0 0 1-.5 8.48 7.47 7.47 0 0 1-7.74 3.19 7.56 7.56 0 0 1-6.35-5.75 7.92 7.92 0 0 1 12-8.67c.47.31.73.33 1.13-.1a91.37 91.37 0 0 1 3.26-3.27c.35-.34.38-.54 0-.92A25.18 25.18 0 0 1 14 43.1a24.8 24.8 0 0 1 .19-8.42c.16-.83.66-1.26 1.34-1.16a1.17 1.17 0 0 1 1 1.53 24.48 24.48 0 0 0-.33 6A22.93 22.93 0 0 0 26.78 59a22.59 22.59 0 0 0 12.63 3.82ZM67.42 17a5.57 5.57 0 1 0-5.53-5.61A5.59 5.59 0 0 0 67.42 17ZM17 11.46A5.56 5.56 0 1 0 11.42 17 5.57 5.57 0 0 0 17 11.46ZM11.48 61.9A5.56 5.56 0 1 0 17 67.5a5.56 5.56 0 0 0-5.52-5.6Zm56 0a5.56 5.56 0 0 0-.09 11.1A5.62 5.62 0 0 0 73 67.49a5.57 5.57 0 0 0-5.53-5.59Z"/><path class="cls-1" d="M33.24 40.12a9 9 0 0 1-2-6.59c.07-2.36 0-4.72 0-7.08a5.24 5.24 0 0 1 5.48-5.53h5.47a5.24 5.24 0 0 1 5.43 5.44v7.24a9 9 0 0 1-2 6.55 14.67 14.67 0 0 1 5.31 4.4 14.23 14.23 0 0 1 2.48 5.33 4.53 4.53 0 0 1-2.16 5A23.11 23.11 0 0 1 39.58 58a1.18 1.18 0 0 1-1.33-1.17 1.2 1.2 0 0 1 1.33-1.18A22.15 22.15 0 0 0 49.69 53 2.26 2.26 0 0 0 51 50.13a11.87 11.87 0 0 0-6.92-8.05 1.07 1.07 0 0 0-1 0 7.92 7.92 0 0 1-7.26 0 1.07 1.07 0 0 0-1 0 11.89 11.89 0 0 0-7 8.4A2.19 2.19 0 0 0 29.05 53a22 22 0 0 0 4.61 1.87 5.76 5.76 0 0 1 .59.18 1.18 1.18 0 0 1-.71 2.25 21.16 21.16 0 0 1-6.09-2.48 4.54 4.54 0 0 1-1.95-5 14.24 14.24 0 0 1 7.11-9.31l.47-.26Zm12-6.14v-1.49c0-.21 0-.4-.19-.55a6.62 6.62 0 0 0-5.67-1.48c-1.19.29-2.35.71-3.51 1.11-.76.27-1.85.23-2.2.88a5.13 5.13 0 0 0-.08 2.42 5.81 5.81 0 0 0 10.53 3.3A6.3 6.3 0 0 0 45.28 34Zm-11.64-4.2c1.42-.46 2.78-.9 4.12-1.36a8.86 8.86 0 0 1 5.28-.21 17.47 17.47 0 0 1 2.29.93v-3.06a2.88 2.88 0 0 0-2.91-2.79h-5.84a2.82 2.82 0 0 0-2.85 2.6c-.13 1.26-.05 2.54-.05 3.89ZM78.9 39.42a1.19 1.19 0 0 1-2.38 0 1.17 1.17 0 0 1 1.2-1.27 1.18 1.18 0 0 1 1.18 1.27Z"/><path class="cls-2" d="M47.77 1.88a1.21 1.21 0 0 1-2.41 0 1.21 1.21 0 0 1 2.41 0ZM33.43 1.87a1.2 1.2 0 1 1-2.4 0 1.2 1.2 0 0 1 2.4 0Z"/><path class="cls-1" d="M76.19 25.27a1.19 1.19 0 1 1-1.26-1.18 1.2 1.2 0 0 1 1.26 1.18ZM5.06 25.41A1.25 1.25 0 0 1 3.8 26.6a1.2 1.2 0 1 1 .11-2.4 1.22 1.22 0 0 1 1.15 1.21ZM27.6 4.28a1.26 1.26 0 0 1-1.23-1.14A1.21 1.21 0 0 1 28.78 3a1.28 1.28 0 0 1-1.18 1.28ZM73 22.16a1.21 1.21 0 0 1 0-2.41 1.22 1.22 0 0 1 1.21 1.14A1.2 1.2 0 0 1 73 22.16ZM77.38 43.05a1.2 1.2 0 0 1 .05 2.4 1.2 1.2 0 0 1-.05-2.4ZM1.48 33.48a1.21 1.21 0 0 1 0 2.42A1.21 1.21 0 0 1 .3 34.74a1.23 1.23 0 0 1 1.18-1.26ZM56.87 4.82A1.18 1.18 0 0 1 55.71 6a1.2 1.2 0 0 1-1.2-1.22 1.16 1.16 0 0 1 1.16-1.17 1.19 1.19 0 0 1 1.2 1.21ZM23.11 6a1.2 1.2 0 0 1-1.21-1.12 1.24 1.24 0 0 1 1.22-1.22 1.19 1.19 0 0 1 1.2 1.15A1.21 1.21 0 0 1 23.11 6ZM2.39 47.79a1.21 1.21 0 0 1 0 2.41A1.22 1.22 0 0 1 1.21 49a1.2 1.2 0 0 1 1.18-1.21ZM5.08 53.53a1.2 1.2 0 1 1-1.27-1.16 1.21 1.21 0 0 1 1.27 1.16ZM76.22 53.57A1.18 1.18 0 0 1 75 54.72a1.21 1.21 0 0 1-1.13-1.21 1.2 1.2 0 0 1 2.39.06ZM75.33 48.93a1.18 1.18 0 1 1 2.35.07 1.17 1.17 0 0 1-1.17 1.17 1.2 1.2 0 0 1-1.18-1.24ZM77.67 30a1.18 1.18 0 1 1-2.35-.17 1.17 1.17 0 0 1 1.22-1.11A1.18 1.18 0 0 1 77.67 30ZM5.93 56.71a1.2 1.2 0 1 1-1.18 1.15 1.17 1.17 0 0 1 1.18-1.15ZM77.4 35.76a1.17 1.17 0 0 1-1.18-1.22 1.15 1.15 0 0 1 1.18-1.15 1.2 1.2 0 0 1 1.19 1.23 1.18 1.18 0 0 1-1.19 1.14ZM3.56 30a1.16 1.16 0 0 1-1.22 1.19 1.18 1.18 0 0 1 0-2.36A1.17 1.17 0 0 1 3.56 30ZM74.15 57.86A1.16 1.16 0 0 1 73 59.07a1.19 1.19 0 0 1 0-2.37 1.15 1.15 0 0 1 1.15 1.16Z"/><path class="cls-2" d="M52.4 3a1.15 1.15 0 0 1-1.21 1.18A1.13 1.13 0 0 1 50 3.05 1.18 1.18 0 1 1 52.4 3Z"/><path class="cls-1" d="M7.09 21.07a1.19 1.19 0 0 1-1.25 1.16A1.15 1.15 0 0 1 4.72 21a1.19 1.19 0 0 1 2.37 0ZM2.67 44.27a1.16 1.16 0 0 1-1.13 1.2 1.2 1.2 0 0 1-1.23-1.19 1.16 1.16 0 0 1 1.14-1.18 1.14 1.14 0 0 1 1.22 1.17Z"/><path d="M67.42 17A5.57 5.57 0 1 1 73 11.46 5.56 5.56 0 0 1 67.42 17Z" style="fill:#87e1d1"/><path d="M17 11.46a5.56 5.56 0 1 1-11.12-.06 5.56 5.56 0 0 1 11.12.06Z" style="fill:#d2ac57"/><path d="M45.28 34a6.3 6.3 0 0 1-1.12 4.19 5.81 5.81 0 0 1-10.53-3.3 5.13 5.13 0 0 1 .08-2.42c.35-.65 1.44-.61 2.2-.88 1.16-.4 2.32-.82 3.51-1.11a6.62 6.62 0 0 1 5.67 1.48c.2.15.19.34.19.55Z" style="fill:#f2f2f2"/><path d="M33.64 29.78c0-1.35-.08-2.63 0-3.89a2.82 2.82 0 0 1 2.85-2.6h5.84a2.88 2.88 0 0 1 2.91 2.79c.06 1 0 2 0 3.06a17.47 17.47 0 0 0-2.24-.93 8.86 8.86 0 0 0-5.22.21c-1.36.46-2.72.9-4.14 1.36Z" style="fill:#fcfcfc"/></g></g></svg>