<svg xmlns="http://www.w3.org/2000/svg" viewBox="0 0 85.73 85.73"><defs><style>.cls-1{fill:#fffeff;}.cls-2{fill:#ccc;}</style></defs><g id="Capa_2" data-name="Capa 2"><g id="Elementos"><circle class="cls-1" cx="42.87" cy="42.87" r="42.87"/><path class="cls-2" d="M44,40.67A19.44,19.44,0,0,0,24.55,60.09a1.49,1.49,0,1,0,3,0,16.44,16.44,0,0,1,32.87,0,1.5,1.5,0,0,0,3,0A19.45,19.45,0,0,0,44,40.67Z"/><path class="cls-2" d="M44,16.77A10.46,10.46,0,1,0,54.42,27.22,10.47,10.47,0,0,0,44,16.77Zm0,17.92a7.47,7.47,0,1,1,7.47-7.47A7.48,7.48,0,0,1,44,34.69Z"/></g></g></svg>