<svg xmlns="http://www.w3.org/2000/svg" viewBox="0 0 73.17 73.19"><defs><style>.cls-2{fill:#00394c}.cls-3{fill:#87e1d1}.cls-4{fill:#b69b1f}.cls-5{fill:#d2ac57}.cls-6{fill:#e6e6e6}.cls-7{fill:#dff7f6}</style></defs><g id="Capa_2" data-name="Capa 2"><g id="Capa_1-2" data-name="Capa 1"><path d="M12.43 64a7.88 7.88 0 0 0 2.81.32c.08.13.16.27.23.41a15.18 15.18 0 0 0 22.35 5.65c.11 1.17.49 1.53 1.62 1.53h1.1c.33 1 .62 1.27 1.68 1.27h28.11a2.51 2.51 0 0 0 2.77-2.78c0-1.59-.16-3.2-.17-4.76s.07-3.22.18-4.84a.75.75 0 0 0 0-.15A2.53 2.53 0 0 0 70.54 58h-1.89c-.41 0-.61 0-.59-.54q.06-1.38 0-2.76c0-.45.17-.52.55-.5h1.88a2.52 2.52 0 0 0 2.62-2.64v-3.54a2.52 2.52 0 0 0-2.69-2.65h-26c-1 0-1.33.27-1.59 1.26h-3.75a18.65 18.65 0 0 0-4.08-2.5A15.63 15.63 0 0 0 26.83 43 13.27 13.27 0 0 0 25 40.65c.48-.94.4-1.4-.41-2a14.81 14.81 0 0 0-12.71-3 15.13 15.13 0 0 0-1.32 29.2c.98.3 1.44.15 1.87-.85Zm29.22-50.27A6.12 6.12 0 0 0 37.82 8a5.9 5.9 0 0 0-6.77 1.19 5.93 5.93 0 0 0-1.6 6.7 1 1 0 0 1-.45 1.32q-3.36 2.61-6.67 5.28a.82.82 0 0 1-1.19.05 6.14 6.14 0 0 0-7.21.12 6.3 6.3 0 1 0 9.58 2.9c-.12-.33-.32-.6.12-.94 2.43-1.87 4.82-3.79 7.23-5.7a.5.5 0 0 1 .72 0 6 6 0 0 0 7.38 0 .5.5 0 0 1 .73 0q3.6 2.87 7.23 5.71a.55.55 0 0 1 .2.78A5.73 5.73 0 0 0 46.7 28a6.3 6.3 0 0 0 11.58 3.16 6.24 6.24 0 0 0-.47-7.47.7.7 0 0 1 0-1c2.16-3.31 4.32-6.64 6.45-10 .28-.44.51-.49 1-.36a5.93 5.93 0 0 0 6.38-2 5.94 5.94 0 0 0 1-6.63 6.27 6.27 0 0 0-11.39-.19 6.1 6.1 0 0 0 .75 6.83c.2.25.49.4.2.84-2.2 3.41-4.48 6.82-6.69 10.29a.56.56 0 0 1-.77.25 5.91 5.91 0 0 0-5.43 1 .51.51 0 0 1-.74 0q-3.63-2.9-7.29-5.76a.46.46 0 0 1-.16-.65 5.78 5.78 0 0 0 .53-2.58Z" style="fill:#fefefe"/><path class="cls-2" d="M41.65 13.73a5.78 5.78 0 0 1-.53 2.53.46.46 0 0 0 .16.65q3.66 2.86 7.29 5.76a.51.51 0 0 0 .74 0 5.91 5.91 0 0 1 5.43-1 .56.56 0 0 0 .77-.25C57.72 18 60 14.59 62.19 11.18c.29-.44 0-.59-.2-.84a6.1 6.1 0 0 1-.81-6.79 6.27 6.27 0 0 1 11.39.19 5.94 5.94 0 0 1-1 6.63 5.93 5.93 0 0 1-6.38 2c-.49-.13-.72-.08-1 .36-2.13 3.33-4.29 6.66-6.45 10a.7.7 0 0 0 0 1 6.29 6.29 0 0 1-6.39 10.14A6.33 6.33 0 0 1 46.7 28a5.73 5.73 0 0 1 .46-2.62.55.55 0 0 0-.2-.78q-3.63-2.84-7.23-5.71a.5.5 0 0 0-.73 0 6 6 0 0 1-7.38 0 .5.5 0 0 0-.72 0c-2.41 1.91-4.8 3.83-7.23 5.7-.44.34-.24.61-.12.94A6.27 6.27 0 1 1 14 22.66a6.14 6.14 0 0 1 7.21-.12.82.82 0 0 0 1.19-.05q3.31-2.67 6.67-5.28a1 1 0 0 0 .41-1.33 5.93 5.93 0 0 1 1.6-6.7A5.9 5.9 0 0 1 37.82 8a6.12 6.12 0 0 1 3.83 5.73Zm-27.74 14A3.78 3.78 0 1 0 17.63 24a3.8 3.8 0 0 0-3.72 3.76ZM53 31.53a3.78 3.78 0 1 0-3.8-3.8 3.79 3.79 0 0 0 3.8 3.8ZM63 6.26a3.78 3.78 0 1 0 3.8-3.75A3.8 3.8 0 0 0 63 6.26Zm-31.45 7.57a3.77 3.77 0 1 0 3.76-3.75 3.8 3.8 0 0 0-3.76 3.75ZM42.86 46.68c.26-1 .58-1.26 1.59-1.26h26a2.52 2.52 0 0 1 2.69 2.65v3.54a2.52 2.52 0 0 1-2.62 2.64h-1.88c-.38 0-.57 0-.55.5q.06 1.38 0 2.76c0 .49.18.56.59.54h1.89a2.53 2.53 0 0 1 2.57 2.61.75.75 0 0 1 0 .15c-.11 1.62-.18 3.26-.18 4.84s.12 3.17.17 4.76a2.51 2.51 0 0 1-2.77 2.79H42.22c-1.06 0-1.35-.22-1.68-1.27.34-1.06.62-1.26 1.77-1.26h27.66c.5 0 .7-.1.67-.64a14.46 14.46 0 0 1 0-2.28c.07-.74-.19-.89-.9-.89h-23c-1.09 0-1.41-.25-1.66-1.26.23-1 .57-1.26 1.58-1.27H69.86c.55 0 .8-.08.75-.71a14.59 14.59 0 0 1 0-2.29c0-.67-.17-.81-.82-.81H48.3c-1.08 0-1.4-.25-1.66-1.27.26-1 .58-1.26 1.59-1.26h16.51c.72 0 .88-.21.83-.87a12.63 12.63 0 0 1 0-2.13c.05-.64-.12-.83-.8-.82H47.55c-1 0-1.34-.27-1.58-1.25.23-1 .57-1.27 1.57-1.27h22.42c.52 0 .67-.14.64-.66a14.69 14.69 0 0 1 0-2.2c.07-.74-.13-1-.92-1H44.51c-1.07.15-1.39-.09-1.65-1.11Z"/><path class="cls-2" d="M37.82 70.39a15.18 15.18 0 0 1-22.35-5.65c-.07-.14-.15-.28-.23-.41a19.5 19.5 0 0 1-1.33-5.16 16.39 16.39 0 0 1 .84-6.1 15.38 15.38 0 0 1 7.08-8.38 18.38 18.38 0 0 1 5-1.66 15.63 15.63 0 0 1 8.17 1.1 18.65 18.65 0 0 1 4.09 2.57 17.15 17.15 0 0 1 4.24 6.3 18.64 18.64 0 0 1 .81 6.3 18 18 0 0 1-2 6.28 17.22 17.22 0 0 1-4.32 4.81Zm-8.76-25A12.62 12.62 0 1 0 41.62 58.1a12.62 12.62 0 0 0-12.56-12.68Z"/><path class="cls-2" d="M12.43 64c-.45.94-.89 1.14-1.88.83a15.13 15.13 0 0 1 1.32-29.2 14.81 14.81 0 0 1 12.71 3c.81.64.89 1.1.41 2a1.41 1.41 0 0 1-2 0 12.26 12.26 0 0 0-7.55-2.73A12.6 12.6 0 0 0 3.07 53.81a12.14 12.14 0 0 0 8.19 8.64c.9.32 1.17.55 1.17 1.55Z"/><path class="cls-3" d="M12.43 64c0-1-.27-1.24-1.17-1.56a12.14 12.14 0 0 1-8.19-8.64 12.6 12.6 0 0 1 12.39-15.93A12.26 12.26 0 0 1 23 40.6a1.41 1.41 0 0 0 2 0 13.27 13.27 0 0 1 1.83 2.4 18.38 18.38 0 0 0-5 1.66 9.07 9.07 0 0 0-2.14-1.82c.17-1.17 0-1.49-1.12-1.89a10.08 10.08 0 0 0-9.35 17.66c.81.58 1.31.52 2-.27a6.06 6.06 0 0 0 2.65.83 19.5 19.5 0 0 0 1.33 5.16 7.88 7.88 0 0 1-2.77-.33Z"/><path class="cls-4" d="M37.82 70.39a17.22 17.22 0 0 0 4.35-4.81h2.89c.25 1 .57 1.26 1.66 1.26h23c.71 0 1 .15.9.89a14.46 14.46 0 0 0 0 2.28c0 .54-.17.65-.67.64H42.29c-1.15 0-1.43.2-1.77 1.26h-1.1c-1.11.01-1.49-.35-1.6-1.52Z"/><path class="cls-5" d="M43.33 53a17.15 17.15 0 0 0-4.22-6.3h3.75c.26 1 .58 1.26 1.66 1.26h25.17c.79 0 1 .22.92 1a14.69 14.69 0 0 0 0 2.2c0 .52-.12.67-.64.66H47.54c-1 0-1.34.29-1.57 1.27Z"/><path class="cls-6" d="M13.91 27.76a3.78 3.78 0 1 1 3.82 3.77 3.79 3.79 0 0 1-3.82-3.77ZM53 31.53a3.78 3.78 0 1 1 3.75-3.77A3.8 3.8 0 0 1 53 31.53Z"/><path class="cls-3" d="M63 6.26a3.78 3.78 0 1 1 3.78 3.81A3.79 3.79 0 0 1 63 6.26ZM31.55 13.83a3.77 3.77 0 1 1 3.78 3.82 3.79 3.79 0 0 1-3.78-3.82Z"/><path class="cls-5" d="M45.06 65.62h-2.89a18 18 0 0 0 2-6.28h2.5c.26 1 .58 1.26 1.66 1.27h21.49c.65 0 .87.14.82.81a14.59 14.59 0 0 0 0 2.29c0 .63-.2.72-.75.71H46.64c-1.01-.06-1.35.21-1.58 1.2Z"/><path class="cls-4" d="M46.64 59.3h-2.5a18.64 18.64 0 0 0-.81-6.3H46c.24 1 .58 1.25 1.58 1.25H64.8c.68 0 .85.18.8.82a12.63 12.63 0 0 0 0 2.13c.05.66-.11.88-.83.87H48.26c-1.04-.07-1.36.24-1.62 1.23Z"/><path class="cls-3" d="M29.06 45.42A12.62 12.62 0 1 1 16.43 58.1a12.63 12.63 0 0 1 12.63-12.68Zm10 12.64A10.08 10.08 0 1 0 29 68.13a10.1 10.1 0 0 0 10.1-10.07Z"/><path class="cls-7" d="M13.91 59.17a6.06 6.06 0 0 1-2.65-.83 1.44 1.44 0 0 0-.62-1.83 7.55 7.55 0 0 1 7.11-13.14 1.5 1.5 0 0 0 1.94-.5 9.07 9.07 0 0 1 2.14 1.82 15.38 15.38 0 0 0-7.08 8.38 16.39 16.39 0 0 0-.84 6.1Z"/><path class="cls-2" d="M19.69 42.87a1.5 1.5 0 0 1-1.94.5 7.55 7.55 0 0 0-7.11 13.14 1.44 1.44 0 0 1 .62 1.83c-.73.79-1.23.85-2 .27A10.08 10.08 0 0 1 18.57 41c1.1.38 1.29.7 1.12 1.87ZM39.1 58.06A10.08 10.08 0 1 1 29.16 48a10.09 10.09 0 0 1 9.94 10.06Zm-10-7.59A7.57 7.57 0 1 0 36.58 58a7.58 7.58 0 0 0-7.5-7.53Z"/><path class="cls-7" d="M29.08 50.47A7.57 7.57 0 1 1 21.47 58a7.58 7.58 0 0 1 7.61-7.53Zm.9 5.05h1.65a1.26 1.26 0 0 0 0-2.51A3.31 3.31 0 0 0 31 53c-.41 0-.73 0-.86-.51a1.05 1.05 0 0 0-1.09-.75 1.09 1.09 0 0 0-1.16.77c-.12.44-.41.52-.76.62a3.16 3.16 0 0 0 .92 6.18h1.34c.45 0 .88.09.87.65s-.43.63-.9.62h-2.83a1.24 1.24 0 0 0-1.28 1.22 1.27 1.27 0 0 0 1.29 1.3H27c.44-.05.76 0 .91.54a1.05 1.05 0 0 0 1.12.71 1 1 0 0 0 1.06-.66c.14-.54.5-.62.93-.77a3.15 3.15 0 0 0-1-6.13h-1.48c-.43 0-.74-.16-.76-.61s.32-.66.78-.65Z"/><path class="cls-2" d="M30 55.52h-1.44c-.46 0-.79.15-.78.65s.33.62.76.61H30a3.15 3.15 0 0 1 1 6.13c-.43.15-.79.23-.93.77a1 1 0 0 1-1.06.66 1.05 1.05 0 0 1-1.12-.71c-.15-.54-.47-.59-.91-.54h-.47a1.27 1.27 0 0 1-1.29-1.3 1.24 1.24 0 0 1 1.28-1.22h2.83c.47 0 .89-.06.9-.62s-.4-.66-.87-.65-.89 0-1.34 0a3.16 3.16 0 0 1-.92-6.18c.35-.1.64-.18.76-.62a1.09 1.09 0 0 1 1.16-.77 1.05 1.05 0 0 1 1.09.75c.13.54.45.53.86.51a3.31 3.31 0 0 1 .63 0 1.26 1.26 0 0 1 0 2.51H30Z"/></g></g></svg>