<svg xmlns="http://www.w3.org/2000/svg" viewBox="0 0 40.05 40.05"><g data-name="Capa 2"><path d="M34.18 5.87a20 20 0 1 0 0 28.31 20 20 0 0 0 0-28.31Zm-.83 25.46a20.48 20.48 0 0 0-3-2.22 32.23 32.23 0 0 0 1.2-7.81h5.89a17.35 17.35 0 0 1-4.1 10ZM2.6 21.3h5.89a32.23 32.23 0 0 0 1.21 7.81 19.46 19.46 0 0 0-3 2.22A17.29 17.29 0 0 1 2.6 21.3ZM6.71 8.72a19.46 19.46 0 0 0 3 2.22 32.38 32.38 0 0 0-1.21 7.81H2.6A17.29 17.29 0 0 1 6.71 8.72Zm12 2.48a17.28 17.28 0 0 1-5.91-1.51c1.08-2.78 3.08-6.12 5.95-6.95Zm0 2.56v5H11a30 30 0 0 1 1-6.61 20.05 20.05 0 0 0 6.75 1.61Zm0 7.54v5A19.83 19.83 0 0 0 12 27.92a30.18 30.18 0 0 1-1-6.62Zm0 7.55v8.46c-2.87-.83-4.87-4.17-5.95-7a17.28 17.28 0 0 1 5.99-1.46Zm2.55 0a17.28 17.28 0 0 1 5.95 1.51c-1.08 2.78-3.08 6.12-5.95 7Zm0-2.56v-5H29a30.18 30.18 0 0 1-1 6.62 19.77 19.77 0 0 0-6.74-1.63Zm0-7.54v-5A20 20 0 0 0 28 12.14a30 30 0 0 1 1 6.61Zm0-7.55V2.74c2.87.83 4.87 4.17 5.95 7a17.28 17.28 0 0 1-5.91 1.46ZM27 4a17.61 17.61 0 0 1 4.56 2.9 18.27 18.27 0 0 1-2.06 1.56A19 19 0 0 0 27 4ZM10.55 8.46A18.16 18.16 0 0 1 8.5 6.9 17.55 17.55 0 0 1 13 4a19.33 19.33 0 0 0-2.47 4.45Zm0 23.13A19.33 19.33 0 0 0 13 36a17.55 17.55 0 0 1-4.5-2.85 18.16 18.16 0 0 1 2.05-1.56Zm19 0a18.27 18.27 0 0 1 2.06 1.56A17.61 17.61 0 0 1 27 36a19 19 0 0 0 2.47-4.45Zm2.06-12.84a32.39 32.39 0 0 0-1.2-7.81 20.48 20.48 0 0 0 3-2.22 17.35 17.35 0 0 1 4.1 10Z" style="fill:#113339" data-name="Capa 1"/></g></svg>