<svg xmlns="http://www.w3.org/2000/svg" viewBox="0 0 211.82 183.7"><title>rel-icon</title><g style="isolation:isolate"><g id="Capa_2" data-name="Capa 2"><g id="Elementos"><rect x="52.75" y="77.01" width="29.59" height="29.59" rx="13.14" fill="#87e1d1"/><rect x="91.16" y="39.23" width="30.08" height="67.58" rx="13.36" fill="#00698f"/><rect x="128.84" y="0.01" width="30.22" height="106.8" rx="13.42" fill="#005470"/><rect x="52.75" y="38.68" width="29.59" height="29.59" rx="13.14" fill="#e6e6e6" style="mix-blend-mode:multiply"/><rect x="52.75" width="29.59" height="29.59" rx="13.14" fill="#e6e6e6" style="mix-blend-mode:multiply"/><rect x="91.41" width="29.59" height="29.59" rx="13.14" fill="#e6e6e6" style="mix-blend-mode:multiply"/><path d="M.41,180.31l11.28-15.19L.75,150.62a1.51,1.51,0,0,1,1.3-2.51H9.26a3,3,0,0,1,2.87,1.21l5.64,8.16h.09l5.73-8.16a2.73,2.73,0,0,1,2.6-1.21H34c1.48,0,1.91,1.39,1,2.51L24.11,165l11,15.27c.78,1.13.35,2.52-1,2.52H26.45A2.77,2.77,0,0,1,24,181.44l-6.16-8.68h-.09l-6.6,9.38a2.16,2.16,0,0,1-1.39.69H1.45C0,182.83-.38,181.44.41,180.31Z" fill="#2d2a26"/><path d="M41.73,169v-5.81a1.6,1.6,0,0,1,1.65-1.65H62.74a1.59,1.59,0,0,1,1.65,1.65V169a1.58,1.58,0,0,1-1.65,1.57H43.38A1.59,1.59,0,0,1,41.73,169Z" fill="#2d2a26"/><path d="M88.88,147.24a20.79,20.79,0,0,1,7.72,1.56V123.71a1.71,1.71,0,0,1,1.65-1.65h7.38a1.71,1.71,0,0,1,1.65,1.65v57.47a1.71,1.71,0,0,1-1.65,1.65h-3.38c-.78,0-1.39-.69-1.65-1.65l-.87-2.69a15.23,15.23,0,0,1-11.37,5.21c-9.47,0-16.67-8.25-16.67-18.23C71.69,155.31,78.55,147.24,88.88,147.24Zm.78,27.08A7.56,7.56,0,0,0,97,168.68V158.61a11.21,11.21,0,0,0-6.77-2c-4.86,0-8.42,4-8.42,8.86S85.06,174.32,89.66,174.32Z" fill="#2d2a26"/><path d="M129.08,160.87a22.48,22.48,0,0,1,6.34.95c.08-4.43-1.31-6-4.52-6a42.21,42.21,0,0,0-9.72,1.3c-1.22.35-1.83-.43-2-1.56l-.78-4.51a1.7,1.7,0,0,1,1.22-2.17,46.46,46.46,0,0,1,11.8-1.65c10.85,0,13.37,5.64,13.37,15.1v18.84a1.71,1.71,0,0,1-1.65,1.65H140c-.61,0-1-.26-1.48-1.21l-1-2.35a14.9,14.9,0,0,1-10.59,4.43c-7,0-11.72-4.51-11.72-11.89C115.19,165.64,120.22,160.87,129.08,160.87Zm.17,15.45a8,8,0,0,0,6-3.38v-4.78a13.59,13.59,0,0,0-4.86-1c-3.38,0-5.64,1.91-5.64,4.69A4.33,4.33,0,0,0,129.25,176.32Z" fill="#2d2a26"/><path d="M156.6,157.22h-2.95a1.63,1.63,0,0,1-1.56-1.65v-5.81a1.57,1.57,0,0,1,1.56-1.65h2.95v-9.64a1.71,1.71,0,0,1,1.65-1.65l7.12-.09a1.63,1.63,0,0,1,1.56,1.65v9.73h7.64a1.59,1.59,0,0,1,1.65,1.65v5.81a1.64,1.64,0,0,1-1.65,1.65h-7.64v13.89c0,2.43,1.3,2.78,2.69,2.78a14.27,14.27,0,0,0,4.26-.95,1.35,1.35,0,0,1,1.91.95l1.73,5.47a1.56,1.56,0,0,1-1,2.08,32.76,32.76,0,0,1-10.33,2.26c-6.69,0-9.64-4.17-9.64-11.2Z" fill="#2d2a26"/><path d="M196.1,160.87a22.39,22.39,0,0,1,6.34.95c.09-4.43-1.3-6-4.51-6a42.38,42.38,0,0,0-9.73,1.3c-1.21.35-1.82-.43-2-1.56l-.78-4.51a1.7,1.7,0,0,1,1.21-2.17,46.58,46.58,0,0,1,11.81-1.65c10.85,0,13.37,5.64,13.37,15.1v18.84a1.71,1.71,0,0,1-1.65,1.65H207c-.6,0-1-.26-1.47-1.21l-1-2.35a14.91,14.91,0,0,1-10.6,4.43c-6.94,0-11.72-4.51-11.72-11.89C182.21,165.64,187.25,160.87,196.1,160.87Zm.18,15.45a8,8,0,0,0,6-3.38v-4.78a13.66,13.66,0,0,0-4.86-1c-3.39,0-5.65,1.91-5.65,4.69A4.33,4.33,0,0,0,196.28,176.32Z" fill="#2d2a26"/></g></g></g></svg>