<svg xmlns="http://www.w3.org/2000/svg" viewBox="0 0 69.17 73.95"><defs><style>.cls-1{fill:#78e1d3;}.cls-2{fill:#b8994b;}.cls-3{fill:#d5b046;}.cls-4{fill:#80e1d2;}.cls-5{fill:#c1e8e1;}.cls-6{fill:#b79a3a;}.cls-7{fill:#12424f;}</style></defs><title>resultados-en-40-dias</title><g id="Capa_2" data-name="Capa 2"><g id="Capa_1-2" data-name="Capa 1"><path class="cls-1" d="M.87,22.53h63a0,0,0,0,1,0,0V52.14a8.33,8.33,0,0,1-8.33,8.33H9.2A8.33,8.33,0,0,1,.87,52.14V22.53A0,0,0,0,1,.87,22.53Z"/><rect class="cls-2" x="0.54" y="17.47" width="63.32" height="5.06"/><path class="cls-3" d="M10,6.35H54.43a9.43,9.43,0,0,1,9.43,9.43v2a0,0,0,0,1,0,0H.54a0,0,0,0,1,0,0v-2A9.43,9.43,0,0,1,10,6.35Z"/><rect class="cls-4" x="15.87" y="1.37" width="5.43" height="10.87" rx="2.72"/><rect class="cls-4" x="43.23" y="1.37" width="5.43" height="10.87" rx="2.72"/><circle class="cls-3" cx="50.1" cy="54.69" r="17.86"/><circle class="cls-5" cx="50.1" cy="54.69" r="13.52"/><rect class="cls-6" x="6.24" y="27.16" width="4.34" height="5"/><rect class="cls-6" x="15.58" y="27.16" width="4.34" height="5"/><rect class="cls-6" x="24.92" y="27.16" width="4.34" height="5"/><rect class="cls-6" x="34.84" y="27.16" width="4.34" height="5"/><rect class="cls-6" x="6.24" y="36.66" width="4.34" height="5"/><rect class="cls-6" x="15.58" y="36.66" width="4.34" height="5"/><rect class="cls-6" x="24.92" y="36.66" width="4.34" height="5"/><rect class="cls-6" x="6.24" y="46.16" width="4.34" height="5"/><rect class="cls-6" x="15.58" y="46.16" width="4.34" height="5"/><rect class="cls-6" x="24.92" y="46.16" width="4.34" height="5"/><rect class="cls-6" x="34.84" y="36.66" width="4.34" height="5"/><rect class="cls-6" x="44.18" y="27.16" width="4.34" height="5"/><rect class="cls-6" x="53.92" y="27.16" width="4.34" height="5"/><path class="cls-7" d="M7,33.27H9.5A2.24,2.24,0,0,0,11.74,31V28.56A2.24,2.24,0,0,0,9.5,26.32H7a2.24,2.24,0,0,0-2.24,2.24V31A2.24,2.24,0,0,0,7,33.27M7,28.56A.08.08,0,0,1,7,28.49H9.5a.07.07,0,0,1,.07.07V31a.08.08,0,0,1-.07.08H7A.09.09,0,0,1,7,31Z"/><path class="cls-7" d="M16.6,33.27h2.47A2.24,2.24,0,0,0,21.31,31V28.56a2.24,2.24,0,0,0-2.24-2.24H16.6a2.24,2.24,0,0,0-2.24,2.24V31a2.24,2.24,0,0,0,2.24,2.24m-.07-4.71a.07.07,0,0,1,.07-.07h2.47a.07.07,0,0,1,.07.07V31a.08.08,0,0,1-.07.08H16.6a.08.08,0,0,1-.07-.08Z"/><path class="cls-7" d="M26.17,33.27h2.47A2.24,2.24,0,0,0,30.88,31V28.56a2.24,2.24,0,0,0-2.24-2.24H26.17a2.24,2.24,0,0,0-2.24,2.24V31a2.24,2.24,0,0,0,2.24,2.24m-.07-4.71a.07.07,0,0,1,.07-.07h2.47a.08.08,0,0,1,.08.07V31a.09.09,0,0,1-.08.08H26.17A.08.08,0,0,1,26.1,31Z"/><path class="cls-7" d="M38.22,33.27A2.23,2.23,0,0,0,40.45,31V28.56a2.24,2.24,0,0,0-2.23-2.24H35.74a2.25,2.25,0,0,0-2.24,2.24V31a2.24,2.24,0,0,0,2.24,2.23ZM35.67,31V28.56a.07.07,0,0,1,.07-.07h2.48a.08.08,0,0,1,.07.07V31a.08.08,0,0,1-.07.07H35.74a.07.07,0,0,1-.07-.07"/><path class="cls-7" d="M47.78,33.27A2.23,2.23,0,0,0,50,31V28.56a2.24,2.24,0,0,0-2.24-2.24H45.31a2.25,2.25,0,0,0-2.24,2.24V31a2.24,2.24,0,0,0,2.24,2.23ZM45.24,31V28.56a.07.07,0,0,1,.07-.07h2.47a.08.08,0,0,1,.08.07V31a.08.08,0,0,1-.08.07H45.31a.07.07,0,0,1-.07-.07"/><path class="cls-7" d="M57.36,33.27A2.24,2.24,0,0,0,59.6,31V28.56a2.25,2.25,0,0,0-2.24-2.24H54.88a2.25,2.25,0,0,0-2.24,2.24V31a2.24,2.24,0,0,0,2.24,2.23ZM54.81,31V28.56a.07.07,0,0,1,.07-.07h2.48a.07.07,0,0,1,.07.07V31a.07.07,0,0,1-.07.07H54.88a.07.07,0,0,1-.07-.07"/><path class="cls-7" d="M4.79,40.61A2.24,2.24,0,0,0,7,42.85H9.5a2.24,2.24,0,0,0,2.24-2.24V38.13A2.24,2.24,0,0,0,9.5,35.89H7a2.24,2.24,0,0,0-2.24,2.24ZM7,38.13A.08.08,0,0,1,7,38.06H9.5a.07.07,0,0,1,.07.07v2.48a.07.07,0,0,1-.07.07H7A.08.08,0,0,1,7,40.61Z"/><path class="cls-7" d="M14.36,40.61a2.24,2.24,0,0,0,2.24,2.24h2.47a2.24,2.24,0,0,0,2.24-2.24V38.13a2.24,2.24,0,0,0-2.24-2.24H16.6a2.24,2.24,0,0,0-2.24,2.24Zm2.17-2.48a.07.07,0,0,1,.07-.07h2.47a.07.07,0,0,1,.07.07v2.48a.07.07,0,0,1-.07.07H16.6a.07.07,0,0,1-.07-.07Z"/><path class="cls-7" d="M23.93,40.61a2.24,2.24,0,0,0,2.24,2.24h2.47a2.24,2.24,0,0,0,2.24-2.24V38.13a2.24,2.24,0,0,0-2.24-2.24H26.17a2.24,2.24,0,0,0-2.24,2.24Zm2.17-2.48a.07.07,0,0,1,.07-.07h2.47a.08.08,0,0,1,.08.07v2.48a.08.08,0,0,1-.08.07H26.17a.07.07,0,0,1-.07-.07Z"/><path class="cls-7" d="M4.79,50.18A2.24,2.24,0,0,0,7,52.42H9.5a2.24,2.24,0,0,0,2.24-2.24V47.7A2.23,2.23,0,0,0,9.5,45.47H7A2.23,2.23,0,0,0,4.79,47.7ZM7,47.7A.08.08,0,0,1,7,47.63H9.5a.07.07,0,0,1,.07.07v2.48a.07.07,0,0,1-.07.07H7A.08.08,0,0,1,7,50.18Z"/><path class="cls-7" d="M14.36,50.18a2.24,2.24,0,0,0,2.24,2.24h2.47a2.24,2.24,0,0,0,2.24-2.24V47.7a2.23,2.23,0,0,0-2.24-2.23H16.6a2.23,2.23,0,0,0-2.24,2.23Zm2.17-2.48a.07.07,0,0,1,.07-.07h2.47a.07.07,0,0,1,.07.07v2.48a.07.07,0,0,1-.07.07H16.6a.07.07,0,0,1-.07-.07Z"/><path class="cls-7" d="M23.93,50.18a2.24,2.24,0,0,0,2.24,2.24h2.47a2.24,2.24,0,0,0,2.24-2.24V47.7a2.23,2.23,0,0,0-2.24-2.23H26.17a2.23,2.23,0,0,0-2.24,2.23ZM26.1,47.7a.07.07,0,0,1,.07-.07h2.47a.08.08,0,0,1,.08.07v2.48a.08.08,0,0,1-.08.07H26.17a.07.07,0,0,1-.07-.07Z"/><path class="cls-7" d="M64.39,42.32V10.65a5.88,5.88,0,0,0-5.87-5.86H50V4.07a4.08,4.08,0,0,0-8.15,0v.72H22.51V4.07a4.08,4.08,0,0,0-8.15,0v.72H5.87A5.87,5.87,0,0,0,0,10.65v17a1.09,1.09,0,0,0,2.17,0V23.7H62.22V40.23a19,19,0,0,0-21.77-1.68v-.38a2.29,2.29,0,0,0-2.28-2.28H35.78a2.29,2.29,0,0,0-2.28,2.28v2.4a2.28,2.28,0,0,0,2,2.25,19,19,0,0,0-4.35,12.1V55H5.87a3.71,3.71,0,0,1-3.7-3.71V32A1.09,1.09,0,0,0,0,32V56.12A5.87,5.87,0,0,0,5.87,62H8.49a1.09,1.09,0,0,0,0-2.17H5.87a3.7,3.7,0,0,1-3.7-3.7v-.24a5.81,5.81,0,0,0,3.7,1.32H31.25a17.33,17.33,0,0,0,.5,2.62H12.82a1.09,1.09,0,0,0,0,2.17H32.47A19,19,0,1,0,64.39,42.32M44,4.07a1.91,1.91,0,0,1,3.82,0v6a1.91,1.91,0,0,1-3.82,0Zm-27.52,0a1.91,1.91,0,0,1,3.82,0v6a1.91,1.91,0,0,1-3.82,0ZM5.87,7h8.49V9.57H13.05a1.09,1.09,0,1,0,0,2.17h1.67a4.07,4.07,0,0,0,7.42,0h1.68a1.09,1.09,0,0,0,0-2.17H22.51V7H41.88V9.57H40.57a1.09,1.09,0,1,0,0,2.17h1.67a4.07,4.07,0,0,0,7.42,0h1.68a1.09,1.09,0,0,0,0-2.17H50V7h8.49a3.7,3.7,0,0,1,3.7,3.7v6.1h-60v-6.1A3.7,3.7,0,0,1,5.87,7m-3.7,12H62.22v2.62h-60Zm33.5,19.25a.11.11,0,0,1,.11-.11h2.39a.11.11,0,0,1,.12.11v1.88q-.39.3-.75.63H35.78a.11.11,0,0,1-.11-.11v-2.4ZM50.14,71.79A16.87,16.87,0,1,1,67,54.92,16.88,16.88,0,0,1,50.14,71.79"/><path class="cls-7" d="M50.14,40.68A14.25,14.25,0,1,0,64.38,54.92,14.26,14.26,0,0,0,50.14,40.68m0,26.32A12.08,12.08,0,1,1,62.22,54.92,12.09,12.09,0,0,1,50.14,67"/><path class="cls-7" d="M56.12,53.84H53.44a3.46,3.46,0,0,0-2.22-2.22V46.55a1.08,1.08,0,1,0-2.16,0v5.07A3.48,3.48,0,1,0,53.44,56h2.68a1.09,1.09,0,0,0,0-2.17m-6,2.39a1.31,1.31,0,1,1,1.31-1.31,1.31,1.31,0,0,1-1.31,1.31"/></g></g></svg>