<svg xmlns="http://www.w3.org/2000/svg" viewBox="0 0 37.63 37.49"><defs><style>.cls-1{fill:#0b3470;}</style></defs><title>resultadosyconocimiento5</title><g id="Capa_2" data-name="Capa 2"><g id="Capa_1-2" data-name="Capa 1"><path class="cls-1" d="M35.68,0,1.94.12A1.95,1.95,0,0,0,2,4l.1,26.61a.65.65,0,0,0,.65.64l7.73,0L6.11,36.68l1,.81,5-6.26,6.17,0v1.41a1.95,1.95,0,1,0,2.48,1.18,1.91,1.91,0,0,0-1.19-1.18V31.2l6.18,0,5,6.23,1-.82-4.36-5.42,7.73,0a.66.66,0,0,0,.65-.65l-.1-26.61a1.95,1.95,0,0,0,0-3.89ZM18.93,35.1a.65.65,0,1,1,.65-.65A.66.66,0,0,1,18.93,35.1Zm15.56-5.25L3.34,30,3.25,4,34.4,3.9ZM35.69,2.6,2,2.72a.65.65,0,0,1,0-1.3L35.68,1.3a.66.66,0,0,1,.66.64A.66.66,0,0,1,35.69,2.6Z"/><rect class="cls-1" x="5.91" y="20.85" width="10.38" height="1.3" transform="translate(-0.08 0.04) rotate(-0.2)"/><rect class="cls-1" x="5.92" y="23.45" width="10.38" height="1.3" transform="translate(-0.09 0.04) rotate(-0.2)"/><rect class="cls-1" x="5.93" y="26.05" width="7.79" height="1.3" transform="translate(-0.09 0.04) rotate(-0.2)"/><rect class="cls-1" x="11.09" y="18.25" width="5.19" height="1.3" transform="translate(-0.07 0.05) rotate(-0.2)"/><rect class="cls-1" x="21.44" y="9.12" width="10.38" height="1.3" transform="translate(-0.03 0.09) rotate(-0.2)"/><rect class="cls-1" x="21.45" y="11.71" width="10.38" height="1.3" transform="translate(-0.04 0.09) rotate(-0.2)"/><rect class="cls-1" x="21.46" y="14.31" width="7.79" height="1.3" transform="translate(-0.05 0.09) rotate(-0.2)"/><rect class="cls-1" x="26.62" y="6.51" width="5.19" height="1.3" transform="translate(-0.03 0.1) rotate(-0.2)"/><path class="cls-1" d="M11,5.93a5.19,5.19,0,1,0,5.21,5.17A5.19,5.19,0,0,0,11,5.93Zm.68,1.36a3.82,3.82,0,0,1,2.47,1.52l-2.48,1.25ZM8.81,8a3.8,3.8,0,0,1,1.61-.66v3.57L7.89,13.37A3.89,3.89,0,0,1,8.81,8Zm3.4,6.89a4,4,0,0,1-1.13.17,3.87,3.87,0,0,1-2.28-.73l2.66-2.64L14.78,10A3.89,3.89,0,0,1,12.21,14.84Z"/><rect class="cls-1" x="20.2" y="24.06" width="1.3" height="3.24" transform="translate(-0.09 0.07) rotate(-0.2)"/><rect class="cls-1" x="30.58" y="22.73" width="1.3" height="4.54" transform="translate(-0.09 0.11) rotate(-0.2)"/><rect class="cls-1" x="22.79" y="22.1" width="1.3" height="5.19" transform="translate(-0.09 0.08) rotate(-0.2)"/><rect class="cls-1" x="25.38" y="19.5" width="1.3" height="7.79" transform="translate(-0.08 0.09) rotate(-0.2)"/><rect class="cls-1" x="27.98" y="21.44" width="1.3" height="5.84" transform="translate(-0.09 0.1) rotate(-0.2)"/><rect class="cls-1" x="8.5" y="18.26" width="1.3" height="1.3" transform="translate(-0.07 0.03) rotate(-0.2)"/><rect class="cls-1" x="24.03" y="6.53" width="1.3" height="1.3" transform="translate(-0.03 0.09) rotate(-0.2)"/></g></g></svg>