<svg xmlns="http://www.w3.org/2000/svg" viewBox="0 0 571 571"><defs><style>.cls-1{isolation:isolate;}.cls-2{fill:#e6e6e6;}.cls-2,.cls-3,.cls-4,.cls-5{stroke:#000;stroke-miterlimit:10;stroke-width:9px;}.cls-3{fill:#ea5b29;}.cls-4{fill:none;}.cls-5{fill:#f8fcfd;}.cls-6{fill:#f2f2f2;mix-blend-mode:multiply;}.cls-7{fill:#f29d7f;}</style></defs><g class="cls-1"><g id="Capa_2" data-name="Capa 2"><g id="Capa_1-2" data-name="Capa 1"><path class="cls-2" d="M566.5,285.5c0-155.19-125.81-281-281-281s-281,125.81-281,281c0,112.35,66,209.29,161.24,254.25V494.94a51.71,51.71,0,0,1,51.67-51.68H363.07a51.7,51.7,0,0,1,51.69,51.68v40.13C504.91,488.27,566.5,394.08,566.5,285.5Z"/><path class="cls-2" d="M396.2,455.27a146.49,146.49,0,0,1-214.52,2.36,51.51,51.51,0,0,0-15.94,37.31v44.81a281.45,281.45,0,0,0,249-4.69V494.93A51.57,51.57,0,0,0,396.2,455.27Z"/><path class="cls-3" d="M287.84,503.18A146.14,146.14,0,0,0,396.2,455.27a51.47,51.47,0,0,0-33.13-12H217.41a51.49,51.49,0,0,0-35.73,14.37A146.05,146.05,0,0,0,287.84,503.18Z"/><rect class="cls-2" x="85.04" y="253.5" width="38" height="109" rx="19"/><rect class="cls-2" x="449.5" y="253.5" width="38" height="109" rx="19"/><path class="cls-3" d="M312.18,97.22h47.75a51.68,51.68,0,0,1,51.68,51.68V403.54a51.68,51.68,0,0,1-51.68,51.68H312.18a151,151,0,0,1-151-151V248.19a151,151,0,0,1,151-151Z" transform="translate(562.61 -10.21) rotate(90)"/><path class="cls-2" d="M326.79,140.83h18.53a28.36,28.36,0,0,1,28.36,28.36v214a28.36,28.36,0,0,1-28.36,28.36H326.79A127.66,127.66,0,0,1,199.14,283.94V268.49A127.66,127.66,0,0,1,326.79,140.83Z" transform="translate(562.61 -10.21) rotate(90)"/><path class="cls-4" d="M298.5,147.68v-26l-17.81-5a1.31,1.31,0,0,1,.1-2.55l16.71-3.42V79.18"/><circle class="cls-5" cx="298" cy="69" r="19"/><circle cx="227.41" cy="263" r="19"/><circle cx="345.41" cy="263" r="19"/><path class="cls-2" d="M321,306.42a31.91,31.91,0,1,1-63.82,0"/><path class="cls-6" d="M215.67,166.1l.08,0c-81.1,41.73-103.35,140.36-83.25,222.85-23-17.23-23.23-50.09-22.17-75.95,1.38-33.65,8.51-66.61,28.89-94.21A143.85,143.85,0,0,1,215.67,166.1Z"/><path class="cls-6" d="M229.5,203.5s-63.65,21.54-74,98c-1.07,7.92-10,69,40,58C195.5,359.5,108.5,315.5,229.5,203.5Z"/><path class="cls-7" d="M297.5,54.5s-13,17,0,29c0,0-14-1-14-16C283.5,63.28,287.85,56,297.5,54.5Z"/><path class="cls-6" d="M483.75,331.62s-10.5,9.5-14.5,9.5l-.5,18.5S486.25,356.12,483.75,331.62Z"/><path class="cls-6" d="M196.06,455s46.44,42.5,120.44,41.5l-64-2c-33-7-56.8-30.4-62.14-34.9l-2.08-1.74A46.77,46.77,0,0,1,196.06,455Z"/></g></g></g></svg>