<svg xmlns="http://www.w3.org/2000/svg" viewBox="0 0 16.55 16.55"><defs><style>.cls-1{opacity:0.4;}.cls-2{fill:#6d6d6d;}</style></defs><title>search</title><g id="Capa_2" data-name="Capa 2"><g id="Capa_1-2" data-name="Capa 1"><g class="cls-1"><path class="cls-2" d="M14.59,11.46A6.72,6.72,0,0,0,5.09,2a6.59,6.59,0,0,0-1,8.11.29.29,0,0,1,0,.34L.61,13.83a1.57,1.57,0,0,0-.24,2.24l.11.11a1.57,1.57,0,0,0,2.24-.24l3.42-3.42a.28.28,0,0,1,.34,0A6.59,6.59,0,0,0,14.59,11.46ZM6.33,10.22a5,5,0,1,1,7,0A5,5,0,0,1,6.33,10.22Z"/><path class="cls-2" d="M6.76,6.31a.65.65,0,0,1-.27,0,.7.7,0,0,1-.37-.91A4.38,4.38,0,0,1,11.84,3a.69.69,0,0,1-.54,1.28A3,3,0,0,0,7.4,5.89.68.68,0,0,1,6.76,6.31Z"/></g></g></g></svg>