<svg xmlns="http://www.w3.org/2000/svg" viewBox="0 0 85.73 85.73"><defs><style>.cls-1{fill:#fffeff;}.cls-2{fill:#ccc;}</style></defs><title>servicios_dis</title><g id="Capa_2" data-name="Capa 2"><g id="Elementos"><circle class="cls-1" cx="42.87" cy="42.87" r="42.87"/><g id="_10-point" data-name=" 10-point"><path class="cls-2" d="M23.51,58.73V22.35H19.23V60.87A2.14,2.14,0,0,0,21.37,63H70.6V58.73Z"/><path class="cls-2" d="M38.49,50.17a6.42,6.42,0,1,0-6.42-6.42A6.41,6.41,0,0,0,38.49,50.17Zm0-8.56a2.14,2.14,0,1,1-2.14,2.14A2.14,2.14,0,0,1,38.49,41.61Z"/><path class="cls-2" d="M51.34,39.47a8.56,8.56,0,1,0-8.57-8.56A8.56,8.56,0,0,0,51.34,39.47Zm0-12.84a4.28,4.28,0,1,1-4.29,4.28A4.28,4.28,0,0,1,51.34,26.63Z"/><circle class="cls-2" cx="29.93" cy="52.31" r="2.14"/><circle class="cls-2" cx="53.48" cy="50.17" r="2.14"/><circle class="cls-2" cx="66.32" cy="37.33" r="2.14"/><circle class="cls-2" cx="34.21" cy="28.77" r="2.14"/></g></g></g></svg>