<svg xmlns="http://www.w3.org/2000/svg" viewBox="0 0 85.73 85.73"><defs><style>.cls-1{fill:#fffeff;}.cls-2{fill:#00394d;}</style></defs><title>servicios-analisis-active</title><g id="Capa_2" data-name="Capa 2"><g id="Elementos"><circle class="cls-1" cx="42.87" cy="42.87" r="42.87"/><path class="cls-2" d="M62.39,34.82a6.41,6.41,0,0,0-2.76.63l-4.27-4.27a6.4,6.4,0,1,0-10,2L37,54h-.26a6.26,6.26,0,0,0-1.92.3L29.3,46.91a6.39,6.39,0,1,0-3.41,2.56l5.56,7.42A6.4,6.4,0,1,0,41,55.62l8.32-20.8h.26a6.26,6.26,0,0,0,2.76-.62l4.27,4.27a6.38,6.38,0,1,0,5.78-3.65ZM21.84,43.36A2.14,2.14,0,1,1,24,45.5,2.13,2.13,0,0,1,21.84,43.36ZM36.78,62.57a2.14,2.14,0,1,1,2.13-2.14A2.14,2.14,0,0,1,36.78,62.57Zm12.8-32a2.14,2.14,0,1,1,2.13-2.14A2.13,2.13,0,0,1,49.58,30.56Zm12.81,12.8a2.14,2.14,0,1,1,2.13-2.13A2.13,2.13,0,0,1,62.39,43.36Z"/></g></g></svg>