<svg xmlns="http://www.w3.org/2000/svg" xmlns:xlink="http://www.w3.org/1999/xlink" viewBox="0 0 85.73 85.73"><defs><style>.cls-1{fill:#fffeff;}.cls-2{fill:#5471e8;}.cls-3{fill:url(#Degradado_sin_nombre_8);}.cls-4{fill:url(#Degradado_sin_nombre_8-2);}.cls-5{fill:url(#Degradado_sin_nombre_8-3);}</style><linearGradient id="Degradado_sin_nombre_8" x1="26.12" y1="34.58" x2="33.96" y2="34.58" gradientUnits="userSpaceOnUse"><stop offset="0" stop-color="#31dcc7"/><stop offset="1" stop-color="#31dc9e"/></linearGradient><linearGradient id="Degradado_sin_nombre_8-2" x1="38.01" y1="40.92" x2="47.75" y2="40.92" xlink:href="#Degradado_sin_nombre_8"/><linearGradient id="Degradado_sin_nombre_8-3" x1="30" y1="50.94" x2="56.07" y2="50.94" xlink:href="#Degradado_sin_nombre_8"/></defs><title>servicios-baiwa-active</title><g id="Capa_2" data-name="Capa 2"><g id="Elementos"><circle class="cls-1" cx="42.87" cy="42.87" r="42.87"/><path class="cls-2" d="M59,40.58A16.45,16.45,0,0,0,42.55,24.15a3.37,3.37,0,1,0,0,6.74,9.7,9.7,0,0,1,8.7,14l4.82,5A16.35,16.35,0,0,0,59,40.58Z"/><path class="cls-3" d="M32.85,40.58V21.34a3.37,3.37,0,0,0-6.73,0V40.58A16.36,16.36,0,0,0,30,51.18l4-6.11A9.57,9.57,0,0,1,32.85,40.58Z"/><path class="cls-2" d="M61.36,60.17a3.37,3.37,0,1,0-4.74-4.78,19.47,19.47,0,0,1-27.49-.09A3.37,3.37,0,1,0,24.35,60,26.2,26.2,0,0,0,61.36,60.17Z"/><circle class="cls-4" cx="42.88" cy="40.92" r="4.87"/><path class="cls-5" d="M42.55,57A16.43,16.43,0,0,0,56.07,49.9l-4.82-5A9.69,9.69,0,0,1,34,45.07l-4,6.11A16.42,16.42,0,0,0,42.55,57Z"/></g></g></svg>