<svg xmlns="http://www.w3.org/2000/svg" viewBox="0 0 85.73 85.73"><defs><style>.cls-1{fill:#fffeff;}.cls-2{fill:#00394d;}</style></defs><title>servicios-estudios-active</title><g id="Capa_2" data-name="Capa 2"><g id="Elementos"><circle class="cls-1" cx="42.87" cy="42.87" r="42.87"/><path class="cls-2" d="M67.73,65.24,52.26,49.77A19.32,19.32,0,1,0,49,52.54L64.7,68.28ZM38.29,21.39a15.05,15.05,0,0,1,15,15H50.49L46.73,27a2.15,2.15,0,0,0-3.86-.27l-6.6,11.55-2.5-5a2.13,2.13,0,0,0-2.88-1,2,2,0,0,0-.56.4l-3.66,3.66H23.26a15,15,0,0,1,15-15ZM23.89,40.72h3.67a2.15,2.15,0,0,0,1.51-.63l2.19-2.19,3,5.93A2.15,2.15,0,0,0,36.09,45h.06A2.14,2.14,0,0,0,38,43.93l6.38-11.17L47,39.37a2.13,2.13,0,0,0,2,1.35H52.7a15,15,0,0,1-28.81,0Z"/></g></g></svg>