<svg xmlns="http://www.w3.org/2000/svg" viewBox="0 0 94.65 61.69"><defs><style>.cls-1{fill:#78e1d3;}.cls-2{fill:#d5b046;}.cls-3{fill:#1c8785;}.cls-4{fill:#b79a3a;}.cls-5{fill:#2ec6ca;}.cls-6{fill:#146a8c;}.cls-7{fill:#1f94d0;}.cls-8{fill:#2ecaeb;}.cls-9{fill:#b0e0d1;}.cls-10{fill:#12424f;}</style></defs><title>silos-de-informacion</title><g id="Capa_2" data-name="Capa 2"><g id="Capa_1-2" data-name="Capa 1"><circle class="cls-1" cx="32.42" cy="28.03" r="7.78"/><circle class="cls-2" cx="32.42" cy="54.84" r="5.92"/><circle class="cls-3" cx="6.5" cy="52.47" r="5.92"/><circle class="cls-1" cx="85.41" cy="50.95" r="3.04"/><circle class="cls-4" cx="89.54" cy="34.79" r="3.04"/><circle class="cls-5" cx="50.51" cy="45.9" r="3.04"/><circle class="cls-6" cx="14.38" cy="9.69" r="3.04"/><circle class="cls-7" cx="86.31" cy="22.02" r="2.07"/><circle class="cls-8" cx="72.73" cy="31.54" r="5.27"/><circle class="cls-9" cx="54.6" cy="6.43" r="5.62"/><path class="cls-10" d="M93.82,32.09A4.8,4.8,0,0,0,90.66,30a4.88,4.88,0,0,0-5.24,2.74L79,31.63a6.15,6.15,0,0,0-.52-2.39l5.77-4a3.31,3.31,0,0,0,1.88.58,1.94,1.94,0,0,0,.34,0A3.39,3.39,0,0,0,86.12,19H86a3.4,3.4,0,0,0-2.94,1.91,3.23,3.23,0,0,0-.24,2.28l-5.77,4a6.19,6.19,0,0,0-3.25-1.66,6.68,6.68,0,0,0-1.09-.09,6.31,6.31,0,0,0-2.53.53L59.72,11.49A6.73,6.73,0,1,0,48.23,6.73,6.82,6.82,0,0,0,49,9.94L38,21a8.93,8.93,0,0,0-11,0l-8.6-8.6a4.38,4.38,0,0,0,.64-2.27A4.52,4.52,0,1,0,16.85,14l8.6,8.6a8.88,8.88,0,0,0,0,11L11.24,47.74A6.65,6.65,0,0,0,6.73,46a6.73,6.73,0,1,0,6.73,6.73,6.79,6.79,0,0,0-.81-3.21L27,35.12a9,9,0,0,0,4.37,1.82V48.33a6.73,6.73,0,1,0,2.24,0V36.94A9,9,0,0,0,38,35.12l8.6,8.6A4.48,4.48,0,1,0,55,46a4.58,4.58,0,0,0,0-.53l13.46-9.18a6.23,6.23,0,0,0,3.25,1.66,6.72,6.72,0,0,0,1.1.1,6.31,6.31,0,0,0,2.52-.54l6.9,9.89a4.82,4.82,0,0,0,3.32,8.34,4.84,4.84,0,0,0,0-9.67,5,5,0,0,0-1.16.14l-7-10.1A6.18,6.18,0,0,0,78.59,34L85,35.18a4.86,4.86,0,0,0,4.8,4.45,4.84,4.84,0,0,0,4-7.54M14.58,12.34a2.25,2.25,0,1,1,2.24-2.25,2.24,2.24,0,0,1-2.24,2.25M6.73,57.2a4.49,4.49,0,1,1,4.49-4.48A4.49,4.49,0,0,1,6.73,57.2m85.43-22a2.38,2.38,0,0,1-2.35,2,2,2,0,0,1-.42,0,2.39,2.39,0,0,1,.42-4.74,3,3,0,0,1,.42,0,2.39,2.39,0,0,1,1.93,2.77M76.52,32.43a3.84,3.84,0,0,1-3.78,3.16,3.83,3.83,0,1,1,3.14-6,3.85,3.85,0,0,1,.64,2.87m6.6,18a2.39,2.39,0,0,1,2.35-2,2,2,0,0,1,.42,0,2.39,2.39,0,0,1,1.94,2.76,2.4,2.4,0,0,1-2.35,2,3,3,0,0,1-.42,0,2.4,2.4,0,0,1-1.94-2.77m3.95-27.91a.94.94,0,0,1-.92.78l-.17,0a.92.92,0,0,1-.61-.39.91.91,0,0,1-.15-.7.94.94,0,0,1,.92-.78h.17a1,1,0,0,1,.76,1.1M55,2.24a4.49,4.49,0,1,1-4.49,4.49A4.5,4.5,0,0,1,55,2.24M37,55a4.49,4.49,0,1,1-4.48-4.49A4.49,4.49,0,0,1,37,55M32.53,34.77A6.73,6.73,0,1,1,39.26,28a6.74,6.74,0,0,1-6.73,6.73m7.08-1.24a8.92,8.92,0,0,0,0-11L50.45,11.71A6.69,6.69,0,0,0,55,13.46a6.6,6.6,0,0,0,2.74-.59L68.21,27.42A6.25,6.25,0,0,0,67,34.27L54,43.16a4.5,4.5,0,0,0-3.49-1.66,4.37,4.37,0,0,0-2.26.64Zm10.86,14.7A2.25,2.25,0,1,1,52.72,46a2.25,2.25,0,0,1-2.25,2.24"/></g></g></svg>