<svg xmlns="http://www.w3.org/2000/svg" xmlns:xlink="http://www.w3.org/1999/xlink" viewBox="0 0 229.33 178.51"><defs><style>.cls-1{opacity:0.2;fill:url(#Degradado_sin_nombre_9);}.cls-2{fill:none;stroke-miterlimit:10;stroke-width:2px;stroke:url(#Degradado_sin_nombre_15);}.cls-3{fill:url(#Degradado_sin_nombre_15-2);}</style><linearGradient id="Degradado_sin_nombre_9" x1="114.97" y1="262.72" x2="114.23" y2="9.16" gradientUnits="userSpaceOnUse"><stop offset="0.24" stop-color="#efeedf" stop-opacity="0"/><stop offset="0.6" stop-color="#869f9e" stop-opacity="0.44"/><stop offset="1" stop-color="#00394c"/></linearGradient><linearGradient id="Degradado_sin_nombre_15" x1="81.92" y1="170.33" x2="225.15" y2="170.33" gradientUnits="userSpaceOnUse"><stop offset="0" stop-color="#efeedf" stop-opacity="0"/><stop offset="0.03" stop-color="#d8ddd1" stop-opacity="0.1"/><stop offset="0.15" stop-color="#8aa1a1" stop-opacity="0.42"/><stop offset="0.29" stop-color="#4c737b" stop-opacity="0.68"/><stop offset="0.45" stop-color="#215260" stop-opacity="0.86"/><stop offset="0.64" stop-color="#083f51" stop-opacity="0.97"/><stop offset="1" stop-color="#00394c"/></linearGradient><linearGradient id="Degradado_sin_nombre_15-2" x1="81.92" y1="170.33" x2="225.15" y2="170.33" xlink:href="#Degradado_sin_nombre_15"/></defs><g id="Capa_2" data-name="Capa 2"><g id="Guia"><path class="cls-1" d="M0,161.12,58.48,5.64A8.7,8.7,0,0,1,74.89,6L121.49,147a8.7,8.7,0,0,0,15.89,1.45l46.33-84.54a8.7,8.7,0,0,1,15.88,1.43l29.74,89.19"/><line class="cls-2" x1="81.92" y1="170.33" x2="222.98" y2="170.33"/><polygon class="cls-3" points="216.35 178.51 214.99 177.04 222.21 170.33 214.99 163.61 216.35 162.15 225.15 170.33 216.35 178.51"/></g></g></svg>