<svg xmlns="http://www.w3.org/2000/svg" viewBox="0 0 1008.66 926.63"><defs><style>.cls-1,.cls-2{fill:#fff;}.cls-1{stroke:#fff;stroke-miterlimit:10;}</style></defs><title>sound-off</title><g id="Capa_2" data-name="Capa 2"><g id="Capa_1-2" data-name="Capa 1"><path class="cls-1" d="M507.22,34c0-14.17-18.16-20-26.46-8.55L320.66,247.11,507.22,447.64Z"/><path class="cls-1" d="M294.75,301.22a14.61,14.61,0,0,1-11.85,6.06H15.11A14.62,14.62,0,0,0,.5,321.9V592.5a14.62,14.62,0,0,0,14.61,14.62H274.7A14.63,14.63,0,0,1,286.4,613L480.91,872.71C489.33,884,507.22,878,507.22,864V482.23L314,274.55Z"/><path class="cls-2" d="M976.51,627.59A409,409,0,0,0,599.59,59.29a5.57,5.57,0,0,0,0,11.14c219.42,0,397.93,178.51,397.93,397.93,0,131.94-64.55,249.09-163.73,321.53l7.76,8.35a411.19,411.19,0,0,0,135-170.65Z"/><path class="cls-2" d="M590.47,883.5a5.57,5.57,0,0,0,0,11.14A407.29,407.29,0,0,0,823.3,822l-7.8-8.38A395.6,395.6,0,0,1,590.47,883.5Z"/><path class="cls-2" d="M590.47,808.43a5.57,5.57,0,0,0,0,11.14,331.71,331.71,0,0,0,181.07-53.23l-7.84-8.42A321,321,0,0,1,590.47,808.43Z"/><path class="cls-2" d="M835.76,704.53A334,334,0,0,0,599.59,134.36a5.57,5.57,0,0,0,0,11.14c178,0,322.86,144.83,322.86,322.86,0,110.29-55.6,207.83-140.24,266.09l7.81,8.39A337.51,337.51,0,0,0,835.76,704.53Z"/><path class="cls-2" d="M782.68,651.45a258.93,258.93,0,0,0-183.09-442,5.57,5.57,0,0,0,0,11.14c136.63,0,247.79,111.16,247.79,247.79,0,88.65-46.81,166.57-117,210.37l7.84,8.43A261,261,0,0,0,782.68,651.45Z"/><path class="cls-2" d="M590.47,733.36a5.57,5.57,0,1,0,0,11.14,257.46,257.46,0,0,0,128.89-34.24l-7.91-8.5A246.29,246.29,0,0,1,590.47,733.36Z"/><path class="cls-2" d="M590.47,657.4a5.57,5.57,0,0,0,0,11.14,181.79,181.79,0,0,0,75.08-16.12l-8-8.64A170.83,170.83,0,0,1,590.47,657.4Z"/><path class="cls-2" d="M782.56,468.36c0-100.89-82.08-183-183-183a5.57,5.57,0,0,0,0,11.14c94.75,0,171.83,77.08,171.83,171.83a172,172,0,0,1-94.18,153.25l7.87,8.46A183.14,183.14,0,0,0,782.56,468.36Z"/><path class="cls-2" d="M919,924.86a5.57,5.57,0,0,0,8.15-7.59L832.44,815.45q-4.53,3.33-9.14,6.53Z"/><path class="cls-2" d="M75.47,1.78a5.57,5.57,0,1,0-8.16,7.58L314,274.55l6.65-9.21Z"/><path class="cls-2" d="M676,647.29c-3.42,1.81-6.89,3.53-10.44,5.13l45.9,49.34q5-2.81,9.81-5.82Z"/><path class="cls-2" d="M780.9,760.06q-4.64,3.23-9.36,6.28l44,47.26q4.63-3.18,9.18-6.49Z"/><path class="cls-2" d="M729.1,704.37q-4.82,3.06-9.74,5.89l44.34,47.66q4.75-3,9.4-6.25Z"/><path class="cls-2" d="M507.22,465.87v16.36l150.3,161.55q5.4-2.29,10.61-4.95Z"/><polygon class="cls-2" points="320.66 265.34 314.01 274.55 507.22 482.23 507.22 465.87 320.66 265.34"/><path class="cls-2" d="M815.5,813.6l7.8,8.38q4.61-3.19,9.14-6.53l-7.76-8.34Q820.14,810.43,815.5,813.6Z"/><path class="cls-2" d="M773.1,751.67q-4.65,3.2-9.4,6.25l7.84,8.42q4.73-3.06,9.36-6.28Z"/><path class="cls-2" d="M721.26,695.94q-4.83,3-9.81,5.82l7.91,8.5q4.92-2.84,9.74-5.89Z"/><path class="cls-2" d="M668.13,638.83q-5.21,2.65-10.61,4.95l8,8.64c3.55-1.6,7-3.32,10.44-5.13Z"/></g></g></svg>