<svg xmlns="http://www.w3.org/2000/svg" viewBox="0 0 987 846.82"><defs><style>.cls-1{fill:#fff;}.cls-1,.cls-2{stroke:#fff;stroke-miterlimit:10;}.cls-2{fill:none;stroke-linecap:round;stroke-width:11px;}</style></defs><title>sound-on</title><g id="Capa_2" data-name="Capa 2"><g id="Capa_1-2" data-name="Capa 1"><path class="cls-1" d="M.5,281.27v267.2a14.44,14.44,0,0,0,14.43,14.44H271.26a14.44,14.44,0,0,1,11.55,5.78L474.88,825.16c8.31,11.1,26,5.22,26-8.65V15c0-14-17.93-19.8-26.13-8.45L291.05,260.85a14.42,14.42,0,0,1-11.7,6H14.93A14.43,14.43,0,0,0,.5,281.27Z"/><path class="cls-2" d="M583.07,44.45c220,0,398.43,178.39,398.43,398.44S803.12,841.32,583.07,841.32"/><path class="cls-2" d="M583.07,118.58c179.11,0,324.3,145.2,324.3,324.31s-145.19,324.3-324.3,324.3"/><path class="cls-2" d="M583.07,192.71c138.17,0,250.18,112,250.18,250.18s-112,250.18-250.18,250.18"/><path class="cls-2" d="M583.07,267.71a175.18,175.18,0,0,1,0,350.35"/></g></g></svg>