<svg xmlns="http://www.w3.org/2000/svg" viewBox="0 0 78.39 31.45"><defs><style>.cls-1{fill:#fff;}.cls-2{font-size:5.77px;}.cls-2,.cls-3,.cls-4,.cls-5{fill:#0b3470;}.cls-2,.cls-3,.cls-4{font-family:CircularStd-Black, CircularStd Black;font-weight:800;}.cls-3{font-size:5.26px;}.cls-4{font-size:18.27px;}</style></defs><title>sysco50k</title><g id="Capa_2" data-name="Capa 2"><g id="Capa_1-2" data-name="Capa 1"><circle class="cls-1" cx="43.85" cy="15.72" r="4.85"/><text class="cls-2" transform="translate(42.13 17.42)">=</text><text class="cls-3" transform="translate(59.6 26.65)">millones</text><text class="cls-4" transform="translate(59.65 18.99)">50</text><path class="cls-5" d="M3.14,13.67V12.35a2.39,2.39,0,0,1-1-2V6.29a.52.52,0,0,1-.53-.52v-1a4.72,4.72,0,0,1,9.44,0v.52h2.62a.52.52,0,0,1,.52.53.52.52,0,0,1-.52.52H10.48V8.91a3.67,3.67,0,0,1-3.14,3.63v1.09h.52a3.67,3.67,0,0,1,3.67,3.67V21h1.05V10a.52.52,0,0,1,.52-.53H27.78a.52.52,0,0,1,.52.53V22.54a.52.52,0,0,1-.52.52H23a2.62,2.62,0,0,1-2.57,2.1H18.87v1.57a.53.53,0,0,1-.53.53H15.2a.52.52,0,0,1-.52-.53v-.52H11.53v4.71a.52.52,0,0,1-.52.53H.52A.52.52,0,0,1,0,30.92V17.3A3.66,3.66,0,0,1,3.14,13.67ZM10,4.72a3.67,3.67,0,0,0-7.34,0v.52H10ZM5.77,11.53h1A2.62,2.62,0,0,0,9.43,8.91V6.29H3.14v4.07a1.38,1.38,0,0,0,.76,1.23.51.51,0,0,1,.29.47v1.57h2.1V12.58H5.77a.53.53,0,1,1,0-1.05Zm13.62-1v3.74l.76-.5a.51.51,0,0,1,.58,0l.76.5V10.48Zm7.87,0H22.54V15.2a.52.52,0,0,1-.53.52.6.6,0,0,1-.29-.08l-1.28-.86-1.28.86a.53.53,0,0,1-.73-.15.75.75,0,0,1-.09-.29V10.48H13.63V21h1v-.53a.52.52,0,0,1,.52-.52h3.14a.52.52,0,0,1,.53.52V22h8.39ZM20.44,24.11a1.56,1.56,0,0,0,1.48-1.05H18.87v1.05Zm-4.72,2.1h2.1V21h-2.1Zm-1-4.2H8.91a1.57,1.57,0,0,1-1.57-1.57v-2.1a1.58,1.58,0,0,0-3.15,0v3.15a3.68,3.68,0,0,0,3.67,3.67h6.82Zm-6.82,4.2a4.74,4.74,0,0,1-4.72-4.72V18.34a2.63,2.63,0,0,1,5.25,0v2.1a.52.52,0,0,0,.52.53h1.57V17.3a2.62,2.62,0,0,0-2.62-2.62H3.67A2.62,2.62,0,0,0,1.05,17.3v11h9.43V26.21ZM1.05,30.4h9.43v-1H1.05Z"/></g></g></svg>