<svg xmlns="http://www.w3.org/2000/svg" viewBox="0 0 17.66 17.66"><defs><style>.cls-1{fill:#0075a9;}</style></defs><title>todassazul</title><g id="Capa_2" data-name="Capa 2"><g id="Capa_1-2" data-name="Capa 1"><path class="cls-1" d="M10,17.66H7.66A.69.69,0,0,1,7,17v-1a7.31,7.31,0,0,1-1.85-.77l-.73.73a.68.68,0,0,1-1,0L1.76,14.24a.68.68,0,0,1,0-1l.73-.73a7.31,7.31,0,0,1-.77-1.85h-1A.69.69,0,0,1,0,10V7.66A.69.69,0,0,1,.69,7h1a7.29,7.29,0,0,1,.76-1.85l-.72-.73a.68.68,0,0,1,0-1L3.42,1.76a.68.68,0,0,1,1,0l.72.72A7.38,7.38,0,0,1,7,1.71v-1A.69.69,0,0,1,7.66,0H10a.69.69,0,0,1,.69.69v1a7.38,7.38,0,0,1,1.86.77l.72-.72a.68.68,0,0,1,1,0L15.9,3.42a.68.68,0,0,1,0,1l-.72.72A7.23,7.23,0,0,1,16,7h1a.69.69,0,0,1,.69.69V10a.69.69,0,0,1-.69.69H16a7.54,7.54,0,0,1-.77,1.86l.72.72a.68.68,0,0,1,0,1L14.24,15.9a.68.68,0,0,1-1,0l-.73-.72a7.29,7.29,0,0,1-1.85.76v1A.69.69,0,0,1,10,17.66ZM5.07,14.39a.3.3,0,0,1,.18.06,6.68,6.68,0,0,0,2.14.88.36.36,0,0,1,.27.34V17H10v-1.3a.35.35,0,0,1,.27-.34,6.46,6.46,0,0,0,2.14-.88.34.34,0,0,1,.43.05l.92.91,1.65-1.65-.91-.92a.33.33,0,0,1-.05-.43,6.7,6.7,0,0,0,.89-2.14.35.35,0,0,1,.34-.27H17V7.66H15.68a.36.36,0,0,1-.34-.27,6.64,6.64,0,0,0-.88-2.15.33.33,0,0,1,0-.42l.91-.92L13.76,2.24l-.92.92a.35.35,0,0,1-.43,0,6.5,6.5,0,0,0-2.14-.88A.35.35,0,0,1,10,2V.69H7.66V2a.36.36,0,0,1-.27.34,6.7,6.7,0,0,0-2.14.89.36.36,0,0,1-.43,0L3.9,2.24,2.24,3.9l.92.92a.33.33,0,0,1,0,.43,6.46,6.46,0,0,0-.88,2.14A.36.36,0,0,1,2,7.66H.69V10H2a.35.35,0,0,1,.34.27,6.68,6.68,0,0,0,.88,2.14.35.35,0,0,1,0,.43l-.93.92L3.9,15.41l.92-.92A.39.39,0,0,1,5.07,14.39Z"/><path class="cls-1" d="M8.24,11.9A.38.38,0,0,1,8,11.78L5.31,9.14a.42.42,0,0,1,0-.59L6.8,7.06a.43.43,0,0,1,.3-.13.39.39,0,0,1,.29.13l.85.84,2-2a.42.42,0,0,1,.59,0l1.5,1.5a.42.42,0,0,1,0,.59L8.54,11.78A.42.42,0,0,1,8.24,11.9Zm-2-3.05,2.05,2,3.23-3.22-.91-.91-2,2a.42.42,0,0,1-.3.12A.38.38,0,0,1,8,8.79L7.1,7.94Z"/></g></g></svg>