<svg xmlns="http://www.w3.org/2000/svg" viewBox="0 0 65.77 76.24"><defs><style>.cls-1{fill:#c1e8e1;}.cls-2{fill:#d5b046;}.cls-3{fill:#2ec6ca;}.cls-4{fill:#b8994b;}.cls-5{fill:#7eeae7;}.cls-6{fill:#12424f;}</style></defs><title>transformamos-datos-en-activos</title><g id="Capa_2" data-name="Capa 2"><g id="Capa_1-2" data-name="Capa 1"><path class="cls-1" d="M12,47.21H52.52s11.89.32,10-8.8S52.11,31.9,52.11,31.9s1.3-16.13-17.59-17.43c-3.83.9-11.57,1.79-14.74,13.27-2.36-1.06-10.51-5.21-16,3.1S6.26,47.13,12,47.21Z"/><circle class="cls-2" cx="57.73" cy="67.86" r="7.22"/><circle class="cls-3" cx="8.39" cy="67.83" r="7.22"/><circle class="cls-4" cx="24.01" cy="63.46" r="5.26"/><circle class="cls-5" cx="41.15" cy="63.46" r="5.26"/><path class="cls-6" d="M14,47.34a.92.92,0,0,0-.92-.92A9.84,9.84,0,0,1,9,27.61a.92.92,0,0,0-.76-1.67,11.68,11.68,0,0,0,4.83,22.32.92.92,0,0,0,.92-.92"/><path class="cls-6" d="M20.55,28.22a15.48,15.48,0,0,1,28.91-4.5.92.92,0,0,0,1.24.37.91.91,0,0,0,.37-1.23,16.54,16.54,0,0,0-1.77-2.7V8l2.22-2.64a2.56,2.56,0,0,0,1,.18,2.74,2.74,0,1,0-2.37-1.35L47.68,7a1,1,0,0,0-.21.59V18.2A17.27,17.27,0,0,0,42,14.8V8.41a2.75,2.75,0,1,0-1.83,0v5.8a17.46,17.46,0,0,0-4.35-.55,16.52,16.52,0,0,0-2.24.15V5.33a2.75,2.75,0,1,0-1.83,0v8.81a17.33,17.33,0,0,0-6.59,3.18V8.41a2.75,2.75,0,1,0-1.83,0V19A17.31,17.31,0,0,0,19,26.54a11,11,0,0,0-1.32-.68V7.62A.91.91,0,0,0,17.51,7L15.08,4.14a2.75,2.75,0,1,0-2.37,1.35,2.61,2.61,0,0,0,1-.18L15.89,8V25.24a11.54,11.54,0,0,0-2.83-.34.92.92,0,0,0,0,1.83,9.79,9.79,0,0,1,6,2.05.88.88,0,0,0,.56.19.87.87,0,0,0,.32-.06.94.94,0,0,0,.58-.69M52.48,1.83a.92.92,0,1,1-.92.91.91.91,0,0,1,.92-.91M41,4.91a.91.91,0,1,1-.91.91A.92.92,0,0,1,41,4.91M32.62,1.83a.92.92,0,1,1-.91.91.92.92,0,0,1,.91-.91M24.21,4.91a.91.91,0,1,1-.92.91.91.91,0,0,1,.92-.91M11.8,2.74a.92.92,0,1,1,.91.92.91.91,0,0,1-.91-.92"/><path class="cls-6" d="M55.06,30.63a9.22,9.22,0,0,0-2,.22,17.65,17.65,0,0,0-.44-3.77.91.91,0,1,0-1.78.41A16.12,16.12,0,0,1,51.26,31c0,.36,0,.72,0,1.08a.94.94,0,0,0,.37.81,1,1,0,0,0,.88.11,6.9,6.9,0,0,1,2.59-.5,7,7,0,0,1,0,14h-3a.92.92,0,0,0,0,1.83h3a8.82,8.82,0,0,0,0-17.63"/><path class="cls-6" d="M42,57.16v-8.9h2.81a.92.92,0,1,0,0-1.84H36.29a.92.92,0,1,0,0,1.84h3.84v8.9"/><path class="cls-6" d="M33.31,63.43h2c.37,0,.67-.41.67-.92s-.3-.91-.67-.91H29.21c-.37,0-.66.41-.66.91s.29.92.66.92h4.1Z"/><path class="cls-6" d="M25.12,57.16v-8.9H29a.92.92,0,0,0,0-1.84H20.62a.92.92,0,0,0,0,1.84h2.67v8.9"/><path class="cls-6" d="M16.86,38.53A2.74,2.74,0,0,0,16,43.86V56.37L12.07,61a.93.93,0,0,0,.11,1.29,1,1,0,0,0,.59.21.92.92,0,0,0,.7-.32l4.1-4.88a.94.94,0,0,0,.21-.59V43.86a2.74,2.74,0,0,0-.92-5.33m0,3.65a.91.91,0,1,1,.92-.91.91.91,0,0,1-.92.91"/><path class="cls-6" d="M32.62,38.53a2.74,2.74,0,0,0-.91,5.33V61.58a.92.92,0,0,0,1.83,0V43.86a2.74,2.74,0,0,0-.92-5.33m0,3.65a.91.91,0,1,1,.92-.91.91.91,0,0,1-.92.91"/><path class="cls-6" d="M49.3,56.37V43.86a2.75,2.75,0,1,0-1.83,0V56.7a.94.94,0,0,0,.21.59l4.1,4.88a.92.92,0,0,0,.7.32,1,1,0,0,0,.59-.21A.93.93,0,0,0,53.18,61Zm-.91-16a.91.91,0,1,1-.92.91.91.91,0,0,1,.92-.91"/><path class="cls-6" d="M43.2,57.51a6.27,6.27,0,1,0,4.19,5.92,6.32,6.32,0,0,0-4.19-5.92M41.11,67.88a4.45,4.45,0,1,1,4.46-4.45,4.47,4.47,0,0,1-4.46,4.45"/><path class="cls-6" d="M26.06,57.51a6.28,6.28,0,1,0,4.18,5.92,6.32,6.32,0,0,0-4.18-5.92M24,67.88a4.45,4.45,0,1,1,4.47-4.45A4.46,4.46,0,0,1,24,67.88"/><path class="cls-6" d="M60.29,60.3A8.2,8.2,0,1,0,65.77,68a8.23,8.23,0,0,0-5.48-7.73m-2.73,14A6.22,6.22,0,1,1,63.78,68a6.23,6.23,0,0,1-6.22,6.22"/><path class="cls-6" d="M11,60.27A8.2,8.2,0,1,0,16.42,68,8.27,8.27,0,0,0,11,60.27M8.21,74.21A6.21,6.21,0,1,1,14.44,68a6.23,6.23,0,0,1-6.23,6.21"/><path class="cls-6" d="M57.63,72.32h0a.56.56,0,0,1-.56-.56v-.48a2.37,2.37,0,0,1-1.47-.75,2.71,2.71,0,0,1-.38-.55.63.63,0,0,1,.44-.87l.13,0a.64.64,0,0,1,.7.35,1.48,1.48,0,0,0,.22.29,1.3,1.3,0,0,0,.91.3,1,1,0,0,0,.6-.16.52.52,0,0,0,.24-.45c0-.28-.2-.46-.6-.55l-.87-.2a2.42,2.42,0,0,1-1.4-.82,1.66,1.66,0,0,1-.35-1,1.85,1.85,0,0,1,.52-1.3,2.31,2.31,0,0,1,1.31-.68v-.49a.56.56,0,0,1,1.12,0v.52a2.18,2.18,0,0,1,1.15.62l.16.2a.69.69,0,1,1-1.15.75.92.92,0,0,0-.81-.36.85.85,0,0,0-.6.19.56.56,0,0,0-.22.44c0,.28.19.46.57.55l.85.19a2.42,2.42,0,0,1,1.37.71,1.85,1.85,0,0,1,0,2.44,2,2,0,0,1-1.28.69v.5a.56.56,0,0,1-.56.56"/><path class="cls-6" d="M8.28,72.29h0a.56.56,0,0,1-.55-.56v-.48a2.32,2.32,0,0,1-1.47-.75A2.71,2.71,0,0,1,5.88,70a.62.62,0,0,1,.44-.87l.13,0a.65.65,0,0,1,.7.35,1.17,1.17,0,0,0,.22.29,1.28,1.28,0,0,0,.91.3,1,1,0,0,0,.6-.16.51.51,0,0,0,.23-.45c0-.28-.2-.46-.6-.55l-.86-.2a2.48,2.48,0,0,1-1.41-.82,1.65,1.65,0,0,1-.34-1,1.81,1.81,0,0,1,.52-1.3,2.28,2.28,0,0,1,1.31-.68v-.49a.56.56,0,1,1,1.11,0v.52a2.14,2.14,0,0,1,1.15.62l.16.2A.68.68,0,1,1,9,66.38.93.93,0,0,0,8.19,66a.85.85,0,0,0-.6.19.58.58,0,0,0-.21.44c0,.28.19.46.57.55l.84.19a2.39,2.39,0,0,1,1.37.71,1.75,1.75,0,0,1,.44,1.2,1.8,1.8,0,0,1-.47,1.24,2.2,2.2,0,0,1-1.29.69v.5a.56.56,0,0,1-.56.56"/><path class="cls-6" d="M24,66.88h0a.45.45,0,0,1-.45-.45V66a1.92,1.92,0,0,1-1.18-.6,1.72,1.72,0,0,1-.3-.44.5.5,0,0,1,.35-.7l.1,0a.52.52,0,0,1,.57.28.66.66,0,0,0,.18.23A1,1,0,0,0,24,65a.78.78,0,0,0,.48-.13.41.41,0,0,0,.19-.36c0-.23-.16-.37-.48-.45l-.7-.16a2,2,0,0,1-1.13-.65,1.38,1.38,0,0,1-.28-.85,1.5,1.5,0,0,1,.42-1,1.84,1.84,0,0,1,1.05-.54v-.4A.45.45,0,0,1,24,60a.45.45,0,0,1,.45.45v.42a1.72,1.72,0,0,1,.93.5s.09.1.13.16a.55.55,0,0,1-.32.84.58.58,0,0,1-.61-.23.72.72,0,0,0-.65-.3.65.65,0,0,0-.48.16.44.44,0,0,0-.18.35c0,.22.16.37.46.44l.68.15a1.9,1.9,0,0,1,1.1.58,1.4,1.4,0,0,1,.36,1,1.48,1.48,0,0,1-.38,1,1.77,1.77,0,0,1-1,.56v.4a.45.45,0,0,1-.45.45"/><path class="cls-6" d="M41.17,66.88h0a.45.45,0,0,1-.45-.45V66a1.92,1.92,0,0,1-1.19-.6,2.45,2.45,0,0,1-.3-.44.5.5,0,0,1,.35-.7l.11,0a.51.51,0,0,1,.56.28,1,1,0,0,0,.18.23,1,1,0,0,0,.73.25.83.83,0,0,0,.49-.13.43.43,0,0,0,.18-.36c0-.23-.16-.37-.48-.45l-.69-.16a2,2,0,0,1-1.14-.65,1.38,1.38,0,0,1-.28-.85,1.54,1.54,0,0,1,.42-1,1.83,1.83,0,0,1,1.06-.54v-.4a.45.45,0,1,1,.89,0v.42a1.68,1.68,0,0,1,.93.5,1,1,0,0,1,.13.16.55.55,0,0,1-.32.84.56.56,0,0,1-.6-.23.75.75,0,0,0-.66-.3.65.65,0,0,0-.48.16.43.43,0,0,0-.17.35c0,.22.15.37.46.44l.68.15a2,2,0,0,1,1.1.58,1.5,1.5,0,0,1,0,2,1.74,1.74,0,0,1-1,.56v.4a.45.45,0,0,1-.44.45"/></g></g></svg>