<svg xmlns="http://www.w3.org/2000/svg" viewBox="0 0 40.23 40.23"><defs><style>.cls-1{fill:#113339}</style></defs><g id="Capa_2" data-name="Capa 2"><g id="Capa_1-2" data-name="Capa 1"><path class="cls-1" d="M18.27 0H22a3.44 3.44 0 0 0 .55.15A20.13 20.13 0 0 1 39.56 15c.28 1.07.45 2.17.67 3.26V22a3.75 3.75 0 0 0-.15.55 20.15 20.15 0 0 1-14.86 17.01c-1.07.28-2.17.45-3.26.67h-3.69a3.44 3.44 0 0 0-.55-.15 20.13 20.13 0 0 1-17-14.86C.39 24.15.22 23.05 0 22v-3.73a3.56 3.56 0 0 0 .15-.56A20.13 20.13 0 0 1 15 .67C16.08.39 17.18.22 18.27 0m18.61 20.18A16.77 16.77 0 1 0 20 36.88a16.83 16.83 0 0 0 16.88-16.7"/><path class="cls-1" d="M24.92 11.19H26a4.46 4.46 0 0 1 2.67 1.31.19.19 0 0 0 .21.05 9 9 0 0 0 2.73-1.07 4.58 4.58 0 0 1-1.85 2.43c0 .05.06.05.09 0A9 9 0 0 0 32 13.4c.07 0 .14-.11.22 0a9.54 9.54 0 0 1-2.12 2.18c-.1.07-.09.16-.09.25a11.69 11.69 0 0 1-.3 3.17 13 13 0 0 1-4.38 7.21A12.12 12.12 0 0 1 18.24 29a12.82 12.82 0 0 1-7.71-1.83s-.11 0-.12-.14a9.16 9.16 0 0 0 6.5-1.86A4.63 4.63 0 0 1 12.72 22a4.5 4.5 0 0 0 2-.07 4.55 4.55 0 0 1-2.58-1.61 4.43 4.43 0 0 1-1-2.86 4.32 4.32 0 0 0 2 .53 4.49 4.49 0 0 1-1.29-6c.09.09.17.19.25.28a12.54 12.54 0 0 0 2.56 2.26 12.78 12.78 0 0 0 6.27 2.13c.14 0 .21 0 .15-.17a.37.37 0 0 1 0-.11 4.5 4.5 0 0 1 3.61-5.17c.05.04.16.06.23-.02Z"/></g></g></svg>