<svg xmlns="http://www.w3.org/2000/svg" viewBox="0 0 1069.31 1069.31"><defs><style>.cls-1{fill:#005470;}</style></defs><title>twittersvg</title><g id="Capa_2" data-name="Capa 2"><g id="Capa_1-2" data-name="Capa 1"><path class="cls-1" d="M485.65,0h98c4.89,1.37,9.7,3.44,14.69,4C808.61,28.37,989.21,180.72,1047.14,384c9.49,33.3,14.88,67.76,22.17,101.69v98c-1.37,4.91-3.43,9.75-4,14.75C1039.69,815,881.43,997,670.36,1051.53c-28.53,7.36-57.78,11.92-86.69,17.78h-98c-4.9-1.37-9.71-3.44-14.7-4C255,1040.29,72.33,881.46,17.8,670.42,10.42,641.88,5.86,612.6,0,583.67v-98c1.37-4.92,3.43-9.75,4-14.76C29.59,254.32,187.89,72.29,399,17.78,427.48,10.42,456.73,5.86,485.65,0ZM980.18,536.17c.62-244.57-198.91-446-442.89-447-245.64-1.08-447.54,199-448.16,444-.62,244.58,198.91,446,442.89,447C777.66,981.24,979.56,781.22,980.18,536.17Z"/><path class="cls-1" d="M808.12,356.18l-37.48,50.53,51.22-11.91c-8.15,9.95-12.42,18.62-19.38,23.05-29.84,19-33,48-36,79.74-12.07,128.37-105,236.27-230.3,266.94-83.13,20.36-162.7,9.71-237-36.21C353,728,402.71,716.08,445.8,683.43c-20-9.07-41-14.9-57.28-27.08C372.8,644.58,362,626.27,345.79,607l42.9-3.56c-46.35-22.39-73.86-55.25-77.44-108.12l39.24,10c-37.81-43.67-51.21-89.57-23.72-144.93,60,67.89,132.61,107.5,224.84,113.13-4.24-39.31,2.72-73.43,30.82-101.13,38.29-37.72,95.41-45.56,137.8-13,18.95,14.57,34,12.7,52.3,5.58,10.31-4,20.41-8.61,30.6-12.95Z"/></g></g></svg>