<svg xmlns="http://www.w3.org/2000/svg" viewBox="0 0 67 67"><defs><style>.cls-1{fill:#e6e6e6;}.cls-1,.cls-2{stroke:#000;stroke-miterlimit:10;}.cls-2{fill:#ea5b29;}</style></defs><g id="Capa_2" data-name="Capa 2"><g id="Capa_1-2" data-name="Capa 1"><circle class="cls-1" cx="33.5" cy="33.5" r="33"/><path class="cls-2" d="M32.48,43c4,.21,7.58.26,11,1.77a18,18,0,0,1,10.63,13,1.18,1.18,0,0,1-.51,1.38A32.66,32.66,0,0,1,19.33,63a33.62,33.62,0,0,1-8.69-6,1.33,1.33,0,0,1-.34-1.62c2.58-7,7.46-11.25,14.89-12.36A33.63,33.63,0,0,1,32.48,43Z"/><path class="cls-1" d="M22.46,24.43A11.78,11.78,0,1,1,33.72,36.77,11.8,11.8,0,0,1,22.46,24.43Z"/></g></g></svg>