<svg xmlns="http://www.w3.org/2000/svg" viewBox="0 0 38 38"><defs><style>.cls-1{fill:#5471e8;}.cls-2{fill:#fffeff;fill-rule:evenodd;}</style></defs><title>whatsapp</title><g id="Capa_2" data-name="Capa 2"><g id="Capa_1-2" data-name="Capa 1"><circle class="cls-1" cx="19" cy="19" r="19"/><path class="cls-2" d="M26.24,12.06a9.43,9.43,0,0,0-16.09,6.66,9.46,9.46,0,0,0,1.26,4.71l-1.34,4.89,5-1.31a9.43,9.43,0,0,0,4.5,1.14h0a9.43,9.43,0,0,0,6.66-16.09ZM19.58,26.58h0a7.75,7.75,0,0,1-4-1.1l-.29-.17-3,.78.79-2.89-.19-.29A7.84,7.84,0,0,1,25.12,13.2a7.84,7.84,0,0,1-5.54,13.38Zm4.29-5.88c-.23-.11-1.39-.68-1.61-.76s-.37-.12-.53.12-.6.76-.74.92-.28.18-.51.06a6.5,6.5,0,0,1-1.9-1.17,7.44,7.44,0,0,1-1.31-1.63c-.13-.24,0-.35.11-.48A7.53,7.53,0,0,0,18,17a.42.42,0,0,0,0-.41c-.06-.12-.53-1.28-.73-1.75s-.38-.4-.53-.4h-.45a.89.89,0,0,0-.63.29,2.69,2.69,0,0,0-.82,2,4.51,4.51,0,0,0,1,2.43,10.49,10.49,0,0,0,4,3.56,11.93,11.93,0,0,0,1.34.49,3.27,3.27,0,0,0,1.49.1,2.45,2.45,0,0,0,1.59-1.12A2,2,0,0,0,24.32,21C24.27,20.88,24.11,20.82,23.87,20.7Z"/></g></g></svg>