<?xml version="1.0" encoding="utf-8"?>
<!-- Generator: Adobe Illustrator 16.0.0, SVG Export Plug-In . SVG Version: 6.00 Build 0)  -->
<!DOCTYPE svg PUBLIC "-//W3C//DTD SVG 1.1//EN" "http://www.w3.org/Graphics/SVG/1.1/DTD/svg11.dtd">
<svg version="1.1" id="Capa_1" xmlns="http://www.w3.org/2000/svg" xmlns:xlink="http://www.w3.org/1999/xlink" x="0px" y="0px"
	 width="96.333px" height="97px" viewBox="0 0 96.333 97" enable-background="new 0 0 96.333 97" xml:space="preserve">
<g>
	<path fill="#A8E1D0" d="M73.574,47.25c0,14.493-11.748,26.241-26.242,26.241c-14.492,0-26.242-11.748-26.242-26.241
		s11.75-26.242,26.242-26.242C61.826,21.009,73.574,32.757,73.574,47.25"/>
	<path fill="#A8E1D0" d="M48.166,73.909c-14.01,0-25.41-11.397-25.41-25.409c0-14.011,11.4-25.408,25.41-25.408
		S73.574,34.489,73.574,48.5C73.574,62.511,62.175,73.909,48.166,73.909 M48.166,28.09c-11.254,0-20.41,9.156-20.41,20.409
		c0,11.254,9.156,20.41,20.41,20.41s20.41-9.156,20.41-20.41C68.576,37.247,59.419,28.09,48.166,28.09"/>
	<polygon fill="#575757" points="85.599,84.553 82.365,72.483 73.529,81.319 	"/>
	<path fill="#575757" d="M59.83,47.25c0,6.901-5.598,12.496-12.498,12.496S34.837,54.152,34.837,47.25s5.594-12.496,12.494-12.496
		S59.83,40.349,59.83,47.25"/>
	<path fill="#FFFFFF" d="M61.078,54.748c0,3.451-2.797,6.248-6.248,6.248c-3.449,0-6.248-2.797-6.248-6.248
		c0-3.45,2.799-6.248,6.248-6.248C58.281,48.5,61.078,51.297,61.078,54.748"/>
	<path fill="#575757" d="M54.83,62.246c-4.135,0-7.496-3.363-7.496-7.498c0-4.134,3.361-7.497,7.496-7.497s7.498,3.363,7.498,7.497
		C62.328,58.882,58.964,62.246,54.83,62.246 M54.83,49.75c-2.756,0-4.998,2.243-4.998,4.998c0,2.756,2.242,4.999,4.998,4.999
		c2.758,0,5-2.243,5-4.999C59.83,51.993,57.587,49.75,54.83,49.75"/>
	<path fill="#575757" d="M84.697,54.016c-2.678,17.781-18.016,31.472-36.531,31.472c-20.395,0-36.988-16.591-36.988-36.988
		c0-20.396,16.594-36.987,36.988-36.987c1.16,0,2.305,0.069,3.439,0.174l0.893-5.954c-1.426-0.143-2.869-0.219-4.332-0.219
		C24.464,5.513,5.179,24.797,5.179,48.5c0,23.704,19.285,42.987,42.986,42.987c21.535,0,39.371-15.934,42.463-36.623L84.697,54.016z
		"/>
	<path fill="#A8E1D0" d="M85.154,48.5c0,1.881-0.186,3.712-0.457,5.517l5.932,0.848c0.311-2.083,0.525-4.195,0.525-6.364
		c0-22.24-16.98-40.588-38.656-42.767l-0.893,5.954C70.392,13.428,85.154,29.265,85.154,48.5"/>
</g>
</svg>
