<svg xmlns="http://www.w3.org/2000/svg" viewBox="0 0 102.93 111.72"><defs><style>.cls-1{isolation:isolate;}.cls-2{fill:#87e1d1;}.cls-3{fill:#00698f;}.cls-4{fill:#005470;}.cls-5{fill:#e6e6e6;mix-blend-mode:multiply;}.cls-6{fill:#2d2a26;}</style></defs><title>xdatafooter</title><g class="cls-1"><g id="Capa_2" data-name="Capa 2"><g id="Capa_1-2" data-name="Capa 1"><rect class="cls-2" x="14.93" y="53.13" width="20.42" height="20.42" rx="10.21"/><rect class="cls-3" x="41.35" y="27.06" width="20.76" height="46.63" rx="10.38"/><rect class="cls-4" x="67.43" y="0.01" width="20.85" height="73.68" rx="10.43"/><rect class="cls-5" x="14.93" y="26.69" width="20.42" height="20.42" rx="10.21"/><rect class="cls-5" x="14.93" width="20.42" height="20.42" rx="10.21"/><rect class="cls-5" x="41.69" width="20.42" height="20.42" rx="10.21"/><path class="cls-6" d="M.2,110.08l5.48-7.39-5.31-7A.74.74,0,0,1,1,94.42H4.5a1.44,1.44,0,0,1,1.39.6l2.74,4h0l2.78-4a1.34,1.34,0,0,1,1.27-.6h3.79c.72,0,.93.68.51,1.23l-5.32,7,5.36,7.43c.38.54.17,1.22-.51,1.22H12.85a1.34,1.34,0,0,1-1.18-.68l-3-4.21h0L5.43,111a1.06,1.06,0,0,1-.68.34H.7C0,111.3-.18,110.62.2,110.08Z"/><path class="cls-6" d="M20.28,104.57v-2.83a.78.78,0,0,1,.8-.8h9.41a.78.78,0,0,1,.8.8v2.83a.77.77,0,0,1-.8.76H21.08A.77.77,0,0,1,20.28,104.57Z"/><path class="cls-6" d="M43.19,94a10.26,10.26,0,0,1,3.75.76V82.57a.83.83,0,0,1,.8-.8h3.59a.83.83,0,0,1,.8.8V110.5a.83.83,0,0,1-.8.8H49.68c-.38,0-.67-.34-.8-.8l-.42-1.31a7.4,7.4,0,0,1-5.53,2.53c-4.59,0-8.1-4-8.1-8.86S38.17,94,43.19,94Zm.38,13.16a3.66,3.66,0,0,0,3.54-2.74V99.53a5.45,5.45,0,0,0-3.29-1,4.14,4.14,0,0,0-4.09,4.3A4,4,0,0,0,43.57,107.16Z"/><path class="cls-6" d="M62.72,100.63a10.92,10.92,0,0,1,3.08.46c0-2.15-.63-2.91-2.19-2.91a20.69,20.69,0,0,0-4.73.63c-.59.17-.88-.21-1-.76l-.38-2.19a.84.84,0,0,1,.59-1.06,23,23,0,0,1,5.74-.8c5.27,0,6.5,2.75,6.5,7.34v9.16a.83.83,0,0,1-.8.8H68c-.3,0-.51-.13-.72-.59l-.51-1.14a7.23,7.23,0,0,1-5.14,2.15,5.38,5.38,0,0,1-5.7-5.78C56,103,58.42,100.63,62.72,100.63Zm.09,7.51a3.9,3.9,0,0,0,2.91-1.65v-2.32a6.59,6.59,0,0,0-2.37-.51c-1.64,0-2.74.93-2.74,2.28A2.11,2.11,0,0,0,62.81,108.14Z"/><path class="cls-6" d="M76.1,98.85H74.66a.79.79,0,0,1-.76-.8V95.23a.77.77,0,0,1,.76-.81H76.1V89.74a.83.83,0,0,1,.8-.8l3.46,0a.79.79,0,0,1,.76.8v4.72h3.71a.78.78,0,0,1,.8.81v2.82a.8.8,0,0,1-.8.8H81.12v6.75c0,1.19.63,1.35,1.3,1.35a6.74,6.74,0,0,0,2.07-.46.66.66,0,0,1,.93.46l.84,2.66a.76.76,0,0,1-.46,1,15.73,15.73,0,0,1-5,1.1c-3.25,0-4.68-2-4.68-5.44Z"/><path class="cls-6" d="M95.29,100.63a10.92,10.92,0,0,1,3.08.46c0-2.15-.63-2.91-2.19-2.91a20.69,20.69,0,0,0-4.73.63c-.59.17-.88-.21-1-.76l-.38-2.19a.84.84,0,0,1,.59-1.06,23,23,0,0,1,5.74-.8c5.27,0,6.5,2.75,6.5,7.34v9.16a.83.83,0,0,1-.8.8h-1.52c-.3,0-.51-.13-.72-.59l-.51-1.14a7.23,7.23,0,0,1-5.14,2.15,5.38,5.38,0,0,1-5.7-5.78C88.54,103,91,100.63,95.29,100.63Zm.09,7.51a3.9,3.9,0,0,0,2.91-1.65v-2.32a6.59,6.59,0,0,0-2.37-.51c-1.64,0-2.74.93-2.74,2.28A2.11,2.11,0,0,0,95.38,108.14Z"/></g></g></g></svg>