<?xml version="1.0" encoding="utf-8"?>
<!-- Generator: Adobe Illustrator 16.0.0, SVG Export Plug-In . SVG Version: 6.00 Build 0)  -->
<!DOCTYPE svg PUBLIC "-//W3C//DTD SVG 1.1//EN" "http://www.w3.org/Graphics/SVG/1.1/DTD/svg11.dtd">
<svg version="1.1" id="Capa_1" xmlns="http://www.w3.org/2000/svg" xmlns:xlink="http://www.w3.org/1999/xlink" x="0px" y="0px"
	 width="96.333px" height="97px" viewBox="0 0 96.333 97" enable-background="new 0 0 96.333 97" xml:space="preserve">
<g>
	<polygon fill="#575757" points="83.225,13.029 76.716,24.304 89.734,24.304 	"/>
	<polygon fill="#A8E1D0" points="69.958,91.401 75.165,91.401 75.165,41.278 69.958,44.068 	"/>
	<polygon fill="#575757" points="59.543,91.401 64.75,91.401 64.75,45.463 59.543,48.253 	"/>
	<polygon fill="#A8E1D0" points="49.128,91.401 54.335,91.401 54.335,49.647 49.128,52.438 	"/>
	<polygon fill="#575757" points="38.713,91.401 43.92,91.401 43.92,53.832 38.713,56.623 	"/>
	<polygon fill="#A8E1D0" points="28.297,91.401 33.505,91.401 33.505,58.018 28.297,60.807 	"/>
	<polygon fill="#575757" points="17.882,91.401 23.09,91.401 23.09,62.201 17.882,64.991 	"/>
	<polygon fill="#A8E1D0" points="7.467,91.401 12.674,91.401 12.674,66.386 7.467,69.177 	"/>
	<polygon fill="#575757" points="80.373,23.703 80.373,39.884 80.373,91.401 85.581,91.401 85.581,37.095 85.581,23.703 	"/>
	<path fill="#575757" d="M43.92,31.515c0,0,7.812-7.812,2.604-20.831c0,0-13.018-13.019-26.038,2.604c0,0-2.604,13.019,2.604,18.227
		c0,0-2.604-7.812,0-10.415c2.603-2.604,4.317,4.383,7.811-2.604C33.505,13.288,49.128,15.892,43.92,31.515"/>
	<path fill="#575757" d="M7.467,65.364c0,0-2.604-23.435,13.018-26.039l7.812,15.624L7.467,65.364"/>
	<polygon fill="#575757" points="46.523,39.325 54.336,41.93 43.92,47.137 	"/>
	<polygon fill="#575757" points="33.505,39.325 30.901,54.948 36.108,52.345 	"/>
</g>
</svg>
