<?xml version="1.0" encoding="utf-8"?>
<!-- Generator: Adobe Illustrator 16.0.0, SVG Export Plug-In . SVG Version: 6.00 Build 0)  -->
<!DOCTYPE svg PUBLIC "-//W3C//DTD SVG 1.1//EN" "http://www.w3.org/Graphics/SVG/1.1/DTD/svg11.dtd">
<svg version="1.1" id="Capa_1" xmlns="http://www.w3.org/2000/svg" xmlns:xlink="http://www.w3.org/1999/xlink" x="0px" y="0px"
	 width="96.333px" height="97px" viewBox="0 0 96.333 97" enable-background="new 0 0 96.333 97" xml:space="preserve">
<g>
	<path fill="#4E4E4E" d="M45.043,91.857c-21.913,0-39.742-18.102-39.742-40.35c0-22.25,17.829-40.351,39.742-40.351h1.704V17h-1.704
		c-18.692,0-33.898,15.479-33.898,34.508c0,19.028,15.207,34.506,33.898,34.506c18.691,0,33.898-15.478,33.898-34.506V21.212h-5.884
		l9.037-15.654l9.038,15.654h-6.348v30.295C84.785,73.755,66.957,91.857,45.043,91.857"/>
	<path fill="#4E4E4E" d="M88.181,19.507L82.095,8.967L76.01,19.507h4.637v32c0,19.967-15.972,36.21-35.603,36.21
		c-19.632,0-35.603-16.243-35.603-36.21c0-19.968,15.97-36.212,35.603-36.212v-2.434c-20.975,0-38.037,17.335-38.037,38.646
		c0,21.31,17.062,38.646,38.037,38.646c20.974,0,38.037-17.336,38.037-38.646v-32H88.181z"/>
	<path fill="#A8E1D0" d="M44.392,24.857v5.154c-6.385,0.952-11.481,5.6-11.481,12.434c0,13.16,20.106,13.44,20.106,19.881
		c0,3.529-3.752,4.649-6.609,4.649c-4.089,0-7.057-2.186-9.016-5.602l-6.833,4.09c2.969,5.263,7.841,8.567,13.833,9.127v5.154h5.376
		V74.59c6.385-1.398,11.538-5.543,11.482-12.991c0-13.163-20.107-13.163-20.107-19.94c0-2.799,3.138-4.033,5.546-4.033
		c3.136,0,5.265,1.682,6.945,4.203l6.721-3.977c-2.072-4.202-6.105-6.608-10.586-7.841v-5.154H44.392z"/>
</g>
</svg>
