<?xml version="1.0" encoding="utf-8"?>
<!-- Generator: Adobe Illustrator 16.0.0, SVG Export Plug-In . SVG Version: 6.00 Build 0)  -->
<!DOCTYPE svg PUBLIC "-//W3C//DTD SVG 1.1//EN" "http://www.w3.org/Graphics/SVG/1.1/DTD/svg11.dtd">
<svg version="1.1" id="Capa_1" xmlns="http://www.w3.org/2000/svg" xmlns:xlink="http://www.w3.org/1999/xlink" x="0px" y="0px"
	 width="96.333px" height="97px" viewBox="0 0 96.333 97" enable-background="new 0 0 96.333 97" xml:space="preserve">
<g>
	<path fill="#4E4E4E" d="M69.709,87.034H33.836c-8.9,0-16.143-7.244-16.143-16.145V28.292c0-8.9,7.242-16.143,16.143-16.143h35.873
		c8.9,0,16.143,7.242,16.143,16.143v42.598C85.852,79.79,78.609,87.034,69.709,87.034 M33.836,17.531
		c-5.934,0-10.762,4.828-10.762,10.761v42.598c0,5.935,4.828,10.762,10.762,10.762h35.873c5.934,0,10.76-4.827,10.76-10.762V28.292
		c0-5.933-4.826-10.761-10.76-10.761H33.836z"/>
	<path fill="#FFFFFF" d="M65.225,14.839c0,3.714-3.012,6.726-6.727,6.726s-6.727-3.012-6.727-6.726s3.012-6.726,6.727-6.726
		S65.225,11.125,65.225,14.839"/>
	<path fill="#4E4E4E" d="M58.498,24.257c-5.191,0-9.416-4.226-9.416-9.417c0-5.191,4.225-9.417,9.416-9.417
		c5.193,0,9.416,4.226,9.416,9.417C67.914,20.031,63.691,24.257,58.498,24.257 M58.498,10.805c-2.225,0-4.035,1.81-4.035,4.035
		c0,2.225,1.811,4.035,4.035,4.035c2.227,0,4.035-1.811,4.035-4.035C62.533,12.615,60.725,10.805,58.498,10.805"/>
	<path fill="#FFFFFF" d="M65.225,82.1c0,3.714-3.012,6.726-6.727,6.726s-6.727-3.012-6.727-6.726c0-3.715,3.012-6.727,6.727-6.727
		S65.225,78.385,65.225,82.1"/>
	<path fill="#4E4E4E" d="M58.498,91.517c-5.191,0-9.416-4.227-9.416-9.417c0-5.191,4.225-9.416,9.416-9.416
		c5.193,0,9.416,4.225,9.416,9.416C67.914,87.291,63.691,91.517,58.498,91.517 M58.498,78.064c-2.225,0-4.035,1.811-4.035,4.036
		c0,2.225,1.811,4.035,4.035,4.035c2.227,0,4.035-1.811,4.035-4.035C62.533,79.875,60.725,78.064,58.498,78.064"/>
	<path fill="#FFFFFF" d="M31.594,50.047c0,7.43-6.021,13.452-13.451,13.452S4.689,57.477,4.689,50.047s6.023-13.452,13.453-13.452
		S31.594,42.618,31.594,50.047"/>
	<path fill="#4E4E4E" d="M18.143,66.19C9.24,66.19,2,58.948,2,50.047c0-8.899,7.24-16.143,16.143-16.143
		c8.9,0,16.143,7.243,16.143,16.143C34.285,58.948,27.043,66.19,18.143,66.19 M18.143,39.287c-5.934,0-10.762,4.827-10.762,10.761
		s4.828,10.761,10.762,10.761s10.762-4.827,10.762-10.761S24.076,39.287,18.143,39.287"/>
	<rect x="55.809" y="21.565" fill="#4E4E4E" width="5.381" height="53.808"/>
	<path fill="#FFFFFF" d="M65.225,48.469c0,3.715-3.012,6.727-6.727,6.727s-6.727-3.012-6.727-6.727c0-3.714,3.012-6.726,6.727-6.726
		S65.225,44.755,65.225,48.469"/>
	<path fill="#4E4E4E" d="M58.498,57.887c-5.191,0-9.416-4.227-9.416-9.418c0-5.19,4.225-9.416,9.416-9.416
		c5.193,0,9.416,4.226,9.416,9.416C67.914,53.661,63.691,57.887,58.498,57.887 M58.498,44.434c-2.225,0-4.035,1.811-4.035,4.035
		s1.811,4.036,4.035,4.036c2.227,0,4.035-1.812,4.035-4.036S60.725,44.434,58.498,44.434"/>
	<path fill="#A8E1D0" d="M92.129,48.469c0,4.953-4.016,8.968-8.969,8.968s-8.969-4.015-8.969-8.968s4.016-8.968,8.969-8.968
		S92.129,43.516,92.129,48.469"/>
	
		<rect x="38.433" y="13.848" transform="matrix(0.7244 0.6894 -0.6894 0.7244 32.6464 -19.8278)" fill="#4E4E4E" width="5.379" height="34.139"/>
	
		<rect x="25.026" y="66.335" transform="matrix(0.7951 0.6064 -0.6064 0.7951 50.1636 -10.4404)" fill="#4E4E4E" width="31.016" height="5.38"/>
</g>
</svg>
