<svg xmlns="http://www.w3.org/2000/svg" viewBox="0 0 23 24.54"><defs><style>.cls-1{fill:#00394d;}</style></defs><g id="Capa_2" data-name="Capa 2"><g id="Guia"><path class="cls-1" d="M17.57,11.18a.78.78,0,0,0-.7-.45H13.8V.77A.76.76,0,0,0,13,0H10A.76.76,0,0,0,9.2.77v10H6.13A.77.77,0,0,0,5.56,12l5.36,6.13a.77.77,0,0,0,.58.26.8.8,0,0,0,.58-.26L17.44,12A.79.79,0,0,0,17.57,11.18Z"/><path class="cls-1" d="M19.93,16.87v4.6H3.07v-4.6H0V23a1.54,1.54,0,0,0,1.53,1.54H21.47A1.53,1.53,0,0,0,23,23V16.87Z"/></g></g></svg>