<svg xmlns="http://www.w3.org/2000/svg" viewBox="0 0 40.19 40.19"><defs><style>.cls-1{fill:#113339}</style></defs><g id="Capa_2" data-name="Capa 2"><g id="Capa_1-2" data-name="Capa 1"><path class="cls-1" d="M18.25 0h3.69a3.44 3.44 0 0 0 .55.15A20.11 20.11 0 0 1 39.52 15c.28 1.07.45 2.18.67 3.26v3.69a3.44 3.44 0 0 0-.15.55 20.11 20.11 0 0 1-14.85 17c-1.07.28-2.17.45-3.25.67h-3.69a3.44 3.44 0 0 0-.55-.17A20.11 20.11 0 0 1 .67 25.2C.39 24.12.22 23 0 21.94v-3.69a3.44 3.44 0 0 0 .15-.55A20.11 20.11 0 0 1 15 .67C16.07.39 17.17.22 18.25 0Zm18.59 20.17A16.75 16.75 0 1 0 20 36.84a16.81 16.81 0 0 0 16.84-16.67Z"/><path class="cls-1" d="M25.09 10.08v4.15h-2.27c-.75 0-1.07.33-1.05 1.06v1.43h3.34l-.3 3.37h-3v10h-5v-10h-3.37v-3.32h3.31v-2.82c0-2.42 1.17-3.7 3.58-3.85 1.55-.1 3.11-.02 4.76-.02Z"/></g></g></svg>