<svg xmlns="http://www.w3.org/2000/svg" viewBox="0 0 319.41 165.74"><defs><style>.cls-1{fill:none;stroke:#0075a9;stroke-miterlimit:10;stroke-width:1.12px;}</style></defs><g id="Capa_2" data-name="Capa 2"><g id="Capa_1-2" data-name="Capa 1"><path class="cls-1" d="M319.22,22.05s-49.57,18-45.36,72.4c4.73,61.05-52.58,82.56-89.13,64.61S155.21,86,83.63,78.54C10.44,71,.55.08.55.08"/><path class="cls-1" d="M265.23,1.42s-24.39,44.31-20.6,90.63-30.08,49-43,42.59C174.9,121.35,174.31,61.6,130,54.2,96.64,48.64,49.7,68,29.94,14"/><path class="cls-1" d="M241.27,20.13S245,67.7,212.68,56.68c-37-12.62-34.64-35.15-84.18-17.63-17.62,6.24-86.36,3-69.2-37.73"/><path class="cls-1" d="M209.33,118.94c-7.93-.64-13.6-10.61-12.67-22.27s8.11-20.62,16-20,13.6,10.6,12.67,22.26S217.25,119.57,209.33,118.94Z"/></g></g></svg>