<svg xmlns="http://www.w3.org/2000/svg" viewBox="0 0 39.61 39.59"><defs><style>.cls-1{fill:#113339}</style></defs><g id="Capa_2" data-name="Capa 2"><g id="Capa_1-2" data-name="Capa 1"><path class="cls-1" d="M22 39.59h-4.31a2.74 2.74 0 0 0-.46-.15A19.81 19.81 0 1 1 39 14.79c.24.94.42 1.91.62 2.87V22a2.35 2.35 0 0 0-.14.45A19.76 19.76 0 0 1 24.84 39c-.94.21-1.91.38-2.84.59Zm14.29-19.81a16.47 16.47 0 1 0-16.61 16.48 16.49 16.49 0 0 0 16.61-16.48Z"/><path class="cls-1" d="M29.84 15.21c-.23-3.41-2-5.18-5.4-5.42a68.28 68.28 0 0 0-9.16 0c-3.45.23-5.23 2-5.47 5.45a66.67 66.67 0 0 0 0 9.16c.23 3.35 1.94 5.08 5.39 5.44a23.54 23.54 0 0 0 3.14.05h1.17v.05h4.36c3.66-.14 5.72-2 6-5.53a66.67 66.67 0 0 0-.03-9.2Zm-2.23 6a24.7 24.7 0 0 1-.05 3c-.23 2.27-1.16 3.2-3.33 3.31a91.51 91.51 0 0 1-9.18-.05 2.81 2.81 0 0 1-2.89-2.9c-.13-3.19-.13-6.39 0-9.51a2.82 2.82 0 0 1 2.94-2.93C17 12 18.76 12 20.41 12c1.33 0 2.59 0 3.79.09 2.3.12 3.32 1.24 3.43 3.77v3.76h-.05v.24l.03 1.37Z"/><path class="cls-1" d="M19.83 14.45a5.35 5.35 0 0 0 0 10.7A5.34 5.34 0 0 0 23.6 16a5.3 5.3 0 0 0-3.77-1.55Zm0 8.38a2.94 2.94 0 0 1-2.13-.92 3 3 0 0 1-.86-2.18 3 3 0 0 1 3-3 3.08 3.08 0 0 1 3 3 3 3 0 0 1-.9 2.14 3 3 0 0 1-2.15.96ZM25.15 13.11a1.34 1.34 0 0 0-1.46 1.37 1.41 1.41 0 0 0 .37 1 1.39 1.39 0 0 0 1 .41h.05a1.4 1.4 0 0 0 1-.36 1.38 1.38 0 0 0 .42-1 1.34 1.34 0 0 0-1.38-1.42Z"/></g></g></svg>