<svg xmlns="http://www.w3.org/2000/svg" viewBox="0 0 166.76 125.84"><defs><style>.cls-1{fill:#4b4c4c}.cls-2{fill:#efeedf}.cls-3{fill:#cdccc1}</style></defs><g id="Capa_2" data-name="Capa 2"><g id="Capa_1-2" data-name="Capa 1"><path class="cls-1" d="M46.42 44.18h92.51a5.25 5.25 0 0 1 5.25 5.25v.5a5.25 5.25 0 0 1-5.25 5.25H46.42a1.59 1.59 0 0 1-1.59-1.59v-7.82a1.59 1.59 0 0 1 1.59-1.59Z" transform="rotate(90 94.505 49.675)"/><path class="cls-2" d="M18.21 50.14h104.43a5.25 5.25 0 0 1 5.25 5.25v.5a5.25 5.25 0 0 1-5.25 5.25H18.21a1.59 1.59 0 0 1-1.59-1.59v-7.82a1.59 1.59 0 0 1 1.59-1.59Z" transform="rotate(90 72.255 55.635)"/><path class="cls-2" d="M63.7 49.14h102.45a5.25 5.25 0 0 1 5.25 5.25v.5a5.25 5.25 0 0 1-5.25 5.25H63.7a1.59 1.59 0 0 1-1.59-1.59v-7.82a1.59 1.59 0 0 1 1.59-1.59Z" transform="rotate(90 116.755 54.645)"/><path class="cls-1" d="M-11.32 57.42h119a5.25 5.25 0 0 1 5.25 5.25v.5a5.25 5.25 0 0 1-5.25 5.25h-119a1.59 1.59 0 0 1-1.59-1.59V59a1.59 1.59 0 0 1 1.59-1.59Z" transform="rotate(90 50.005 62.915)"/><path class="cls-1" d="M120.87 36.48H198a5.25 5.25 0 0 1 5.25 5.25v.5a5.25 5.25 0 0 1-5.25 5.25h-77.13a1.59 1.59 0 0 1-1.59-1.59v-7.82a1.59 1.59 0 0 1 1.59-1.59Z" transform="rotate(90 161.26 41.98)"/><path class="cls-2" d="M-15.2 39h82.25a5.25 5.25 0 0 1 5.25 5.3v.5a5.25 5.25 0 0 1-5.25 5.2H-15.2a1.59 1.59 0 0 1-1.59-1.59v-7.77A1.59 1.59 0 0 1-15.2 39Z" transform="rotate(90 27.755 44.545)"/><path class="cls-3" d="M81 54.1h112.36a5.25 5.25 0 0 1 5.25 5.25v.5a5.25 5.25 0 0 1-5.25 5.25H81a1.59 1.59 0 0 1-1.59-1.59v-7.82A1.59 1.59 0 0 1 81 54.1Z" transform="rotate(90 139.005 59.605)"/><path class="cls-3" d="M-44.65 46.24H52a5.25 5.25 0 0 1 5.25 5.25V52A5.25 5.25 0 0 1 52 57.24h-96.65a1.59 1.59 0 0 1-1.59-1.59v-7.82a1.59 1.59 0 0 1 1.59-1.59Z" transform="rotate(90 5.5 51.74)"/></g></g></svg>