<svg xmlns="http://www.w3.org/2000/svg" viewBox="0 0 66.68 78.1"><defs><style>.cls-1{fill:#00394c}.cls-3{fill:#b69b1f}.cls-4{fill:#87e1d1}</style></defs><g id="Capa_2" data-name="Capa 2"><g id="Capa_1-2" data-name="Capa 1"><path class="cls-1" d="M49.58 0c.19.16.4.3.58.48l9 9a1.62 1.62 0 0 1 .49 1.23v23.83c0 .91-.24 1.18-1.2 1.48a1.39 1.39 0 0 1-1.1-1.58V11.57a1.27 1.27 0 0 0-.35-1q-4-3.94-7.93-7.92a.93.93 0 0 0-.72-.33H5.87a3.26 3.26 0 0 0-3.58 3.56v66.28a3.27 3.27 0 0 0 3.58 3.6h23.97c.48 0 .45-.27.45-.59v-5.94c0-.53-.16-.63-.65-.63h-5c-.87 0-1.38-.46-1.36-1.18s.48-1.1 1.35-1.1h4c1.65 0 1.63 0 1.65-1.67 0-.58-.15-.73-.72-.72h-5.1a1.09 1.09 0 0 1-1.2-1.31c.12-.74.66-1 1.33-1h5.1c.33 0 .59 0 .59-.45v-8.61c0-.41-.2-.45-.52-.44h-5.33a1.12 1.12 0 0 1-1.2-1.1 1.15 1.15 0 0 1 1.21-1.18H29.88c.7 0 .47-.56.4-.81-.14-.5.54-1.37-.4-1.48a27.24 27.24 0 0 0-3.5 0h-1.82c-.82 0-1.31-.49-1.29-1.19s.48-1.08 1.28-1.09h5.33a.8.8 0 0 0 .83-.49c.89-1.53 1.85-3 2.7-4.59a2.51 2.51 0 0 1 2.47-1.39H57.6c.28 0 .55 0 .83-.06 1 0 2 .06 3 .05A2 2 0 0 1 63.41 40c1 1.67 2 3.33 3 5a2.19 2.19 0 0 1 .32 1.22v29.37a2.27 2.27 0 0 1-2.56 2.51H5.91a5.54 5.54 0 0 1-5.84-4.73A7.91 7.91 0 0 1 0 72.08V6A5.5 5.5 0 0 1 4.49.11S4.55 0 4.58 0ZM32.86 45.73a1.12 1.12 0 0 0-.25.92v28.51c0 .54.14.67.67.66h30.48c.48 0 .64-.09.64-.61v-27.6c0-.55-.16-.66-.68-.66h-9.15c-.56 0-.72.13-.72.71v9.45a1.18 1.18 0 0 1-2 1c-.87-.66-1.77-1.29-2.62-2a.65.65 0 0 0-1 0c-.8.65-1.66 1.24-2.49 1.88a1.41 1.41 0 0 1-1.54.34c-.6-.3-.63-.85-.63-1.44v-9.22c0-.63-.19-.75-.77-.74h-5.33c-1 0-1.29-.23-1.54-1.2a1.29 1.29 0 0 1 1.49-1.09h5.71c.46 0 .62-.14.67-.57.1-.81.24-1.61.38-2.41.07-.41 0-.58-.48-.58H36a.74.74 0 0 0-.74.4c-.74 1.46-1.57 2.85-2.4 4.25Zm13 9.3c.74-.54 1.36-1 1.94-1.43a1.3 1.3 0 0 1 1.8 0c.59.46 1.2.9 1.8 1.35.07-.11.12-.15.12-.18v-7.32c0-.44-.21-.48-.56-.48h-4.5c-.5 0-.65.13-.64.63v5.34Zm17.68-10.35-1.93-3.26a.51.51 0 0 0-.49-.28H53.5c-.28 0-.43 0-.36.39q.26 1.34.48 2.7c.05.32.17.46.54.45Zm-14.86 0h2.21c.36 0 .49-.07.4-.47-.18-.87-.33-1.74-.46-2.62 0-.37-.21-.45-.55-.45h-3.12c-.43 0-.58.17-.62.56a24.15 24.15 0 0 1-.37 2.41c-.13.55.1.59.53.57.66-.02 1.3 0 1.98 0Z"/><path d="M36 45.76c.25 1 .54 1.2 1.54 1.2h5.33c.58 0 .78.11.77.74v9.22c0 .59 0 1.14.63 1.44a1.41 1.41 0 0 0 1.51-.36c.83-.64 1.69-1.23 2.49-1.88a.65.65 0 0 1 1 0c.85.68 1.75 1.31 2.62 2a1.18 1.18 0 0 0 2-1v-9.45c0-.58.16-.71.72-.71h9.15c.52 0 .68.11.68.66v27.6c0 .52-.16.61-.64.61H33.27c-.53 0-.68-.12-.67-.66V46.66a1.09 1.09 0 0 1 .26-.92Z" style="fill:#dff7f6"/><path class="cls-3" d="M45.9 55V47.56c0-.5.14-.64.64-.63h4.5c.35 0 .56 0 .56.48v7.32s-.05.07-.12.18c-.6-.45-1.21-.89-1.8-1.35a1.3 1.3 0 0 0-1.8 0c-.62.5-1.24.93-1.98 1.44Z"/><path class="cls-4" d="M36 45.76h-3.12c.82-1.4 1.65-2.79 2.45-4.2a.74.74 0 0 1 .74-.4h7.7c.47 0 .55.17.48.58-.14.8-.28 1.6-.38 2.41 0 .43-.21.58-.67.57h-5.71A1.29 1.29 0 0 0 36 45.76ZM63.54 44.68h-9.38c-.37 0-.49-.13-.54-.45q-.23-1.36-.48-2.7c-.07-.34.08-.39.36-.39h7.62a.51.51 0 0 1 .49.28Z"/><path class="cls-3" d="M48.68 44.68h-2c-.43 0-.66 0-.53-.57a24.15 24.15 0 0 0 .37-2.41c0-.39.19-.57.62-.56h3.12c.34 0 .5.08.55.45.13.88.28 1.75.46 2.62.09.4 0 .48-.4.47Z"/><path class="cls-1" d="M13 20.46A6.62 6.62 0 0 1 9 8.54a6.47 6.47 0 0 1 7.68-.19c.57.41.87.34 1.28-.14a15.42 15.42 0 0 1 1.4-1.4A1.1 1.1 0 0 1 21 6.75a1.14 1.14 0 0 1 0 1.69c-.53.57-1.08 1.14-1.67 1.67a.79.79 0 0 0-.22 1.09A6.61 6.61 0 0 1 13 20.46Zm2.76-10a4.28 4.28 0 0 0-5.76.23 4.34 4.34 0 0 0 5.25 6.84 4.17 4.17 0 0 0 1.79-5.18L15 14.45c-1.7 1.71-1.94 1.7-3.58-.1a1.15 1.15 0 0 1-.12-1.69 1.11 1.11 0 0 1 1.63 0c.29.25.43.22.67 0 .7-.75 1.4-1.43 2.17-2.17ZM13.07 37.56a6.61 6.61 0 0 1-4-11.92 6.54 6.54 0 0 1 7.75-.13c.47.33.73.36 1.1-.08a19.09 19.09 0 0 1 1.34-1.36c.66-.65 1.27-.72 1.8-.21s.45 1.2-.21 1.86c-.49.51-1 1-1.51 1.5a.81.81 0 0 0-.22 1.1 6.6 6.6 0 0 1-6.05 9.24Zm4-8.13c-.71.74-1.39 1.41-2 2.11-1.9 2.09-2.16 1.37-3.69-.18a1.06 1.06 0 0 1-.06-1.57 1.07 1.07 0 0 1 1.62-.05c.32.29.47.23.73 0q.88-.93 1.83-1.83c.3-.28.23-.4-.09-.6a4.41 4.41 0 0 0-3.21-.58 4.34 4.34 0 1 0 2.1 8.41 4.28 4.28 0 0 0 2.76-5.71ZM13 58.53a6.64 6.64 0 1 1-6.63 6.62A6.63 6.63 0 0 1 13 58.53Zm0 2.29a4.34 4.34 0 0 0 0 8.68 4.38 4.38 0 0 0 4.39-4.33A4.33 4.33 0 0 0 13 60.82ZM19.68 48.74a6.64 6.64 0 1 1-6.63-6.64 6.66 6.66 0 0 1 6.63 6.64ZM13 44.39a4.35 4.35 0 1 0 4.36 4.35A4.33 4.33 0 0 0 13 44.39ZM37.15 10.37h12.28a4.14 4.14 0 0 1 .61 0 1.14 1.14 0 0 1 .06 2.26 3.09 3.09 0 0 1-.53 0H24.79a2.5 2.5 0 0 1-.61 0 1.08 1.08 0 0 1-.89-1.16 1.06 1.06 0 0 1 1-1.08 3.87 3.87 0 0 1 .68 0ZM37.15 29.76H24.72c-.64 0-1.17-.12-1.39-.8a1.13 1.13 0 0 1 .94-1.47 3.84 3.84 0 0 1 .68 0h24.78c.81 0 1.34.48 1.34 1.16s-.52 1.12-1.34 1.13ZM29.46 32.12h4.72c.94 0 1.47.44 1.45 1.17s-.54 1.12-1.44 1.12h-9.51c-.9 0-1.4-.43-1.4-1.14s.49-1.15 1.39-1.15ZM29.42 17.28h-4.79c-.86 0-1.33-.4-1.35-1.1S23.77 15 24.65 15h9.58c.87 0 1.41.47 1.4 1.17s-.52 1.11-1.42 1.12Z"/><path class="cls-4" d="M15.77 10.49c-.76.74-1.47 1.42-2.17 2.13-.24.24-.38.27-.67 0a1.11 1.11 0 0 0-1.63 0 1.15 1.15 0 0 0 .12 1.69c1.64 1.8 1.88 1.81 3.58.1l2.05-2.07a4.17 4.17 0 0 1-1.79 5.18 4.34 4.34 0 0 1-5.26-6.8 4.28 4.28 0 0 1 5.77-.23ZM17.06 29.43a4.32 4.32 0 1 1-8.25 2.48 4.34 4.34 0 0 1 3.35-5.22 4.41 4.41 0 0 1 3.21.58c.32.2.39.32.09.6q-.95.9-1.83 1.83c-.26.27-.41.33-.73 0a1.07 1.07 0 0 0-1.62.05 1.06 1.06 0 0 0 .06 1.57c1.53 1.55 1.79 2.27 3.69.18.64-.66 1.32-1.33 2.03-2.07Z"/></g></g></svg>