<svg xmlns="http://www.w3.org/2000/svg" viewBox="0 0 124.47 100.96"><defs><style>.cls-1{fill:#045470;}</style></defs><g id="Capa_2" data-name="Capa 2"><g id="Capa_1-2" data-name="Capa 1"><path class="cls-1" d="M6.93,3.46A3.47,3.47,0,1,1,3.46,0,3.47,3.47,0,0,1,6.93,3.46Z"/><path class="cls-1" d="M30.43,3.46A3.46,3.46,0,1,1,27,0,3.46,3.46,0,0,1,30.43,3.46Z"/><path class="cls-1" d="M53.94,3.46A3.46,3.46,0,1,1,50.48,0,3.46,3.46,0,0,1,53.94,3.46Z"/><path class="cls-1" d="M77.45,3.46A3.46,3.46,0,1,1,74,0,3.46,3.46,0,0,1,77.45,3.46Z"/><path class="cls-1" d="M101,3.46A3.46,3.46,0,1,1,97.5,0,3.46,3.46,0,0,1,101,3.46Z"/><path class="cls-1" d="M124.47,3.46A3.46,3.46,0,1,1,121,0,3.46,3.46,0,0,1,124.47,3.46Z"/><path class="cls-1" d="M6.93,27a3.47,3.47,0,1,1-3.47-3.46A3.48,3.48,0,0,1,6.93,27Z"/><path class="cls-1" d="M30.43,27A3.46,3.46,0,1,1,27,23.51,3.47,3.47,0,0,1,30.43,27Z"/><path class="cls-1" d="M53.94,27a3.46,3.46,0,1,1-3.46-3.46A3.47,3.47,0,0,1,53.94,27Z"/><path class="cls-1" d="M77.45,27A3.46,3.46,0,1,1,74,23.51,3.47,3.47,0,0,1,77.45,27Z"/><path class="cls-1" d="M101,27a3.46,3.46,0,1,1-3.46-3.46A3.47,3.47,0,0,1,101,27Z"/><path class="cls-1" d="M124.47,27A3.46,3.46,0,1,1,121,23.51,3.47,3.47,0,0,1,124.47,27Z"/><path class="cls-1" d="M6.93,50.48A3.47,3.47,0,1,1,3.46,47,3.47,3.47,0,0,1,6.93,50.48Z"/><path class="cls-1" d="M30.43,50.48A3.46,3.46,0,1,1,27,47,3.46,3.46,0,0,1,30.43,50.48Z"/><path class="cls-1" d="M53.94,50.48A3.46,3.46,0,1,1,50.48,47,3.46,3.46,0,0,1,53.94,50.48Z"/><path class="cls-1" d="M77.45,50.48A3.46,3.46,0,1,1,74,47,3.46,3.46,0,0,1,77.45,50.48Z"/><path class="cls-1" d="M101,50.48A3.46,3.46,0,1,1,97.5,47,3.46,3.46,0,0,1,101,50.48Z"/><path class="cls-1" d="M124.47,50.48A3.46,3.46,0,1,1,121,47,3.46,3.46,0,0,1,124.47,50.48Z"/><path class="cls-1" d="M6.93,74a3.47,3.47,0,1,1-3.47-3.46A3.47,3.47,0,0,1,6.93,74Z"/><path class="cls-1" d="M30.43,74A3.46,3.46,0,1,1,27,70.53,3.46,3.46,0,0,1,30.43,74Z"/><path class="cls-1" d="M53.94,74a3.46,3.46,0,1,1-3.46-3.46A3.46,3.46,0,0,1,53.94,74Z"/><path class="cls-1" d="M77.45,74A3.46,3.46,0,1,1,74,70.53,3.46,3.46,0,0,1,77.45,74Z"/><path class="cls-1" d="M101,74a3.46,3.46,0,1,1-3.46-3.46A3.46,3.46,0,0,1,101,74Z"/><path class="cls-1" d="M124.47,74A3.46,3.46,0,1,1,121,70.53,3.46,3.46,0,0,1,124.47,74Z"/><path class="cls-1" d="M6.93,97.5A3.47,3.47,0,1,1,3.46,94,3.47,3.47,0,0,1,6.93,97.5Z"/><path class="cls-1" d="M30.43,97.5A3.46,3.46,0,1,1,27,94,3.46,3.46,0,0,1,30.43,97.5Z"/><path class="cls-1" d="M53.94,97.5A3.46,3.46,0,1,1,50.48,94,3.46,3.46,0,0,1,53.94,97.5Z"/><path class="cls-1" d="M77.45,97.5A3.46,3.46,0,1,1,74,94,3.46,3.46,0,0,1,77.45,97.5Z"/><path class="cls-1" d="M101,97.5A3.46,3.46,0,1,1,97.5,94,3.46,3.46,0,0,1,101,97.5Z"/><path class="cls-1" d="M124.47,97.5A3.46,3.46,0,1,1,121,94,3.46,3.46,0,0,1,124.47,97.5Z"/></g></g></svg>