<svg xmlns="http://www.w3.org/2000/svg" viewBox="0 0 1091 1091"><defs><style>.cls-1{fill:#005470;}</style></defs><title>youtubesvg_1</title><g id="Capa_2" data-name="Capa 2"><g id="Capa_1-2" data-name="Capa 1"><path class="cls-1" d="M811.2,384.34c-15.75-28-32.85-33.18-67.66-35.14-34.77-2.36-122.21-3.34-198-3.34s-163.37,1-198.11,3.31c-34.74,2-51.87,7.11-67.77,35.17-16.22,28-24.57,76.19-24.57,161.05v.29c0,84.5,8.35,133.07,24.57,160.76,15.9,28,33,33.11,67.73,35.47,34.78,2,122.25,3.23,198.15,3.23s163.2-1.2,198-3.2c34.81-2.36,51.9-7.44,67.66-35.46,16.37-27.69,24.64-76.26,24.64-160.76v-.29C835.88,460.53,827.61,412.32,811.2,384.34ZM472.9,654.39V436.61L654.39,545.5Z"/><path class="cls-1" d="M495.5,0h100c5,1.4,9.91,3.51,15,4.1C825,29,1009.28,184.39,1068.38,391.75c9.68,34,15.18,69.13,22.62,103.75v100c-1.4,5-3.5,10-4.11,15.06-26.11,221-187.58,406.67-402.94,462.29C654.85,1080.37,625,1085,595.5,1091h-100c-5-1.4-9.91-3.51-15-4.1C260.18,1061.39,73.79,899.34,18.16,684,10.64,654.89,6,625,0,595.5v-100c1.4-5,3.5-9.95,4.11-15.06C30.19,259.48,191.7,73.76,407.05,18.15,436.15,10.63,466,6,495.5,0Zm504.56,547.05c.64-249.53-202.94-455-451.88-456.11-250.61-1.09-456.61,203-457.24,453-.63,249.54,203,455,451.87,456.11C793.44,1001.15,999.43,797.06,1000.06,547.05Z"/></g></g></svg>